<svg xmlns="http://www.w3.org/2000/svg" width="28" height="28" viewBox="0 0 28 28">
  <g id="Group_477" data-name="Group 477" transform="translate(-1.25 -1.25)">
    <g id="Group_476" data-name="Group 476" transform="translate(1.25 1.25)">
      <path id="Path_112" data-name="Path 112" d="M9.831,12.413a3.581,3.581,0,1,1,3.581-3.581A3.579,3.579,0,0,1,9.831,12.413Zm0-5.209a1.628,1.628,0,1,0,1.628,1.628A1.628,1.628,0,0,0,9.831,7.2Z" transform="translate(0.262 -0.041)"/>
      <path id="Path_113" data-name="Path 113" d="M19.157,29.25H11.343C4.271,29.25,1.25,26.229,1.25,19.157V11.343C1.25,4.271,4.271,1.25,11.343,1.25h5.209a.977.977,0,0,1,0,1.953H11.343c-6,0-8.14,2.136-8.14,8.14v7.814c0,6,2.136,8.14,8.14,8.14h7.814c6,0,8.14-2.136,8.14-8.14V12.645a.977.977,0,1,1,1.953,0v6.512C29.25,26.229,26.229,29.25,19.157,29.25Z" transform="translate(-1.25 -1.25)"/>
      <path id="Path_114" data-name="Path 114" d="M18.227,11.016a.984.984,0,0,1-.977-.977V2.225a.965.965,0,0,1,.6-.9,1.01,1.01,0,0,1,1.068.208l2.6,2.6a.976.976,0,1,1-1.38,1.38L19.2,4.582v5.457A.984.984,0,0,1,18.227,11.016Z" transform="translate(3.587 -1.248)"/>
      <path id="Path_115" data-name="Path 115" d="M20.255,5.807a.966.966,0,0,1-.69-.287.982.982,0,0,1,0-1.38l2.6-2.6a.976.976,0,1,1,1.38,1.38l-2.6,2.6A.966.966,0,0,1,20.255,5.807ZM2.9,25.277a.978.978,0,0,1-.547-1.784l6.42-4.311a3.912,3.912,0,0,1,4.623.247l.43.378a1.919,1.919,0,0,0,2.4,0l5.418-4.649a3.889,3.889,0,0,1,4.949,0l2.123,1.823a.979.979,0,0,1-1.276,1.485l-2.123-1.823a1.919,1.919,0,0,0-2.4,0l-5.418,4.649a3.889,3.889,0,0,1-4.949,0l-.43-.378a1.937,1.937,0,0,0-2.253-.1L3.455,25.121a1.14,1.14,0,0,1-.56.156Z" transform="translate(-1.046 -1.249)"/>
    </g>
  </g>
</svg>
