<svg xmlns="http://www.w3.org/2000/svg" width="640.683" height="510" viewBox="0 0 640.683 510">
  <g id="Illustration" transform="translate(-0.005)">
    <g id="Moving_house_services" transform="translate(0.005)">
      <g id="Group_633" data-name="Group 633" transform="translate(0 162.794)">
        <g id="Group_626" data-name="Group 626" transform="translate(12.822 166.437)">
          <g id="Group_619" data-name="Group 619" transform="translate(0 138.692)">
            <g id="Group_616" data-name="Group 616" transform="translate(8.949)">
              <path id="Path_360" data-name="Path 360" d="M63.83,1328.322l1.424,13.649,9.166,1.081V1326.87Z" transform="translate(-63.056 -1326.104)" fill="#fff"/>
              <path id="Path_361" data-name="Path 361" d="M73,1342.419a.77.77,0,0,1-.092,0l-9.166-1.081a.774.774,0,0,1-.678-.685L61.643,1327a.773.773,0,0,1,.664-.844l10.59-1.452a.773.773,0,0,1,.876.766v16.182a.776.776,0,0,1-.258.576.765.765,0,0,1-.512.194Zm-8.463-2.547,7.69.908v-14.426l-8.972,1.229,1.282,12.289Z" transform="translate(-61.638 -1324.701)"/>
            </g>
            <g id="Group_618" data-name="Group 618" transform="translate(0 8.816)">
              <g id="Group_617" data-name="Group 617">
                <path id="Path_362" data-name="Path 362" d="M59.475,1382.954a63.7,63.7,0,0,1-17.446-.007,4.117,4.117,0,0,1-3.419-5.062c1.618-6.623,4.408-19.194,9.2-25.019l1.19,3.158,1.643-2.974a1.463,1.463,0,0,1,1.088-.742l3.6-.459A1.457,1.457,0,0,1,56.935,1353l.572,2.741,2.194-3.592.975,13.419a55.3,55.3,0,0,0,1.293,8.538l.982,4.232a4.111,4.111,0,0,1-3.472,4.617Z" transform="translate(-37.718 -1351.068)" fill="#fff"/>
                <path id="Path_363" data-name="Path 363" d="M49.394,1382.917a64.514,64.514,0,0,1-8.884-.611,4.891,4.891,0,0,1-4.066-6.008l.35-1.438c1.657-6.853,4.429-18.326,9-23.885a.76.76,0,0,1,.721-.272.775.775,0,0,1,.6.487l.6,1.593.834-1.512a2.244,2.244,0,0,1,1.667-1.134l3.6-.459a2.237,2.237,0,0,1,2.458,1.759l.173.834,1.18-1.929a.771.771,0,0,1,1.427.35l.975,13.419a54.6,54.6,0,0,0,1.275,8.417l.982,4.232a4.91,4.91,0,0,1-4.115,5.556,63.275,63.275,0,0,1-8.774.6Zm8.668-1.37h0Zm-11.9-28.5c-3.871,5.627-6.351,15.881-7.873,22.172l-.35,1.441a3.349,3.349,0,0,0,2.78,4.115,62.708,62.708,0,0,0,17.231.007,3.349,3.349,0,0,0,2.815-3.755l-.968-4.157a56.755,56.755,0,0,1-1.31-8.654l-.8-11.017-.94,1.54a.764.764,0,0,1-.791.357.777.777,0,0,1-.625-.6l-.572-2.741a.67.67,0,0,0-.752-.544l-3.6.459a.679.679,0,0,0-.509.35l-1.643,2.974a.773.773,0,0,1-1.4-.1l-.7-1.844Z" transform="translate(-36.305 -1349.661)"/>
              </g>
              <path id="Path_364" data-name="Path 364" d="M58.31,1427.621a35.913,35.913,0,0,1-8.057-.94.772.772,0,1,1,.346-1.5c8.866,2.035,14.867-.06,14.927-.081a.77.77,0,0,1,.523,1.448,24.494,24.494,0,0,1-7.739,1.07Z" transform="translate(-44.939 -1398.42)"/>
              <path id="Path_365" data-name="Path 365" d="M60.229,1399.3a.772.772,0,0,1-.025-1.544l8.591-.286a.772.772,0,1,1,.053,1.544l-8.591.286h-.025Z" transform="translate(-51.28 -1380.58)"/>
            </g>
          </g>
          <g id="Group_623" data-name="Group 623" transform="translate(50.375 132.87)">
            <g id="Group_620" data-name="Group 620" transform="translate(1.507)">
              <path id="Path_366" data-name="Path 366" d="M185.38,1310.41l1.374,19.915h11.028l.512-19.915Z" transform="translate(-184.605 -1309.636)" fill="#fff"/>
              <path id="Path_367" data-name="Path 367" d="M196.362,1329.679H185.331a.772.772,0,0,1-.77-.721l-1.374-19.915a.768.768,0,0,1,.77-.823h12.918a.772.772,0,0,1,.77.791l-.512,19.915A.773.773,0,0,1,196.362,1329.679Zm-10.307-1.544h9.558l.473-18.371h-11.3l1.268,18.371Z" transform="translate(-183.185 -1308.22)"/>
            </g>
            <g id="Group_622" data-name="Group 622" transform="translate(0 11.001)">
              <g id="Group_621" data-name="Group 621">
                <path id="Path_368" data-name="Path 368" d="M181.109,1361.693a4,4,0,0,0,3.073,3.963c6.34,1.487,20.625,4.793,24.7,5.4,5.288.791,11.787-.837,14.581-3.953s-6.256-10.547-10.551-13.253c-6.383-4.02-12.511-11.96-15.083-12.317s-7.368,7.149-7.368,7.149l-7.845-3.317a98.37,98.37,0,0,0-1.508,16.319Z" transform="translate(-180.335 -1340.761)" fill="#fff"/>
                <path id="Path_369" data-name="Path 369" d="M210.219,1370.633a19.265,19.265,0,0,1-2.868-.208c-4.143-.622-18.7-3.995-24.761-5.415a4.8,4.8,0,0,1-3.67-4.726,100.32,100.32,0,0,1,1.522-16.46.771.771,0,0,1,1.056-.558l7.248,3.066c1.353-2.031,5.161-7.3,7.768-6.952,1.537.212,3.642,2.225,6.559,5.012a60.334,60.334,0,0,0,8.827,7.418c3.479,2.19,10.844,8,11.4,11.992a2.913,2.913,0,0,1-.689,2.43c-2.4,2.677-7.481,4.408-12.4,4.408Zm-28.431-25.574a103.779,103.779,0,0,0-1.325,15.245,3.254,3.254,0,0,0,2.48,3.2c6.044,1.417,20.551,4.779,24.638,5.394,5.136.77,11.37-.894,13.893-3.705a1.364,1.364,0,0,0,.307-1.183c-.417-2.981-6.478-8.244-10.7-10.9a61.292,61.292,0,0,1-9.071-7.609c-2.292-2.19-4.663-4.454-5.7-4.6-1.282-.159-4.433,3.391-6.612,6.8a.772.772,0,0,1-.95.3l-6.955-2.939Zm-2.095,15.235h0Z" transform="translate(-178.919 -1339.363)"/>
              </g>
              <path id="Path_370" data-name="Path 370" d="M217.7,1400.087c-9.65,0-22.084-4.4-26.619-6.136a.771.771,0,1,1,.551-1.441c4.271,1.639,25.991,9.541,34.087,4.235a.771.771,0,0,1,.844,1.289c-2.257,1.48-5.38,2.052-8.866,2.052Z" transform="translate(-186.464 -1373.705)"/>
              <path id="Path_371" data-name="Path 371" d="M231.238,1372.367a.765.765,0,0,1-.551-.233.774.774,0,0,1,.011-1.092l4.571-4.475a.772.772,0,1,1,1.081,1.1l-4.571,4.475a.755.755,0,0,1-.54.219Z" transform="translate(-212.259 -1356.816)"/>
            </g>
          </g>
          <g id="Group_625" data-name="Group 625" transform="translate(0.287)">
            <g id="Group_624" data-name="Group 624">
              <path id="Path_372" data-name="Path 372" d="M44.825,937.3s-3.419,62.253-5.207,83.744,4.182,56.033,4.182,56.033l17.026-.9s1.166-42,2.43-53.666c0,0,7.192-15.811,9.322-29.915s9.392-36.376,9.392-36.376,5.9,111.179,6.464,119.911c0,0,13.352.6,18.138-2.434,0,0,8.481-40.54,7.262-62.6s.12-76.856.12-76.856l-69.134,3.052Z" transform="translate(-38.519 -933.47)" fill="#fff"/>
              <path id="Path_373" data-name="Path 373" d="M42.4,1076.437a.77.77,0,0,1-.759-.639c-.06-.346-5.966-34.888-4.189-56.231,1.766-21.233,5.171-83.1,5.207-83.723a.77.77,0,0,1,.735-.728l69.134-3.052a.742.742,0,0,1,.576.219.765.765,0,0,1,.23.569c-.014.547-1.325,55.023-.12,76.8,1.208,21.9-7.192,62.387-7.28,62.794a.773.773,0,0,1-.343.495c-4.935,3.126-18.029,2.579-18.587,2.55a.771.771,0,0,1-.735-.721c-.5-7.661-5.15-95.174-6.238-115.658-2.179,7.082-6.531,21.907-8.085,32.19-2.028,13.416-8.675,28.534-9.332,30-1.243,11.667-2.4,53.062-2.416,53.482a.77.77,0,0,1-.731.749l-17.026.9H42.4Zm1.759-139.808c-.381,6.92-3.5,63.037-5.171,83.069-1.621,19.5,3.246,50.229,4.062,55.164l15.627-.827c.162-5.585,1.254-42.289,2.416-53.013a.9.9,0,0,1,.064-.237c.071-.155,7.171-15.881,9.262-29.71,2.116-14,9.346-36.277,9.421-36.5a.772.772,0,0,1,1.5.2c.057,1.088,5.652,106.562,6.422,119.2,2.706.067,12.614.145,16.725-2.172.8-3.917,8.322-41.409,7.181-62.066-1.123-20.357-.06-69.138.1-76.093l-67.612,2.985Z" transform="translate(-37.117 -932.061)"/>
            </g>
            <path id="Path_374" data-name="Path 374" d="M87.343,1183.48h-5.2a.77.77,0,0,1,0-1.54h5.2a.77.77,0,0,1,0,1.54Z" transform="translate(-65.738 -1093.675)"/>
            <path id="Path_375" data-name="Path 375" d="M201.82,1221.515h-.014a.768.768,0,0,1-.756-.788c.187-10.343,11.427-28.82,11.907-29.6a.771.771,0,1,1,1.314.805c-.113.187-11.5,18.9-11.678,28.827a.771.771,0,0,1-.77.756Z" transform="translate(-143.144 -1099.375)"/>
          </g>
        </g>
        <g id="Group_630" data-name="Group 630" transform="translate(0 46.653)">
          <g id="Group_627" data-name="Group 627" transform="translate(81.118 6.811)">
            <path id="Path_376" data-name="Path 376" d="M249.006,631.963c.943-.074,8.792,13.394,12.48,19.827a3.715,3.715,0,0,0,5.178,1.321l28.848-17.81a18.951,18.951,0,0,0,5.9-5.719c2.409-3.67,3.843-7.4,7.068-10.01,2.625-2.123,5.281-4.479,6.076-5.094.5-.385,2.812,1.261,1.07,4.186-.537.9-2.536,2.72-3.084,3.546a3.725,3.725,0,0,0,.1,4.324,6.207,6.207,0,0,1,.738,6.429,9.148,9.148,0,0,1-7.82,5.729A4.462,4.462,0,0,0,302.7,640.2l-26.623,30.5a12.84,12.84,0,0,1-16.386,2.533c-8.658-5.288-19.8-15.941-27.827-29.41l17.153-11.861Z" transform="translate(-231.08 -613.649)" fill="#fff"/>
            <path id="Path_377" data-name="Path 377" d="M264.942,674.48a13.566,13.566,0,0,1-7.093-2c-7.905-4.829-19.438-15.161-28.089-29.671a.767.767,0,0,1,.226-1.028l17.153-11.865a.764.764,0,0,1,.378-.134c.7-.067,1.544-.124,13.211,20.212a2.947,2.947,0,0,0,1.837,1.4,2.911,2.911,0,0,0,2.268-.35l28.848-17.81a18.321,18.321,0,0,0,5.659-5.486c.692-1.056,1.314-2.133,1.911-3.176,1.5-2.61,2.925-5.079,5.316-7.012,1.512-1.222,3.006-2.5,4.207-3.525.855-.731,1.533-1.31,1.883-1.582a1.5,1.5,0,0,1,1.907.332c.964.855,1.621,2.639.3,4.86a14.978,14.978,0,0,1-1.78,2.081,16.355,16.355,0,0,0-1.325,1.494,2.936,2.936,0,0,0,.064,3.423,6.968,6.968,0,0,1,.848,7.185,9.9,9.9,0,0,1-8.453,6.213,3.707,3.707,0,0,0-2.37,1.25l-26.623,30.5a13.609,13.609,0,0,1-10.275,4.687ZM231.46,642.633c8.46,13.942,19.558,23.861,27.2,28.527a12.054,12.054,0,0,0,15.4-2.381l26.623-30.5a5.255,5.255,0,0,1,3.356-1.77,8.411,8.411,0,0,0,7.192-5.245,5.461,5.461,0,0,0-.629-5.673,4.474,4.474,0,0,1-.134-5.224,16.08,16.08,0,0,1,1.491-1.706,15.034,15.034,0,0,0,1.575-1.812,2.55,2.55,0,0,0,.385-2.381,1.44,1.44,0,0,0-.519-.639c-.36.293-.933.781-1.625,1.374-1.144.978-2.713,2.317-4.239,3.55-2.169,1.752-3.518,4.1-4.949,6.584-.611,1.06-1.243,2.158-1.96,3.253a19.872,19.872,0,0,1-6.139,5.952l-28.848,17.81a4.484,4.484,0,0,1-6.252-1.589c-7.114-12.405-10.7-17.983-11.83-19.262l-16.1,11.134Z" transform="translate(-229.652 -612.231)"/>
          </g>
          <path id="Path_378" data-name="Path 378" d="M.035,643.129S-1.883,607.665,24.927,597.7c20.759-7.715,47.273-4.387,55.581-1.5,20.456,7.1,30.526,34.125,30.526,34.125L87.06,633.7s7.227,77.658,4.09,94.98c0,0-19.293,2.264-27.478-.978s-35.09-7.789-47.951-1.84L18.06,642.8l-18.025.332Z" transform="translate(-0.005 -592.949)" fill="#bf4804"/>
          <path id="Path_379" data-name="Path 379" d="M93.278,870a.771.771,0,0,1-.134-1.529c30.523-5.429,39.442-26.687,39.53-26.9a.771.771,0,1,1,1.431.576c-.088.223-9.286,22.253-40.692,27.842a.892.892,0,0,1-.134.011Z" transform="translate(-59.832 -753.44)" fill="#fff"/>
          <g id="Group_628" data-name="Group 628" transform="translate(50.597 33.811)">
            <path id="Path_380" data-name="Path 380" d="M184.709,735.014H145.43l12.3-44.164h39.279Z" transform="translate(-144.659 -690.08)" fill="#fff"/>
            <path id="Path_381" data-name="Path 381" d="M183.3,734.378H144.018a.768.768,0,0,1-.742-.978l12.3-44.164a.767.767,0,0,1,.742-.565H195.6a.768.768,0,0,1,.742.978l-12.3,44.164a.767.767,0,0,1-.742.565Zm-38.265-1.544h37.675l11.872-42.621H156.9Z" transform="translate(-143.246 -688.67)"/>
          </g>
          <g id="Group_629" data-name="Group 629" transform="translate(3.912 48.659)">
            <path id="Path_382" data-name="Path 382" d="M13.26,733.664l17.273-.784s.131,14.641,1.688,14.9c5.553.933,17.181.978,24.747.06a6.1,6.1,0,0,0,5.217-4.977,8.752,8.752,0,0,1,4.147-5.987c2.614-1.621.035,3.476,2.483,6.757,1.314,1.763,5.472.982,11.144-.339s7.111,4.779.756,8.467c-6.892,4-11.268,3.55-13.465,4.016-4.377.933-43.08,7.036-49.053,3.769-4.617-2.526-4.935-25.885-4.935-25.885Z" transform="translate(-12.49 -732.111)" fill="#fff"/>
            <path id="Path_383" data-name="Path 383" d="M24.291,759.865c-3.667,0-6.51-.3-7.873-1.046-4.871-2.663-5.306-24.115-5.337-26.549a.772.772,0,0,1,.738-.781l17.273-.784a.734.734,0,0,1,.565.212.764.764,0,0,1,.24.555c.053,6.03.53,13.024,1.219,14.179,5.56.894,17.082.911,24.352.025a5.316,5.316,0,0,0,4.553-4.352,9.57,9.57,0,0,1,4.5-6.5,1.8,1.8,0,0,1,1.77-.279c.731.41.721,1.349.71,2.54-.011,1.385-.028,3.281,1.024,4.694,1.13,1.515,6.457.276,10.35-.632,2.639-.615,4.839.23,5.6,2.158.812,2.052-.18,5.344-4.285,7.725a27.45,27.45,0,0,1-12.063,3.889c-.643.067-1.2.124-1.628.215-2.19.466-27.845,4.737-41.709,4.737Zm-11.657-26.87c.184,8.912,1.533,22.836,4.521,24.472,5.464,2.985,42.25-2.511,48.523-3.847a17.42,17.42,0,0,1,1.794-.24,25.709,25.709,0,0,0,11.445-3.688c3.168-1.837,4.221-4.32,3.624-5.821-.473-1.194-1.936-1.66-3.818-1.222-5.977,1.392-10.332,2.211-11.939.049-1.363-1.83-1.342-4.115-1.332-5.627,0-.321.007-.721-.014-1l-.113.067a7.961,7.961,0,0,0-3.794,5.475,6.857,6.857,0,0,1-5.881,5.6c-7.6.922-19.265.894-24.97-.064-.59-.1-2.141-.36-2.324-14.857L12.631,733Z" transform="translate(-11.08 -730.703)"/>
          </g>
        </g>
        <g id="Group_632" data-name="Group 632" transform="translate(31.103)">
          <g id="Group_631" data-name="Group 631" transform="translate(8.298 13.979)">
            <path id="Path_384" data-name="Path 384" d="M137.735,538.424s-4.472-2.752-4.43-4.359l-1.275-8.258a1.751,1.751,0,0,1,1.155-1.685l5.288-1.816a1.611,1.611,0,0,0,1.063-1.625l-.413-6.563,2.073-1.837a.408.408,0,0,0,.046-.562l-3.274-3.991c-1.07-1.508-2.144-5.115-3.024-4.868,0,0-18.658-2.155-19.569,7.252a5.735,5.735,0,0,0,1.067,3.836l1.653,2.331a11.944,11.944,0,0,1,2.239,8.075c-.06.6-.837,4.43-1.356,6.966a6.1,6.1,0,0,1-2.254,3.614c-1.459,1.123-3.232,2.554-2.942,2.646a27.524,27.524,0,0,0,5.327,2.861,19.668,19.668,0,0,0,17.732-1.473l.887-.54Z" transform="translate(-112.973 -501.871)" fill="#fff"/>
            <path id="Path_385" data-name="Path 385" d="M125.053,541.237a20.094,20.094,0,0,1-7.654-1.5,27.952,27.952,0,0,1-5.489-2.956.877.877,0,0,1-.336-.519c-.088-.495-.131-.745,3.264-3.356a5.314,5.314,0,0,0,1.967-3.158c.809-3.96,1.3-6.468,1.342-6.888a11.136,11.136,0,0,0-2.1-7.549l-1.653-2.331a6.472,6.472,0,0,1-1.208-4.355,7,7,0,0,1,2.688-4.91c5.214-4.214,16.263-3.193,17.616-3.048,1.063-.145,1.727,1.268,2.547,3.027a15.523,15.523,0,0,0,1.137,2.172l3.243,3.946a1.174,1.174,0,0,1-.131,1.628l-1.791,1.586.389,6.189a2.393,2.393,0,0,1-1.575,2.4l-5.295,1.819a.97.97,0,0,0-.636.894l1.268,8.2a.9.9,0,0,1,.011.138c-.018.608,1.918,2.363,4.062,3.681a.769.769,0,0,1,0,1.314l-.887.54a20.7,20.7,0,0,1-10.774,3.034Zm-11.568-5.26a29.225,29.225,0,0,0,4.5,2.328,18.951,18.951,0,0,0,16.881-1.325c-1.5-1.035-3.712-2.8-3.755-4.278l-1.268-8.206-.011-.106a2.516,2.516,0,0,1,1.671-2.423l5.295-1.819a.838.838,0,0,0,.544-.848l-.413-6.563a.779.779,0,0,1,.258-.625l1.809-1.6-3.052-3.716a16.456,16.456,0,0,1-1.31-2.458,11.89,11.89,0,0,0-1.144-2.13.285.285,0,0,1-.057,0c-.117-.014-11.653-1.286-16.591,2.706a5.434,5.434,0,0,0-2.119,3.857,4.93,4.93,0,0,0,.929,3.313l1.653,2.331a12.675,12.675,0,0,1,2.377,8.6c-.049.491-.509,2.858-1.367,7.04a6.881,6.881,0,0,1-2.54,4.069c-1.229.947-1.911,1.515-2.292,1.854Z" transform="translate(-111.549 -500.45)"/>
          </g>
          <path id="Path_386" data-name="Path 386" d="M118.952,461.523c-4.253-.219,1.123,4.165-14.627-.364-6.273-1.8-3.052,5.556-4.68,5.094-6.012-1.71-5.807-1.66-8.732-.862-1.936.53-3.172,4.15-2.783,6.846.509,3.561,4.5,9.209,8.075,15.182,1.851,3.094,5.129,3.373,9.092-1.229.42-.491-1.734-3.377-.608-4.62,2.925-3.236,4.225,1.65,6.588.145a35.416,35.416,0,0,0,5.6-4.574c2.9-2.649,7.768,1.473,9.449-4.49.876-3.108-1.558-10.826-7.379-11.127Z" transform="translate(-88.058 -460.874)"/>
        </g>
      </g>
      <g id="Group_677" data-name="Group 677" transform="translate(111.76)">
        <g id="Group_646" data-name="Group 646" transform="translate(124.421)">
          <g id="Group_634" data-name="Group 634" transform="translate(199.653 156.936)">
            <rect id="Rectangle_113" data-name="Rectangle 113" width="186.586" height="212.125" transform="translate(0.77 0.77)" fill="#fff"/>
            <path id="Path_387" data-name="Path 387" d="M1421.217,657.959H1234.63a.77.77,0,0,1-.77-.77V445.06a.77.77,0,0,1,.77-.77h186.587a.77.77,0,0,1,.77.77V657.185a.77.77,0,0,1-.77.77ZM1235.4,656.415h185.043V445.83H1235.4Z" transform="translate(-1233.86 -444.29)"/>
          </g>
          <g id="Group_635" data-name="Group 635" transform="translate(88.802 113.436)">
            <path id="Path_388" data-name="Path 388" d="M1207.064,323.33H950.242L922.22,372.284h312.87Z" transform="translate(-921.449 -322.556)" fill="#fff"/>
            <path id="Path_389" data-name="Path 389" d="M1233.678,371.638H920.808a.77.77,0,0,1-.668-1.155l28.022-48.954a.772.772,0,0,1,.671-.389h256.823a.776.776,0,0,1,.671.389l28.025,48.954a.77.77,0,0,1-.668,1.155ZM922.14,370.094h310.206l-27.142-47.41H949.279l-27.139,47.41Z" transform="translate(-920.037 -321.14)"/>
          </g>
          <g id="Group_643" data-name="Group 643">
            <g id="Group_636" data-name="Group 636" transform="translate(34.19 92.963)">
              <rect id="Rectangle_114" data-name="Rectangle 114" width="200.271" height="276.098" transform="translate(0.767 0.77)" fill="#fff"/>
              <path id="Path_390" data-name="Path 390" d="M966.471,540.822H766.2a.77.77,0,0,1-.77-.77V263.95a.77.77,0,0,1,.77-.77H966.471a.77.77,0,0,1,.77.77v276.1a.77.77,0,0,1-.77.77Zm-199.5-1.544H965.7V264.72H766.97V539.275Z" transform="translate(-765.43 -263.18)"/>
            </g>
            <path id="Path_391" data-name="Path 391" d="M968.435,132.5H769.51L868.972,40.95Z" transform="translate(-733.879 -26.485)" fill="#fff"/>
            <path id="Path_392" data-name="Path 392" d="M845.359,14.465,942,103.426h15.715L845.359,0,733,103.426h15.715Z" transform="translate(-710.265)" fill="#bf4804"/>
            <g id="Group_637" data-name="Group 637" transform="translate(80.413 67.449)">
              <path id="Path_393" data-name="Path 393" d="M1004.876,250.158H897.06a.77.77,0,0,1-.77-.77v-9.714a48.78,48.78,0,0,1,48.724-48.724h11.911a48.78,48.78,0,0,1,48.724,48.724v9.714a.77.77,0,0,1-.77.77Zm-107.043-1.544h106.273v-8.944a47.235,47.235,0,0,0-47.181-47.181H945.014a47.235,47.235,0,0,0-47.181,47.181Z" transform="translate(-896.29 -190.95)"/>
              <path id="Path_394" data-name="Path 394" d="M1049.68,261.625a.77.77,0,0,1-.77-.77V220.11a.77.77,0,0,1,1.54,0v40.745A.77.77,0,0,1,1049.68,261.625Z" transform="translate(-995 -209.312)"/>
              <path id="Path_395" data-name="Path 395" d="M930.692,264.947a.756.756,0,0,1-.544-.226.774.774,0,0,1,0-1.091l31.872-31.872a.772.772,0,0,1,1.092,1.091l-31.872,31.872a.768.768,0,0,1-.544.226Z" transform="translate(-918.042 -217.198)"/>
              <path id="Path_396" data-name="Path 396" d="M1081.342,269.048a.756.756,0,0,1-.544-.226.774.774,0,0,1,0-1.091l21.063-21.063a.772.772,0,1,1,1.091,1.091l-21.063,21.063a.768.768,0,0,1-.544.226Z" transform="translate(-1015.478 -226.841)"/>
            </g>
            <g id="Group_638" data-name="Group 638" transform="translate(21.965 345.243)">
              <rect id="Rectangle_115" data-name="Rectangle 115" width="224.718" height="31.342" transform="translate(0.77 0.77)" fill="#fff"/>
              <path id="Path_397" data-name="Path 397" d="M956.308,1010.272H731.59a.77.77,0,0,1-.77-.77V978.16a.77.77,0,0,1,.77-.77H956.308a.77.77,0,0,1,.77.77V1009.5A.77.77,0,0,1,956.308,1010.272Zm-223.948-1.544H955.534v-29.8H732.36Z" transform="translate(-730.82 -977.39)"/>
            </g>
            <g id="Group_639" data-name="Group 639" transform="translate(45.666 216.148)">
              <path id="Path_398" data-name="Path 398" d="M816.242,742.555H798.69a.77.77,0,0,1-.77-.77V612.69a.77.77,0,0,1,.77-.77h17.552a.77.77,0,0,1,.77.77V741.785a.77.77,0,0,1-.77.77Zm-16.782-1.544h16.008V613.46H799.46Z" transform="translate(-797.92 -611.92)"/>
              <path id="Path_399" data-name="Path 399" d="M1268.532,742.555H1250.98a.77.77,0,0,1-.77-.77V612.69a.77.77,0,0,1,.77-.77h17.552a.77.77,0,0,1,.77.77V741.785a.769.769,0,0,1-.77.77Zm-16.778-1.544h16.008V613.46h-16.008Z" transform="translate(-1090.448 -611.92)"/>
            </g>
            <g id="Group_640" data-name="Group 640" transform="translate(83.423 236.508)">
              <path id="Path_400" data-name="Path 400" d="M951.337,779.835H905.58a.77.77,0,0,1-.77-.77V670.33a.77.77,0,0,1,.77-.77h45.757a.77.77,0,0,1,.77.77V779.065a.77.77,0,0,1-.77.77Zm-44.987-1.544h44.214V671.1H906.35Z" transform="translate(-904.81 -669.56)"/>
              <path id="Path_401" data-name="Path 401" d="M1110,779.835H1064.24a.77.77,0,0,1-.77-.77V670.33a.77.77,0,0,1,.77-.77H1110a.77.77,0,0,1,.77.77V779.065a.77.77,0,0,1-.77.77Zm-44.987-1.544h44.214V671.1H1065.01Z" transform="translate(-1007.427 -669.56)"/>
            </g>
            <path id="Path_402" data-name="Path 402" d="M976,1007.94H798.69a.77.77,0,0,1,0-1.54H976a.77.77,0,1,1,0,1.54Z" transform="translate(-752.254 -650.91)"/>
            <path id="Path_403" data-name="Path 403" d="M976,1038.37H798.69a.77.77,0,0,1,0-1.54H976a.77.77,0,1,1,0,1.54Z" transform="translate(-752.254 -670.591)"/>
            <g id="Group_641" data-name="Group 641" transform="translate(0 194.174)">
              <path id="Path_404" data-name="Path 404" d="M915.4,551.9H694.875L670.81,580.109H939.462Z" transform="translate(-670.043 -551.126)" fill="#fff"/>
              <path id="Path_405" data-name="Path 405" d="M938.058,579.466H669.409a.772.772,0,0,1-.586-1.272l24.062-28.212a.764.764,0,0,1,.586-.272H914a.764.764,0,0,1,.586.272l24.062,28.212a.772.772,0,0,1-.586,1.272ZM671.08,577.922h265.3l-22.745-26.669H693.828l-22.744,26.669Z" transform="translate(-668.638 -549.71)"/>
            </g>
            <g id="Group_642" data-name="Group 642" transform="translate(80.378 133.98)">
              <path id="Path_406" data-name="Path 406" d="M1004.727,425.185H896.96a.77.77,0,0,1-.77-.77V380.07a.77.77,0,0,1,.77-.77h107.767a.77.77,0,0,1,.77.77v44.344A.77.77,0,0,1,1004.727,425.185Zm-106.993-1.54h106.223v-42.8H897.734Z" transform="translate(-896.19 -379.3)"/>
              <path id="Path_407" data-name="Path 407" d="M957.372,427.816a.756.756,0,0,1-.544-.226.774.774,0,0,1,0-1.091l24.754-24.751a.772.772,0,0,1,1.091,1.091L957.919,427.59a.768.768,0,0,1-.544.226Z" transform="translate(-935.263 -393.673)"/>
              <path id="Path_408" data-name="Path 408" d="M1082.382,465.261a.756.756,0,0,1-.544-.226.774.774,0,0,1,0-1.091L1092,453.778a.772.772,0,0,1,1.092,1.091l-10.166,10.166a.768.768,0,0,1-.544.226Z" transform="translate(-1016.116 -427.324)"/>
            </g>
          </g>
          <g id="Group_644" data-name="Group 644" transform="translate(281.896 179.402)">
            <path id="Path_409" data-name="Path 409" d="M1546.446,576.12H1467.46a.77.77,0,0,1-.77-.77V508.66a.77.77,0,0,1,.77-.77h78.986a.77.77,0,0,1,.77.77v66.69A.77.77,0,0,1,1546.446,576.12Zm-78.216-1.544h77.442V509.43H1468.23Z" transform="translate(-1466.69 -507.89)"/>
            <path id="Path_410" data-name="Path 410" d="M1579.26,580.207a.77.77,0,0,1-.77-.77V527.41a.77.77,0,0,1,1.54,0v52.027A.77.77,0,0,1,1579.26,580.207Z" transform="translate(-1538.999 -520.017)"/>
            <path id="Path_411" data-name="Path 411" d="M1479.322,619.576a.756.756,0,0,1-.544-.226.774.774,0,0,1,0-1.091l31.367-31.37a.772.772,0,0,1,1.091,1.091l-31.367,31.37a.768.768,0,0,1-.544.226Z" transform="translate(-1474.362 -558.838)"/>
            <path id="Path_412" data-name="Path 412" d="M1493.372,552.289a.756.756,0,0,1-.544-.226.774.774,0,0,1,0-1.091l21.434-21.434a.772.772,0,0,1,1.092,1.091l-21.434,21.434a.768.768,0,0,1-.544.226Z" transform="translate(-1483.449 -521.745)"/>
            <path id="Path_413" data-name="Path 413" d="M1600.092,608.115a.756.756,0,0,1-.544-.226.774.774,0,0,1,0-1.091l20.71-20.71a.772.772,0,0,1,1.091,1.091l-20.71,20.71a.768.768,0,0,1-.544.226Z" transform="translate(-1552.473 -558.32)"/>
          </g>
          <g id="Group_645" data-name="Group 645" transform="translate(281.896 277.78)">
            <path id="Path_414" data-name="Path 414" d="M1546.446,854.63H1467.46a.77.77,0,0,1-.77-.77V787.17a.77.77,0,0,1,.77-.77h78.986a.77.77,0,0,1,.77.77v66.69A.77.77,0,0,1,1546.446,854.63Zm-78.216-1.544h77.442V787.94H1468.23Z" transform="translate(-1466.69 -786.4)"/>
            <path id="Path_415" data-name="Path 415" d="M1579.26,858.717a.77.77,0,0,1-.77-.77V805.92a.77.77,0,0,1,1.54,0v52.027A.769.769,0,0,1,1579.26,858.717Z" transform="translate(-1538.999 -798.527)"/>
            <path id="Path_416" data-name="Path 416" d="M1479.322,898.092a.756.756,0,0,1-.544-.226.774.774,0,0,1,0-1.092l31.367-31.367a.772.772,0,0,1,1.091,1.091l-31.367,31.367a.768.768,0,0,1-.544.226Z" transform="translate(-1474.362 -837.354)"/>
            <path id="Path_417" data-name="Path 417" d="M1493.372,830.8a.756.756,0,0,1-.544-.226.774.774,0,0,1,0-1.091l21.434-21.434a.772.772,0,0,1,1.092,1.091l-21.434,21.434a.768.768,0,0,1-.544.226Z" transform="translate(-1483.449 -800.255)"/>
            <path id="Path_418" data-name="Path 418" d="M1600.092,886.615a.756.756,0,0,1-.544-.226.774.774,0,0,1,0-1.091l20.71-20.71a.772.772,0,0,1,1.091,1.091l-20.71,20.71a.768.768,0,0,1-.544.226Z" transform="translate(-1552.473 -836.824)"/>
          </g>
        </g>
        <g id="Group_663" data-name="Group 663" transform="translate(53.797 253.6)">
          <g id="Group_656" data-name="Group 656">
            <path id="Path_419" data-name="Path 419" d="M1293.175,1182.2h-11.752c-4.8,0-8.693,11.529-8.693,25.606s3.893,25.613,8.693,25.613h11.752c4.8,0,8.693-11.529,8.693-25.609S1297.975,1182.2,1293.175,1182.2Z" transform="translate(-988.723 -1018.212)"/>
            <path id="Path_420" data-name="Path 420" d="M1191.995,1187.53h-11.752c-4.8,0-8.693,11.529-8.693,25.606s3.893,25.613,8.693,25.613h11.752c4.8,0,8.693-11.529,8.693-25.609S1196.8,1187.53,1191.995,1187.53Z" transform="translate(-923.283 -1021.659)"/>
            <path id="Path_421" data-name="Path 421" d="M845.217,1201.214H835.143c-4.115,0-7.453,9.816-7.453,21.883s3.338,21.886,7.453,21.886h10.074c4.115,0,7.453-9.82,7.453-21.886s-3.338-21.886-7.453-21.886Z" transform="translate(-700.884 -1030.507)"/>
            <g id="Group_647" data-name="Group 647" transform="translate(12.239 45.625)">
              <path id="Path_422" data-name="Path 422" d="M794.083,1005.492l-.29-156.212L505.53,877.987v114.2Z" transform="translate(-504.76 -848.514)" fill="#fff"/>
              <path id="Path_423" data-name="Path 423" d="M792.673,1004.864h-.035l-288.553-13.3a.77.77,0,0,1-.735-.77v-114.2a.771.771,0,0,1,.7-.766L792.31,847.115a.8.8,0,0,1,.594.194.765.765,0,0,1,.254.572l.29,156.216a.772.772,0,0,1-.77.774ZM504.89,990.049l287.01,13.232-.286-154.556-286.72,28.552V990.046Z" transform="translate(-503.35 -847.112)"/>
            </g>
            <g id="Group_648" data-name="Group 648">
              <path id="Path_424" data-name="Path 424" d="M1196.427,881.93H1074.92V720.13l121.507,7.527Z" transform="translate(-860.785 -719.359)" fill="#fff"/>
              <path id="Path_425" data-name="Path 425" d="M1195.015,881.289a.77.77,0,0,1-.77-.77V726.97l-120.783-7.481a.771.771,0,0,1-.724-.816.784.784,0,0,1,.816-.724l121.508,7.527a.773.773,0,0,1,.724.77V880.519A.77.77,0,0,1,1195.015,881.289Z" transform="translate(-859.373 -717.947)"/>
              <path id="Path_426" data-name="Path 426" d="M683.637,881.93V720.13l-213.7,14.327V878.08Z" transform="translate(-469.502 -719.359)"/>
              <path id="Path_427" data-name="Path 427" d="M682.835,880.975h-.014L469.459,877.45a.772.772,0,0,1-.759-.77V733.057a.772.772,0,0,1,.721-.77L682.782,717.96a.833.833,0,0,1,.579.2.772.772,0,0,1,.244.565V880.205a.766.766,0,0,1-.23.551.776.776,0,0,1-.54.223Zm-212.588-5.058,211.818,3.5V719.55L470.247,733.771V875.914Z" transform="translate(-468.7 -717.955)"/>
            </g>
            <g id="Group_650" data-name="Group 650" transform="translate(175.075 169.664)">
              <path id="Path_428" data-name="Path 428" d="M986.778,1200.96H975.135c-4.758,0-8.615,11.42-8.615,25.369s3.857,25.376,8.615,25.376h11.642c4.758,0,8.615-11.423,8.615-25.372S991.536,1200.96,986.778,1200.96Z" transform="translate(-965.75 -1200.01)"/>
              <g id="Group_649" data-name="Group 649">
                <ellipse id="Ellipse_26" data-name="Ellipse 26" cx="8.615" cy="25.252" rx="8.615" ry="25.252" transform="translate(0.77 0.774)" fill="#fff"/>
                <path id="Path_429" data-name="Path 429" d="M973.725,1250.322c-5.263,0-9.385-11.43-9.385-26.026s4.122-26.026,9.385-26.026,9.385,11.431,9.385,26.026S978.988,1250.322,973.725,1250.322Zm0-50.508c-3.787,0-7.842,9.838-7.842,24.482s4.055,24.482,7.842,24.482,7.842-9.837,7.842-24.482S977.512,1199.813,973.725,1199.813Z" transform="translate(-964.34 -1198.27)"/>
              </g>
              <path id="Path_430" data-name="Path 430" d="M985.368,1251.065H973.736c-5.885,0-9.4-13.292-9.4-26.146s3.511-26.139,9.385-26.139h11.642c5.874,0,9.385,13.292,9.385,26.143S991.242,1251.065,985.368,1251.065Zm-11.632-50.745c-3.723,0-7.856,10.1-7.856,24.6s4.133,24.6,7.842,24.6H985.35c3.723,0,7.856-10.1,7.856-24.6s-4.133-24.6-7.842-24.6H973.732Z" transform="translate(-964.34 -1198.6)"/>
            </g>
            <g id="Group_652" data-name="Group 652" transform="translate(212.326 169.89)">
              <path id="Path_431" data-name="Path 431" d="M1092.425,1201.61h-11.752c-4.8,0-8.693,11.529-8.693,25.606s3.893,25.613,8.693,25.613h11.752c4.8,0,8.693-11.529,8.693-25.609S1097.225,1201.61,1092.425,1201.61Z" transform="translate(-1071.21 -1200.656)"/>
              <g id="Group_651" data-name="Group 651">
                <ellipse id="Ellipse_27" data-name="Ellipse 27" cx="8.693" cy="25.489" rx="8.693" ry="25.489" transform="translate(0.774 0.777)" fill="#fff"/>
                <path id="Path_432" data-name="Path 432" d="M1079.266,1251.435c-5.309,0-9.467-11.536-9.467-26.263s4.157-26.263,9.467-26.263,9.467,11.536,9.467,26.263S1084.576,1251.435,1079.266,1251.435Zm0-50.978c-3.825,0-7.923,9.933-7.923,24.719s4.1,24.719,7.923,24.719,7.923-9.933,7.923-24.719S1083.092,1200.457,1079.266,1200.457Z" transform="translate(-1069.8 -1198.91)"/>
              </g>
              <path id="Path_433" data-name="Path 433" d="M1091.015,1252.188h-11.741c-5.934,0-9.474-13.416-9.474-26.383s3.539-26.376,9.467-26.376h11.752c5.927,0,9.467,13.412,9.467,26.379s-3.539,26.379-9.467,26.379Zm-11.738-51.218c-3.758,0-7.933,10.2-7.933,24.832s4.175,24.839,7.923,24.839H1091c3.762,0,7.937-10.2,7.937-24.839s-4.175-24.836-7.923-24.836h-11.738Z" transform="translate(-1069.8 -1199.246)"/>
            </g>
            <g id="Group_653" data-name="Group 653" transform="translate(28.509 170.78)">
              <path id="Path_434" data-name="Path 434" d="M568.467,1203.614h-9.7c-3.963,0-7.178,9.894-7.178,22.257s3.214,22.26,7.178,22.26h9.7c3.963,0,7.178-9.9,7.178-22.26s-3.214-22.261-7.178-22.261Z" transform="translate(-550.82 -1202.84)"/>
              <ellipse id="Ellipse_28" data-name="Ellipse 28" cx="7.178" cy="22.381" rx="7.178" ry="22.381" transform="translate(0.77 0.272)" fill="#fff"/>
              <path id="Path_435" data-name="Path 435" d="M560.254,1247.491h-2.889c-5.171,0-7.955-11.869-7.955-23.034s2.787-23.027,7.948-23.027h2.9a.77.77,0,0,1,0,1.54h-2.886c-3.038,0-6.415,8.824-6.415,21.484s3.377,21.49,6.4,21.49h2.9a.77.77,0,0,1,0,1.54Z" transform="translate(-549.41 -1201.43)"/>
            </g>
            <g id="Group_654" data-name="Group 654" transform="translate(46.877 171.06)">
              <path id="Path_436" data-name="Path 436" d="M620.487,1204.394h-9.7c-3.963,0-7.178,9.894-7.178,22.257s3.214,22.261,7.178,22.261h9.7c3.963,0,7.178-9.9,7.178-22.261s-3.214-22.26-7.178-22.26Z" transform="translate(-602.833 -1203.624)"/>
              <ellipse id="Ellipse_29" data-name="Ellipse 29" cx="7.178" cy="22.381" rx="7.178" ry="22.381" transform="translate(0.774 0.268)" fill="#fff"/>
              <path id="Path_437" data-name="Path 437" d="M612.968,1248.281h-3.6c-5.171,0-7.958-11.869-7.958-23.034s2.787-23.027,7.948-23.027h3.606a.77.77,0,0,1,0,1.54h-3.6c-3.038,0-6.415,8.824-6.415,21.483s3.377,21.49,6.4,21.49h3.607a.77.77,0,0,1,0,1.54Z" transform="translate(-601.41 -1202.22)"/>
            </g>
            <g id="Group_655" data-name="Group 655" transform="translate(65.408 170.007)">
              <path id="Path_438" data-name="Path 438" d="M673.574,1201.42H663.5c-4.115,0-7.453,10.579-7.453,23.585s3.338,23.592,7.453,23.592h10.071c4.115,0,7.453-10.583,7.453-23.589S677.689,1201.42,673.574,1201.42Z" transform="translate(-655.28 -1200.65)"/>
              <ellipse id="Ellipse_30" data-name="Ellipse 30" cx="7.453" cy="23.546" rx="7.453" ry="23.546" transform="translate(0.77 0.431)" fill="#fff"/>
              <path id="Path_439" data-name="Path 439" d="M672.164,1247.958H662.1c-5.351,0-8.23-12.554-8.23-24.362s2.882-24.355,8.223-24.355h10.074c5.341,0,8.223,12.55,8.223,24.359s-2.882,24.359-8.223,24.359Zm-10.06-47.174c-3.172,0-6.69,9.368-6.69,22.812s3.522,22.819,6.68,22.819h10.06c3.172,0,6.694-9.371,6.694-22.815s-3.522-22.815-6.68-22.815Z" transform="translate(-653.87 -1199.24)"/>
            </g>
          </g>
          <g id="Group_662" data-name="Group 662" transform="translate(222.93 17.646)">
            <g id="Group_657" data-name="Group 657" transform="translate(73.45 129.782)">
              <path id="Path_440" data-name="Path 440" d="M1309.93,1137.5l7.206,6.471,2.6,48.294h40.7v-54.63Z" transform="translate(-1309.163 -1136.73)" fill="#fff"/>
              <path id="Path_441" data-name="Path 441" d="M1359.026,1191.628h-40.692a.772.772,0,0,1-.77-.731l-2.582-47.976-6.969-6.256a.771.771,0,0,1,.516-1.346h0l50.5.131a.772.772,0,0,1,.77.77v54.634a.77.77,0,0,1-.77.77Zm-39.964-1.544h39.191v-53.09l-47.707-.124,5.7,5.118a.773.773,0,0,1,.254.533l2.561,47.566Z" transform="translate(-1307.757 -1135.32)"/>
            </g>
            <g id="Group_659" data-name="Group 659" transform="translate(94.701 142.484)">
              <path id="Path_442" data-name="Path 442" d="M1396.515,1174.7h-15.189c-6.206,0-11.236,14.79-11.236,32.985s5.03,32.992,11.236,32.992h15.189c6.206,0,11.236-14.8,11.236-32.988S1402.721,1174.7,1396.515,1174.7Z" transform="translate(-1369.323 -1173.492)"/>
              <g id="Group_658" data-name="Group 658">
                <ellipse id="Ellipse_31" data-name="Ellipse 31" cx="11.236" cy="32.942" rx="11.236" ry="32.942" transform="translate(0.77 0.774)" fill="#fff"/>
                <path id="Path_443" data-name="Path 443" d="M1379.926,1238.712c-6.733,0-12.006-14.811-12.006-33.716s5.274-33.716,12.006-33.716,12.006,14.811,12.006,33.716S1386.659,1238.712,1379.926,1238.712Zm0-65.884c-5.055,0-10.463,12.928-10.463,32.172s5.411,32.172,10.463,32.172,10.466-12.928,10.466-32.172S1384.981,1172.827,1379.926,1172.827Z" transform="translate(-1367.92 -1171.28)"/>
              </g>
            </g>
            <path id="Path_444" data-name="Path 444" d="M1616.248,941.77h1.607a3.435,3.435,0,0,1,3.433,3.433v17a2.764,2.764,0,0,1-2.762,2.762h-2.752a2.154,2.154,0,0,1-2.155-2.155V944.4A2.63,2.63,0,0,1,1616.248,941.77Z" transform="translate(-1432.131 -880.356)"/>
            <path id="Path_445" data-name="Path 445" d="M1669.485,1161.08H1654.3c-6.206,0-11.236,14.79-11.236,32.985s5.03,32.992,11.236,32.992h15.189c6.206,0,11.236-14.8,11.236-32.988S1675.691,1161.08,1669.485,1161.08Z" transform="translate(-1451.172 -1022.199)"/>
            <path id="Path_446" data-name="Path 446" d="M1102,914.191l77.566,1.162.3,38.919h6.016c-.109-5.065-.191-9.908-.191-13.356,0-20.752,9.717-37.577,21.706-37.577,7.828,0,14.687,7.178,18.506,17.933,15.125.745,38.294.374,60.706-.343,33.882-1.084,66.036-2.953,66.036-2.953.427-18.075-17.609-25.535-17.609-25.535s-1.748-14.744-4.309-17.3-43.412-17.054-43.412-17.054l-18.725-47.435a43.243,43.243,0,0,0-8.124-12.737c-8.446-9.138-24.694-20.36-54.1-21.748-4.507-.212-60.65-4.709-88.7-5.984a103.967,103.967,0,0,0-15.666.555Z" transform="translate(-1101.23 -769.315)" fill="#fff"/>
            <path id="Path_447" data-name="Path 447" d="M1777.679,1150.521a4.054,4.054,0,0,1-4.037-4.412l.283-3.168a10.9,10.9,0,0,1,4.009-7.5l1.212-.975a.772.772,0,0,1,1.039.064,26.09,26.09,0,0,1,7.34,14.553.762.762,0,0,1-.166.6.781.781,0,0,1-.551.283l-8.877.551C1777.845,1150.518,1777.761,1150.521,1777.679,1150.521Zm1.879-14.4-.657.53a9.354,9.354,0,0,0-3.437,6.436l-.282,3.168a2.509,2.509,0,0,0,2.656,2.723l8.025-.5A24.525,24.525,0,0,0,1779.559,1136.116Z" transform="translate(-1535.618 -1004.876)"/>
            <path id="Path_448" data-name="Path 448" d="M1268.011,877.551l-67.954-19.307L1184.568,808.9a43.833,43.833,0,0,0-9.555-16.665c-10.106-10.936-31.388-24.857-73.023-21.339V914.35l74.319.827.615,39.618h8.94c-.109-5.065-.187-10.268-.187-13.716,0-20.752,9.717-37.577,21.706-37.577,7.828,0,14.687,7.178,18.506,17.933,15.125.745,38.294.375,60.706-.343,2.179-.071,6.514-.219,6.514-.219l-14.723-34.214a16.074,16.074,0,0,0-10.378-9.113Z" transform="translate(-1101.224 -769.478)" fill="#fff"/>
            <path id="Path_449" data-name="Path 449" d="M1364.607,891.432a.758.758,0,0,1-.385-.1,15.333,15.333,0,0,0-3.5-1.484l-67.954-19.307a.767.767,0,0,1-.526-.512l-15.489-49.346a43.3,43.3,0,0,0-9.385-16.372,61.441,61.441,0,0,0-21.24-14.631.772.772,0,1,1,.607-1.42,62.891,62.891,0,0,1,21.766,15,44.9,44.9,0,0,1,9.724,16.959l15.362,48.951,67.555,19.191a16.888,16.888,0,0,1,3.85,1.632.773.773,0,0,1-.389,1.441Z" transform="translate(-1194.146 -781.028)"/>
            <path id="Path_450" data-name="Path 450" d="M1319.329,1160.11h-.028l-9.919-.36a.773.773,0,0,1-.745-.766l-.3-38.919a.786.786,0,0,1,.106-.4c5.772-9.781,24.359-29.307,43.165-32.331,25.609-4.119,51.734,8.877,75.552,37.591a.773.773,0,0,1-.569,1.265q-3.237.111-6.514.219c-27.245.872-47.693.985-60.773.343a.766.766,0,0,1-.689-.512c-3.871-10.908-10.516-17.421-17.778-17.421-11.544,0-20.932,16.51-20.932,36.8,0,3.239.071,8.361.184,13.7a.772.772,0,0,1-.77.788Zm-9.152-1.879,8.361.3c-.106-5.051-.17-9.83-.17-12.914,0-21.144,10.085-38.347,22.476-38.347,7.831,0,14.927,6.7,19.057,17.958,13.059.615,33.285.491,60.13-.367q2.474-.079,4.931-.166c-23.479-27.813-48.075-39.873-73.108-35.842-17.958,2.889-36.372,22.073-41.971,31.409l.29,37.965Zm41.561-70.134h0Z" transform="translate(-1234.685 -974.02)"/>
            <path id="Path_451" data-name="Path 451" d="M1292.462,959.787H1264.38a.77.77,0,0,1-.77-.77V924.86a.77.77,0,0,1,.77-.77h20.583a4.352,4.352,0,0,1,4.193,3.2c1.664,6.125,5.57,21.275,7.174,27.506a3.992,3.992,0,0,1-3.868,4.988Zm-27.312-1.544h27.308a2.45,2.45,0,0,0,2.374-3.062c-1.6-6.227-5.507-21.374-7.171-27.488h0a2.8,2.8,0,0,0-2.7-2.066h-19.813v32.617Z" transform="translate(-1205.755 -868.921)"/>
            <g id="Group_660" data-name="Group 660" transform="translate(173.383 102.347)">
              <path id="Path_452" data-name="Path 452" d="M1652.416,1085.672a43.088,43.088,0,0,0-.777-12.268c-.932-4.412-2.4-9.3-4.076-10.869-1.162-1.088-1.886-1.473-4.762-2.706h-39.834a9.413,9.413,0,0,0-7.637,3.91,13.24,13.24,0,0,0-1.957,11.5l4.345,14.673a6.05,6.05,0,0,0,5.8,4.331h41.971a6.757,6.757,0,0,0,6.736-6.224l.187-2.353Z" transform="translate(-1592.067 -1059.06)" fill="#fff"/>
              <path id="Path_453" data-name="Path 453" d="M1644.1,1093.609h-41.971a6.864,6.864,0,0,1-6.542-4.885l-4.345-14.673a14.1,14.1,0,0,1,2.07-12.172,10.211,10.211,0,0,1,8.262-4.228H1641.4a.757.757,0,0,1,.3.064c2.85,1.219,3.712,1.66,4.984,2.851,2.088,1.953,3.592,7.9,4.3,11.271a43.711,43.711,0,0,1,.791,12.487l-.187,2.353a7.567,7.567,0,0,1-7.506,6.934Zm-42.529-34.415a8.67,8.67,0,0,0-7.012,3.589,12.528,12.528,0,0,0-1.84,10.83l4.345,14.673a5.308,5.308,0,0,0,5.062,3.78h41.971a6.013,6.013,0,0,0,5.966-5.514l.187-2.353a42.3,42.3,0,0,0-.763-12.045c-1.13-5.355-2.568-9.269-3.847-10.466-1.035-.971-1.625-1.311-4.391-2.5h-39.678Zm49.452,25.069h0Z" transform="translate(-1590.67 -1057.65)"/>
            </g>
            <path id="Path_454" data-name="Path 454" d="M1259.933,920.01h4.048a4.724,4.724,0,0,1,4.723,4.723v14.68a3.8,3.8,0,0,1-3.8,3.8h-5.624a2.965,2.965,0,0,1-2.964-2.964V923.62a3.612,3.612,0,0,1,3.61-3.61Z" transform="translate(-1201.04 -866.282)"/>
            <path id="Path_455" data-name="Path 455" d="M1259.933,991.94h4.048a4.724,4.724,0,0,1,4.723,4.723v3.9a3.8,3.8,0,0,1-3.8,3.8h-5.624a2.965,2.965,0,0,1-2.964-2.964v-5.842a3.612,3.612,0,0,1,3.61-3.61Z" transform="translate(-1201.04 -912.804)"/>
            <g id="Group_661" data-name="Group 661" transform="translate(123.893 147.892)">
              <path id="Path_456" data-name="Path 456" d="M1470.086,1230.038l96.905-4.546a10.489,10.489,0,0,0,9.95-9.495l2.561-27.227-126.742,3.3,6.136,29.307A10.911,10.911,0,0,0,1470.086,1230.038Z" transform="translate(-1451.984 -1188)" fill="#fff"/>
              <path id="Path_457" data-name="Path 457" d="M1468.136,1229.412a11.632,11.632,0,0,1-11.42-9.29l-6.135-29.307a.77.77,0,0,1,.735-.929l126.742-3.3a.778.778,0,0,1,.583.244.766.766,0,0,1,.2.6l-2.564,27.227a11.312,11.312,0,0,1-10.682,10.191l-96.905,4.546c-.187.011-.374.014-.562.014Zm.53-.784h0Zm-16.383-37.223,5.945,28.4a10.1,10.1,0,0,0,10.4,8.05l96.905-4.546a9.764,9.764,0,0,0,9.219-8.8l2.48-26.362-124.948,3.25Z" transform="translate(-1450.564 -1186.59)"/>
            </g>
            <path id="Path_458" data-name="Path 458" d="M1468.135,1229.408a11.632,11.632,0,0,1-11.42-9.29l-6.135-29.307a.772.772,0,1,1,1.512-.318l6.136,29.307a10.1,10.1,0,0,0,10.4,8.05l96.905-4.546a9.764,9.764,0,0,0,9.219-8.8l2.564-27.227a.772.772,0,0,1,1.537.145l-2.564,27.227a11.311,11.311,0,0,1-10.682,10.191l-96.905,4.546c-.187.011-.375.014-.562.014Z" transform="translate(-1326.67 -1038.694)"/>
            <path id="Path_459" data-name="Path 459" d="M1368.118,912.661l8.213,27.972a5.533,5.533,0,0,0,5.146,3.974l66.121,1.936a3.37,3.37,0,0,0,3.207-4.67l-10.4-27.736a6.005,6.005,0,0,0-5.493-3.9l-63.776-1.4a2.985,2.985,0,0,0-3.02,3.822Z" transform="translate(-1273.265 -859.056)"/>
            <path id="Path_460" data-name="Path 460" d="M1530.2,1155.911H1502.76a8.289,8.289,0,0,1-8.28-8.28v-.141a7.648,7.648,0,0,1,7.64-7.64h2.642a29.433,29.433,0,0,1,15.927,4.67l10.816,6.938a2.419,2.419,0,0,1-1.307,4.454Zm-28.078-14.518a6.1,6.1,0,0,0-6.1,6.1v.141a6.746,6.746,0,0,0,6.736,6.736h27.442a.874.874,0,0,0,.47-1.611l-10.816-6.937a27.891,27.891,0,0,0-15.094-4.426Z" transform="translate(-1355.074 -1008.468)"/>
            <path id="Path_461" data-name="Path 461" d="M1184.468,953.635h-9.922a.769.769,0,0,1-.77-.767l-.29-38.163-72.907-1.151a.772.772,0,0,1-.759-.77V769.326a.773.773,0,0,1,.706-.77c.187-.014.445-.042.774-.074a101.25,101.25,0,0,1,14.995-.484c20.226.918,55.6,3.554,74.6,4.966,7.457.555,12.847.957,14.1,1.017,29.643,1.4,46.072,12.734,54.63,22a43.921,43.921,0,0,1,8.269,12.964l18.6,47.124c5.44,1.95,40.268,14.518,42.766,17.128,4.073,4.26,4.959,14.913,5.111,17.329,2.833,1.335,18.032,9.3,17.637,26.065a.773.773,0,0,1-.728.752c-.321.018-32.547,1.883-66.054,2.957-27.245.872-47.693.989-60.773.343a.767.767,0,0,1-.689-.512c-3.871-10.908-10.516-17.421-17.778-17.421-11.543,0-20.932,16.51-20.932,36.8,0,3.055.064,7.545.191,13.338a.772.772,0,0,1-.77.788Zm-9.156-1.544h8.368c-.116-5.426-.173-9.657-.173-12.582,0-21.144,10.085-38.347,22.476-38.347,7.831,0,14.927,6.7,19.057,17.958,13.059.615,33.285.491,60.13-.367,30.713-.982,60.346-2.632,65.294-2.914-.074-16.814-16.966-24.023-17.139-24.094a.777.777,0,0,1-.477-.678c0-.124-.6-12.508-4.712-16.8-1.745-1.826-26.372-11.084-42.5-16.863a.785.785,0,0,1-.459-.442l-18.725-47.435a42.323,42.323,0,0,0-7.972-12.5c-8.365-9.05-24.447-20.127-53.571-21.5-1.268-.06-6.39-.442-14.14-1.017-18.993-1.413-54.351-4.048-74.556-4.963a99.089,99.089,0,0,0-14.769.477.812.812,0,0,0-.092.011V912.028l72.9,1.152a.771.771,0,0,1,.76.766l.29,38.152Z" transform="translate(-1099.82 -767.905)"/>
            <path id="Path_462" data-name="Path 462" d="M1166.66,1095.072h-22.55a.77.77,0,0,1-.77-.77V1069a.77.77,0,0,1,.77-.77h22.55a.77.77,0,0,1,.77.77v25.3A.77.77,0,0,1,1166.66,1095.072Zm-21.78-1.544h21.007V1069.77H1144.88Z" transform="translate(-1127.967 -962.146)"/>
          </g>
        </g>
        <g id="Group_676" data-name="Group 676" transform="translate(0 350.605)">
          <g id="Group_667" data-name="Group 667" transform="translate(79.032 54.436)">
            <g id="Group_664" data-name="Group 664" transform="translate(0.201)">
              <path id="Path_463" data-name="Path 463" d="M542.89,1157.525l48.979,8.562,48.513-8.5a.075.075,0,0,0,0-.148l-49.067-8.59Z" transform="translate(-542.12 -1148.083)" fill="#fff"/>
              <path id="Path_464" data-name="Path 464" d="M590.462,1165.458a.857.857,0,0,1-.134-.011l-48.979-8.562a.771.771,0,0,1,0-1.519l48.424-8.675a.853.853,0,0,1,.268,0l49.067,8.59a.847.847,0,0,1,0,1.667l-48.516,8.5a.858.858,0,0,1-.134.011Zm-44.553-9.343,44.553,7.789,44.465-7.789-45.019-7.884Z" transform="translate(-540.71 -1146.68)"/>
            </g>
            <g id="Group_665" data-name="Group 665" transform="translate(0 8.643)">
              <path id="Path_465" data-name="Path 465" d="M591.493,1254.492V1181.85l-49.173-8.52v72.44Z" transform="translate(-541.55 -1172.559)" fill="#fff"/>
              <path id="Path_466" data-name="Path 466" d="M590.083,1253.854a.857.857,0,0,1-.134-.011l-49.173-8.721a.77.77,0,0,1-.636-.759v-72.444a.772.772,0,0,1,.9-.76l49.173,8.523a.77.77,0,0,1,.639.76v72.642a.771.771,0,0,1-.77.77Zm-48.4-10.141,47.629,8.446v-71.07l-47.629-8.255v70.879Z" transform="translate(-540.14 -1171.147)"/>
            </g>
            <g id="Group_666" data-name="Group 666" transform="translate(49.173 8.634)">
              <path id="Path_467" data-name="Path 467" d="M681.53,1254.472v-72.642l48.746-8.531v72.493Z" transform="translate(-680.76 -1172.531)" fill="#fff"/>
              <path id="Path_468" data-name="Path 468" d="M680.12,1253.837a.768.768,0,0,1-.495-.18.781.781,0,0,1-.276-.59v-72.642a.77.77,0,0,1,.639-.759l48.746-8.534a.772.772,0,0,1,.9.759v72.5a.773.773,0,0,1-.636.759l-48.746,8.679a.858.858,0,0,1-.134.011Zm.77-72.765v71.073l47.2-8.4V1172.81Z" transform="translate(-679.35 -1171.122)"/>
            </g>
          </g>
          <g id="Group_671" data-name="Group 671" transform="translate(76.019)">
            <g id="Group_668" data-name="Group 668" transform="translate(0.148)">
              <path id="Path_469" data-name="Path 469" d="M534.2,1001.282l36.916,6.453,36.5-6.4a.068.068,0,0,0,0-.134L570.7,994.74l-36.5,6.538Z" transform="translate(-533.433 -993.974)" fill="#fff"/>
              <path id="Path_470" data-name="Path 470" d="M569.72,1007.1a.858.858,0,0,1-.134-.011l-36.916-6.453a.771.771,0,0,1,0-1.519l36.5-6.538a.857.857,0,0,1,.268,0l36.923,6.464a.834.834,0,0,1,.692.823.844.844,0,0,1-.689.83l-36.51,6.4a.857.857,0,0,1-.134.011Zm-32.49-7.234,32.49,5.68,32.412-5.676L569.3,994.124l-32.07,5.747Zm68.859.7h0Z" transform="translate(-532.03 -992.57)"/>
            </g>
            <g id="Group_669" data-name="Group 669" transform="translate(0 6.516)">
              <path id="Path_471" data-name="Path 471" d="M570.844,1074.362v-54.747l-37.064-6.425v54.6Z" transform="translate(-533.014 -1012.423)" fill="#fff"/>
              <path id="Path_472" data-name="Path 472" d="M579.308,1028.161a.857.857,0,0,1-.134-.011l-9.368-1.66a.77.77,0,0,1-.636-.76v-7.022a.772.772,0,0,1,.9-.759l9.368,1.625a.77.77,0,0,1,.639.759v7.061a.771.771,0,0,1-.77.77Zm-8.6-3.08,7.824,1.388v-5.493l-7.824-1.356Z" transform="translate(-555.903 -1015.493)"/>
              <path id="Path_473" data-name="Path 473" d="M569.441,1073.731a.858.858,0,0,1-.134-.011l-37.061-6.574a.77.77,0,0,1-.636-.759v-54.6a.772.772,0,0,1,.9-.759l37.061,6.422a.77.77,0,0,1,.639.759v54.751a.771.771,0,0,1-.77.77Zm-36.291-7.994,35.517,6.3v-53.179L533.15,1012.7Z" transform="translate(-531.61 -1011.017)"/>
            </g>
            <g id="Group_670" data-name="Group 670" transform="translate(37.061 6.507)">
              <path id="Path_474" data-name="Path 474" d="M638.71,1074.349V1019.6l36.739-6.432v54.641Z" transform="translate(-637.94 -1012.401)" fill="#fff"/>
              <path id="Path_475" data-name="Path 475" d="M637.3,1073.714a.768.768,0,0,1-.495-.18.781.781,0,0,1-.276-.59v-54.751a.77.77,0,0,1,.639-.759L673.909,1011a.789.789,0,0,1,.629.17.78.78,0,0,1,.276.59V1066.4a.773.773,0,0,1-.636.76l-36.739,6.542a.858.858,0,0,1-.134.011Zm.77-54.874v53.182l35.2-6.266v-53.073l-35.2,6.16Z" transform="translate(-636.53 -1010.992)"/>
            </g>
          </g>
          <g id="Group_675" data-name="Group 675" transform="translate(0 47.061)">
            <g id="Group_672" data-name="Group 672" transform="translate(0.247)">
              <path id="Path_476" data-name="Path 476" d="M319.28,1138.656l60.356,10.551,59.872-10.491a.077.077,0,0,0,0-.152l-60.558-10.6-59.671,10.692Z" transform="translate(-318.51 -1127.197)" fill="#fff"/>
              <path id="Path_477" data-name="Path 477" d="M378.23,1148.583a.872.872,0,0,1-.134-.01l-60.356-10.551a.771.771,0,0,1,0-1.519l59.671-10.692a.854.854,0,0,1,.268,0l60.558,10.6a.849.849,0,0,1,0,1.671l-59.876,10.491a.857.857,0,0,1-.134.011Zm-55.93-11.335,55.93,9.777,55.831-9.781-56.517-9.894-55.245,9.9Z" transform="translate(-317.1 -1125.8)"/>
            </g>
            <g id="Group_673" data-name="Group 673" transform="translate(0 10.649)">
              <path id="Path_478" data-name="Path 478" d="M379.173,1258.147v-89.515l-60.593-10.5V1247.4Z" transform="translate(-317.81 -1157.359)" fill="#fff"/>
              <path id="Path_479" data-name="Path 479" d="M397.457,1181.151a.858.858,0,0,1-.134-.011l-13.2-2.338a.77.77,0,0,1-.636-.759v-9.894a.772.772,0,0,1,.9-.759l13.2,2.285a.77.77,0,0,1,.639.759v9.947a.771.771,0,0,1-.77.77Zm-12.423-3.758,11.653,2.066v-8.379l-11.653-2.021Z" transform="translate(-359.792 -1163.34)"/>
              <path id="Path_480" data-name="Path 480" d="M377.763,1257.505a.857.857,0,0,1-.134-.011l-60.593-10.749a.77.77,0,0,1-.636-.759v-89.268a.772.772,0,0,1,.9-.76l60.593,10.5a.77.77,0,0,1,.639.759v89.516a.771.771,0,0,1-.77.77Zm-59.819-12.165,59.049,10.473V1167.87l-59.049-10.233v87.7Z" transform="translate(-316.4 -1155.947)"/>
            </g>
            <g id="Group_674" data-name="Group 674" transform="translate(60.593 10.636)">
              <path id="Path_481" data-name="Path 481" d="M490.12,1258.121v-89.516l60.07-10.516v89.335Z" transform="translate(-489.35 -1157.321)" fill="#fff"/>
              <path id="Path_482" data-name="Path 482" d="M488.71,1257.482a.768.768,0,0,1-.495-.18.78.78,0,0,1-.276-.59V1167.2a.77.77,0,0,1,.639-.76l60.067-10.516a.788.788,0,0,1,.629.17.78.78,0,0,1,.276.59v89.335a.773.773,0,0,1-.636.759l-60.07,10.7a.857.857,0,0,1-.134.011Zm.774-89.636v87.947l58.523-10.42V1157.6Z" transform="translate(-487.94 -1155.912)"/>
            </g>
          </g>
        </g>
      </g>
    </g>
  </g>
</svg>
