<svg xmlns="http://www.w3.org/2000/svg" width="512.686" height="504.836" viewBox="0 0 512.686 504.836">
  <g id="Illustration" transform="translate(-320.78 -335)">
    <g id="Set_up_daily_schedule_1_" transform="translate(320.779 335)">
      <g id="Group_870" data-name="Group 870" transform="translate(176.629 9.819)">
        <g id="Group_866" data-name="Group 866" transform="translate(15.12 464.493)">
          <g id="Group_864" data-name="Group 864" transform="translate(24.539 1.421)">
            <path id="Path_799" data-name="Path 799" d="M1171.428,2072.994a190.776,190.776,0,0,1-33.606-2.96c-20.089-3.608-32.527-9.3-32.652-9.354a.617.617,0,0,1,.519-1.12c.121.055,12.45,5.688,32.4,9.266a190.544,190.544,0,0,0,80.1-2.9.619.619,0,1,1,.306,1.2A190.489,190.489,0,0,1,1171.428,2072.994Z" transform="translate(-1104.812 -2059.502)"/>
          </g>
          <g id="Group_865" data-name="Group 865">
            <path id="Path_800" data-name="Path 800" d="M1095.244,2079.049a155.607,155.607,0,0,1-17.131-.952c-16.367-1.818-40.409-7.216-61.993-22.624a.619.619,0,1,1,.72-1.007c40.886,29.184,91.276,22.729,91.781,22.66a.618.618,0,1,1,.166,1.225A111.849,111.849,0,0,1,1095.244,2079.049Z" transform="translate(-1015.861 -2054.351)"/>
          </g>
        </g>
        <g id="Group_869" data-name="Group 869">
          <g id="Group_867" data-name="Group 867" transform="translate(0 11.486)">
            <path id="Path_801" data-name="Path 801" d="M1119.265,433.526a.6.6,0,0,1-.359-.116c-.141-.1-14.326-10.044-40.66-15.838-24.307-5.346-64.227-8.144-116.386,8.888a.619.619,0,0,1-.386-1.175c52.459-17.129,92.639-14.3,117.108-8.9,26.552,5.851,40.895,15.92,41.035,16.02a.621.621,0,0,1,.146.863A.6.6,0,0,1,1119.265,433.526Z" transform="translate(-961.05 -412.229)"/>
          </g>
          <g id="Group_868" data-name="Group 868" transform="translate(20.107)">
            <path id="Path_802" data-name="Path 802" d="M1189.109,399.307a.606.606,0,0,1-.4-.152c-.127-.11-12.952-11.051-38.235-19.01C1127.13,372.8,1088.1,366.57,1034.69,378.6a.618.618,0,0,1-.273-1.206c53.719-12.1,93-5.81,116.5,1.6,25.5,8.039,38.47,19.12,38.6,19.231a.619.619,0,0,1-.406,1.087Z" transform="translate(-1033.936 -370.592)"/>
          </g>
        </g>
      </g>
      <g id="Group_919" data-name="Group 919" transform="translate(37.085 76.495)">
        <g id="Group_873" data-name="Group 873" transform="translate(410.013 0)">
          <g id="Group_871" data-name="Group 871" transform="translate(0.62 0.618)">
            <path id="Path_803" data-name="Path 803" d="M1980.437,614.53h-1.9L1943.73,988.608h4.113a17.661,17.661,0,0,0,17.253-15.871l29.829-342.34A14.314,14.314,0,0,0,1980.437,614.53Z" transform="translate(-1943.73 -614.53)" fill="#fff"/>
          </g>
          <g id="Group_872" data-name="Group 872">
            <path id="Path_804" data-name="Path 804" d="M1946.216,987.6H1942.1a.62.62,0,0,1-.618-.676l34.806-374.078a.618.618,0,0,1,.615-.56h1.9a14.935,14.935,0,0,1,15.1,16.541l-29.829,342.34A18.3,18.3,0,0,1,1946.216,987.6Zm-3.435-1.236h3.435a17.052,17.052,0,0,0,16.637-15.3l29.83-342.34a13.7,13.7,0,0,0-13.871-15.2h-1.338Z" transform="translate(-1941.483 -612.29)"/>
          </g>
        </g>
        <g id="Group_876" data-name="Group 876">
          <g id="Group_874" data-name="Group 874" transform="translate(0.617 0.618)">
            <path id="Path_805" data-name="Path 805" d="M896.433,614.53H504.592A17.661,17.661,0,0,0,487.339,630.4L457.509,972.737A14.316,14.316,0,0,0,472,988.608H863.839a17.662,17.662,0,0,0,17.253-15.871L910.921,630.4A14.315,14.315,0,0,0,896.433,614.53Z" transform="translate(-457.448 -614.53)" fill="#fff"/>
          </g>
          <g id="Group_875" data-name="Group 875">
            <path id="Path_806" data-name="Path 806" d="M862.219,987.6H470.377a14.935,14.935,0,0,1-15.1-16.541L485.1,628.723a18.31,18.31,0,0,1,17.868-16.433H894.812a14.936,14.936,0,0,1,15.1,16.544l-29.829,342.34A18.309,18.309,0,0,1,862.219,987.6ZM502.971,613.526a17.052,17.052,0,0,0-16.638,15.305l-29.827,342.34a13.7,13.7,0,0,0,13.873,15.2H862.221a17.052,17.052,0,0,0,16.638-15.305l29.83-342.34a13.7,13.7,0,0,0-13.873-15.2Z" transform="translate(-455.21 -612.29)"/>
          </g>
        </g>
        <g id="Group_883" data-name="Group 883" transform="translate(46.961 23.415)">
          <g id="Group_877" data-name="Group 877" transform="translate(0 40.078)">
            <path id="Path_807" data-name="Path 807" d="M1007.2,843.686H626.058a.618.618,0,0,1,0-1.236H1007.2a.618.618,0,0,1,0,1.236Z" transform="translate(-625.44 -842.45)"/>
          </g>
          <g id="Group_882" data-name="Group 882" transform="translate(43.201)">
            <g id="Group_878" data-name="Group 878" transform="translate(78.145 2.588)">
              <path id="Path_808" data-name="Path 808" d="M1065.932,1033.857a.4.4,0,0,1-.055,0,.619.619,0,0,1-.563-.67l28.412-326.069a.619.619,0,1,1,1.233.108l-28.411,326.069A.618.618,0,0,1,1065.932,1033.857Z" transform="translate(-1065.311 -706.549)"/>
            </g>
            <g id="Group_879" data-name="Group 879" transform="translate(160.822)">
              <path id="Path_809" data-name="Path 809" d="M1365.631,1024.477a.378.378,0,0,1-.055,0,.619.619,0,0,1-.563-.67l28.412-326.069a.619.619,0,0,1,1.233.108l-28.412,326.069A.618.618,0,0,1,1365.631,1024.477Z" transform="translate(-1365.011 -697.169)"/>
            </g>
            <g id="Group_880" data-name="Group 880" transform="translate(0 2.59)">
              <path id="Path_810" data-name="Path 810" d="M782.661,1033.865a.384.384,0,0,1-.055,0,.619.619,0,0,1-.563-.67l28.412-326.066a.619.619,0,1,1,1.233.108L783.277,1033.3A.618.618,0,0,1,782.661,1033.865Z" transform="translate(-782.041 -706.56)"/>
            </g>
            <g id="Group_881" data-name="Group 881" transform="translate(246.462 0.648)">
              <path id="Path_811" data-name="Path 811" d="M1676.071,1026.827a.363.363,0,0,1-.055,0,.619.619,0,0,1-.563-.67l28.412-326.069a.619.619,0,0,1,1.233.108l-28.412,326.069A.618.618,0,0,1,1676.071,1026.827Z" transform="translate(-1675.451 -699.519)"/>
            </g>
          </g>
        </g>
        <g id="Group_884" data-name="Group 884" transform="translate(128.611 28.287)">
          <path id="Path_812" data-name="Path 812" d="M977.056,741.639H922.034a.618.618,0,0,1-.618-.659l1.708-25.573a.619.619,0,0,1,.618-.577h55.022a.618.618,0,0,1,.618.659l-1.708,25.573A.618.618,0,0,1,977.056,741.639ZM922.7,740.4H976.48l1.625-24.334H924.321Z" transform="translate(-921.415 -714.83)"/>
        </g>
        <g id="Group_885" data-name="Group 885" transform="translate(207.423 28.287)">
          <path id="Path_813" data-name="Path 813" d="M1262.746,741.639h-55.021a.619.619,0,0,1-.618-.659l1.708-25.573a.619.619,0,0,1,.618-.577h55.024a.618.618,0,0,1,.618.659l-1.708,25.573A.623.623,0,0,1,1262.746,741.639Zm-54.362-1.236h53.783l1.625-24.334h-53.783Z" transform="translate(-1207.105 -714.83)"/>
        </g>
        <g id="Group_886" data-name="Group 886" transform="translate(52.389 28.287)">
          <path id="Path_814" data-name="Path 814" d="M700.756,741.639H645.734a.618.618,0,0,1-.618-.659l1.708-25.573a.619.619,0,0,1,.618-.577h55.022a.618.618,0,0,1,.618.659l-1.708,25.573A.619.619,0,0,1,700.756,741.639ZM646.4,740.4H700.18l1.625-24.334H648.021Z" transform="translate(-645.115 -714.83)"/>
        </g>
        <g id="Group_887" data-name="Group 887" transform="translate(375.509 28.287)">
          <path id="Path_815" data-name="Path 815" d="M1872.046,741.639h-55.022a.618.618,0,0,1-.618-.659l1.708-25.573a.618.618,0,0,1,.618-.577h55.022a.618.618,0,0,1,.618.659l-1.708,25.573A.619.619,0,0,1,1872.046,741.639Zm-54.359-1.236h53.783l1.625-24.334h-53.783Z" transform="translate(-1816.405 -714.83)"/>
        </g>
        <g id="Group_888" data-name="Group 888" transform="translate(292.914 27.857)">
          <path id="Path_816" data-name="Path 816" d="M1572.646,740.079h-55.022a.618.618,0,0,1-.618-.659l1.708-25.573a.618.618,0,0,1,.618-.577h55.021a.619.619,0,0,1,.618.659l-1.708,25.573A.62.62,0,0,1,1572.646,740.079Zm-54.359-1.236h53.783l1.625-24.334h-53.783Z" transform="translate(-1517.005 -713.27)"/>
        </g>
        <g id="Group_889" data-name="Group 889" transform="translate(258.242 255.05)">
          <path id="Path_817" data-name="Path 817" d="M1463.064,1632.227H1391.32l8.312-95.4h71.745Z" transform="translate(-1391.32 -1536.83)" fill="#fff"/>
        </g>
        <g id="Group_890" data-name="Group 890" transform="translate(181.388 179.507)">
          <path id="Path_818" data-name="Path 818" d="M1183.934,1359.626h-70.586a.609.609,0,0,1-.455-.2.615.615,0,0,1-.16-.472l8.177-95.4a.618.618,0,0,1,.615-.565h70.586a.609.609,0,0,1,.455.2.615.615,0,0,1,.16.472l-8.177,95.4A.615.615,0,0,1,1183.934,1359.626Zm-69.91-1.236h69.345l8.072-94.161H1122.1Z" transform="translate(-1112.73 -1262.99)"/>
        </g>
        <g id="Group_892" data-name="Group 892" transform="translate(35.151 75.957)">
          <g id="Group_891" data-name="Group 891">
            <path id="Path_819" data-name="Path 819" d="M647.409,947.5H582.63l4.855-59.871h64.779Z" transform="translate(-582.63 -887.63)" fill="#fff"/>
          </g>
        </g>
        <g id="Group_894" data-name="Group 894" transform="translate(363.154 76.28)">
          <g id="Group_893" data-name="Group 893">
            <path id="Path_820" data-name="Path 820" d="M1772.24,949.91a.3.3,0,0,1-.05,0,.618.618,0,0,1-.565-.668l4.855-59.871a.618.618,0,0,1,.615-.568h64.779a.619.619,0,0,1,.618.668l-2.582,31.852a.619.619,0,1,1-1.233-.1l2.53-31.184h-63.54l-4.808,59.3A.622.622,0,0,1,1772.24,949.91Z" transform="translate(-1771.622 -888.8)"/>
          </g>
        </g>
        <g id="Group_896" data-name="Group 896" transform="translate(348.981 238.534)">
          <g id="Group_895" data-name="Group 895">
            <path id="Path_821" data-name="Path 821" d="M1785.642,1538.067h-64.779a.619.619,0,0,1-.618-.668l4.855-59.871a.619.619,0,0,1,.615-.568h64.779a.619.619,0,0,1,.618.667l-4.855,59.871A.617.617,0,0,1,1785.642,1538.067Zm-64.109-1.239h63.54l4.756-58.633h-63.54Z" transform="translate(-1720.243 -1476.96)"/>
          </g>
        </g>
        <g id="Group_898" data-name="Group 898" transform="translate(277.879 75.414)">
          <g id="Group_897" data-name="Group 897">
            <path id="Path_822" data-name="Path 822" d="M1463.122,946.77a.354.354,0,0,1-.052,0,.62.62,0,0,1-.565-.668l4.99-59.871a.62.62,0,0,1,.615-.568H1534.7a.615.615,0,0,1,.455.2.623.623,0,0,1,.16.469l-.447,5.36a.619.619,0,0,1-1.233-.1l.392-4.69h-65.342l-4.944,59.3A.615.615,0,0,1,1463.122,946.77Z" transform="translate(-1462.502 -885.66)"/>
          </g>
        </g>
        <g id="Group_901" data-name="Group 901" transform="translate(195.203 76.065)">
          <g id="Group_900" data-name="Group 900">
            <g id="Group_899" data-name="Group 899">
              <path id="Path_823" data-name="Path 823" d="M1230,947.889H1162.81l5.035-59.869h67.187Z" transform="translate(-1162.81 -888.02)" fill="#fff"/>
            </g>
          </g>
        </g>
        <g id="Group_903" data-name="Group 903" transform="translate(21.862 205.099)">
          <g id="Group_902" data-name="Group 902">
            <path id="Path_824" data-name="Path 824" d="M602.265,1416.867H535.078a.615.615,0,0,1-.615-.67l5.037-59.871a.618.618,0,0,1,.615-.565h29.8a.618.618,0,0,1,0,1.236H540.681l-4.932,58.633h65.946l4.13-49.085a.619.619,0,1,1,1.233.1l-4.177,49.651A.619.619,0,0,1,602.265,1416.867Z" transform="translate(-534.46 -1355.76)"/>
          </g>
        </g>
        <g id="Group_906" data-name="Group 906" transform="translate(109.872 134.813)">
          <g id="Group_905" data-name="Group 905">
            <g id="Group_904" data-name="Group 904">
              <path id="Path_825" data-name="Path 825" d="M920.677,1160.851H853.49l5.035-59.871h67.187Z" transform="translate(-853.49 -1100.98)" fill="#fff"/>
            </g>
          </g>
        </g>
        <g id="Group_907" data-name="Group 907" transform="translate(264.846 254.429)">
          <path id="Path_826" data-name="Path 826" d="M1480.4,1631.216h-17.407a.618.618,0,1,1,0-1.236h16.842l8.2-94.162h-70.5l-1.04,11.945a.619.619,0,0,1-1.233-.108l1.09-12.511a.618.618,0,0,1,.615-.566h71.745a.608.608,0,0,1,.455.2.629.629,0,0,1,.16.472l-8.312,95.4A.616.616,0,0,1,1480.4,1631.216Z" transform="translate(-1415.261 -1534.58)"/>
        </g>
        <g id="Group_910" data-name="Group 910" transform="translate(34.531 75.339)">
          <g id="Group_908" data-name="Group 908" transform="translate(38.234)">
            <path id="Path_827" data-name="Path 827" d="M747.345,931.736a.3.3,0,0,1-.05,0,.619.619,0,0,1-.566-.668l3.6-44.439H719.6a.618.618,0,1,1,0-1.236H751a.619.619,0,0,1,.618.668l-3.658,45.11A.625.625,0,0,1,747.345,931.736Z" transform="translate(-718.98 -885.39)"/>
          </g>
          <g id="Group_909" data-name="Group 909">
            <path id="Path_828" data-name="Path 828" d="M611.781,946.5H581a.619.619,0,0,1-.618-.668l4.858-59.871a.619.619,0,0,1,.615-.568h12.524a.618.618,0,1,1,0,1.236H586.429l-4.756,58.633h30.108a.619.619,0,0,1,0,1.239Z" transform="translate(-580.383 -885.39)"/>
          </g>
        </g>
        <g id="Group_913" data-name="Group 913" transform="translate(194.585 75.444)">
          <g id="Group_912" data-name="Group 912">
            <g id="Group_911" data-name="Group 911">
              <path id="Path_829" data-name="Path 829" d="M1177.715,946.877h-16.527a.615.615,0,0,1-.615-.67l5.037-59.871a.618.618,0,0,1,.615-.566h41.81a.618.618,0,1,1,0,1.236h-41.242l-4.932,58.633h15.854a.619.619,0,0,1,0,1.239Z" transform="translate(-1160.57 -885.77)"/>
            </g>
          </g>
        </g>
        <g id="Group_918" data-name="Group 918" transform="translate(109.254 134.195)">
          <g id="Group_917" data-name="Group 917">
            <g id="Group_914" data-name="Group 914" transform="translate(2.958 0)">
              <path id="Path_830" data-name="Path 830" d="M862.592,1124.655a.328.328,0,0,1-.052,0,.62.62,0,0,1-.566-.668l2.075-24.679a.618.618,0,0,1,.615-.565h17.995a.618.618,0,1,1,0,1.236H865.235l-2.028,24.114A.618.618,0,0,1,862.592,1124.655Z" transform="translate(-861.972 -1098.74)"/>
            </g>
            <g id="Group_915" data-name="Group 915" transform="translate(0 42.316)">
              <path id="Path_831" data-name="Path 831" d="M901.706,1270.923H851.868a.615.615,0,0,1-.615-.671l1.476-17.553a.614.614,0,0,1,.668-.566.62.62,0,0,1,.565.668l-1.421,16.883h49.165a.619.619,0,0,1,0,1.239Z" transform="translate(-851.25 -1252.131)"/>
            </g>
            <g id="Group_916" data-name="Group 916" transform="translate(54.624)">
              <path id="Path_832" data-name="Path 832" d="M1065.586,1122.451a.316.316,0,0,1-.052,0,.62.62,0,0,1-.565-.667l1.834-21.8h-16.924a.618.618,0,1,1,0-1.236h17.6a.615.615,0,0,1,.615.67l-1.89,22.475A.618.618,0,0,1,1065.586,1122.451Z" transform="translate(-1049.26 -1098.74)"/>
            </g>
          </g>
        </g>
      </g>
      <g id="Group_976" data-name="Group 976" transform="translate(7.393 0)">
        <g id="Group_920" data-name="Group 920">
          <circle id="Ellipse_39" data-name="Ellipse 39" cx="69.472" cy="69.472" r="69.472"/>
        </g>
        <g id="Group_921" data-name="Group 921" transform="translate(6.742 6.853)">
          <circle id="Ellipse_40" data-name="Ellipse 40" cx="62.641" cy="62.641" r="62.641" fill="#fff"/>
        </g>
        <g id="Group_922" data-name="Group 922" transform="translate(118.612 93.948)">
          <path id="Path_833" data-name="Path 833" d="M778.158,685.244a.616.616,0,0,1-.51-.963,59.11,59.11,0,0,0,4.715-8.367.618.618,0,0,1,1.123.516,60.922,60.922,0,0,1-4.814,8.544A.619.619,0,0,1,778.158,685.244Z" transform="translate(-777.541 -675.554)"/>
        </g>
        <g id="Group_923" data-name="Group 923" transform="translate(95.002 14.824)">
          <path id="Path_834" data-name="Path 834" d="M725.778,452.887c-.03,0-.061,0-.091-.005a.62.62,0,0,1-.521-.7A59.476,59.476,0,0,0,692.3,389.912a.619.619,0,1,1,.541-1.115,60.631,60.631,0,0,1,34.208,54.58,61.658,61.658,0,0,1-.659,8.979A.624.624,0,0,1,725.778,452.887Z" transform="translate(-691.956 -388.736)"/>
        </g>
        <g id="Group_924" data-name="Group 924" transform="translate(53.943 8.852)">
          <path id="Path_835" data-name="Path 835" d="M543.737,370.186a.619.619,0,0,1-.152-1.219A61.369,61.369,0,0,1,572,368.555a.619.619,0,0,1-.27,1.208,60.173,60.173,0,0,0-27.841.4A.607.607,0,0,1,543.737,370.186Z" transform="translate(-543.119 -367.087)"/>
        </g>
        <g id="Group_925" data-name="Group 925" transform="translate(13.92 26.999)">
          <path id="Path_836" data-name="Path 836" d="M398.658,451.778a.609.609,0,0,1-.248-.052.62.62,0,0,1-.317-.817,60.57,60.57,0,0,1,12.053-17.851.618.618,0,1,1,.886.863,59.279,59.279,0,0,0-11.81,17.487A.611.611,0,0,1,398.658,451.778Z" transform="translate(-398.04 -432.87)"/>
        </g>
        <g id="Group_926" data-name="Group 926" transform="translate(23.241 107.843)">
          <path id="Path_837" data-name="Path 837" d="M445.987,738.9a.607.607,0,0,1-.331-.1,60.84,60.84,0,0,1-13.683-11.857.618.618,0,0,1,.941-.8,59.617,59.617,0,0,0,13.4,11.614.62.62,0,0,1-.331,1.142Z" transform="translate(-431.825 -725.922)"/>
        </g>
        <g id="Group_927" data-name="Group 927" transform="translate(69.4 15.953)">
          <path id="Path_838" data-name="Path 838" d="M649.521,428.022a53.538,53.538,0,0,0-50.3-35.192h-.072l.072,52.489Z" transform="translate(-599.15 -392.83)" fill="#bf4804"/>
        </g>
        <g id="Group_940" data-name="Group 940" transform="translate(11.789 11.832)">
          <g id="Group_930" data-name="Group 930" transform="translate(53.798)">
            <g id="Group_928" data-name="Group 928" transform="translate(0.618 0.618)">
              <circle id="Ellipse_41" data-name="Ellipse 41" cx="3.266" cy="3.266" r="3.266" fill="#fff"/>
            </g>
            <g id="Group_929" data-name="Group 929">
              <path id="Path_839" data-name="Path 839" d="M589.214,385.658a3.884,3.884,0,1,1,3.884-3.884A3.89,3.89,0,0,1,589.214,385.658Zm0-6.53a2.647,2.647,0,1,0,2.646,2.648A2.651,2.651,0,0,0,589.214,379.129Z" transform="translate(-585.33 -377.89)"/>
            </g>
          </g>
          <g id="Group_933" data-name="Group 933" transform="translate(53.798 107.508)">
            <g id="Group_931" data-name="Group 931" transform="translate(0.618 0.618)">
              <circle id="Ellipse_42" data-name="Ellipse 42" cx="3.266" cy="3.266" r="3.266" fill="#fff"/>
            </g>
            <g id="Group_932" data-name="Group 932">
              <path id="Path_840" data-name="Path 840" d="M589.214,775.368a3.884,3.884,0,1,1,3.884-3.884A3.89,3.89,0,0,1,589.214,775.368Zm0-6.533a2.646,2.646,0,1,0,2.646,2.646A2.65,2.65,0,0,0,589.214,768.836Z" transform="translate(-585.33 -767.6)"/>
            </g>
          </g>
          <g id="Group_936" data-name="Group 936" transform="translate(0 53.699)">
            <g id="Group_934" data-name="Group 934" transform="translate(0 0)">
              <circle id="Ellipse_43" data-name="Ellipse 43" cx="3.266" cy="3.266" r="3.266" transform="matrix(0.231, -0.973, 0.973, 0.231, 0, 6.356)" fill="#fff"/>
            </g>
            <g id="Group_935" data-name="Group 935" transform="translate(0.045 0.053)">
              <path id="Path_841" data-name="Path 841" d="M394.364,580.508a3.884,3.884,0,1,1,3.884-3.884A3.89,3.89,0,0,1,394.364,580.508Zm0-6.53a2.646,2.646,0,1,0,2.646,2.646A2.648,2.648,0,0,0,394.364,573.979Z" transform="translate(-390.48 -572.74)"/>
            </g>
          </g>
          <g id="Group_939" data-name="Group 939" transform="translate(107.504 53.697)">
            <g id="Group_937" data-name="Group 937" transform="translate(0 0)">
              <circle id="Ellipse_44" data-name="Ellipse 44" cx="3.266" cy="3.266" r="3.266" transform="matrix(0.231, -0.973, 0.973, 0.231, 0, 6.356)" fill="#fff"/>
            </g>
            <g id="Group_938" data-name="Group 938" transform="translate(0.047 0.055)">
              <path id="Path_842" data-name="Path 842" d="M784.064,580.508a3.884,3.884,0,1,1,3.884-3.884A3.89,3.89,0,0,1,784.064,580.508Zm0-6.53a2.646,2.646,0,1,0,2.646,2.646A2.648,2.648,0,0,0,784.064,573.979Z" transform="translate(-780.18 -572.74)"/>
            </g>
          </g>
        </g>
        <g id="Group_950" data-name="Group 950" transform="translate(20.565 20.56)">
          <g id="Group_943" data-name="Group 943" transform="translate(19.675)">
            <g id="Group_941" data-name="Group 941" transform="translate(0.618 0.62)">
              <path id="Path_843" data-name="Path 843" d="M498.927,412.646a1.737,1.737,0,1,1-2.372-.637A1.735,1.735,0,0,1,498.927,412.646Z" transform="translate(-495.684 -411.776)" fill="#fff"/>
            </g>
            <g id="Group_942" data-name="Group 942">
              <path id="Path_844" data-name="Path 844" d="M495.806,414.245a2.356,2.356,0,0,1-1.181-4.4,2.359,2.359,0,0,1,3.219.863h0a2.355,2.355,0,0,1-2.039,3.534Zm-.006-3.476a1.086,1.086,0,0,0-.557.152,1.116,1.116,0,1,0,.85-.113A1.2,1.2,0,0,0,495.8,410.769Z" transform="translate(-493.446 -409.53)"/>
            </g>
          </g>
          <g id="Group_946" data-name="Group 946" transform="translate(0 73.43)">
            <g id="Group_944" data-name="Group 944" transform="translate(0.617 0.619)">
              <path id="Path_845" data-name="Path 845" d="M425.23,678.188a1.737,1.737,0,1,1-.637,2.372A1.735,1.735,0,0,1,425.23,678.188Z" transform="translate(-424.361 -677.954)" fill="#fff"/>
            </g>
            <g id="Group_945" data-name="Group 945">
              <path id="Path_846" data-name="Path 846" d="M424.486,680.422a2.352,2.352,0,1,1,1.175-.314A2.357,2.357,0,0,1,424.486,680.422Zm-.005-3.473a1.134,1.134,0,0,0-.557.149,1.121,1.121,0,1,0,.557-.149Z" transform="translate(-422.126 -675.71)"/>
            </g>
          </g>
          <g id="Group_949" data-name="Group 949" transform="translate(93.099 19.678)">
            <g id="Group_947" data-name="Group 947" transform="translate(0.621 0.616)">
              <path id="Path_847" data-name="Path 847" d="M762.726,483.328a1.737,1.737,0,1,1-.637,2.372A1.735,1.735,0,0,1,762.726,483.328Z" transform="translate(-761.856 -483.094)" fill="#fff"/>
            </g>
            <g id="Group_948" data-name="Group 948">
              <path id="Path_848" data-name="Path 848" d="M761.968,485.572a2.479,2.479,0,0,1-.615-.08,2.376,2.376,0,1,1,.615.08Zm-.006-3.476a1.086,1.086,0,0,0-.557.152h0a1.114,1.114,0,1,0,.847-.113A1.146,1.146,0,0,0,761.962,482.1Zm-.866-.383h0Z" transform="translate(-759.605 -480.86)"/>
            </g>
          </g>
        </g>
        <g id="Group_966" data-name="Group 966" transform="translate(20.563 20.562)">
          <g id="Group_953" data-name="Group 953" transform="translate(0 19.677)">
            <g id="Group_951" data-name="Group 951" transform="translate(0.621 0.617)">
              <path id="Path_849" data-name="Path 849" d="M426.975,483.332a1.737,1.737,0,1,1-2.372.637A1.74,1.74,0,0,1,426.975,483.332Z" transform="translate(-424.371 -483.101)" fill="#fff"/>
            </g>
            <g id="Group_952" data-name="Group 952">
              <path id="Path_850" data-name="Path 850" d="M424.473,485.574a2.356,2.356,0,1,1,1.181-4.395,2.355,2.355,0,0,1-1.181,4.395Zm.006-3.476a1.121,1.121,0,0,0-.971.56,1.12,1.12,0,0,0,.411,1.528,1.119,1.119,0,0,0,1.528-.411,1.12,1.12,0,0,0-.411-1.528h0A1.126,1.126,0,0,0,424.479,482.1Z" transform="translate(-422.12 -480.863)"/>
            </g>
          </g>
          <g id="Group_956" data-name="Group 956" transform="translate(93.101 73.43)">
            <g id="Group_954" data-name="Group 954" transform="translate(0.625 0.618)">
              <path id="Path_851" data-name="Path 851" d="M764.475,678.188a1.737,1.737,0,1,1-2.372.637A1.74,1.74,0,0,1,764.475,678.188Z" transform="translate(-761.871 -677.954)" fill="#fff"/>
            </g>
            <g id="Group_955" data-name="Group 955">
              <path id="Path_852" data-name="Path 852" d="M761.959,680.428a2.356,2.356,0,1,1,.61-.08A2.39,2.39,0,0,1,761.959,680.428Zm.006-3.479a1.184,1.184,0,0,0-.292.039,1.1,1.1,0,0,0-.679.521,1.116,1.116,0,0,0-.113.85,1.1,1.1,0,0,0,.521.679,1.115,1.115,0,0,0,.85.113,1.1,1.1,0,0,0,.679-.521,1.116,1.116,0,0,0,.113-.85,1.124,1.124,0,0,0-1.079-.83Z" transform="translate(-759.605 -675.715)"/>
            </g>
          </g>
          <g id="Group_959" data-name="Group 959" transform="translate(19.675 93.105)">
            <g id="Group_957" data-name="Group 957" transform="translate(0.619 0.617)">
              <path id="Path_853" data-name="Path 853" d="M495.918,750.14a1.737,1.737,0,1,1,.637,2.372A1.74,1.74,0,0,1,495.918,750.14Z" transform="translate(-495.684 -749.271)" fill="#fff"/>
            </g>
            <g id="Group_958" data-name="Group 958">
              <path id="Path_854" data-name="Path 854" d="M495.793,751.744a2.355,2.355,0,0,1-2.039-3.534h0a2.358,2.358,0,0,1,3.219-.861,2.359,2.359,0,0,1,.863,3.219A2.36,2.36,0,0,1,495.793,751.744Zm-.966-2.916a1.119,1.119,0,1,0,1.939,1.117,1.12,1.12,0,0,0-.411-1.528A1.125,1.125,0,0,0,494.828,748.828Z" transform="translate(-493.44 -747.033)"/>
            </g>
          </g>
          <g id="Group_962" data-name="Group 962" transform="translate(73.426)">
            <g id="Group_960" data-name="Group 960" transform="translate(0.621 0.62)">
              <path id="Path_855" data-name="Path 855" d="M690.768,412.65a1.737,1.737,0,1,1,.637,2.372A1.74,1.74,0,0,1,690.768,412.65Z" transform="translate(-690.534 -411.781)" fill="#fff"/>
            </g>
            <g id="Group_961" data-name="Group 961">
              <path id="Path_856" data-name="Path 856" d="M690.639,414.248a2.362,2.362,0,0,1-1.175-.315,2.354,2.354,0,1,1,1.175.315Zm.005-3.476a1.182,1.182,0,0,0-.292.039,1.1,1.1,0,0,0-.679.521,1.116,1.116,0,0,0-.113.85,1.1,1.1,0,0,0,.521.679,1.118,1.118,0,1,0,1.117-1.937A1.061,1.061,0,0,0,690.645,410.772Zm-1.506.251h0Z" transform="translate(-688.285 -409.535)"/>
            </g>
          </g>
          <g id="Group_965" data-name="Group 965" transform="translate(73.426 93.913)">
            <g id="Group_963" data-name="Group 963" transform="translate(0.621 0.62)">
              <path id="Path_857" data-name="Path 857" d="M690.768,753.08a1.737,1.737,0,1,1,.637,2.372A1.74,1.74,0,0,1,690.768,753.08Z" transform="translate(-690.534 -752.211)" fill="#fff"/>
            </g>
            <g id="Group_964" data-name="Group 964">
              <path id="Path_858" data-name="Path 858" d="M690.639,754.678a2.362,2.362,0,0,1-1.175-.315,2.354,2.354,0,1,1,1.175.315Zm.005-3.476a1.185,1.185,0,0,0-.292.039,1.1,1.1,0,0,0-.679.521,1.116,1.116,0,0,0-.113.85,1.1,1.1,0,0,0,.521.679,1.116,1.116,0,0,0,.85.113,1.1,1.1,0,0,0,.679-.521,1.116,1.116,0,0,0,.113-.85,1.125,1.125,0,0,0-1.079-.83Zm-1.506.251h0Z" transform="translate(-688.285 -749.965)"/>
            </g>
          </g>
        </g>
        <g id="Group_969" data-name="Group 969" transform="translate(67.986 50.138)">
          <g id="Group_967" data-name="Group 967" transform="translate(0.629 0.62)">
            <path id="Path_859" data-name="Path 859" d="M617.726,534.6c-15.7,5.443-20.64,5.31-21.344,3.283s3.1-5.186,18.8-10.629c11.225-3.89,25.854-6.858,33.283-8.235,1.134-.21,1.526.913.5,1.451C642.281,523.994,628.951,530.714,617.726,534.6Z" transform="translate(-596.303 -518.997)" fill="#fff"/>
          </g>
          <g id="Group_968" data-name="Group 968">
            <path id="Path_860" data-name="Path 860" d="M597.8,538.156c-2.524,0-3.344-.794-3.655-1.7-.687-1.981.872-5.07,19.178-11.415,11.2-3.881,25.716-6.839,33.374-8.259a1.38,1.38,0,1,1,.9,2.607c-6.891,3.625-20.127,10.282-31.327,14.166C606.3,537.016,600.831,538.156,597.8,538.156Zm49.278-20.166a.9.9,0,0,0-.157.017c-7.622,1.412-22.075,4.356-33.2,8.21-16.955,5.876-18.817,8.687-18.417,9.84s3.6,2.21,20.555-3.666c11.123-3.854,24.3-10.483,31.156-14.091.21-.11.265-.229.259-.257S647.212,517.99,647.083,517.99Z" transform="translate(-594.023 -516.748)"/>
          </g>
        </g>
        <g id="Group_972" data-name="Group 972" transform="translate(64.434 29.936)">
          <g id="Group_970" data-name="Group 970" transform="translate(0.621 0.616)">
            <path id="Path_861" data-name="Path 861" d="M593.275,467.827c.367,10.563-1.735,13.578-4.455,13.672s-5.029-2.767-5.4-13.33c-.262-7.55,1.928-17.04,3.2-21.84.193-.734,1.7-.786,1.948-.069C590.168,450.96,593.013,460.276,593.275,467.827Z" transform="translate(-583.402 -445.749)" fill="#fff"/>
          </g>
          <g id="Group_971" data-name="Group 971">
            <path id="Path_862" data-name="Path 862" d="M587.056,480.5c-1.7,0-3.054-1.015-4.008-3.023-1.087-2.281-1.7-5.848-1.876-10.905-.265-7.586,1.9-17.051,3.219-22.02a1.739,1.739,0,0,1,3.131-.108c1.658,4.864,4.477,14.157,4.739,21.744.176,5.057-.188,8.657-1.112,11.01-.836,2.13-2.163,3.241-3.939,3.3ZM586,444.752h-.033a.568.568,0,0,0-.381.124c-1.3,4.9-3.435,14.226-3.175,21.656.168,4.817.759,8.32,1.754,10.417.761,1.6,1.744,2.356,3,2.315s2.182-.866,2.833-2.519c.85-2.16,1.194-5.7,1.029-10.513-.256-7.426-3.04-16.588-4.673-21.388A.561.561,0,0,0,586,444.752Z" transform="translate(-581.15 -443.515)"/>
          </g>
        </g>
        <g id="Group_975" data-name="Group 975" transform="translate(61.036 60.04)">
          <g id="Group_973" data-name="Group 973" transform="translate(0 0)">
            <circle id="Ellipse_45" data-name="Ellipse 45" cx="6.921" cy="6.921" r="6.921" transform="translate(0 5.19) rotate(-22.02)" fill="#fff"/>
          </g>
          <g id="Group_974" data-name="Group 974" transform="translate(1.486 1.473)">
            <path id="Path_863" data-name="Path 863" d="M581.759,573.059a7.539,7.539,0,1,1,7.539-7.539A7.548,7.548,0,0,1,581.759,573.059Zm0-13.843a6.3,6.3,0,1,0,6.3,6.3A6.311,6.311,0,0,0,581.759,559.216Z" transform="translate(-574.22 -557.98)"/>
          </g>
        </g>
      </g>
      <g id="Group_1016" data-name="Group 1016" transform="translate(0 279.886)">
        <g id="Group_1001" data-name="Group 1001" transform="translate(0 126.692)">
          <g id="Group_979" data-name="Group 979">
            <g id="Group_977" data-name="Group 977" transform="translate(0.615 0.62)">
              <path id="Path_864" data-name="Path 864" d="M338.818,1860.478c-25.647-23.642-12.373-38.889-12.373-38.889s11.457-18.56,51.664,5.7,79.124,15.244,87.924,11.606,39.554-26.5,56.884-27.785c9.641-.714,21.184,6.535,11.059,26.133-20.938,40.528-77.8,45.151-77.8,45.151s-27.565,5.178-55.882.163C400.294,1882.561,364.468,1884.12,338.818,1860.478Z" transform="translate(-323.011 -1811.067)" fill="#fff"/>
            </g>
            <g id="Group_978" data-name="Group 978">
              <path id="Path_865" data-name="Path 865" d="M425.14,1883.725a153.683,153.683,0,0,1-26.505-2.171c-1.812.055-36.85.8-61.849-22.249-13.418-12.367-16.108-22.475-16-28.776a18.016,18.016,0,0,1,3.55-10.938c.334-.516,3.385-4.907,11.128-6.485,10.629-2.166,24.541,1.881,41.352,12.028a110.394,110.394,0,0,0,55.433,16.177c15.628.315,27.427-2.75,31.937-4.612,2.615-1.081,7.4-4.008,12.935-7.4,13.462-8.24,31.9-19.526,44.139-20.433,4.48-.331,10.4,1.024,13.573,5.826,2.315,3.5,3.859,10.022-1.917,21.206-10.908,21.112-31.628,32.356-47.088,38.07a132.542,132.542,0,0,1-31.181,7.412A179.85,179.85,0,0,1,425.14,1883.725Zm-26.461-3.412a.71.71,0,0,1,.108.008c27.874,4.938,55.386-.11,55.662-.16l.063-.008a130.738,130.738,0,0,0,30.916-7.352c15.244-5.639,35.667-16.718,46.387-37.466,5.5-10.651,4.116-16.731,1.984-19.956-2.88-4.356-8.315-5.578-12.45-5.277-11.942.885-30.229,12.08-43.584,20.254-5.813,3.559-10.4,6.37-13.109,7.487-4.6,1.9-16.607,5.029-32.434,4.706a111.638,111.638,0,0,1-56.048-16.356c-20.513-12.381-33.264-13.3-40.348-11.9-7.592,1.506-10.444,5.948-10.472,5.992a.845.845,0,0,1-.058.08,16.991,16.991,0,0,0-3.283,10.273c-.074,6.031,2.571,15.744,15.606,27.758,25.156,23.189,60.674,21.934,61.03,21.92A.115.115,0,0,1,398.679,1880.313Z" transform="translate(-320.779 -1808.819)"/>
            </g>
          </g>
          <g id="Group_988" data-name="Group 988" transform="translate(79.394 54.257)">
            <g id="Group_982" data-name="Group 982">
              <g id="Group_980" data-name="Group 980" transform="translate(0.616 0.616)">
                <path id="Path_866" data-name="Path 866" d="M613.781,2007.73l9.082,5.081-4.533,9.424-7.52-4.814Z" transform="translate(-610.81 -2007.73)" fill="#fff"/>
              </g>
              <g id="Group_981" data-name="Group 981">
                <path id="Path_867" data-name="Path 867" d="M616.714,2021.237a.634.634,0,0,1-.334-.1l-7.517-4.814a.613.613,0,0,1-.257-.7l2.971-9.691a.621.621,0,0,1,.894-.359l9.082,5.081a.617.617,0,0,1,.254.808l-4.535,9.424a.611.611,0,0,1-.389.325A.71.71,0,0,1,616.714,2021.237Zm-6.789-5.7,6.535,4.185,3.981-8.27-7.906-4.422Z" transform="translate(-608.578 -2005.498)"/>
              </g>
            </g>
            <g id="Group_983" data-name="Group 983" transform="translate(3.794 3.491)">
              <path id="Path_868" data-name="Path 868" d="M627.64,2019.16a2.585,2.585,0,0,1,4.124.041l4.408,5.981-5.956,7.672-7.887-3.628C622.871,2025.822,625.632,2021.753,627.64,2019.16Z" transform="translate(-622.33 -2018.154)"/>
            </g>
            <g id="Group_986" data-name="Group 986" transform="translate(6.804 6.563)">
              <g id="Group_984" data-name="Group 984" transform="translate(0.616 0.613)">
                <path id="Path_869" data-name="Path 869" d="M636.244,2035.2l2.408-2.436a2.661,2.661,0,0,1,3.275-.406l1.713,1.038.37-.8a1.861,1.861,0,0,1,2.279-.988c5.492,1.835,23.738,8.122,29.841,12.643,7.219,5.346,2.091,17.247-10.5,16.033-9.978-.963-23.614-12.089-28.842-16.665a1.862,1.862,0,0,1,.483-3.109l.014-.005-1.332-1.915A2.662,2.662,0,0,1,636.244,2035.2Z" transform="translate(-635.476 -2031.511)" fill="#fff"/>
              </g>
              <g id="Group_985" data-name="Group 985">
                <path id="Path_870" data-name="Path 870" d="M665.828,2059.385q-.9,0-1.87-.091c-10.119-.976-23.785-12.083-29.192-16.814a2.484,2.484,0,0,1,.028-3.757l-.963-1.385a3.281,3.281,0,0,1,.361-4.179h0l2.408-2.436a3.271,3.271,0,0,1,4.036-.5l1.12.679.077-.168a2.483,2.483,0,0,1,3.037-1.316c5.479,1.832,23.838,8.157,30.014,12.731a8.338,8.338,0,0,1,2.943,10.014C676.5,2055.619,672.592,2059.385,665.828,2059.385Zm-30.759-25.361a2.048,2.048,0,0,0-.226,2.6l1.332,1.914a.621.621,0,0,1-.248.916,1.236,1.236,0,0,0-.756.966,1.219,1.219,0,0,0,.408,1.123c5.316,4.651,18.734,15.572,28.494,16.513,7.228.7,11.305-2.982,12.6-6.345a7.144,7.144,0,0,0-2.524-8.577c-6.028-4.466-24.232-10.737-29.669-12.555a1.242,1.242,0,0,0-1.523.662l-.37.8a.619.619,0,0,1-.883.268l-1.71-1.037a2.042,2.042,0,0,0-2.516.312Z" transform="translate(-633.243 -2029.29)"/>
              </g>
            </g>
            <g id="Group_987" data-name="Group 987" transform="translate(23.232 14.669)">
              <path id="Path_871" data-name="Path 871" d="M693.41,2068.484a.607.607,0,0,1-.265-.061.619.619,0,0,1-.292-.825l4.077-8.574a.619.619,0,1,1,1.117.532l-4.077,8.574A.62.62,0,0,1,693.41,2068.484Z" transform="translate(-692.792 -2058.672)"/>
            </g>
          </g>
          <g id="Group_989" data-name="Group 989" transform="translate(120.19 19.27)">
            <path id="Path_872" data-name="Path 872" d="M758.41,1914.138a.618.618,0,0,1-.463-.209l-1.332-1.512a.62.62,0,0,1,.085-.9l42.4-32.718a.619.619,0,0,1,.756.979l-41.877,32.312.9,1.018a.621.621,0,0,1-.463,1.029Z" transform="translate(-756.46 -1878.67)"/>
          </g>
          <g id="Group_999" data-name="Group 999" transform="translate(62.853 56.142)">
            <g id="Group_992" data-name="Group 992" transform="translate(41.673)">
              <g id="Group_990" data-name="Group 990" transform="translate(0.618 0.621)">
                <path id="Path_873" data-name="Path 873" d="M720.378,2014.58l-18.458,6.626,2.922,10.042,22.282-6.078Z" transform="translate(-701.92 -2014.58)" fill="#fff"/>
              </g>
              <g id="Group_991" data-name="Group 991">
                <path id="Path_874" data-name="Path 874" d="M703.22,2030.235a.618.618,0,0,1-.593-.447l-2.921-10.042a.62.62,0,0,1,.383-.756l18.458-6.626a.62.62,0,0,1,.731.251l6.745,10.59a.617.617,0,0,1-.359.927l-22.282,6.074A.489.489,0,0,1,703.22,2030.235Zm-2.166-10.273,2.59,8.9,20.886-5.694-6.03-9.465Z" transform="translate(-699.681 -2012.329)"/>
              </g>
            </g>
            <g id="Group_993" data-name="Group 993" transform="translate(36.597 5.284)">
              <path id="Path_875" data-name="Path 875" d="M690.687,2032.847a2.584,2.584,0,0,0-4.075-.637l-5.332,5.173,4.612,8.546,8.375-2.279C694.293,2040.207,692.243,2035.738,690.687,2032.847Z" transform="translate(-681.28 -2031.482)"/>
            </g>
            <g id="Group_996" data-name="Group 996" transform="translate(0 7.242)">
              <g id="Group_994" data-name="Group 994" transform="translate(0.627 0.622)">
                <path id="Path_876" data-name="Path 876" d="M596.123,2046.051l-1.972-2.8a2.663,2.663,0,0,0-3.164-.938l-1.859.742-.232-.847a1.86,1.86,0,0,0-2.086-1.349c-5.719.9-24.751,4.1-31.515,7.556-8,4.085-4.9,16.665,7.713,17.542,10,.695,25.28-8.036,31.192-11.689a1.862,1.862,0,0,0,.036-3.145l-.011-.008,1.628-1.669A2.665,2.665,0,0,0,596.123,2046.051Z" transform="translate(-550.892 -2040.836)" fill="#fff"/>
              </g>
              <g id="Group_995" data-name="Group 995">
                <path id="Path_877" data-name="Path 877" d="M562.511,2064.98c-.405,0-.8-.014-1.194-.041-7.939-.552-11.7-5.363-12.505-9.319a8.339,8.339,0,0,1,4.552-9.393c6.841-3.5,25.992-6.714,31.7-7.617a2.479,2.479,0,0,1,2.778,1.8l.05.179,1.217-.486a3.272,3.272,0,0,1,3.9,1.156l1.972,2.8a3.28,3.28,0,0,1-.334,4.182l-1.178,1.208a2.479,2.479,0,0,1-.59,3.708C587,2056.793,572.622,2064.98,562.511,2064.98Zm22.941-25.159a1.2,1.2,0,0,0-.2.017c-5.661.9-24.652,4.086-31.33,7.5a7.142,7.142,0,0,0-3.9,8.044c.72,3.528,4.132,7.829,11.38,8.331.37.025.748.039,1.131.039,9.774,0,23.909-8.064,29.694-11.636a1.22,1.22,0,0,0,.59-1.04,1.233,1.233,0,0,0-.566-1.062.632.632,0,0,1-.281-.456.619.619,0,0,1,.166-.5l1.628-1.669a2.047,2.047,0,0,0,.207-2.607l-1.972-2.8a2.038,2.038,0,0,0-2.43-.72l-1.859.742a.609.609,0,0,1-.5-.022.617.617,0,0,1-.32-.389l-.232-.847A1.245,1.245,0,0,0,585.452,2039.821Z" transform="translate(-548.618 -2038.58)"/>
              </g>
            </g>
            <g id="Group_997" data-name="Group 997" transform="translate(25.045 13.577)">
              <path id="Path_878" data-name="Path 878" d="M642.63,2071.909a.615.615,0,0,1-.593-.449l-2.61-9.129a.618.618,0,0,1,1.189-.339l2.61,9.131a.619.619,0,0,1-.425.764A.752.752,0,0,1,642.63,2071.909Z" transform="translate(-639.403 -2061.543)"/>
            </g>
            <g id="Group_998" data-name="Group 998" transform="translate(6.225 15.862)">
              <path id="Path_879" data-name="Path 879" d="M578.418,2084.939a.62.62,0,0,1-.328-.094c-10.157-6.362-6.124-14.6-6.08-14.682a.617.617,0,0,1,1.1.56c-.149.3-3.539,7.333,5.633,13.076a.618.618,0,0,1,.2.853A.609.609,0,0,1,578.418,2084.939Z" transform="translate(-571.183 -2069.827)"/>
            </g>
          </g>
          <g id="Group_1000" data-name="Group 1000" transform="translate(34.32 12.104)">
            <path id="Path_880" data-name="Path 880" d="M494.422,1893.818a.628.628,0,0,1-.124-.011.618.618,0,0,1-.483-.728l.566-2.784c-1.8-1.434-11.757-9.322-27.6-20.971-17.465-12.844-21.289-15.473-21.324-15.5a.618.618,0,0,1,.7-1.021c.036.025,3.862,2.654,21.36,15.52s27.832,21.156,27.937,21.239a.618.618,0,0,1,.218.6l-.64,3.153A.624.624,0,0,1,494.422,1893.818Z" transform="translate(-445.187 -1852.697)"/>
          </g>
        </g>
        <g id="Group_1002" data-name="Group 1002" transform="translate(39.229 49.471)">
          <path id="Path_881" data-name="Path 881" d="M598.064,1597.743c-1.319-5.9-9.735-27.661-16.083-43.689-5.065-12.795-17.311-22.02-31.89-23.874a168.765,168.765,0,0,0-33.926-.767c-18.861,1.484-35.06,13.029-41.3,29.581-5.619,14.905-11.744,33.206-11.882,42.478-.146,9.876,5.818,19.313,12.331,26.64A49.669,49.669,0,0,0,507.9,1644.3c18.08,1.675,46.29,3.352,59.107-.833C586.662,1637.04,601.253,1612.024,598.064,1597.743Z" transform="translate(-462.98 -1528.9)" fill="#bf4804"/>
        </g>
        <g id="Group_1009" data-name="Group 1009" transform="translate(51.287 88.829)">
          <g id="Group_1005" data-name="Group 1005" transform="translate(4.516)">
            <g id="Group_1003" data-name="Group 1003" transform="translate(0.621 0.621)">
              <path id="Path_882" data-name="Path 882" d="M617.753,1673.82H532.328a7.018,7.018,0,0,0-7.018,7.018v56.484a7.018,7.018,0,0,0,7.018,7.018h85.428a7.018,7.018,0,0,0,7.018-7.018v-56.484A7.02,7.02,0,0,0,617.753,1673.82Z" transform="translate(-525.31 -1673.82)" fill="#fff"/>
            </g>
            <g id="Group_1004" data-name="Group 1004">
              <path id="Path_883" data-name="Path 883" d="M616.124,1743.331H530.7a7.647,7.647,0,0,1-7.639-7.639v-56.484a7.647,7.647,0,0,1,7.639-7.639h85.428a7.644,7.644,0,0,1,7.636,7.639v56.484A7.647,7.647,0,0,1,616.124,1743.331ZM530.7,1672.809a6.408,6.408,0,0,0-6.4,6.4v56.484a6.408,6.408,0,0,0,6.4,6.4h85.428a6.408,6.408,0,0,0,6.4-6.4v-56.484a6.408,6.408,0,0,0-6.4-6.4Z" transform="translate(-523.06 -1671.57)"/>
            </g>
          </g>
          <g id="Group_1008" data-name="Group 1008" transform="translate(0 70.862)">
            <g id="Group_1006" data-name="Group 1006" transform="translate(0.618 0.621)">
              <path id="Path_884" data-name="Path 884" d="M611.552,1930.69h-98.2a4.419,4.419,0,0,0,0,8.839h98.2a4.419,4.419,0,0,0,0-8.839Z" transform="translate(-508.93 -1930.69)" fill="#fff"/>
            </g>
            <g id="Group_1007" data-name="Group 1007">
              <path id="Path_885" data-name="Path 885" d="M609.93,1938.514h-98.2a5.037,5.037,0,1,1,0-10.075h98.2a5.037,5.037,0,0,1,0,10.075Zm-98.2-8.836a3.8,3.8,0,1,0,0,7.6h98.2a3.8,3.8,0,1,0,0-7.6Z" transform="translate(-506.69 -1928.44)"/>
            </g>
          </g>
        </g>
        <g id="Group_1015" data-name="Group 1015" transform="translate(88.244)">
          <g id="Group_1012" data-name="Group 1012" transform="translate(3.102 10.327)">
            <g id="Group_1010" data-name="Group 1010" transform="translate(0.619 0.598)">
              <path id="Path_886" data-name="Path 886" d="M675.894,1428.66l.921-13.04c.623-.044,1.054-.069,1.181-.072,3.639-.041,4.819-1.219,5.134-4.21a22.3,22.3,0,0,0-.646-8.116,1.745,1.745,0,0,1,.074-1.117l.621-1.457a1.269,1.269,0,0,0-.419-1.308l-.331-.273a13.3,13.3,0,0,1-2.966-3.5c-.728-1.222-1.964-3.512-2.814-3.917-2.389-1.142-12.089-6.215-17.509,2.651-4.226,6.913,2.681,16.428,5.189,19.545.607.753-4.1,15.528-4.1,15.528l-6.083,1.47s4.693,8.334,18.949,4.888c10.152-2.455,8.538-6.232,8.538-6.232Z" transform="translate(-654.15 -1389.173)" fill="#fff"/>
            </g>
            <g id="Group_1011" data-name="Group 1011">
              <path id="Path_887" data-name="Path 887" d="M664.9,1435.632c-9.379,0-12.748-5.752-12.913-6.047a.617.617,0,0,1,.395-.9l5.743-1.388c2.053-6.477,4.061-13.562,4.019-14.72-3.046-3.807-9.432-13.161-5.156-20.155,3.672-6.009,9.744-7.021,18.047-3.01l.257.124c.836.4,1.7,1.807,2.753,3.606l.323.552a12.687,12.687,0,0,0,2.825,3.335l.331.273a1.885,1.885,0,0,1,.624,1.945.711.711,0,0,1-.028.08l-.621,1.457a1.1,1.1,0,0,0-.044.717,22.851,22.851,0,0,1,.662,8.339c-.359,3.429-1.915,4.717-5.741,4.761-.083,0-.3.014-.61.033l-.841,11.931,5.175.761a.611.611,0,0,1,.477.37,2.784,2.784,0,0,1-.221,2.282c-1.015,2.025-3.956,3.639-8.742,4.794A28.519,28.519,0,0,1,664.9,1435.632Zm-11.352-5.961c1.473,1.868,6.483,6.629,17.782,3.9,5.429-1.313,7.291-2.949,7.9-4.091a2.023,2.023,0,0,0,.262-.993l-5.308-.783a.62.62,0,0,1-.527-.657l.919-13.04a.62.62,0,0,1,.574-.574c.643-.044,1.084-.072,1.217-.072,3.548-.041,4.265-1.161,4.527-3.655a21.708,21.708,0,0,0-.629-7.9,2.36,2.36,0,0,1,.1-1.517l.6-1.41a.651.651,0,0,0-.223-.632l-.331-.273a13.934,13.934,0,0,1-3.1-3.658l-.331-.563c-.579-1-1.658-2.847-2.218-3.115l-.259-.124c-2.844-1.374-11.5-5.556-16.455,2.541-3.9,6.384,2.3,15.3,5.145,18.833.243.3.814,1.012-3.989,16.1a.617.617,0,0,1-.444.414Z" transform="translate(-651.904 -1387.006)"/>
            </g>
          </g>
          <g id="Group_1013" data-name="Group 1013">
            <path id="Path_888" data-name="Path 888" d="M652.358,1354.357c2.629-.566,5.65-.163,6.924-.632,2.058-.756,2.113-3.219,4.96-3.914,3.446-.839,4.883.632,6.232,2.684a5.91,5.91,0,0,1,.585,1.159c2.166,5.81-.568,8.643-1.788,9.564,0,0-7.752,4.006-9.079,5.151-1.241,1.07-2.673,3.606-1.774,7.247a1.1,1.1,0,0,1-.485,1.2,1.036,1.036,0,0,1-1.39-.317c-1.007-1.462-3.208-4.287-4.775-3.619-1.967.841-1.354,6.74,2.988,7.421a2.838,2.838,0,0,1,2.284,2.971,2.881,2.881,0,0,1-2.221,2.309,2.971,2.971,0,0,1-2.235-.574c-2.833-1.81-10.828-9.482-11.821-16.359C639.569,1360.359,648.86,1355.109,652.358,1354.357Z" transform="translate(-640.658 -1349.57)"/>
          </g>
          <g id="Group_1014" data-name="Group 1014" transform="translate(21.606 34.712)">
            <path id="Path_889" data-name="Path 889" d="M724.737,1478.547h-.022a10,10,0,0,1-5.517-2.058.618.618,0,1,1,.8-.943,8.87,8.87,0,0,0,4.764,1.763.62.62,0,0,1-.025,1.239Z" transform="translate(-718.98 -1475.4)"/>
          </g>
        </g>
      </g>
      <g id="Group_1063" data-name="Group 1063" transform="translate(253.618 158.924)">
        <g id="Group_1017" data-name="Group 1017" transform="translate(157.971 19.307)">
          <path id="Path_890" data-name="Path 890" d="M1821.628,999.512c.475-2.949-.3-3.713.4-6.32a16.539,16.539,0,0,1,4.1-7.4,16.136,16.136,0,0,1,8.373-4.414c11.3-1.837,21.931,5.167,25.369,9.082,3.07,3.5,3.694,10.149,6.025,12.328,7.1,6.637,12.268,4.825,18.125,10.555a25.382,25.382,0,0,1,6.375,11.493c.579,1.981,1.89,7.261.119,15.995-2.566,12.651-7.531,12.5-9.443,22.086-2.417,12.122,4.753,16.2,1.41,25.54a21.2,21.2,0,0,1-18.188,13.658c-15.887.864-26.02-19.427-26.422-20.731-1.686-5.5-4.85-8.122,1.2-22.787,3.785-9.173.723-21.8-2.477-24.958-2.6-2.56-15.683,6.91-21.167-6.855-1.046-2.621-2.394-4.574-2.624-6.693-.32-2.982,1.214-4.1,5.939-13.283C1820.685,1003.029,1821.294,1001.586,1821.628,999.512Z" transform="translate(-1812.762 -981.078)"/>
        </g>
        <g id="Group_1038" data-name="Group 1038" transform="translate(140.232 142.938)">
          <g id="Group_1025" data-name="Group 1025" transform="translate(80.812 138.065)">
            <g id="Group_1020" data-name="Group 1020" transform="translate(0.404)">
              <g id="Group_1018" data-name="Group 1018" transform="translate(0.618 0.619)">
                <path id="Path_891" data-name="Path 891" d="M2045.1,1935.567s7.606,10.089,7.06,16.723l.155,2.568,15.873-14.444-2.218-.9c-3.515-2.4-7.222-3.829-9.263-7.564Z" transform="translate(-2045.1 -1931.95)" fill="#fff"/>
              </g>
              <g id="Group_1019" data-name="Group 1019">
                <path id="Path_892" data-name="Path 892" d="M2050.691,1953.852a.574.574,0,0,1-.232-.047.618.618,0,0,1-.384-.535l-.155-2.568a.483.483,0,0,1,0-.088c.519-6.328-6.863-16.2-6.938-16.3a.619.619,0,0,1,.312-.963l11.605-3.614a.619.619,0,0,1,.726.292c1.457,2.662,3.868,4.127,6.422,5.674.85.516,1.727,1.048,2.593,1.636l2.155.874a.617.617,0,0,1,.182,1.029l-15.874,14.444A.587.587,0,0,1,2050.691,1953.852Zm.466-3.178.074,1.233,14.188-12.913-1.3-.53a.605.605,0,0,1-.116-.063c-.858-.585-1.738-1.12-2.591-1.639-2.563-1.553-4.99-3.026-6.613-5.7l-10.312,3.211C2046.213,1936.715,2051.6,1944.839,2051.156,1950.674Z" transform="translate(-2042.858 -1929.707)"/>
              </g>
            </g>
            <g id="Group_1023" data-name="Group 1023" transform="translate(0 3.287)">
              <g id="Group_1021" data-name="Group 1021" transform="translate(0.615 0.621)">
                <path id="Path_893" data-name="Path 893" d="M2048.366,1957.616l.246,3.128a38.352,38.352,0,0,1-2.99,18.122l-1.884,4.386a1.37,1.37,0,0,0,.1,1.28l.124.2c1.382,2.165,7.479,4.033,15.189-1.195,4.77-3.233,14.447-12.215,21.063-27.9a2.452,2.452,0,0,0-.679-2.83c-3-2.521-10.419-8.273-16.2-8.918a1.085,1.085,0,0,0-1.219,1.059l-.055,6.226a5.045,5.045,0,0,1-5.112,5l-7.136-.1A1.435,1.435,0,0,0,2048.366,1957.616Z" transform="translate(-2043.626 -1943.874)" fill="#fff"/>
              </g>
              <g id="Group_1022" data-name="Group 1022">
                <path id="Path_894" data-name="Path 894" d="M2047.948,1985.9a10.843,10.843,0,0,1-2.223-.218,5.975,5.975,0,0,1-3.893-2.251l-.124-.2a1.99,1.99,0,0,1-.152-1.857l1.884-4.386a37.84,37.84,0,0,0,2.943-17.829l-.245-3.129a2.057,2.057,0,0,1,.549-1.564,2.109,2.109,0,0,1,1.526-.648l7.136.094a4.458,4.458,0,0,0,3.154-1.261,4.389,4.389,0,0,0,1.33-3.123l.055-6.226a1.7,1.7,0,0,1,.565-1.247,1.745,1.745,0,0,1,1.341-.422c5.964.665,13.548,6.558,16.53,9.059a3.053,3.053,0,0,1,.852,3.545c-7.724,18.32-19.084,26.685-21.283,28.174C2053.763,1985.209,2050.326,1985.9,2047.948,1985.9Zm-.579-29.959.245,3.128a39.057,39.057,0,0,1-3.04,18.414l-1.884,4.386a.75.75,0,0,0,.058.7l.124.2a4.837,4.837,0,0,0,3.1,1.7c1.914.394,5.917.519,11.222-3.079,2.149-1.457,13.25-9.633,20.839-27.634a1.827,1.827,0,0,0-.5-2.116c-2.9-2.43-10.243-8.149-15.874-8.778a.492.492,0,0,0-.381.119.452.452,0,0,0-.152.331l-.055,6.226a5.661,5.661,0,0,1-5.735,5.611l-7.137-.094a.82.82,0,0,0-.607.259A.786.786,0,0,0,2047.369,1955.937Z" transform="translate(-2041.395 -1941.623)"/>
              </g>
            </g>
            <g id="Group_1024" data-name="Group 1024" transform="translate(0.908 8.692)">
              <path id="Path_895" data-name="Path 895" d="M2045.3,1994.835a.619.619,0,0,1-.248-1.186l.985-.428a20.231,20.231,0,0,0,10.885-11.529l.656-1.79a1.793,1.793,0,0,1,3.283-.193l.85,1.674a.748.748,0,0,0,1.2.185,47.135,47.135,0,0,0,10.516-16.4l1.349-3.55a.618.618,0,0,1,1.156.439l-1.349,3.551a48.285,48.285,0,0,1-10.789,16.831,1.983,1.983,0,0,1-3.184-.491l-.85-1.674a.545.545,0,0,0-.53-.3.553.553,0,0,0-.491.364l-.656,1.79a21.473,21.473,0,0,1-11.553,12.237l-.985.427A.635.635,0,0,1,2045.3,1994.835Z" transform="translate(-2044.686 -1961.217)"/>
            </g>
          </g>
          <g id="Group_1033" data-name="Group 1033" transform="translate(0 169.785)">
            <g id="Group_1028" data-name="Group 1028" transform="translate(18.857)">
              <g id="Group_1026" data-name="Group 1026" transform="translate(0.617 0.615)">
                <path id="Path_896" data-name="Path 896" d="M1823.577,2047.152s.872,9.931-3.244,14.643l-1.283,2.025,19.308-1.023-.932-2.113a33.281,33.281,0,0,1-2.61-13.763Z" transform="translate(-1819.05 -2046.92)" fill="#fff"/>
              </g>
              <g id="Group_1027" data-name="Group 1027">
                <path id="Path_897" data-name="Path 897" d="M1817.43,2062.822a.618.618,0,0,1-.521-.949l1.283-2.025a.419.419,0,0,1,.058-.074c3.892-4.455,3.1-14.085,3.1-14.182a.624.624,0,0,1,.154-.466.614.614,0,0,1,.447-.2l11.236-.231a.653.653,0,0,1,.464.2.627.627,0,0,1,.165.475,32.622,32.622,0,0,0,2.56,13.462l.932,2.113a.617.617,0,0,1-.532.866l-19.308,1.023A.139.139,0,0,0,1817.43,2062.822Zm1.779-2.273-.618.974,17.217-.913-.571-1.294a35.157,35.157,0,0,1-2.7-13.38l-9.92.207C1822.735,2048.48,1822.84,2056.348,1819.21,2060.549Z" transform="translate(-1816.813 -2044.69)"/>
              </g>
            </g>
            <g id="Group_1031" data-name="Group 1031" transform="translate(0 8.068)">
              <g id="Group_1029" data-name="Group 1029" transform="translate(0.617 0.616)">
                <path id="Path_898" data-name="Path 898" d="M1771.427,2076.552l-1.939,1.995a33.959,33.959,0,0,1-13.821,8.624l-4.025,1.316a1.219,1.219,0,0,0-.792.819l-.058.2c-.632,2.191,1.7,7.344,9.694,9.418,4.811,1.247,15.962,2.4,29.744-1.937a3.777,3.777,0,0,0,2.621-3.785c-.179-3.956-.875-11-3.534-14.759a.935.935,0,0,0-1.39-.155c-.946.816-2.637,2.279-4.182,3.614a4.473,4.473,0,0,1-6.323-.478l-4.116-4.808A1.274,1.274,0,0,0,1771.427,2076.552Z" transform="translate(-1750.694 -2076.168)" fill="#fff"/>
              </g>
              <g id="Group_1030" data-name="Group 1030">
                <path id="Path_899" data-name="Path 899" d="M1769.364,2099.056a44.056,44.056,0,0,1-10.648-1.153c-5.92-1.533-8.395-4.557-9.344-6.224a5.369,5.369,0,0,1-.789-3.964l.058-.2a1.833,1.833,0,0,1,1.192-1.233l4.025-1.316a33.507,33.507,0,0,0,13.57-8.467l1.94-1.994a1.867,1.867,0,0,1,1.415-.571,1.894,1.894,0,0,1,1.376.659l4.116,4.808a3.854,3.854,0,0,0,5.448.411l4.182-3.614a1.581,1.581,0,0,1,1.225-.378,1.522,1.522,0,0,1,1.073.645c2.759,3.9,3.47,11.129,3.647,15.09a4.4,4.4,0,0,1-3.054,4.4A64.909,64.909,0,0,1,1769.364,2099.056Zm.888-23.689-1.939,1.995a34.757,34.757,0,0,1-14.072,8.781l-4.025,1.316a.6.6,0,0,0-.389.4l-.058.2a4.225,4.225,0,0,0,.676,3.01c.852,1.5,3.1,4.218,8.579,5.639,2.132.552,13.567,3.054,29.4-1.928a3.166,3.166,0,0,0,2.19-3.17c-.171-3.826-.847-10.789-3.421-14.43a.3.3,0,0,0-.213-.13.341.341,0,0,0-.268.089l-4.182,3.614a5.093,5.093,0,0,1-7.2-.541l-4.116-4.808a.649.649,0,0,0-.477-.229A.623.623,0,0,0,1770.252,2075.367Z" transform="translate(-1748.458 -2073.934)"/>
              </g>
            </g>
            <g id="Group_1032" data-name="Group 1032" transform="translate(2.476 19.985)">
              <path id="Path_900" data-name="Path 900" d="M1779.171,2123.307q-1.217,0-2.441-.069a1.833,1.833,0,0,1-1.6-2.508l.615-1.547a.423.423,0,0,0-.546-.552l-1.578.612a19.118,19.118,0,0,1-14.974-.527l-.861-.406a.618.618,0,1,1,.527-1.117l.861.405a17.861,17.861,0,0,0,14,.494l1.578-.612a1.66,1.66,0,0,1,2.143,2.163l-.615,1.548a.6.6,0,0,0,.519.814,41.761,41.761,0,0,0,17.057-2.6l3.156-1.183a.618.618,0,0,1,.433,1.158l-3.156,1.184A42.979,42.979,0,0,1,1779.171,2123.307Z" transform="translate(-1757.434 -2117.134)"/>
            </g>
          </g>
          <g id="Group_1037" data-name="Group 1037" transform="translate(3.425)">
            <g id="Group_1034" data-name="Group 1034">
              <path id="Path_901" data-name="Path 901" d="M1816.131,1437.349s7.793,25.785-5.493,44.083c-17.9,24.657-7.675,81.549-16.635,119.8a1.606,1.606,0,0,1-1.586,1.233l-10.853-.119a1.6,1.6,0,0,1-1.536-1.192c-2.555-9.539-19.691-74.1-19.143-86.97.127-2.938.5-6.362,1.015-9.959a172.156,172.156,0,0,1,15.421-50.235l11.937-24.762Z" transform="translate(-1760.873 -1429.23)"/>
            </g>
            <g id="Group_1035" data-name="Group 1035" transform="translate(26.538 5.203)">
              <path id="Path_902" data-name="Path 902" d="M1894.2,1448.09s9.8,18.218,5.465,37.385a58.346,58.346,0,0,0,6.783,42.547c4.544,7.4,12.869,26.047,15.8,53.769a2.192,2.192,0,0,1-.662,1.815,17.178,17.178,0,0,1-11.04,4.679,2.208,2.208,0,0,1-1.749-.745c-4.513-5.125-30.475-35.217-39.7-59.154-10.119-26.254-12.017-69.88-12.017-69.88S1882.259,1461.172,1894.2,1448.09Z" transform="translate(-1857.07 -1448.09)"/>
            </g>
            <g id="Group_1036" data-name="Group 1036" transform="translate(39.19 25.562)">
              <path id="Path_903" data-name="Path 903" d="M1903.551,1589.585a.245.245,0,0,1-.044,0,.618.618,0,0,1-.571-.662c1.123-15.506,3.117-31.173,10.075-40.754,4.949-6.817,7.52-15.451,7.641-25.667a.619.619,0,0,1,.618-.609h.009a.621.621,0,0,1,.612.626c-.127,10.477-2.775,19.352-7.879,26.378-6.773,9.327-8.734,24.792-9.84,40.117A.625.625,0,0,1,1903.551,1589.585Z" transform="translate(-1902.934 -1521.89)" fill="#fff"/>
            </g>
          </g>
        </g>
        <g id="Group_1041" data-name="Group 1041" transform="translate(83.119 33.411)">
          <g id="Group_1039" data-name="Group 1039" transform="translate(0.62 0.612)">
            <path id="Path_904" data-name="Path 904" d="M1562.285,1057.6s-2.4-3.164-2.237-6.036c.154-2.657.359-8.825-2.764-12.207-4.05-4.384-10.582-5.788-11.242-4.442-.593,1.208,7.468,7.512,7.029,12.455a2.014,2.014,0,0,1-2.066,1.807,10.365,10.365,0,0,1-5.7-2.243,1.012,1.012,0,0,0-1.6.687,7.361,7.361,0,0,0,1.365,4.687,13.408,13.408,0,0,0,6.171,5.206c2.008.714,4.516,4.7,4.516,4.7Z" transform="translate(-1543.676 -1034.421)" fill="#fff"/>
          </g>
          <g id="Group_1040" data-name="Group 1040">
            <path id="Path_905" data-name="Path 905" d="M1554.127,1061.228a.608.608,0,0,1-.121-.011.622.622,0,0,1-.4-.276c-.667-1.059-2.72-3.923-4.2-4.45a14.072,14.072,0,0,1-6.488-5.459,7.985,7.985,0,0,1-1.457-5.081,1.592,1.592,0,0,1,.949-1.288,1.632,1.632,0,0,1,1.63.168,9.774,9.774,0,0,0,5.354,2.127,1.408,1.408,0,0,0,1.432-1.244c.254-2.85-2.814-6.477-4.842-8.877-1.68-1.989-2.524-2.985-2.124-3.8a1.6,1.6,0,0,1,1.327-.795c2.243-.325,7.424,1.3,10.925,5.09,3.443,3.73,3.056,10.453,2.927,12.662-.152,2.607,2.088,5.6,2.11,5.628a.619.619,0,0,1,.119.469.611.611,0,0,1-.254.411l-6.532,4.621A.676.676,0,0,1,1554.127,1061.228Zm-11.046-15.479a.471.471,0,0,0-.174.036.359.359,0,0,0-.221.3,6.781,6.781,0,0,0,1.277,4.292,12.722,12.722,0,0,0,5.854,4.949c1.749.621,3.672,3.23,4.474,4.411l5.506-3.9c-.7-1.059-2.133-3.545-1.995-5.92.323-5.578-.554-9.534-2.6-11.752-2.979-3.225-7.366-4.731-9.391-4.734h-.005a2.007,2.007,0,0,0-.778.116,16.6,16.6,0,0,0,1.9,2.483c2.29,2.709,5.427,6.419,5.128,9.785a2.628,2.628,0,0,1-2.7,2.37,10.959,10.959,0,0,1-6.042-2.362A.4.4,0,0,0,1543.081,1045.75Z" transform="translate(-1541.428 -1032.202)"/>
          </g>
        </g>
        <g id="Group_1044" data-name="Group 1044" transform="translate(93.116 55.214)">
          <g id="Group_1042" data-name="Group 1042" transform="translate(0.618 0.619)">
            <path id="Path_906" data-name="Path 906" d="M1697.819,1180.222c-.257-18.971-4.406-31.515-11.176-39.667a32.92,32.92,0,0,0-20.574-11.349,122.688,122.688,0,0,0-15.211-1.4,8.721,8.721,0,0,0-2.276-1.3c-1.04.555-2.066,1.054-3.084,1.506a13.067,13.067,0,0,0-4.9,1.308,6.627,6.627,0,0,0-1.236.877c-12.2,3.286-22.734-.218-31.763-4.5a47.636,47.636,0,0,1-16.044-11.371,2.769,2.769,0,0,0-3.523-.381l-6.889,4.577a2.773,2.773,0,0,0-.891,3.655c4.742,8.56,23.788,38.241,58.776,35.838a29.5,29.5,0,0,0,4.367,6.5c4.447,5.037,2.985,17.667-4.132,44.431,0,0,30.938,15.965,62.018,6.138A198.9,198.9,0,0,1,1697.819,1180.222Z" transform="translate(-1579.907 -1113.482)" fill="#fff"/>
          </g>
          <g id="Group_1043" data-name="Group 1043">
            <path id="Path_907" data-name="Path 907" d="M1678.279,1217.245a99.92,99.92,0,0,1-40.922-9.374.62.62,0,0,1-.314-.709c7.255-27.278,8.411-39.167,4.265-43.863a30.163,30.163,0,0,1-4.273-6.268q-1.85.116-3.639.113c-32.591,0-50.47-27.559-55.308-36.3a3.41,3.41,0,0,1,1.09-4.469l6.885-4.577a3.389,3.389,0,0,1,4.312.466,47.115,47.115,0,0,0,15.865,11.242c8.544,4.052,18.927,7.749,31.192,4.5a7.5,7.5,0,0,1,1.233-.855,13.492,13.492,0,0,1,5.04-1.374c.993-.444,1.986-.93,2.957-1.448a.609.609,0,0,1,.513-.03,9.307,9.307,0,0,1,2.268,1.261,124.853,124.853,0,0,1,15.087,1.407,33.463,33.463,0,0,1,20.96,11.567c7.371,8.88,11.073,21.981,11.316,40.056a200.377,200.377,0,0,0,3.451,34.743.618.618,0,0,1-.419.717A71.477,71.477,0,0,1,1678.279,1217.245Zm-39.91-10.257c3.873,1.862,32.276,14.72,60.575,6.047a205.307,205.307,0,0,1-3.368-34.431c-.24-17.78-3.848-30.627-11.032-39.281a32.2,32.2,0,0,0-20.188-11.131,122.529,122.529,0,0,0-15.131-1.4.64.64,0,0,1-.375-.132,8.149,8.149,0,0,0-1.856-1.1c-.943.5-1.906.963-2.866,1.39a.711.711,0,0,1-.182.05,12.541,12.541,0,0,0-4.659,1.228,5.946,5.946,0,0,0-1.12.792.618.618,0,0,1-.262.146c-12.715,3.424-23.4-.373-32.188-4.535a48.186,48.186,0,0,1-16.224-11.5,2.152,2.152,0,0,0-2.737-.3l-6.886,4.577a2.14,2.14,0,0,0-.693,2.839c4.944,8.93,23.747,37.882,58.192,35.521a.623.623,0,0,1,.6.345,28.927,28.927,0,0,0,4.276,6.367C1646.734,1167.572,1645.727,1179.241,1638.37,1206.988Z" transform="translate(-1577.667 -1111.236)"/>
          </g>
        </g>
        <g id="Group_1047" data-name="Group 1047" transform="translate(165.379 35.639)">
          <g id="Group_1045" data-name="Group 1045" transform="translate(0.624 0.608)">
            <path id="Path_908" data-name="Path 908" d="M1861.868,1052.526a.808.808,0,0,1-1-.712c-.215-2.35-1.787-6.35-4.4-7.859-3.346-1.934-7.826-2.1-9.573.356-1.526,2.144-1.2,3.818-4.783,6.1-.342.218-.273.761-.033,1.09l1.228,1.892a3.033,3.033,0,0,1,.2,1.79c-.281,1.382-.894,4.235-.637,4.8.745,1.655,5.647,2.96,5.647,2.96l-.5,12.734c-.152,1.719-.916,2.022-.916,2.022l-2.9,2.632s-.107,3.117,11.187,4.916c8.48,1.349,7.95-.146,7.95-.146s-7.2-7.55-4.138-23.981a1.035,1.035,0,0,1,.673-.783c1.33-.472,4.971-1.945,5.2-4.505C1865.33,1053.11,1863.526,1052.131,1861.868,1052.526Z" transform="translate(-1841.878 -1042.486)" fill="#fff"/>
          </g>
          <g id="Group_1046" data-name="Group 1046">
            <path id="Path_909" data-name="Path 909" d="M1859.332,1084.833a37.9,37.9,0,0,1-5.669-.571c-11.264-1.793-11.727-4.935-11.708-5.548a.612.612,0,0,1,.2-.436l2.9-2.632a.613.613,0,0,1,.185-.116h0c-.011,0,.422-.29.53-1.5l.475-12.215c-1.426-.419-4.853-1.57-5.573-3.17-.27-.6-.033-2.116.532-4.883l.061-.3a2.69,2.69,0,0,0-.1-1.305l-1.247-1.917a1.623,1.623,0,0,1-.279-1.2,1.129,1.129,0,0,1,.5-.751,7.967,7.967,0,0,0,3.5-3.953,12.3,12.3,0,0,1,1.112-1.983c2.036-2.858,6.977-2.5,10.387-.532,2.872,1.658,4.48,5.876,4.706,8.339a.184.184,0,0,0,.077.138.194.194,0,0,0,.163.03h0a3.212,3.212,0,0,1,2.883.629,3.69,3.69,0,0,1,1.092,3.333c-.248,2.734-3.622,4.328-5.611,5.032a.413.413,0,0,0-.27.312c-2.971,15.937,3.906,23.369,3.975,23.443a.592.592,0,0,1,.135.221.876.876,0,0,1-.179.844C1861.837,1084.474,1861.224,1084.833,1859.332,1084.833Zm-16.069-5.89c.312.634,1.972,2.723,10.593,4.094,4.654.742,6.392.579,7.007.422-1.52-1.909-6.593-9.575-3.9-24.053a1.663,1.663,0,0,1,1.073-1.252c1.376-.488,4.6-1.854,4.792-3.978a2.6,2.6,0,0,0-.67-2.287,1.985,1.985,0,0,0-1.785-.361,1.429,1.429,0,0,1-1.76-1.258c-.2-2.221-1.738-6.022-4.091-7.38-2.954-1.7-7.178-2.041-8.762.179a11.264,11.264,0,0,0-1,1.8,9.185,9.185,0,0,1-3.9,4.43.48.48,0,0,0,.083.237l1.247,1.92a3.511,3.511,0,0,1,.29,2.251l-.061.3a21.569,21.569,0,0,0-.607,4.149c.422.932,3.316,2.083,5.233,2.593a.619.619,0,0,1,.458.621l-.5,12.734c-.152,1.724-.855,2.323-1.175,2.51Z" transform="translate(-1839.618 -1040.281)"/>
          </g>
        </g>
        <g id="Group_1056" data-name="Group 1056">
          <g id="Group_1048" data-name="Group 1048" transform="translate(0.62 0.618)">
            <path id="Path_910" data-name="Path 910" d="M1362.682,991.5l-115.5-.345c-2.673-.008-4.977-1.87-4.8-3.881L1248.726,916c.138-1.553,1.735-2.673,3.8-2.668l115.5.345c2.673.008,4.977,1.87,4.8,3.881l-6.342,71.276C1366.345,990.382,1364.745,991.5,1362.682,991.5Z" transform="translate(-1242.375 -913.33)" fill="#fff"/>
          </g>
          <g id="Group_1049" data-name="Group 1049">
            <path id="Path_911" data-name="Path 911" d="M1361.071,990.5h-.019l-115.5-.345a6.039,6.039,0,0,1-4.4-1.84,3.581,3.581,0,0,1-1.01-2.715l6.342-71.276c.168-1.876,2.017-3.23,4.4-3.23h.019l115.5.345a6.039,6.039,0,0,1,4.4,1.84,3.582,3.582,0,0,1,1.01,2.715l-6.342,71.276C1365.306,989.138,1363.455,990.5,1361.071,990.5Zm-.014-1.236h.014c1.727,0,3.059-.883,3.167-2.1l6.342-71.276a2.367,2.367,0,0,0-.69-1.771,4.845,4.845,0,0,0-3.492-1.437l-115.5-.345c-1.738-.033-3.073.88-3.184,2.1l-6.342,71.276a2.357,2.357,0,0,0,.69,1.771,4.845,4.845,0,0,0,3.492,1.437Z" transform="translate(-1240.128 -911.09)"/>
          </g>
          <g id="Group_1055" data-name="Group 1055" transform="translate(11.977 10.091)">
            <g id="Group_1050" data-name="Group 1050" transform="translate(3.112 11.509)">
              <path id="Path_912" data-name="Path 912" d="M1396.915,998.836H1295.44a.616.616,0,0,1-.455-.2.625.625,0,0,1-.16-.472l.692-8.21a.618.618,0,0,1,.615-.565h101.475a.616.616,0,0,1,.455.2.626.626,0,0,1,.16.472l-.692,8.21A.618.618,0,0,1,1396.915,998.836Zm-100.8-1.236h100.234l.588-6.971H1296.7Z" transform="translate(-1294.823 -989.39)"/>
            </g>
            <g id="Group_1051" data-name="Group 1051" transform="translate(21.054)">
              <path id="Path_913" data-name="Path 913" d="M1428.277,957.116h-67.8a.616.616,0,0,1-.455-.2.625.625,0,0,1-.16-.472l.692-8.21a.618.618,0,0,1,.615-.565h67.8a.616.616,0,0,1,.455.2.626.626,0,0,1,.16.472l-.693,8.21A.614.614,0,0,1,1428.277,957.116Zm-67.124-1.236h66.556l.588-6.971h-66.556Z" transform="translate(-1359.863 -947.67)"/>
            </g>
            <g id="Group_1052" data-name="Group 1052" transform="translate(2.075 23.824)">
              <path id="Path_914" data-name="Path 914" d="M1393.155,1043.476H1291.68a.617.617,0,0,1-.455-.2.626.626,0,0,1-.16-.472l.692-8.21a.618.618,0,0,1,.615-.565h101.475a.615.615,0,0,1,.455.2.626.626,0,0,1,.16.472l-.692,8.21A.616.616,0,0,1,1393.155,1043.476Zm-100.8-1.236h100.233l.588-6.971H1292.941Z" transform="translate(-1291.063 -1034.03)"/>
            </g>
            <g id="Group_1053" data-name="Group 1053" transform="translate(1.037 36.136)">
              <path id="Path_915" data-name="Path 915" d="M1389.395,1088.106H1287.92a.615.615,0,0,1-.455-.2.626.626,0,0,1-.16-.472l.693-8.21a.618.618,0,0,1,.615-.566h101.475a.616.616,0,0,1,.455.2.625.625,0,0,1,.16.472l-.692,8.21A.616.616,0,0,1,1389.395,1088.106Zm-100.8-1.236h100.234l.588-6.971H1289.178Z" transform="translate(-1287.302 -1078.66)"/>
            </g>
            <g id="Group_1054" data-name="Group 1054" transform="translate(0 48.451)">
              <path id="Path_916" data-name="Path 916" d="M1385.635,1132.746H1284.16a.616.616,0,0,1-.455-.2.625.625,0,0,1-.16-.472l.693-8.21a.618.618,0,0,1,.615-.565h101.475a.615.615,0,0,1,.455.2.627.627,0,0,1,.16.472l-.692,8.21A.616.616,0,0,1,1385.635,1132.746Zm-100.8-1.236h100.234l.588-6.971H1285.421Z" transform="translate(-1283.543 -1123.3)"/>
            </g>
          </g>
        </g>
        <g id="Group_1062" data-name="Group 1062" transform="translate(81.533 53.808)">
          <g id="Group_1059" data-name="Group 1059">
            <g id="Group_1057" data-name="Group 1057" transform="translate(0.616 0.62)">
              <path id="Path_917" data-name="Path 917" d="M1555.36,1130.247l-1.567-5.211c-.469-2.32,4.251-7.332,1.164-8.731-2.246-1.018-2.014,2.521-5.2,3.1-1.664.3-3.5-2.924-3.782-4.43-.993-5.228-3.25-7.153-5.247-6.444s-4.615,8.828-1.048,14.544,10.742,10.519,10.742,10.519Z" transform="translate(-1537.911 -1108.387)" fill="#fff"/>
            </g>
            <g id="Group_1058" data-name="Group 1058">
              <path id="Path_918" data-name="Path 918" d="M1548.8,1132.581a.625.625,0,0,1-.345-.1c-.3-.2-7.33-4.943-10.924-10.706-2.483-3.981-2.1-9.021-1.01-12.124.3-.852,1.128-2.886,2.378-3.33a3.018,3.018,0,0,1,2.571.257c1.636.938,2.844,3.241,3.493,6.654.287,1.509,2.006,4.135,3.065,3.937a3.891,3.891,0,0,0,2.53-1.857c.64-.858,1.437-1.923,3.04-1.2a2.274,2.274,0,0,1,1.266,1.288c.488,1.316-.3,3.026-1.07,4.681-.566,1.225-1.153,2.491-1.01,3.2l1.553,5.156a.619.619,0,0,1-.246.69l-4.941,3.343A.6.6,0,0,1,1548.8,1132.581Zm-8.894-25.2a1.81,1.81,0,0,0-.6.1c-.4.141-1.076,1-1.622,2.571-1,2.847-1.36,7.454.891,11.062,3.018,4.839,8.77,9.073,10.224,10.1l4.215-2.85-1.437-4.775c-.237-1.161.405-2.552,1.087-4.022.629-1.36,1.344-2.9,1.035-3.733a1.044,1.044,0,0,0-.618-.593c-.64-.29-.833-.13-1.539.814a5.1,5.1,0,0,1-3.3,2.331c-2.138.389-4.179-3.228-4.5-4.924-.563-2.963-1.617-5.081-2.894-5.812A1.879,1.879,0,0,0,1539.909,1107.378Z" transform="translate(-1535.68 -1106.139)"/>
            </g>
          </g>
          <g id="Group_1060" data-name="Group 1060" transform="translate(9.24 19.025)">
            <path id="Path_919" data-name="Path 919" d="M1577.586,1175.478l-7.137,4.3a2.619,2.619,0,0,0-1.2,2.861c2.083,8.626,20.428,36.588,79.974,36.2,10.938-.072,15.322-14.453,11.112-24.549a12.8,12.8,0,0,0-14.1-7.636c-13.942,2.5-47.543,10.715-65.242-10.579A2.649,2.649,0,0,0,1577.586,1175.478Z" transform="translate(-1569.173 -1175.104)" fill="#fff"/>
          </g>
          <g id="Group_1061" data-name="Group 1061" transform="translate(8.62 18.407)">
            <path id="Path_920" data-name="Path 920" d="M1646.406,1217.841c-24.85,0-45.811-5.117-60.685-14.822-12.58-8.21-17.675-17.6-18.7-21.852a3.227,3.227,0,0,1,1.484-3.534l7.137-4.3a3.248,3.248,0,0,1,4.2.731c10.149,12.213,27.013,16.361,51.562,12.69a.613.613,0,0,1,.7.519.619.619,0,0,1-.519.7c-25.01,3.744-42.249-.549-52.7-13.123a2.016,2.016,0,0,0-2.607-.461l-7.137,4.3a2,2,0,0,0-.921,2.185c2.251,9.322,21.443,35.73,78.161,35.73.4,0,.8,0,1.206,0h.006a.619.619,0,0,1,0,1.239C1647.2,1217.841,1646.8,1217.841,1646.406,1217.841Z" transform="translate(-1566.928 -1172.865)"/>
          </g>
        </g>
      </g>
      <g id="Group_1077" data-name="Group 1077" transform="translate(234.4 298.299)">
        <g id="Group_1066" data-name="Group 1066" transform="translate(18.287 129.733)">
          <g id="Group_1064" data-name="Group 1064" transform="translate(0.627 0.618)">
            <path id="Path_921" data-name="Path 921" d="M1239.1,1888.83h48.732s6.681,40.635-22.4,43.879S1239.1,1888.83,1239.1,1888.83Z" transform="translate(-1239.026 -1888.83)" fill="#fff"/>
          </g>
          <g id="Group_1065" data-name="Group 1065">
            <path id="Path_922" data-name="Path 922" d="M1260.99,1931.865a18.787,18.787,0,0,1-13.393-5.194c-12.246-11.617-10.828-38.365-10.761-39.5a.619.619,0,0,1,.618-.582h48.729a.616.616,0,0,1,.61.519c.152.913,3.567,22.533-6.254,35.5-3.973,5.244-9.589,8.3-16.69,9.1A26.071,26.071,0,0,1,1260.99,1931.865Zm-22.947-44.039c-.138,4.014-.455,27.647,10.406,37.948,4.008,3.8,9.137,5.382,15.261,4.7,6.751-.753,12.08-3.653,15.84-8.615,8.684-11.465,6.555-30.643,6.094-34.034Z" transform="translate(-1236.753 -1886.59)"/>
          </g>
        </g>
        <g id="Group_1071" data-name="Group 1071">
          <g id="Group_1069" data-name="Group 1069">
            <g id="Group_1067" data-name="Group 1067" transform="translate(0.621 0.64)">
              <path id="Path_923" data-name="Path 923" d="M1205.692,1538.409c-3.484.1-10.905.215-17.89-4.544-2.588-1.763-9.683-6.6-9.018-12.955.568-5.451,6.679-10.475,14.971-11.374-9.837,1.164-17.755-6.207-17.766-13.824-.008-5.835,4.621-11.63,11.459-13.545a36.332,36.332,0,0,1-14.411-33.738c1.713-12.464,10.345-24.732,23.371-28.522,1.639-.477,15.8-4.356,25.989,4.331,8.56,7.291,8.654,18.6,8.718,26.318a54.223,54.223,0,0,1-8.718,29.377,15.537,15.537,0,0,1,14.307,3.481c6.7,5.953,7.032,19.636,3.766,25.052-3.418,5.669-11.655,4.469-13.123,4.883,6.163,5.44,5.948,9.975,5.879,10.831C1232.533,1533.027,1216.484,1538.095,1205.692,1538.409Z" transform="translate(-1172.716 -1418.635)" fill="#fff"/>
            </g>
            <g id="Group_1068" data-name="Group 1068">
              <path id="Path_924" data-name="Path 924" d="M1202.186,1537.381a28.583,28.583,0,0,1-16.362-4.684c-2.731-1.862-9.989-6.806-9.286-13.531.494-4.74,4.67-8.864,10.524-10.836a17,17,0,0,1-8.348-4,14.024,14.024,0,0,1-4.977-10.3c-.008-5.909,4.455-11.542,10.772-13.782a36.885,36.885,0,0,1-13.719-33.589c1.892-13.771,11.462-25.44,23.813-29.029,2.657-.772,16.422-4.188,26.563,4.455,8.775,7.476,8.872,19.1,8.935,26.781a54.558,54.558,0,0,1-8.075,28.522,15.673,15.673,0,0,1,13.457,3.881c6.875,6.105,7.275,20.21,3.884,25.835-2.891,4.795-9.026,4.971-11.975,5.057l-.229.008c4.888,4.781,5.17,8.8,5.048,10.378-.72,9.145-16.8,14.472-28.136,14.8C1203.554,1537.362,1202.917,1537.381,1202.186,1537.381Zm1.876-.651h0ZM1192,1508.492c-7.578.888-13.683,5.509-14.237,10.8-.626,5.992,6.188,10.632,8.753,12.381,6.96,4.742,14.362,4.527,17.523,4.436,10.6-.309,26.285-5.352,26.938-13.664.091-1.164-.047-5.352-5.672-10.317a.619.619,0,0,1,.243-1.06,8.926,8.926,0,0,1,1.81-.146c2.938-.086,8.408-.243,10.952-4.461,3.186-5.283,2.811-18.536-3.647-24.271a14.623,14.623,0,0,0-13.355-3.415,4.879,4.879,0,0,1-.5.088.617.617,0,0,1-.563-.949,53.616,53.616,0,0,0,8.621-29.04c-.063-7.462-.155-18.743-8.5-25.852-9.661-8.232-22.867-4.949-25.418-4.21-11.89,3.457-21.107,14.715-22.933,28.011a35.7,35.7,0,0,0,14.171,33.162.619.619,0,0,1-.207,1.09c-6.389,1.79-11.018,7.236-11.01,12.949a12.786,12.786,0,0,0,4.56,9.377,15.99,15.99,0,0,0,12.329,3.857c.063-.008.127-.014.193-.022a.619.619,0,0,1,.141,1.23C1192.133,1508.479,1192.067,1508.484,1192,1508.492Z" transform="translate(-1170.466 -1416.316)"/>
            </g>
          </g>
          <g id="Group_1070" data-name="Group 1070" transform="translate(28.027 26.726)">
            <path id="Path_925" data-name="Path 925" d="M1281.155,1612.91a.819.819,0,0,1-.083-.005.617.617,0,0,1-.53-.7c6.218-45.91-8.306-97.706-8.455-98.225a.618.618,0,0,1,1.189-.339c.149.522,14.742,52.558,8.491,98.73A.623.623,0,0,1,1281.155,1612.91Z" transform="translate(-1272.063 -1513.197)"/>
          </g>
        </g>
        <g id="Group_1076" data-name="Group 1076" transform="translate(40.7 76.186)">
          <g id="Group_1074" data-name="Group 1074">
            <g id="Group_1072" data-name="Group 1072" transform="translate(0.629 0.619)">
              <path id="Path_926" data-name="Path 926" d="M1323.084,1740.453c-1.106-2.706-5.9-15.212.317-25.747,1.277-2.166,5.553-9.413,11.76-8.9,4.626.383,7.545,4.847,8.19,5.884-1.868-6.8,1.484-13.677,7.068-16.055,6.6-2.811,15.371,1.079,17.8,9.217a15.21,15.21,0,0,1,10.489.635c5.859,2.764,9.385,9.769,8.582,17.482-2.439,8.273-10,13.338-17.164,12.4-7.785-1.023-11.5-8.662-11.76-9.217,1.214,1.909,3,5.454,1.906,8.9-1.835,5.79-10.944,8.662-17.482,6.993-6.069-1.55-7.826-6.48-12.715-6.039C1326.857,1736.3,1324.469,1738.717,1323.084,1740.453Z" transform="translate(-1320.277 -1694.727)" fill="#fff"/>
            </g>
            <g id="Group_1073" data-name="Group 1073">
              <path id="Path_927" data-name="Path 927" d="M1345.009,1741.5a16.386,16.386,0,0,1-4.019-.477,17.639,17.639,0,0,1-6.61-3.559c-1.959-1.5-3.512-2.678-5.9-2.463-2.287.207-4.494,1.628-6.566,4.221a.619.619,0,0,1-1.057-.152c-1.865-4.563-5.564-16.26.359-26.3,3.818-6.469,7.97-9.564,12.345-9.2a10.806,10.806,0,0,1,7.068,4.011c-.518-6.006,2.632-11.893,7.9-14.135a13.166,13.166,0,0,1,10.728.395,14.874,14.874,0,0,1,7.724,8.643,15.636,15.636,0,0,1,10.345.825c6.166,2.91,9.758,10.188,8.933,18.1a.73.73,0,0,1-.022.11c-2.455,8.331-10.124,13.846-17.838,12.836a14.993,14.993,0,0,1-8.968-4.883,8.538,8.538,0,0,1-.218,4.138C1357.624,1738.625,1351,1741.5,1345.009,1741.5Zm-15.975-7.763c2.5,0,4.254,1.335,6.094,2.742a16.358,16.358,0,0,0,6.165,3.344c6.141,1.57,14.977-1.018,16.74-6.58a9.17,9.17,0,0,0-.924-6.764,16.531,16.531,0,0,1-.955-1.686.618.618,0,0,1,1.081-.593,18.435,18.435,0,0,1,.966,1.7c1.517,2.364,4.91,6.519,10.353,7.233,7.106.932,14.171-4.182,16.475-11.9.748-7.374-2.56-14.122-8.237-16.8a14.6,14.6,0,0,0-10.058-.6.617.617,0,0,1-.761-.419,13.646,13.646,0,0,0-7.247-8.45,11.942,11.942,0,0,0-9.719-.378c-5.484,2.334-8.43,9.065-6.714,15.324a.618.618,0,0,1-1.12.491c-.976-1.573-3.68-5.261-7.716-5.595-3.862-.317-7.622,2.574-11.178,8.6-5.266,8.93-2.5,19.33-.654,24.243,2.1-2.356,4.364-3.658,6.742-3.873C1328.6,1733.744,1328.818,1733.733,1329.034,1733.733Z" transform="translate(-1317.999 -1692.484)"/>
            </g>
          </g>
          <g id="Group_1075" data-name="Group 1075" transform="translate(2.328 21.186)">
            <path id="Path_928" data-name="Path 928" d="M1327.056,1797.823a.707.707,0,0,1-.108-.008.621.621,0,0,1-.5-.717c.138-.781,3.581-19.225,20.811-25.777,12.37-4.7,23.479,0,26.588,1.55a.619.619,0,1,1-.554,1.106c-3-1.5-13.694-6.028-25.6-1.5-16.582,6.306-19.9,24.083-20.033,24.836A.613.613,0,0,1,1327.056,1797.823Z" transform="translate(-1326.437 -1769.283)"/>
          </g>
        </g>
      </g>
    </g>
  </g>
</svg>
