<svg xmlns="http://www.w3.org/2000/svg" width="35.075" height="25.804" viewBox="0 0 35.075 25.804">
  <g id="Group_478" data-name="Group 478" transform="translate(-4 -11.405)">
    <path id="Path_116" data-name="Path 116" d="M33.271,28.893H31.2a.626.626,0,0,0,0,1.253h2.067a.516.516,0,0,1,.514.514v9a.516.516,0,0,1-.514.514H31.2a.626.626,0,0,0,0,1.253h2.067a1.768,1.768,0,0,0,1.766-1.766v-9A1.768,1.768,0,0,0,33.271,28.893ZM9.436,30.145H11.5a.626.626,0,0,0,0-1.253H9.436A1.768,1.768,0,0,0,7.67,30.659v9A1.768,1.768,0,0,0,9.436,41.42H11.5a.626.626,0,0,0,0-1.253H9.436a.516.516,0,0,1-.514-.514v-9A.516.516,0,0,1,9.436,30.145Zm12.54-.175v-.464a.626.626,0,1,0-1.253,0V30a3.153,3.153,0,0,0-2.869,2.85,3.136,3.136,0,0,0,2.869,2.838v3.357c-1.059-.169-1.873-.839-1.873-1.622a.626.626,0,0,0-1.253,0,3.213,3.213,0,0,0,3.126,2.881v.464a.626.626,0,0,0,1.253,0v-.495a3.16,3.16,0,0,0,2.875-2.85,3.121,3.121,0,0,0-2.875-2.838V31.229c1.059.163,1.873.839,1.873,1.622a.626.626,0,0,0,1.253,0A3.213,3.213,0,0,0,21.977,29.97Zm-2.869,2.881c0-.714.689-1.34,1.616-1.566v3.132C19.791,34.192,19.108,33.565,19.108,32.851ZM23.6,37.43c0,.714-.689,1.334-1.622,1.566V35.864c.94.226,1.622.852,1.622,1.572Z" transform="translate(-1.371 -6.529)"/>
    <path id="Path_117" data-name="Path 117" d="M39,25.627l-4.166-13a1.762,1.762,0,0,0-2.217-1.14l-26.3,8.538H5.766A1.768,1.768,0,0,0,4,21.794V35.443a1.768,1.768,0,0,0,1.766,1.766H34.2a1.768,1.768,0,0,0,1.766-1.766V28.427a.477.477,0,0,0,.132-.019l1.754-.564a1.765,1.765,0,0,0,1.14-2.217Zm-4.285,9.816a.516.516,0,0,1-.514.514H5.766a.516.516,0,0,1-.514-.514V21.794a.516.516,0,0,1,.514-.514H34.2a.516.516,0,0,1,.514.514Zm2.762-8.788-1.51.482V21.794a1.762,1.762,0,0,0-1.221-1.672l-1.391-4.573A1.762,1.762,0,0,0,31.135,14.4l-1.967.633a.628.628,0,1,0,.382,1.2l1.967-.633a.512.512,0,0,1,.639.319l1.247,4.1h-9.17a3.316,3.316,0,0,0-3.126-1.2l-.144-.445a.636.636,0,0,0-.789-.407.626.626,0,0,0-.407.789l.119.37a4.128,4.128,0,0,0-1.359.889H10.364L32.99,12.68a.492.492,0,0,1,.388.031.5.5,0,0,1,.251.3l4.166,13a.513.513,0,0,1-.332.645Z"/>
  </g>
</svg>
