<svg xmlns="http://www.w3.org/2000/svg" width="26.867" height="28" viewBox="0 0 26.867 28">
  <g id="Group_479" data-name="Group 479" transform="translate(-10.359 0.002)">
    <path id="Path_118" data-name="Path 118" d="M35.931,14.361a.821.821,0,0,1,0-.725L36.975,11.5a2.431,2.431,0,0,0-1.049-3.228l-2.1-1.115A.821.821,0,0,1,33.4,6.57l-.411-2.342a2.431,2.431,0,0,0-2.746-1.995l-2.354.333a.821.821,0,0,1-.69-.224L25.489.689a2.431,2.431,0,0,0-3.394,0L20.386,2.342a.821.821,0,0,1-.69.224l-2.354-.333A2.43,2.43,0,0,0,14.6,4.228L14.186,6.57a.821.821,0,0,1-.426.587l-2.1,1.115A2.431,2.431,0,0,0,10.61,11.5l1.044,2.136a.821.821,0,0,1,0,.725L10.61,16.5a2.431,2.431,0,0,0,1.049,3.228l2.1,1.115a.821.821,0,0,1,.426.587l.411,2.342a2.429,2.429,0,0,0,2.4,2.02,2.5,2.5,0,0,0,.35-.025L19.7,25.43a.82.82,0,0,1,.69.224L22.1,27.308a2.431,2.431,0,0,0,3.394,0L27.2,25.654a.821.821,0,0,1,.69-.224l2.354.333a2.43,2.43,0,0,0,2.746-1.995l.411-2.342a.821.821,0,0,1,.426-.587l2.1-1.115A2.431,2.431,0,0,0,36.975,16.5l-1.044-2.136ZM35.169,18.3l-2.1,1.115a2.425,2.425,0,0,0-1.26,1.734L31.4,23.489a.822.822,0,0,1-.929.675l-2.354-.333a2.425,2.425,0,0,0-2.039.662l-1.709,1.653a.822.822,0,0,1-1.148,0l-1.709-1.653a2.423,2.423,0,0,0-1.691-.687,2.479,2.479,0,0,0-.348.025l-2.354.333a.823.823,0,0,1-.929-.675l-.411-2.342a2.425,2.425,0,0,0-1.26-1.734l-2.1-1.115a.822.822,0,0,1-.355-1.092l1.044-2.136a2.425,2.425,0,0,0,0-2.144L12.061,10.79A.822.822,0,0,1,12.416,9.7l2.1-1.115a2.425,2.425,0,0,0,1.26-1.734l.411-2.342a.822.822,0,0,1,.929-.675l2.354.333A2.425,2.425,0,0,0,21.509,3.5l1.709-1.653a.822.822,0,0,1,1.148,0L26.076,3.5a2.425,2.425,0,0,0,2.039.662l2.354-.333a.822.822,0,0,1,.929.675l.411,2.342a2.425,2.425,0,0,0,1.26,1.734l2.1,1.115a.822.822,0,0,1,.355,1.092L34.48,12.926a2.425,2.425,0,0,0,0,2.144l1.044,2.136a.822.822,0,0,1-.355,1.092Z" transform="translate(0 0)"/>
    <path id="Path_119" data-name="Path 119" d="M154.892,124.483a.807.807,0,0,0-1.142,0l-10.658,10.658a.807.807,0,1,0,1.142,1.142l10.658-10.658A.807.807,0,0,0,154.892,124.483Zm-9.13-1.367a2.961,2.961,0,1,0,2.961,2.961A2.964,2.964,0,0,0,145.763,123.116Zm0,4.306a1.346,1.346,0,1,1,1.346-1.346A1.347,1.347,0,0,1,145.763,127.422Zm6.46,4.306a2.961,2.961,0,1,0,2.961,2.961A2.964,2.964,0,0,0,152.222,131.729Zm0,4.306a1.346,1.346,0,1,1,1.346-1.346A1.347,1.347,0,0,1,152.222,136.035Z" transform="translate(-125.2 -116.385)"/>
  </g>
</svg>
