<svg xmlns="http://www.w3.org/2000/svg" width="592.014" height="555.508" viewBox="0 0 592.014 555.508">
  <g id="Illustration" transform="translate(-212.52 -332.31)">
    <g id="Real_estate_3_" transform="translate(212.52 332.31)">
      <g id="Group_751" data-name="Group 751">
        <g id="Group_749" data-name="Group 749" transform="translate(109.644)">
          <path id="Path_602" data-name="Path 602" d="M651.919,374.506l-.076-7.5-8.008-1.722a31.154,31.154,0,0,0-1.394-5.038l5.956-5.611-3.816-6.456-7.8,2.513a31.436,31.436,0,0,0-3.728-3.652l2.355-7.848-6.532-3.686-5.489,6.068a30.976,30.976,0,0,0-5.062-1.294l-1.882-7.972-7.5.076-1.722,8.008a31.035,31.035,0,0,0-5.035,1.394l-5.611-5.956-6.456,3.816,2.513,7.8a31.43,31.43,0,0,0-3.653,3.728l-7.848-2.355-3.686,6.532,6.068,5.489a30.989,30.989,0,0,0-1.294,5.062l-7.972,1.882.076,7.5,8.008,1.722a31.161,31.161,0,0,0,1.394,5.038l-5.956,5.611,3.816,6.456,7.8-2.513a31.432,31.432,0,0,0,3.728,3.652L590.76,403.1l6.526,3.683,5.489-6.068a30.977,30.977,0,0,0,5.062,1.294l1.882,7.972,7.5-.076,1.722-8.008a31.158,31.158,0,0,0,5.038-1.394l5.611,5.956,6.456-3.816-2.513-7.8a31.442,31.442,0,0,0,3.652-3.728l7.848,2.355,3.686-6.532-6.068-5.489a30.989,30.989,0,0,0,1.294-5.062ZM613.276,390.45a19.308,19.308,0,1,1,19.114-19.5A19.307,19.307,0,0,1,613.276,390.45Z" transform="translate(-574.25 -332.31)" fill="#bf4804"/>
        </g>
        <g id="Group_750" data-name="Group 750" transform="translate(0 47.597)">
          <path id="Path_603" data-name="Path 603" d="M212.52,554.815l1.416,12.294,13.437,1.446a51.251,51.251,0,0,0,3.155,8.023l-8.805,10.23,7.372,9.939,12.364-5.468a52.135,52.135,0,0,0,6.744,5.353l-2.516,13.282,11.355,4.923,7.963-10.9a51.3,51.3,0,0,0,8.53,1.249l4.462,12.758,12.294-1.415,1.446-13.437a51.258,51.258,0,0,0,8.023-3.155l10.23,8.805,9.939-7.372-5.468-12.364a52.149,52.149,0,0,0,5.353-6.744l13.282,2.516,4.923-11.355-10.9-7.963a51.3,51.3,0,0,0,1.249-8.53l12.758-4.462-1.415-12.294-13.437-1.446a51.242,51.242,0,0,0-3.155-8.023l8.805-10.23-7.372-9.939L312.186,516a51.938,51.938,0,0,0-6.744-5.353l2.516-13.282L296.6,492.447l-7.963,10.9a51.3,51.3,0,0,0-8.53-1.249l-4.462-12.758-12.294,1.416-1.446,13.437a51.256,51.256,0,0,0-8.023,3.155l-10.23-8.805-9.939,7.372,5.468,12.364a52.145,52.145,0,0,0-5.353,6.744l-13.282-2.516-4.923,11.354,10.9,7.963a51.291,51.291,0,0,0-1.249,8.529ZM273.178,522a31.855,31.855,0,1,1-28,35.288A31.855,31.855,0,0,1,273.178,522Z" transform="translate(-212.52 -489.34)"/>
        </g>
      </g>
      <g id="Group_776" data-name="Group 776" transform="translate(54.584 101.06)">
        <g id="Group_754" data-name="Group 754">
          <g id="Group_752" data-name="Group 752">
            <path id="Path_604" data-name="Path 604" d="M890.829,1050.715H416.264a21.454,21.454,0,0,1-21.454-21.454V689.374a21.454,21.454,0,0,1,21.454-21.454H890.829a21.454,21.454,0,0,1,21.454,21.454v339.887A21.454,21.454,0,0,1,890.829,1050.715Z" transform="translate(-394.14 -667.253)" fill="#fff"/>
            <path id="Path_605" data-name="Path 605" d="M889.289,1049.849H414.724a22.149,22.149,0,0,1-22.124-22.121V687.841a22.147,22.147,0,0,1,22.124-22.121H889.289a22.147,22.147,0,0,1,22.121,22.121v339.887A22.145,22.145,0,0,1,889.289,1049.849Zm-474.565-382.8a20.809,20.809,0,0,0-20.787,20.787v339.887a20.811,20.811,0,0,0,20.787,20.787H889.289a20.811,20.811,0,0,0,20.787-20.787V687.841a20.811,20.811,0,0,0-20.787-20.787Z" transform="translate(-392.6 -665.72)"/>
          </g>
          <g id="Group_753" data-name="Group 753" transform="translate(27.428 23.727)">
            <path id="Path_606" data-name="Path 606" d="M930.728,1057.977H500.459a15.149,15.149,0,0,1-15.149-15.149V761.359a15.149,15.149,0,0,1,15.149-15.149H930.728a15.149,15.149,0,0,1,15.149,15.149v281.465A15.151,15.151,0,0,1,930.728,1057.977Z" transform="translate(-484.637 -745.54)" fill="#fff"/>
            <path id="Path_607" data-name="Path 607" d="M929.181,1057.1H498.909a15.836,15.836,0,0,1-15.819-15.819V759.819A15.836,15.836,0,0,1,498.909,744H929.181A15.836,15.836,0,0,1,945,759.819v281.465A15.84,15.84,0,0,1,929.181,1057.1ZM498.909,745.337a14.5,14.5,0,0,0-14.483,14.483v281.466a14.5,14.5,0,0,0,14.483,14.482H929.181a14.5,14.5,0,0,0,14.483-14.482V759.819a14.5,14.5,0,0,0-14.483-14.483H498.909Z" transform="translate(-483.09 -744)"/>
          </g>
        </g>
        <g id="Group_756" data-name="Group 756" transform="translate(28.159 355.27)">
          <g id="Group_755" data-name="Group 755">
            <path id="Path_608" data-name="Path 608" d="M927.56,1849.4h-436.6a5.463,5.463,0,0,1-5.462-5.462v-.673a5.463,5.463,0,0,1,5.462-5.462h436.6a5.463,5.463,0,0,1,5.462,5.462v.673A5.463,5.463,0,0,1,927.56,1849.4Z" transform="translate(-485.5 -1837.8)" fill="#fff"/>
          </g>
        </g>
        <path id="Path_609" data-name="Path 609" d="M838.827,1059.988H538.8a12.366,12.366,0,0,1-12.352-12.352V808.882A12.366,12.366,0,0,1,538.8,796.53H838.824a12.366,12.366,0,0,1,12.352,12.352v238.754A12.361,12.361,0,0,1,838.827,1059.988ZM538.8,797.864a11.032,11.032,0,0,0-11.018,11.018v238.754a11.032,11.032,0,0,0,11.018,11.018H838.824a11.032,11.032,0,0,0,11.018-11.018V808.882a11.032,11.032,0,0,0-11.018-11.018Z" transform="translate(-485.879 -756.88)"/>
        <g id="Group_758" data-name="Group 758" transform="translate(379.707 45.73)">
          <path id="Path_610" data-name="Path 610" d="M1737.585,872.644h-85.271a7.021,7.021,0,0,1-7.014-7.011V823.6a7.019,7.019,0,0,1,7.014-7.011h85.271a7.019,7.019,0,0,1,7.011,7.011v42.032A7.015,7.015,0,0,1,1737.585,872.644Zm-85.268-54.721a5.683,5.683,0,0,0-5.677,5.677v42.032a5.683,5.683,0,0,0,5.677,5.677h85.271a5.683,5.683,0,0,0,5.677-5.677V823.6a5.683,5.683,0,0,0-5.677-5.677Z" transform="translate(-1645.3 -816.59)"/>
          <path id="Path_611" data-name="Path 611" d="M1737.585,1097.754h-85.271a7.021,7.021,0,0,1-7.014-7.011v-42.033a7.019,7.019,0,0,1,7.014-7.011h85.271a7.019,7.019,0,0,1,7.011,7.011v42.033A7.019,7.019,0,0,1,1737.585,1097.754Zm-85.271-54.721a5.683,5.683,0,0,0-5.677,5.677v42.033a5.683,5.683,0,0,0,5.677,5.677h85.271a5.683,5.683,0,0,0,5.677-5.677v-42.033a5.683,5.683,0,0,0-5.677-5.677Z" transform="translate(-1645.3 -973.467)"/>
          <path id="Path_612" data-name="Path 612" d="M1737.582,1318.4h-85.271a7.019,7.019,0,0,1-7.011-7.011v-42.032a7.018,7.018,0,0,1,7.011-7.011h85.271a7.021,7.021,0,0,1,7.014,7.011v42.032A7.021,7.021,0,0,1,1737.582,1318.4Zm-85.268-54.72a5.683,5.683,0,0,0-5.677,5.677v42.032a5.683,5.683,0,0,0,5.677,5.677h85.271a5.683,5.683,0,0,0,5.677-5.677v-42.032a5.683,5.683,0,0,0-5.677-5.677Z" transform="translate(-1645.3 -1127.235)"/>
          <path id="Path_613" data-name="Path 613" d="M1737.582,1536.827h-85.271a7.019,7.019,0,0,1-7.011-7.011v-42.035a7.018,7.018,0,0,1,7.011-7.011h85.271a7.021,7.021,0,0,1,7.014,7.011v42.032A7.022,7.022,0,0,1,1737.582,1536.827Zm-85.268-54.724a5.683,5.683,0,0,0-5.677,5.677v42.032a5.683,5.683,0,0,0,5.677,5.677h85.271a5.683,5.683,0,0,0,5.677-5.677v-42.032a5.683,5.683,0,0,0-5.677-5.677Z" transform="translate(-1645.3 -1279.45)"/>
          <g id="Group_757" data-name="Group 757" transform="translate(44.384 156.526)">
            <path id="Path_614" data-name="Path 614" d="M1791.73,1343.516v-9.848a.679.679,0,0,1,.979-.609l9.848,4.862a.678.678,0,0,1,.006,1.213l-9.848,4.986A.677.677,0,0,1,1791.73,1343.516Z" transform="translate(-1791.73 -1332.988)" fill="#fff"/>
          </g>
        </g>
        <g id="Group_772" data-name="Group 772" transform="translate(59.837 54.115)">
          <g id="Group_761" data-name="Group 761" transform="translate(0 16.12)">
            <g id="Group_759" data-name="Group 759" transform="translate(11.333 38.793)">
              <path id="Path_615" data-name="Path 615" d="M868.679,1199.855H631.914a2.362,2.362,0,0,1-2.3-2.419V1037.612a9.761,9.761,0,0,1,9.612-9.993l234.917,2.188-.018,163.876C874.117,1197.091,871.683,1199.855,868.679,1199.855Z" transform="translate(-628.94 -1026.952)" fill="#fff"/>
              <path id="Path_616" data-name="Path 616" d="M867.142,1198.99H630.374a3.035,3.035,0,0,1-2.974-3.086V1036.08a10.794,10.794,0,0,1,3.186-7.742,9.914,9.914,0,0,1,7.1-2.919l234.917,2.188a.666.666,0,0,1,.661.667l-.018,163.877C873.247,1195.922,870.507,1198.99,867.142,1198.99ZM637.594,1026.75a8.582,8.582,0,0,0-6.068,2.534,9.481,9.481,0,0,0-2.789,6.793V1195.9a1.7,1.7,0,0,0,1.637,1.752H867.139c2.631,0,4.771-2.47,4.771-5.5l.018-163.216-234.256-2.182Z" transform="translate(-627.4 -1025.419)"/>
            </g>
            <path id="Path_617" data-name="Path 617" d="M728.8,960.085l-136.194-.7a2.685,2.685,0,0,1-2.352-3.825l40.023-56.194a4.533,4.533,0,0,1,3.78-1.928c16.035.324,116.243.588,116.243.588Z" transform="translate(-590.011 -897.437)"/>
            <g id="Group_760" data-name="Group 760" transform="translate(23.397 110.521)">
              <path id="Path_618" data-name="Path 618" d="M760.169,1291.6H745.035a2.8,2.8,0,0,1-2.795-2.795v-23.94a2.8,2.8,0,0,1,2.795-2.795h15.134a2.8,2.8,0,0,1,2.795,2.795v23.94A2.8,2.8,0,0,1,760.169,1291.6Zm-15.134-28.2a1.462,1.462,0,0,0-1.461,1.461v23.94a1.462,1.462,0,0,0,1.461,1.461h15.134a1.462,1.462,0,0,0,1.461-1.461v-23.94a1.462,1.462,0,0,0-1.461-1.461Z" transform="translate(-719.495 -1262.067)"/>
              <path id="Path_619" data-name="Path 619" d="M684.914,1291.592h-14.7a3.014,3.014,0,0,1-3.01-3.01V1265.07a3.014,3.014,0,0,1,3.01-3.01h14.7a3.013,3.013,0,0,1,3.01,3.01v23.512A3.014,3.014,0,0,1,684.914,1291.592Zm-14.7-28.2a1.678,1.678,0,0,0-1.676,1.676v23.512a1.678,1.678,0,0,0,1.676,1.676h14.7a1.678,1.678,0,0,0,1.676-1.676V1265.07a1.678,1.678,0,0,0-1.676-1.676Z" transform="translate(-667.2 -1262.06)"/>
              <path id="Path_620" data-name="Path 620" d="M760.768,1394.952h-16.35a2.191,2.191,0,0,1-2.188-2.188v-25.155a2.191,2.191,0,0,1,2.188-2.188h16.35a2.191,2.191,0,0,1,2.188,2.188v25.155A2.189,2.189,0,0,1,760.768,1394.952Zm-16.347-28.2a.852.852,0,0,0-.852.852v25.155a.853.853,0,0,0,.852.852h16.35a.853.853,0,0,0,.852-.852v-25.155a.852.852,0,0,0-.852-.852Z" transform="translate(-719.488 -1334.09)"/>
              <path id="Path_621" data-name="Path 621" d="M684.853,1394.952H670.27a3.072,3.072,0,0,1-3.07-3.07V1368.49a3.072,3.072,0,0,1,3.07-3.071h14.583a3.072,3.072,0,0,1,3.07,3.071v23.391A3.076,3.076,0,0,1,684.853,1394.952Zm-14.586-28.2a1.735,1.735,0,0,0-1.734,1.734v23.391a1.735,1.735,0,0,0,1.734,1.734H684.85a1.736,1.736,0,0,0,1.734-1.734v-23.391a1.735,1.735,0,0,0-1.734-1.734Z" transform="translate(-667.2 -1334.09)"/>
            </g>
          </g>
          <g id="Group_771" data-name="Group 771" transform="translate(72.041)">
            <g id="Group_762" data-name="Group 762" transform="translate(8.75 15.085)">
              <path id="Path_622" data-name="Path 622" d="M859.726,1103.542,858.75,940.4l94.328-44.175,90.115,44.824L1041.4,1106.1a4.091,4.091,0,0,1-4.128,3.989l-172.545-1.5A5.044,5.044,0,0,1,859.726,1103.542Z" transform="translate(-858.083 -895.554)" fill="#fff"/>
              <path id="Path_623" data-name="Path 623" d="M1035.776,1109.224h-.042l-172.546-1.5a5.725,5.725,0,0,1-5.662-5.7L856.55,938.87a.672.672,0,0,1,.385-.609l94.328-44.175a.669.669,0,0,1,.579.006l90.115,44.824a.666.666,0,0,1,.37.606l-1.792,165.053A4.779,4.779,0,0,1,1035.776,1109.224ZM857.89,939.288l.973,162.719v0a4.388,4.388,0,0,0,4.341,4.374l172.546,1.5h.03a3.44,3.44,0,0,0,3.425-3.337l1.785-164.625-89.451-44.494Z" transform="translate(-856.55 -894.023)"/>
            </g>
            <g id="Group_763" data-name="Group 763" transform="translate(136.53 126.126)">
              <path id="Path_624" data-name="Path 624" d="M1371.079,1289.857h-15.134a2.8,2.8,0,0,1-2.795-2.795v-23.9a2.8,2.8,0,0,1,2.795-2.795h15.134a2.8,2.8,0,0,1,2.795,2.795v23.9A2.8,2.8,0,0,1,1371.079,1289.857Zm-15.134-28.156a1.462,1.462,0,0,0-1.461,1.461v23.9a1.462,1.462,0,0,0,1.461,1.461h15.134a1.462,1.462,0,0,0,1.461-1.461v-23.9a1.462,1.462,0,0,0-1.461-1.461Z" transform="translate(-1330.405 -1260.367)"/>
              <path id="Path_625" data-name="Path 625" d="M1295.824,1289.849h-14.7a3.013,3.013,0,0,1-3.01-3.01v-23.47a3.013,3.013,0,0,1,3.01-3.01h14.7a3.013,3.013,0,0,1,3.01,3.01v23.47A3.013,3.013,0,0,1,1295.824,1289.849Zm-14.7-28.156a1.678,1.678,0,0,0-1.676,1.676v23.47a1.678,1.678,0,0,0,1.676,1.676h14.7a1.678,1.678,0,0,0,1.676-1.676v-23.47a1.678,1.678,0,0,0-1.676-1.676Z" transform="translate(-1278.11 -1260.36)"/>
              <path id="Path_626" data-name="Path 626" d="M1371.688,1393.06h-16.349a2.191,2.191,0,0,1-2.188-2.189v-25.113a2.191,2.191,0,0,1,2.188-2.188h16.349a2.191,2.191,0,0,1,2.189,2.188v25.113A2.191,2.191,0,0,1,1371.688,1393.06Zm-16.349-28.156a.852.852,0,0,0-.852.852v25.113a.853.853,0,0,0,.852.852h16.349a.853.853,0,0,0,.852-.852v-25.113a.853.853,0,0,0-.852-.852Z" transform="translate(-1330.405 -1332.286)"/>
              <path id="Path_627" data-name="Path 627" d="M1295.763,1393.06H1281.18a3.072,3.072,0,0,1-3.07-3.07V1366.64a3.072,3.072,0,0,1,3.07-3.07h14.583a3.072,3.072,0,0,1,3.07,3.07v23.349A3.074,3.074,0,0,1,1295.763,1393.06ZM1281.18,1364.9a1.735,1.735,0,0,0-1.734,1.734v23.349a1.735,1.735,0,0,0,1.734,1.734h14.583a1.736,1.736,0,0,0,1.734-1.734v-23.349a1.736,1.736,0,0,0-1.734-1.734Z" transform="translate(-1278.11 -1332.286)"/>
            </g>
            <g id="Group_764" data-name="Group 764" transform="translate(79.384 42.098)">
              <path id="Path_628" data-name="Path 628" d="M1182.549,1007.255h-15.134a2.8,2.8,0,0,1-2.795-2.795V985.935a2.8,2.8,0,0,1,2.795-2.795h15.134a2.8,2.8,0,0,1,2.795,2.795v18.526A2.8,2.8,0,0,1,1182.549,1007.255Zm-15.134-22.785a1.462,1.462,0,0,0-1.461,1.461v18.526a1.462,1.462,0,0,0,1.461,1.461h15.134a1.462,1.462,0,0,0,1.461-1.461V985.932a1.462,1.462,0,0,0-1.461-1.461Z" transform="translate(-1141.875 -983.14)"/>
              <path id="Path_629" data-name="Path 629" d="M1107.294,1007.255h-14.7a3.013,3.013,0,0,1-3.01-3.01v-18.1a3.014,3.014,0,0,1,3.01-3.01h14.7a3.013,3.013,0,0,1,3.01,3.01v18.1A3.013,3.013,0,0,1,1107.294,1007.255Zm-14.7-22.785a1.678,1.678,0,0,0-1.676,1.676v18.1a1.678,1.678,0,0,0,1.676,1.676h14.7a1.678,1.678,0,0,0,1.676-1.676v-18.1a1.678,1.678,0,0,0-1.676-1.676Z" transform="translate(-1089.58 -983.14)"/>
              <path id="Path_630" data-name="Path 630" d="M1183.148,1090.759H1166.8a2.191,2.191,0,0,1-2.188-2.188v-19.742a2.191,2.191,0,0,1,2.188-2.188h16.35a2.191,2.191,0,0,1,2.189,2.188v19.742A2.189,2.189,0,0,1,1183.148,1090.759Zm-16.347-22.782a.852.852,0,0,0-.852.852v19.742a.852.852,0,0,0,.852.852h16.35a.852.852,0,0,0,.852-.852v-19.742a.852.852,0,0,0-.852-.852Z" transform="translate(-1141.868 -1041.33)"/>
              <path id="Path_631" data-name="Path 631" d="M1107.233,1090.758H1092.65a3.072,3.072,0,0,1-3.07-3.07V1069.71a3.072,3.072,0,0,1,3.07-3.071h14.583a3.072,3.072,0,0,1,3.071,3.071v17.978A3.072,3.072,0,0,1,1107.233,1090.758Zm-14.586-22.782a1.735,1.735,0,0,0-1.734,1.734v17.978a1.736,1.736,0,0,0,1.734,1.734h14.583a1.735,1.735,0,0,0,1.734-1.734V1069.71a1.735,1.735,0,0,0-1.734-1.734Z" transform="translate(-1089.58 -1041.33)"/>
            </g>
            <g id="Group_765" data-name="Group 765" transform="translate(20.808 126.035)">
              <path id="Path_632" data-name="Path 632" d="M989.3,1289.592H974.165a2.8,2.8,0,0,1-2.795-2.795v-23.943a2.8,2.8,0,0,1,2.795-2.795H989.3a2.8,2.8,0,0,1,2.795,2.795V1286.8A2.8,2.8,0,0,1,989.3,1289.592Zm-15.134-28.2a1.462,1.462,0,0,0-1.461,1.461V1286.8a1.462,1.462,0,0,0,1.461,1.461H989.3a1.462,1.462,0,0,0,1.461-1.461v-23.943a1.462,1.462,0,0,0-1.461-1.461Z" transform="translate(-948.625 -1260.06)"/>
              <path id="Path_633" data-name="Path 633" d="M914.044,1289.592h-14.7a3.013,3.013,0,0,1-3.01-3.01V1263.07a3.014,3.014,0,0,1,3.01-3.01h14.7a3.013,3.013,0,0,1,3.01,3.01v23.512A3.013,3.013,0,0,1,914.044,1289.592Zm-14.707-28.2a1.675,1.675,0,0,0-1.673,1.676v23.512a1.677,1.677,0,0,0,1.673,1.676h14.7a1.678,1.678,0,0,0,1.676-1.676V1263.07a1.678,1.678,0,0,0-1.676-1.676Z" transform="translate(-896.33 -1260.06)"/>
              <path id="Path_634" data-name="Path 634" d="M989.9,1392.952h-16.35a2.191,2.191,0,0,1-2.189-2.188v-25.155a2.191,2.191,0,0,1,2.189-2.188H989.9a2.191,2.191,0,0,1,2.188,2.188v25.155A2.189,2.189,0,0,1,989.9,1392.952Zm-16.35-28.2a.852.852,0,0,0-.852.852v25.155a.852.852,0,0,0,.852.852H989.9a.852.852,0,0,0,.852-.852v-25.155a.852.852,0,0,0-.852-.852Z" transform="translate(-948.617 -1332.091)"/>
              <path id="Path_635" data-name="Path 635" d="M913.983,1392.952H899.4a3.072,3.072,0,0,1-3.071-3.07V1366.49a3.072,3.072,0,0,1,3.071-3.07h14.583a3.072,3.072,0,0,1,3.071,3.07v23.391A3.074,3.074,0,0,1,913.983,1392.952Zm-14.586-28.2a1.735,1.735,0,0,0-1.734,1.734v23.391a1.736,1.736,0,0,0,1.734,1.734H913.98a1.735,1.735,0,0,0,1.734-1.734V1366.49a1.735,1.735,0,0,0-1.734-1.734Z" transform="translate(-896.33 -1332.09)"/>
            </g>
            <g id="Group_766" data-name="Group 766">
              <path id="Path_636" data-name="Path 636" d="M932.158,846.89l98.014,54.678c2.079,1.161,2.471,3.516.849,5.08l-3.744,4.907a5.453,5.453,0,0,1-6.944,1.564l-88.89-47.54a2.007,2.007,0,0,0-1.894-.006l-91.079,48.04a2.811,2.811,0,0,1-3.525-.758l-3.856-4.8c-2.191-2.731-1.291-6.38,2.031-8.217l95.713-52.953A3.416,3.416,0,0,1,932.158,846.89Z" transform="translate(-829.222 -845.788)" fill="#bf4804"/>
              <path id="Path_637" data-name="Path 637" d="M835.617,913.077a3.5,3.5,0,0,1-2.734-1.337l-3.855-4.8a5.739,5.739,0,0,1-1.24-4.756,6.706,6.706,0,0,1,3.468-4.462l95.713-52.953a4.075,4.075,0,0,1,3.974.006l98.014,54.678a4.076,4.076,0,0,1,2.164,2.989,3.715,3.715,0,0,1-1.14,3.119l-3.716,4.868a6.139,6.139,0,0,1-7.79,1.749l-88.887-47.54a1.349,1.349,0,0,0-1.267-.006l-91.079,48.04A3.45,3.45,0,0,1,835.617,913.077Zm93.334-67.487a2.761,2.761,0,0,0-1.334.345L831.9,898.888a5.312,5.312,0,0,0-2.8,3.552,4.425,4.425,0,0,0,.97,3.664l3.855,4.8a2.141,2.141,0,0,0,2.692.585l91.079-48.04a2.682,2.682,0,0,1,2.522.009l88.89,47.54a4.808,4.808,0,0,0,6.1-1.379l3.743-4.907a.816.816,0,0,1,.067-.076,2.369,2.369,0,0,0,.782-2.022,2.756,2.756,0,0,0-1.491-1.994l-98.014-54.678A2.737,2.737,0,0,0,928.95,845.589Z" transform="translate(-827.682 -844.254)" fill="#bf4804"/>
            </g>
            <g id="Group_770" data-name="Group 770" transform="translate(66.751 124.871)">
              <path id="Path_638" data-name="Path 638" d="M1122.515,1362.742h-43.648a4.008,4.008,0,0,1-4.007-4.007v-98.508a4.007,4.007,0,0,1,4.007-4.007h43.648a4.008,4.008,0,0,1,4.007,4.007v98.508A4.006,4.006,0,0,1,1122.515,1362.742Z" transform="translate(-1066.688 -1256.22)"/>
              <g id="Group_767" data-name="Group 767" transform="translate(10.342 2.304)">
                <path id="Path_639" data-name="Path 639" d="M1130.494,1365.659l-44.257.158a2.007,2.007,0,0,1-2.007-2.007v-95.774a2.007,2.007,0,0,1,2.007-2.007l43.43.052a1.414,1.414,0,0,1,1.412,1.446Z" transform="translate(-1083.56 -1265.36)" fill="#fff"/>
                <path id="Path_640" data-name="Path 640" d="M1084.7,1364.947a2.682,2.682,0,0,1-2.68-2.677V1266.5a2.679,2.679,0,0,1,2.677-2.677l43.43.051a2.086,2.086,0,0,1,2.079,2.128l-.585,98.123a.667.667,0,0,1-.664.664Zm44.254-.827h0Zm-44.257-98.963a1.34,1.34,0,0,0-1.34,1.34v95.774a1.34,1.34,0,0,0,1.34,1.34l43.593-.155.582-97.471a.745.745,0,0,0-.745-.773Z" transform="translate(-1082.02 -1263.82)"/>
              </g>
              <g id="Group_768" data-name="Group 768" transform="translate(0 96.374)">
                <path id="Path_641" data-name="Path 641" d="M1115.1,1585.66h-63.111a1.89,1.89,0,0,1-1.891-1.891v-5.508a1.89,1.89,0,0,1,1.891-1.891H1115.1a1.89,1.89,0,0,1,1.891,1.891v5.508A1.892,1.892,0,0,1,1115.1,1585.66Z" transform="translate(-1049.433 -1575.703)" fill="#fff"/>
                <path id="Path_642" data-name="Path 642" d="M1113.569,1584.794h-63.111a2.561,2.561,0,0,1-2.558-2.558v-5.508a2.563,2.563,0,0,1,2.558-2.558h63.111a2.563,2.563,0,0,1,2.558,2.558v5.508A2.561,2.561,0,0,1,1113.569,1584.794Zm-63.111-9.287a1.226,1.226,0,0,0-1.224,1.221v5.508a1.224,1.224,0,0,0,1.224,1.222h63.111a1.224,1.224,0,0,0,1.222-1.222v-5.508a1.224,1.224,0,0,0-1.222-1.221Z" transform="translate(-1047.9 -1574.17)"/>
              </g>
              <g id="Group_769" data-name="Group 769" transform="translate(16.835 10.63)">
                <path id="Path_643" data-name="Path 643" d="M1108.366,1313.025a.667.667,0,0,1-.361-1.228l31.736-20.4a.667.667,0,1,1,.721,1.121l-31.736,20.4A.658.658,0,0,1,1108.366,1313.025Z" transform="translate(-1106.408 -1291.289)"/>
                <path id="Path_644" data-name="Path 644" d="M1104.106,1361.211a.667.667,0,0,1-.361-1.228l29.52-18.978a.667.667,0,0,1,.721,1.122l-29.52,18.978A.657.657,0,0,1,1104.106,1361.211Z" transform="translate(-1103.439 -1325.862)"/>
              </g>
            </g>
            <path id="Path_645" data-name="Path 645" d="M1050.534,1198.85h-.006l-161.058-1.376a.667.667,0,0,1,.006-1.334h.006l161.058,1.376a.667.667,0,0,1-.006,1.334Z" transform="translate(-870.281 -1089.479)"/>
          </g>
        </g>
        <g id="Group_775" data-name="Group 775" transform="translate(297.271 237.587)">
          <path id="Path_646" data-name="Path 646" d="M1445.557,1508.221s-4.113-18.887,5.1-34.024c.309-.506,2.37.646,2.71.149.434-.637-.846-2.913-.361-3.531a34.13,34.13,0,0,1,6.59-6.374,38.455,38.455,0,0,1,1.713,13.931c-.03.612-2.8,1.667-2.864,2.3-.057.6,2.591.791,2.5,1.413C1459.782,1490.147,1455.872,1499.761,1445.557,1508.221Z" transform="translate(-1423.028 -1459.927)"/>
          <g id="Group_773" data-name="Group 773">
            <path id="Path_647" data-name="Path 647" d="M1393.434,1472.753c-.27-.667-3.35.749-3.635.109s2.022-4.138,1.731-4.741a61.734,61.734,0,0,0-13.628-18.572,47.52,47.52,0,0,0-4.277,14.51c-.1.764,3.064,2.846,3,3.6-.067.83-3.237,1.115-3.261,1.937a55.786,55.786,0,0,0,6.929,29.4c5.617-.446,12.033.452,16.959-1.021A53.315,53.315,0,0,0,1393.434,1472.753Z" transform="translate(-1373.336 -1449.55)"/>
            <path id="Path_648" data-name="Path 648" d="M1416.206,1574.149a.669.669,0,0,1-.63-.445c-1.358-3.816-2.628-7.714-3.768-11.585a.669.669,0,0,1,1.282-.379c1.137,3.847,2.395,7.72,3.746,11.515a.664.664,0,0,1-.406.852A.578.578,0,0,1,1416.206,1574.149Z" transform="translate(-1400.128 -1527.4)" fill="#fff"/>
            <path id="Path_649" data-name="Path 649" d="M1396.167,1491.349a.672.672,0,0,1-.646-.5c-1.755-6.584-3.219-13.325-4.347-20.039l-.515-3.064a.669.669,0,0,1,1.319-.221l.515,3.064c1.122,6.671,2.577,13.373,4.319,19.914a.673.673,0,0,1-.646.843Z" transform="translate(-1385.402 -1461.69)" fill="#fff"/>
          </g>
          <g id="Group_774" data-name="Group 774" transform="translate(21.698 27.195)">
            <path id="Path_650" data-name="Path 650" d="M1444.92,1561.239s1.84-20.181,23.837-21.969C1468.757,1539.27,1465.45,1556.468,1444.92,1561.239Z" transform="translate(-1444.92 -1539.27)"/>
            <path id="Path_651" data-name="Path 651" d="M1460.428,1565.415a.66.66,0,0,1-.394-.13.668.668,0,0,1-.143-.933c4.159-5.65,13.864-13.246,14.273-13.567a.667.667,0,1,1,.821,1.052c-.1.076-9.972,7.805-14.022,13.307A.659.659,0,0,1,1460.428,1565.415Z" transform="translate(-1455.263 -1547.195)" fill="#fff"/>
          </g>
        </g>
      </g>
      <g id="Group_791" data-name="Group 791" transform="translate(456.695 193.847)">
        <path id="Path_652" data-name="Path 652" d="M1950.191,1011.59c3.107.776,6.144-1.816,10.855-5.838,5.726-4.886,9.715-8.293,9.927-13.776a14.5,14.5,0,0,0-5.838-11.676c-1.852-1.373-4.659-2-10.275-3.271-6.426-1.449-7.25-.876-10.976-2.334-4.335-1.7-5.014-3.177-7-2.8-3.225.609-6.135,5.365-6.071,9.806.085,5.877,5.313,6.756,11.209,16.344C1946.946,1006.061,1946.5,1010.668,1950.191,1011.59Z" transform="translate(-1866.671 -971.836)"/>
        <g id="Group_780" data-name="Group 780" transform="translate(0 55.355)">
          <g id="Group_777" data-name="Group 777" transform="translate(25.614)">
            <path id="Path_653" data-name="Path 653" d="M1914.28,1212.515s-4.968-18.474-8.781-28.862c-7.7-21-24.191-22.973-24.191-22.973-.464-.194-.934-.37-1.416-.527a73.467,73.467,0,0,0-45.557.206c-.533.17-1.049.37-1.558.585v-.006c-13.925,3.307-26.343,37.7-26.343,37.7l10.136,5.808-10.609,61.086c-.77,6.511,7.932,12.843,14.064,15.168,6.4,2.428,16.089,4.722,29.8,4.722,14.7,0,25.379.852,31.342-1.758,4.947-2.167,12.394-7.408,12.646-12.8l-.685-58.443Z" transform="translate(-1805.247 -1155.982)" fill="#fff"/>
            <path id="Path_654" data-name="Path 654" d="M1863.852,1284.7c-2.125,0-4.407-.03-6.844-.061-2.77-.036-5.632-.073-8.714-.073-11.582,0-21.684-1.6-30.035-4.768-6.5-2.464-15.3-9.018-14.489-15.868l10.533-60.661-9.73-5.574a.669.669,0,0,1-.3-.807c.512-1.419,12.691-34.743,26.8-38.122.567-.237,1.055-.419,1.53-.57a74.321,74.321,0,0,1,45.97-.206c.476.155.97.34,1.467.549l0,.006c2.54.412,17.4,3.825,24.564,23.352,3.78,10.3,8.748,28.735,8.8,28.92a.668.668,0,0,1-.643.843h0l-20.481-.1.679,57.764c-.267,5.783-7.948,11.191-13.046,13.425C1876.186,1284.378,1870.863,1284.7,1863.852,1284.7Zm-58.125-87.884,9.645,5.526a.675.675,0,0,1,.327.694l-10.609,61.086c-.715,6.032,7.717,12.182,13.643,14.428,8.2,3.1,18.141,4.68,29.559,4.68,3.092,0,5.959.036,8.733.073,10.309.133,17.762.23,22.339-1.773,4.61-2.019,12.009-7.123,12.246-12.224l-.685-58.4a.66.66,0,0,1,.194-.479.667.667,0,0,1,.473-.2h0l20.281.094c-1.021-3.74-5.238-18.981-8.532-27.959-7.463-20.336-23.485-22.521-23.646-22.542a.685.685,0,0,1-.176-.046c-.476-.2-.921-.364-1.367-.509a72.988,72.988,0,0,0-45.148.206c-.461.149-.94.327-1.5.564a.593.593,0,0,1-.188.048C1818.852,1163.164,1807.352,1192.509,1805.728,1196.816Z" transform="translate(-1803.717 -1154.458)"/>
          </g>
          <path id="Path_655" data-name="Path 655" d="M1938.635,1183.1a44.385,44.385,0,0,1-6.214-.422.667.667,0,0,1,.188-1.321c15.595,2.21,31.508-5.207,31.669-5.283a.667.667,0,1,1,.57,1.206C1964.709,1177.342,1952.378,1183.1,1938.635,1183.1Z" transform="translate(-1867.396 -1169.476)"/>
          <path id="Path_656" data-name="Path 656" d="M1795.787,1268.405l-60.983-.094a3.362,3.362,0,0,1-3.258-2.558l-12.234-49.656a3.364,3.364,0,0,1,3.271-4.168l60.983.094a3.361,3.361,0,0,1,3.258,2.558l12.234,49.656A3.364,3.364,0,0,1,1795.787,1268.405Z" transform="translate(-1719.214 -1194.51)"/>
          <g id="Group_778" data-name="Group 778" transform="translate(3.288 39.441)">
            <path id="Path_657" data-name="Path 657" d="M1732.938,1288.771l1.782,4.968,14.674-6.959s8.054,7-11.506,15.91C1729.74,1306.406,1732.938,1288.771,1732.938,1288.771Z" transform="translate(-1731.635 -1286.113)" fill="#fff"/>
            <path id="Path_658" data-name="Path 658" d="M1734.275,1302.341a3.194,3.194,0,0,1-2.012-.676c-3.571-2.78-1.773-13.349-1.555-14.546a.67.67,0,0,1,1.288-.106l1.534,4.274,14.006-6.644a.668.668,0,0,1,.725.1,5.985,5.985,0,0,1,1.809,5.18c-.585,4.049-5.119,8.035-13.476,11.843A5.641,5.641,0,0,1,1734.275,1302.341Zm-2.625-12.334c-.4,3.728-.506,9.093,1.434,10.6.7.546,1.67.528,2.955-.061,9.839-4.486,12.34-8.348,12.707-10.8a4.628,4.628,0,0,0-1.07-3.7l-14.24,6.753a.666.666,0,0,1-.916-.376Z" transform="translate(-1730.063 -1284.579)"/>
          </g>
          <g id="Group_779" data-name="Group 779" transform="translate(68.037 21.359)">
            <path id="Path_659" data-name="Path 659" d="M1971.167,1233.362s27.389,15.431,33.036,20.272,11.773,8.517,3.786,19.069-41.908-31.818-41.908-31.818-6.529,1.07-8.793-7.823c0,0-11.024.379-11.418-3.083l15.55-2.758a6.16,6.16,0,0,1,5.492,1.77Z" transform="translate(-1945.205 -1226.459)" fill="#fff"/>
            <path id="Path_660" data-name="Path 660" d="M2002.938,1273.524c-11.312,0-35.9-30.029-38.683-33.479-1.509.073-6.847-.264-9-7.835-2.758.055-11.164-.088-11.573-3.689a.667.667,0,0,1,.546-.734l15.55-2.758a6.823,6.823,0,0,1,6.086,1.961l4.189,4.3c1.97,1.112,27.526,15.559,33.06,20.3.437.373.873.737,1.306,1.1,5.08,4.247,10.333,8.635,2.58,18.881a4.815,4.815,0,0,1-3.968,1.952Zm-38.386-34.84a.677.677,0,0,1,.524.252c.267.333,26.753,33.251,37.856,33.254h.075a3.494,3.494,0,0,0,2.922-1.425c6.987-9.229,2.855-12.679-2.37-17.05-.436-.367-.879-.734-1.318-1.109-5.535-4.744-32.657-20.042-32.93-20.2a.693.693,0,0,1-.152-.115l-4.256-4.371a5.478,5.478,0,0,0-4.9-1.576l-14.734,2.613c1.264,1.509,6.608,2.034,10.463,1.9a.652.652,0,0,1,.67.5c2.079,8.16,7.8,7.366,8.042,7.329A.382.382,0,0,1,1964.552,1238.684Z" transform="translate(-1943.676 -1224.924)"/>
          </g>
        </g>
        <g id="Group_787" data-name="Group 787" transform="translate(22.17 143.781)">
          <g id="Group_783" data-name="Group 783" transform="translate(20.974 162.548)">
            <g id="Group_781" data-name="Group 781" transform="translate(3.371)">
              <path id="Path_661" data-name="Path 661" d="M1889.143,1984.66l9.081,27.1s-9.89-.846-10.839-.661-12.515-24.71-12.515-24.71Z" transform="translate(-1874.204 -1983.992)" fill="#fff"/>
              <path id="Path_662" data-name="Path 662" d="M1896.694,2010.888a.4.4,0,0,1-.057,0c-4.7-.4-10.039-.773-10.654-.67-.679.133-1.092.215-7.338-12.649-2.98-6.135-5.881-12.373-5.907-12.437a.668.668,0,0,1,.524-.946l14.273-1.725a.661.661,0,0,1,.712.452l9.081,27.095a.672.672,0,0,1-.634.882Zm-10.318-2.016c1.9,0,6.959.4,9.363.6l-8.584-25.616-12.819,1.549c4.059,8.7,10.391,21.836,11.724,23.476C1886.152,2008.873,1886.258,2008.873,1886.376,2008.873Zm-.639.03h-.006S1885.733,2008.9,1885.737,2008.9Z" transform="translate(-1872.673 -1982.455)"/>
            </g>
            <g id="Group_782" data-name="Group 782" transform="translate(0 15.746)">
              <path id="Path_663" data-name="Path 663" d="M1888.4,2041.991s-13.658-5.6-16.183,1.428c-3.213,8.939-8.236,22.572-8.236,22.572a3.828,3.828,0,0,0,3.3,5.107c4.992.4,12.437.728,15.9-.491,5.474-1.921,14.558-19.25,14.558-19.25l-2.8-14.744S1889.987,2035.917,1888.4,2041.991Z" transform="translate(-1863.083 -2035.927)" fill="#fff"/>
              <path id="Path_664" data-name="Path 664" d="M1873.794,2070.609c-2.722,0-5.6-.164-8.1-.367a4.494,4.494,0,0,1-3.871-6c.052-.143,5.059-13.743,8.236-22.575a5.465,5.465,0,0,1,3.043-3.246c4.25-1.888,11.133.352,13.334,1.161,1.919-5.811,7.02-5.159,7.072-5.156a.67.67,0,0,1,.564.536l2.8,14.743a.672.672,0,0,1-.064.433c-.376.719-9.272,17.583-14.928,19.569A27.144,27.144,0,0,1,1873.794,2070.609Zm3.349-31.59a8.681,8.681,0,0,0-3.5.627,4.124,4.124,0,0,0-2.328,2.476c-3.177,8.838-8.187,22.442-8.236,22.579a3.156,3.156,0,0,0,2.722,4.21c7.517.606,13.07.443,15.631-.455,4.229-1.482,11.488-13.819,14.08-18.723l-2.658-14c-1.167.015-4.186.5-5.338,4.9a.67.67,0,0,1-.9.448A29.877,29.877,0,0,0,1877.144,2039.019Z" transform="translate(-1861.552 -2034.404)"/>
            </g>
            <path id="Path_665" data-name="Path 665" d="M1888.535,2130.1h-14.028a.667.667,0,1,1,0-1.333h14.028a.667.667,0,1,1,0,1.333Z" transform="translate(-1870.115 -2084.42)"/>
          </g>
          <g id="Group_784" data-name="Group 784" transform="translate(48.871 168.499)">
            <path id="Path_666" data-name="Path 666" d="M1971.288,2005l-3.086,27.259-12.412-3.407.955-24.558Z" transform="translate(-1955.123 -2003.623)" fill="#fff"/>
            <path id="Path_667" data-name="Path 667" d="M1966.668,2031.388a.673.673,0,0,1-.176-.024l-12.412-3.4a.668.668,0,0,1-.491-.67l.955-24.558a.669.669,0,0,1,.215-.467.7.7,0,0,1,.485-.176l14.543.706a.666.666,0,0,1,.631.74l-3.086,27.256a.669.669,0,0,1-.288.479A.661.661,0,0,1,1966.668,2031.388Zm-11.724-4.577,11.148,3.058,2.919-25.774-13.158-.639Z" transform="translate(-1953.588 -2002.089)"/>
          </g>
          <g id="Group_785" data-name="Group 785" transform="translate(38.455 187.868)">
            <path id="Path_668" data-name="Path 668" d="M1945.422,2096.867h-19.642a4.352,4.352,0,0,1-4.31-4.986c.655-4.434,2.792-11.794,9.2-21.915a3.826,3.826,0,0,1,3.228-1.776h5.974a2.011,2.011,0,0,1,2,1.8l.452,4.31,2.6-3.434a58.518,58.518,0,0,1,4.859,21.563A4.363,4.363,0,0,1,1945.422,2096.867Z" transform="translate(-1920.756 -2067.523)" fill="#fff"/>
            <path id="Path_669" data-name="Path 669" d="M1943.889,2096h-19.642a5.021,5.021,0,0,1-4.971-5.75c.661-4.459,2.807-11.925,9.294-22.173a4.465,4.465,0,0,1,3.792-2.088h5.974a2.674,2.674,0,0,1,2.664,2.4l.276,2.628,1.579-2.085a.666.666,0,0,1,1.134.118,59.834,59.834,0,0,1,4.923,21.836,5.025,5.025,0,0,1-5.023,5.114Zm-11.527-28.674a3.14,3.14,0,0,0-2.664,1.467c-6.359,10.051-8.46,17.323-9.1,21.654a3.685,3.685,0,0,0,3.649,4.219h19.642a3.69,3.69,0,0,0,3.689-3.756,58.736,58.736,0,0,0-4.349-20.263l-1.91,2.525a.669.669,0,0,1-1.2-.333l-.452-4.31a1.339,1.339,0,0,0-1.336-1.2Z" transform="translate(-1919.223 -2065.99)"/>
          </g>
          <path id="Path_670" data-name="Path 670" d="M1949.829,2146.443h-23.512a.667.667,0,1,1,0-1.333h23.512a.667.667,0,1,1,0,1.333Z" transform="translate(-1885.247 -1933.259)"/>
          <g id="Group_786" data-name="Group 786">
            <path id="Path_671" data-name="Path 671" d="M1812.3,1453.881a4.548,4.548,0,0,1,2.852-2.625,69.984,69.984,0,0,1,58,8.342,4.583,4.583,0,0,1,2.1,3.528c.93,13.1,4.407,81.57-17.253,162.646l-14.592-1.04-2.974-138.622s-21.615,50.819-4.037,131.7l-15.177,2.8s-22.209-29.2-26.186-73.829C1791.508,1507.3,1808.367,1463.471,1812.3,1453.881Z" transform="translate(-1793.886 -1447.697)" fill="#bf4804"/>
            <path id="Path_672" data-name="Path 672" d="M1856.465,1624.93a.248.248,0,0,1-.048,0l-14.592-1.04a.671.671,0,0,1-.621-.652l-2.9-135.127a174.283,174.283,0,0,0-7.363,32.163c-2.91,20.751-4.48,54.229,4.571,95.883a.671.671,0,0,1-.531.8l-15.177,2.8a.665.665,0,0,1-.652-.251c-.224-.294-22.373-29.869-26.319-74.174-3.556-39.9,13.807-84.646,17.326-93.213a5.222,5.222,0,0,1,3.27-3.01,70.765,70.765,0,0,1,58.555,8.417,5.262,5.262,0,0,1,2.4,4.043c.922,12.949,4.423,81.658-17.274,162.864A.674.674,0,0,1,1856.465,1624.93Zm-13.937-2.331,13.434.958c21.485-80.767,18.008-149.009,17.089-161.891a3.931,3.931,0,0,0-1.791-3.013,69.427,69.427,0,0,0-57.437-8.266,3.884,3.884,0,0,0-2.434,2.243c-3.495,8.514-20.757,53-17.229,92.585,3.689,41.405,23.4,69.812,25.813,73.156l14.089-2.6c-8.936-41.562-7.351-74.98-4.435-95.737,3.183-22.639,8.6-35.561,8.657-35.688a.665.665,0,0,1,.74-.394.673.673,0,0,1,.542.643Zm-31.754-170.227h0Z" transform="translate(-1792.355 -1446.189)" fill="#fff"/>
          </g>
          <path id="Path_673" data-name="Path 673" d="M1990.055,1775.547a.669.669,0,0,1-.027-1.337c12.394-.536,13.831-17.829,13.843-18a.667.667,0,1,1,1.331.1c-.015.188-1.552,18.653-15.116,19.238Z" transform="translate(-1929.666 -1661.808)" fill="#fff"/>
          <path id="Path_674" data-name="Path 674" d="M1920.446,1559.409h-.021a.67.67,0,0,1-.649-.688l.5-16.98-8.8-6.189a.667.667,0,1,1,.767-1.091l9.1,6.4a.678.678,0,0,1,.285.567l-.515,17.341A.666.666,0,0,1,1920.446,1559.409Z" transform="translate(-1875.172 -1507.62)" fill="#fff"/>
        </g>
        <g id="Group_790" data-name="Group 790" transform="translate(60.477 14.844)">
          <g id="Group_788" data-name="Group 788">
            <path id="Path_675" data-name="Path 675" d="M1949.364,1062.7a9.374,9.374,0,0,1-4.174-8.029l.306-13.346.27-.252s5.347.358,6.123-2.364-3-3.243-3-3.243,3.571-7.514-5.665-7.426c-2.479.024-3.367-4.086-7.435-5.007,0,0-2.012-.173-4.052,5.1l-4.468,6.611,2.231,1.225a25.012,25.012,0,0,0-.449,8.226,2.169,2.169,0,0,0,1.491,1.819,13.819,13.819,0,0,0,2.64.573l-.719,8.932a13.177,13.177,0,0,1-5.577,9.724,65.932,65.932,0,0,1-5.965,3.713,109.98,109.98,0,0,0,35.4-2.07C1956.323,1066.883,1952.668,1064.885,1949.364,1062.7Z" transform="translate(-1920.257 -1022.355)" fill="#fff"/>
            <path id="Path_676" data-name="Path 676" d="M1930.391,1068.649a91.9,91.9,0,0,1-11.079-.582.667.667,0,0,1-.224-1.249,66.258,66.258,0,0,0,5.9-3.671,12.47,12.47,0,0,0,5.292-9.23l.67-8.305a14.266,14.266,0,0,1-2.131-.512,2.848,2.848,0,0,1-1.949-2.379,25.563,25.563,0,0,1,.358-7.957l-1.8-.985a.667.667,0,0,1-.327-.427.659.659,0,0,1,.1-.531l4.425-6.55c2.107-5.4,4.283-5.492,4.7-5.459a.476.476,0,0,1,.091.015,9.189,9.189,0,0,1,4.859,3.277c.97,1.067,1.609,1.694,2.425,1.713h.164c3.046,0,5.113.818,6.144,2.434,1.143,1.789.652,4.022.267,5.177a4.358,4.358,0,0,1,2.455,1.6,2.728,2.728,0,0,1,.285,2.309c-.779,2.728-5,2.889-6.378,2.865l-.294,12.931a8.649,8.649,0,0,0,3.874,7.46h0c3.24,2.146,6.874,4.137,6.911,4.156a.674.674,0,0,1,.343.679.662.662,0,0,1-.512.558A111.815,111.815,0,0,1,1930.391,1068.649Zm-8.854-1.691a112.787,112.787,0,0,0,31.411-1.9c-1.385-.794-3.5-2.043-5.474-3.352a9.979,9.979,0,0,1-4.471-8.6l.306-13.346a.679.679,0,0,1,.212-.473l.264-.249a.677.677,0,0,1,.5-.182c1.34.088,4.922-.079,5.438-1.883a1.412,1.412,0,0,0-.121-1.212,3.751,3.751,0,0,0-2.328-1.188.672.672,0,0,1-.494-.343.682.682,0,0,1-.019-.6c.015-.027,1.3-2.81.112-4.659-.788-1.228-2.54-1.846-5.168-1.812h-.027c-1.446,0-2.395-1.046-3.4-2.152a8,8,0,0,0-4.089-2.855c-.179.033-1.707.409-3.355,4.677a.8.8,0,0,1-.07.133l-4.056,6,1.588.873a.665.665,0,0,1,.331.727,24.4,24.4,0,0,0-.437,8.008,1.509,1.509,0,0,0,1.034,1.261,13.107,13.107,0,0,0,2.513.546.665.665,0,0,1,.588.715l-.718,8.932a13.8,13.8,0,0,1-5.859,10.215C1924.18,1065.342,1922.659,1066.291,1921.537,1066.958Z" transform="translate(-1918.735 -1020.808)"/>
          </g>
          <g id="Group_789" data-name="Group 789" transform="translate(12.259 20.577)">
            <path id="Path_677" data-name="Path 677" d="M1961.39,1093.893s5.859.206,8.187-2.983Z" transform="translate(-1960.72 -1090.239)" fill="#fff"/>
            <path id="Path_678" data-name="Path 678" d="M1960.091,1093.019c-.149,0-.243,0-.27,0a.669.669,0,0,1,.049-1.337c.061.006,5.535.152,7.623-2.71a.668.668,0,0,1,1.079.788C1966.335,1092.825,1961.322,1093.019,1960.091,1093.019Z" transform="translate(-1959.179 -1088.696)"/>
          </g>
        </g>
      </g>
      <g id="Group_793" data-name="Group 793" transform="translate(243.154 10.316)">
        <g id="Group_792" data-name="Group 792" transform="translate(156.363)">
          <path id="Path_679" data-name="Path 679" d="M1635.172,439.855a.663.663,0,0,1-.467-.191c-18.608-18.229-40.262-27.319-55.151-31.736-17.238-5.113-35.255-6.829-48.194-4.592a.669.669,0,0,1-.228-1.319c13.131-2.27,31.375-.54,48.8,4.629,15.034,4.459,36.9,13.64,55.706,32.06a.67.67,0,0,1,.009.946A.645.645,0,0,1,1635.172,439.855Z" transform="translate(-1530.577 -390.522)"/>
          <path id="Path_680" data-name="Path 680" d="M1662.4,404.135a.675.675,0,0,1-.479-.2c-27.738-28.429-68.679-39.486-93.119-35.458a.668.668,0,0,1-.218-1.319c24.776-4.083,66.239,7.09,94.295,35.843a.667.667,0,0,1-.479,1.134Z" transform="translate(-1556.677 -366.344)"/>
        </g>
        <path id="Path_681" data-name="Path 681" d="M1119.618,2072a198.965,198.965,0,0,1-60.167-9.505.668.668,0,1,1,.406-1.273c37.858,12.007,76.75,12.573,112.475,1.64a180.375,180.375,0,0,0,47.237-22.406.667.667,0,1,1,.74,1.109A180.426,180.426,0,0,1,1119.618,2072Z" transform="translate(-1045.567 -1532.935)"/>
        <path id="Path_682" data-name="Path 682" d="M1081.677,2069.763c-20.066,0-43.806-2.707-66.545-11.922a.667.667,0,1,1,.5-1.236c54.472,22.075,114.852,6.514,115.455,6.353a.668.668,0,1,1,.339,1.291C1131.075,2064.344,1110.057,2069.763,1081.677,2069.763Z" transform="translate(-1014.716 -1544.235)"/>
      </g>
      <g id="Group_794" data-name="Group 794" transform="translate(470.712 162.719)">
        <path id="Path_683" data-name="Path 683" d="M1788.536,869.14h-19.7a3.383,3.383,0,0,0-3.38,3.38v19.7a3.383,3.383,0,0,0,3.38,3.38h19.7a3.383,3.383,0,0,0,3.38-3.38V872.523A3.383,3.383,0,0,0,1788.536,869.14Zm1.825,23.079a1.823,1.823,0,0,1-1.822,1.822h-19.7a1.823,1.823,0,0,1-1.822-1.822v-2.843l5.129-4.365a.5.5,0,0,1,.649,0l3.213,2.667a.778.778,0,0,0,1.049-.049l7.635-7.644a.5.5,0,0,1,.382-.149.5.5,0,0,1,.367.185l4.92,6.056,0,6.144Zm0-8.614-3.71-4.568a2.058,2.058,0,0,0-3.059-.158l-7.132,7.144-2.668-2.213a2.058,2.058,0,0,0-2.655.015l-4.119,3.5V872.523a1.823,1.823,0,0,1,1.822-1.822h19.7a1.823,1.823,0,0,1,1.822,1.822V883.6Z" transform="translate(-1765.46 -869.14)"/>
        <path id="Path_684" data-name="Path 684" d="M1784.3,879.88a3.759,3.759,0,1,0,3.759,3.759A3.762,3.762,0,0,0,1784.3,879.88Zm0,5.959a2.2,2.2,0,1,1,2.2-2.2A2.2,2.2,0,0,1,1784.3,885.839Z" transform="translate(-1775.969 -876.625)"/>
      </g>
      <g id="Group_795" data-name="Group 795" transform="translate(471.194 231.625)">
        <path id="Path_685" data-name="Path 685" d="M1790.126,1096.47h-19.7a3.383,3.383,0,0,0-3.379,3.38v19.7a3.383,3.383,0,0,0,3.379,3.38h19.7a3.383,3.383,0,0,0,3.38-3.38v-19.7A3.381,3.381,0,0,0,1790.126,1096.47Zm1.822,23.079a1.823,1.823,0,0,1-1.822,1.822h-19.7a1.823,1.823,0,0,1-1.822-1.822v-2.843l5.129-4.365a.5.5,0,0,1,.649,0l3.213,2.667a.779.779,0,0,0,1.049-.048l7.635-7.644a.5.5,0,0,1,.382-.148.5.5,0,0,1,.367.185l4.919,6.056,0,6.144Zm0-8.617-3.71-4.568a2.058,2.058,0,0,0-3.058-.158l-7.132,7.144-2.667-2.213a2.058,2.058,0,0,0-2.655.015l-4.119,3.5V1099.85a1.823,1.823,0,0,1,1.822-1.822h19.7a1.823,1.823,0,0,1,1.822,1.822v11.082Z" transform="translate(-1767.05 -1096.47)"/>
        <path id="Path_686" data-name="Path 686" d="M1785.879,1107.21a3.758,3.758,0,1,0,3.759,3.759A3.762,3.762,0,0,0,1785.879,1107.21Zm0,5.956a2.2,2.2,0,1,1,2.2-2.2A2.2,2.2,0,0,1,1785.879,1113.166Z" transform="translate(-1777.552 -1103.954)"/>
      </g>
    </g>
  </g>
</svg>
