<svg xmlns="http://www.w3.org/2000/svg" width="468.95" height="465.275" viewBox="0 0 468.95 465.275">
  <g id="Illustration" transform="translate(-327.763 -334.98)">
    <g id="House_for_sale_3_" transform="translate(327.763 334.98)">
      <g id="Group_798" data-name="Group 798" transform="translate(248.32 18.016)">
        <g id="Group_796" data-name="Group 796" transform="translate(45.838)">
          <path id="Path_687" data-name="Path 687" d="M1514.063,441.861a.557.557,0,0,1-.252-.061c-5.349-2.7-10.854-5.281-16.363-7.678-3.656-1.589-7.373-3.125-11.049-4.564a.563.563,0,0,1,.409-1.05c3.689,1.444,7.419,2.985,11.088,4.579,5.53,2.405,11.055,5,16.422,7.7a.562.562,0,0,1,.249.755A.556.556,0,0,1,1514.063,441.861Z" transform="translate(-1485.711 -422.716)"/>
          <path id="Path_688" data-name="Path 688" d="M1616.9,504.481a.561.561,0,0,1-.45-.224c-29.744-39.388-71.306-71.451-120.2-92.723-3.687-1.6-7.437-3.155-11.149-4.609a.563.563,0,0,1,.412-1.047c3.725,1.459,7.487,3.015,11.187,4.625,49.07,21.349,90.789,53.534,120.647,93.077a.563.563,0,0,1-.109.788A.578.578,0,0,1,1616.9,504.481Z" transform="translate(-1484.745 -405.839)"/>
        </g>
        <g id="Group_797" data-name="Group 797" transform="translate(0 410.149)">
          <path id="Path_689" data-name="Path 689" d="M1308.027,2045.163a25.1,25.1,0,0,1-3.081-.163.562.562,0,1,1,.14-1.116c5.418.676,19.305-.991,35.355-5.492,10.406-2.918,29.592-9.3,41.147-19.221a.563.563,0,0,1,.732.854C1363.765,2035.964,1323.46,2045.163,1308.027,2045.163Z" transform="translate(-1304.453 -2019.035)"/>
          <path id="Path_690" data-name="Path 690" d="M1381.874,2107.5a.563.563,0,0,1-.046-1.124,105.783,105.783,0,0,0,43.581-13.554.562.562,0,1,1,.551.979,106.881,106.881,0,0,1-44.04,13.7Z" transform="translate(-1361.771 -2074.01)"/>
        </g>
      </g>
      <g id="Group_807" data-name="Group 807" transform="translate(0 0)">
        <g id="Group_799" data-name="Group 799">
          <path id="Path_691" data-name="Path 691" d="M656.694,723.4c-74.947-28.893-56.6-203.829-52.021-289.642s-38.335-96.552-38.335-96.552H329.98s42.914,10.739,38.335,96.552S345.39,694.512,420.336,723.4Z" transform="translate(-329.416 -336.643)" fill="#fff"/>
          <path id="Path_692" data-name="Path 692" d="M655.04,722.3H418.683a.57.57,0,0,1-.2-.038c-16.109-6.211-28.982-19.658-38.259-39.97-7.961-17.429-13.534-40.517-16.559-68.626-5.55-51.571-1.787-112.328.961-156.689.549-8.878,1.068-17.263,1.477-24.914,2.357-44.157-8.128-67.924-17.337-80.087-9.921-13.1-20.467-15.865-20.574-15.89a.563.563,0,0,1,.137-1.109H564.684a.508.508,0,0,1,.137.018c.445.112,11.037,2.888,21.2,16.3,9.323,12.311,19.938,36.327,17.563,80.825-.409,7.655-.928,16.043-1.477,24.926-2.746,44.32-6.5,105.021-.964,156.5,3.013,27.987,8.55,50.958,16.462,68.278,9.153,20.035,21.817,33.286,37.639,39.385a.564.564,0,0,1-.2,1.091ZM418.787,721.18H652.215c-14.889-6.618-26.866-19.684-35.635-38.879-7.96-17.429-13.533-40.517-16.559-68.626-5.55-51.571-1.787-112.326.958-156.687.549-8.878,1.071-17.266,1.477-24.916,2.357-44.157-8.128-67.924-17.337-80.087-9.524-12.578-19.625-15.626-20.51-15.873H331.487c3.946,1.744,11.164,5.937,18.173,15.194,9.323,12.311,19.938,36.327,17.563,80.825-.409,7.655-.928,16.043-1.477,24.921-2.746,44.323-6.5,105.021-.964,156.5,3.013,27.987,8.55,50.961,16.462,68.278C390.378,701.824,403.009,715.063,418.787,721.18Z" transform="translate(-327.763 -334.98)"/>
        </g>
        <g id="Group_806" data-name="Group 806" transform="translate(64.85 41.389)">
          <g id="Group_800" data-name="Group 800" transform="translate(2.911 120.749)">
            <path id="Path_693" data-name="Path 693" d="M757.758,988.6H595.93a1.651,1.651,0,0,1-1.65-1.65v-12.6a1.652,1.652,0,0,1,1.65-1.65H757.758a1.652,1.652,0,0,1,1.65,1.65v12.6A1.653,1.653,0,0,1,757.758,988.6ZM595.93,973.824a.527.527,0,0,0-.526.526v12.6a.527.527,0,0,0,.526.526H757.758a.528.528,0,0,0,.526-.526v-12.6a.527.527,0,0,0-.526-.526Z" transform="translate(-594.28 -972.7)"/>
          </g>
          <g id="Group_801" data-name="Group 801" transform="translate(7.597 75.242)">
            <path id="Path_694" data-name="Path 694" d="M776.188,809.613H614.36a1.651,1.651,0,0,1-1.65-1.65v-12.6a1.651,1.651,0,0,1,1.65-1.65H776.188a1.651,1.651,0,0,1,1.65,1.65v12.6A1.651,1.651,0,0,1,776.188,809.613ZM614.36,794.836a.527.527,0,0,0-.526.526v12.6a.527.527,0,0,0,.526.526H776.188a.527.527,0,0,0,.526-.526V795.36a.527.527,0,0,0-.526-.526H614.36Z" transform="translate(-612.71 -793.71)"/>
          </g>
          <g id="Group_802" data-name="Group 802" transform="translate(20.65)">
            <path id="Path_695" data-name="Path 695" d="M806.067,520.657H665.7a1.651,1.651,0,0,1-1.65-1.65V499.42a1.651,1.651,0,0,1,1.65-1.65H806.067a1.652,1.652,0,0,1,1.65,1.65v19.587A1.652,1.652,0,0,1,806.067,520.657ZM665.7,498.9a.527.527,0,0,0-.526.526V519.01a.527.527,0,0,0,.526.526H806.067a.527.527,0,0,0,.526-.526V499.423a.527.527,0,0,0-.526-.526Z" transform="translate(-664.05 -497.77)"/>
          </g>
          <g id="Group_803" data-name="Group 803" transform="translate(0 167.218)">
            <path id="Path_696" data-name="Path 696" d="M746.681,1171.373h-162.2a1.656,1.656,0,0,1-1.653-1.653v-12.6a1.656,1.656,0,0,1,1.653-1.653h162.2a1.656,1.656,0,0,1,1.653,1.653v12.6A1.654,1.654,0,0,1,746.681,1171.373Zm-162.2-14.779a.528.528,0,0,0-.526.526v12.6a.527.527,0,0,0,.526.526h162.2a.527.527,0,0,0,.526-.526v-12.6a.527.527,0,0,0-.526-.526Z" transform="translate(-582.83 -1155.47)"/>
          </g>
          <g id="Group_804" data-name="Group 804" transform="translate(2.598 211.657)">
            <path id="Path_697" data-name="Path 697" d="M755.864,1346.163H594.7a1.651,1.651,0,0,1-1.65-1.647v-12.605a1.651,1.651,0,0,1,1.65-1.65H755.864a1.651,1.651,0,0,1,1.648,1.65v12.605A1.647,1.647,0,0,1,755.864,1346.163ZM594.7,1331.384a.526.526,0,0,0-.524.523v12.606a.525.525,0,0,0,.524.524H755.864a.525.525,0,0,0,.524-.524v-12.606a.524.524,0,0,0-.524-.523Z" transform="translate(-593.05 -1330.26)"/>
          </g>
          <g id="Group_805" data-name="Group 805" transform="translate(12.644 254.826)">
            <path id="Path_698" data-name="Path 698" d="M803.957,1515.956H634.238a1.679,1.679,0,0,1-1.678-1.678v-12.549a1.679,1.679,0,0,1,1.676-1.678H803.955a1.68,1.68,0,0,1,1.678,1.678v12.549A1.679,1.679,0,0,1,803.957,1515.956Zm-169.719-14.777a.551.551,0,0,0-.552.552v12.55a.551.551,0,0,0,.552.552H803.955a.551.551,0,0,0,.552-.552v-12.55a.551.551,0,0,0-.552-.552Z" transform="translate(-632.56 -1500.05)"/>
          </g>
        </g>
      </g>
      <g id="Group_821" data-name="Group 821" transform="translate(131.388 121.937)">
        <g id="Group_810" data-name="Group 810" transform="translate(0 19.509)">
          <g id="Group_808" data-name="Group 808" transform="translate(14.152 47.82)">
            <path id="Path_699" data-name="Path 699" d="M1195.548,1292.808H905.237a2.9,2.9,0,0,1-2.827-2.965v-195.97c0-6.811,5.293-12.316,11.784-12.255l288.043,2.685-.02,200.936C1202.217,1289.419,1199.232,1292.808,1195.548,1292.808Z" transform="translate(-901.848 -1081.055)" fill="#fff"/>
            <path id="Path_700" data-name="Path 700" d="M1193.9,1291.716H903.589a3.466,3.466,0,0,1-3.389-3.529v-195.97a12.992,12.992,0,0,1,3.829-9.31,11.9,11.9,0,0,1,8.411-3.506h.112l288.043,2.682a.562.562,0,0,1,.557.562l-.02,200.936C1201.131,1288.067,1197.887,1291.716,1193.9,1291.716Zm-281.458-211.19a10.771,10.771,0,0,0-7.62,3.181,11.867,11.867,0,0,0-3.5,8.512v195.97a2.338,2.338,0,0,0,2.263,2.4H1193.9c3.366,0,6.1-3.142,6.1-7.007l.02-200.379-287.486-2.677C912.508,1080.526,912.475,1080.526,912.442,1080.526Z" transform="translate(-900.2 -1079.4)"/>
          </g>
          <path id="Path_701" data-name="Path 701" d="M1014.717,968.132l-166.991-.859a3.293,3.293,0,0,1-2.886-4.691l49.075-68.9a5.553,5.553,0,0,1,4.635-2.364c19.661.4,142.53.72,142.53.72Z" transform="translate(-844.536 -891.315)"/>
          <g id="Group_809" data-name="Group 809" transform="translate(29.504 136.335)">
            <path id="Path_702" data-name="Path 702" d="M1072.072,1462.122h20.19a1.792,1.792,0,0,0,1.792-1.792v-30.987a1.793,1.793,0,0,0-1.792-1.792h-20.19a1.793,1.793,0,0,0-1.792,1.792v30.987A1.793,1.793,0,0,0,1072.072,1462.122Z" transform="translate(-1042.39 -1427.55)" fill="#fff"/>
            <path id="Path_703" data-name="Path 703" d="M962.563,1462.123h19.826a1.973,1.973,0,0,0,1.973-1.973v-30.626a1.973,1.973,0,0,0-1.973-1.973H962.563a1.973,1.973,0,0,0-1.973,1.973v30.626A1.972,1.972,0,0,0,962.563,1462.123Z" transform="translate(-960.587 -1427.55)" fill="#fff"/>
            <path id="Path_704" data-name="Path 704" d="M1071.561,1613.215h21.215a1.283,1.283,0,0,0,1.281-1.281v-32.012a1.283,1.283,0,0,0-1.281-1.281h-21.215a1.282,1.282,0,0,0-1.281,1.281v32.012A1.282,1.282,0,0,0,1071.561,1613.215Z" transform="translate(-1042.389 -1540.226)" fill="#fff"/>
            <path id="Path_705" data-name="Path 705" d="M962.6,1613.215h19.727a2.024,2.024,0,0,0,2.024-2.024v-30.527a2.024,2.024,0,0,0-2.024-2.024H962.6a2.024,2.024,0,0,0-2.024,2.024v30.525A2.026,2.026,0,0,0,962.6,1613.215Z" transform="translate(-960.58 -1540.226)" fill="#fff"/>
          </g>
        </g>
        <g id="Group_820" data-name="Group 820" transform="translate(88.592)">
          <g id="Group_811" data-name="Group 811" transform="translate(10.727 18.493)">
            <path id="Path_706" data-name="Path 706" d="M1238.585,1143.75l-1.195-200.043,115.659-54.167,110.5,54.963-2.2,202.38a5.017,5.017,0,0,1-5.062,4.892l-211.568-1.846A6.18,6.18,0,0,1,1238.585,1143.75Z" transform="translate(-1236.828 -888.975)" fill="#fff"/>
            <path id="Path_707" data-name="Path 707" d="M1454.681,1150.68h-.048l-211.568-1.843a6.766,6.766,0,0,1-6.689-6.74l-1.195-200.043a.565.565,0,0,1,.326-.513l115.659-54.167a.559.559,0,0,1,.489.005l110.5,54.963a.566.566,0,0,1,.313.511l-2.2,202.38A5.612,5.612,0,0,1,1454.681,1150.68ZM1236.307,942.407l1.192,199.682v0a5.635,5.635,0,0,0,5.576,5.617l211.568,1.843h.038a4.472,4.472,0,0,0,4.454-4.342l2.192-202.019-109.934-54.681Z" transform="translate(-1235.18 -887.319)"/>
          </g>
          <g id="Group_812" data-name="Group 812" transform="translate(167.396 154.647)">
            <path id="Path_708" data-name="Path 708" d="M1983.647,1458.49h-20.19a2.36,2.36,0,0,1-2.357-2.357V1425.2a2.36,2.36,0,0,1,2.357-2.357h20.19A2.358,2.358,0,0,1,1986,1425.2v30.937A2.358,2.358,0,0,1,1983.647,1458.49Zm-20.19-34.521a1.231,1.231,0,0,0-1.23,1.23v30.936a1.232,1.232,0,0,0,1.23,1.231h20.19a1.232,1.232,0,0,0,1.231-1.231V1425.2a1.231,1.231,0,0,0-1.231-1.23Z" transform="translate(-1933.207 -1422.84)"/>
            <path id="Path_709" data-name="Path 709" d="M1873.766,1458.5h-19.829a2.541,2.541,0,0,1-2.537-2.537v-30.573a2.541,2.541,0,0,1,2.537-2.537h19.829a2.541,2.541,0,0,1,2.537,2.537v30.573A2.543,2.543,0,0,1,1873.766,1458.5Zm-19.829-34.522a1.413,1.413,0,0,0-1.411,1.411v30.573a1.413,1.413,0,0,0,1.411,1.411h19.829a1.413,1.413,0,0,0,1.411-1.411v-30.573a1.413,1.413,0,0,0-1.411-1.411Z" transform="translate(-1851.398 -1422.848)"/>
            <path id="Path_710" data-name="Path 710" d="M1984.158,1609.358h-21.214a1.845,1.845,0,0,1-1.844-1.843v-31.961a1.845,1.845,0,0,1,1.844-1.843h21.214a1.844,1.844,0,0,1,1.843,1.843v31.961A1.845,1.845,0,0,1,1984.158,1609.358Zm-21.214-34.522a.72.72,0,0,0-.72.717v31.961a.718.718,0,0,0,.72.717h21.214a.718.718,0,0,0,.717-.717v-31.961a.718.718,0,0,0-.717-.717Z" transform="translate(-1933.207 -1535.352)"/>
            <path id="Path_711" data-name="Path 711" d="M1873.705,1609.358h-19.727a2.59,2.59,0,0,1-2.588-2.588V1576.3a2.59,2.59,0,0,1,2.588-2.588h19.727a2.59,2.59,0,0,1,2.588,2.588v30.471A2.589,2.589,0,0,1,1873.705,1609.358Zm-19.724-34.522a1.464,1.464,0,0,0-1.462,1.462v30.471a1.464,1.464,0,0,0,1.462,1.462h19.727a1.464,1.464,0,0,0,1.462-1.462V1576.3a1.464,1.464,0,0,0-1.462-1.462Z" transform="translate(-1851.39 -1535.352)"/>
          </g>
          <g id="Group_813" data-name="Group 813" transform="translate(97.329 51.612)">
            <path id="Path_712" data-name="Path 712" d="M1708.054,1046.643h-20.19a2.358,2.358,0,0,1-2.354-2.357v-24.349a2.36,2.36,0,0,1,2.354-2.357h20.19a2.36,2.36,0,0,1,2.357,2.357v24.349A2.358,2.358,0,0,1,1708.054,1046.643Zm-20.19-27.934a1.232,1.232,0,0,0-1.231,1.23v24.349a1.232,1.232,0,0,0,1.231,1.23h20.19a1.232,1.232,0,0,0,1.231-1.23v-24.349a1.232,1.232,0,0,0-1.231-1.23Z" transform="translate(-1657.617 -1017.58)"/>
            <path id="Path_713" data-name="Path 713" d="M1598.174,1046.65h-19.826a2.541,2.541,0,0,1-2.537-2.537v-23.986a2.541,2.541,0,0,1,2.537-2.537h19.826a2.541,2.541,0,0,1,2.537,2.537v23.986A2.539,2.539,0,0,1,1598.174,1046.65Zm-19.826-27.934a1.413,1.413,0,0,0-1.411,1.411v23.986a1.413,1.413,0,0,0,1.411,1.411h19.826a1.413,1.413,0,0,0,1.411-1.411v-23.986a1.413,1.413,0,0,0-1.411-1.411Z" transform="translate(-1575.808 -1017.588)"/>
            <path id="Path_714" data-name="Path 714" d="M1708.558,1168.748h-21.214a1.845,1.845,0,0,1-1.843-1.843v-25.371a1.844,1.844,0,0,1,1.843-1.843h21.214a1.844,1.844,0,0,1,1.843,1.843V1166.9A1.846,1.846,0,0,1,1708.558,1168.748Zm-21.212-27.937a.719.719,0,0,0-.717.72V1166.9a.72.72,0,0,0,.717.719h21.214a.72.72,0,0,0,.719-.719v-25.371a.72.72,0,0,0-.719-.72Z" transform="translate(-1657.609 -1108.644)"/>
            <path id="Path_715" data-name="Path 715" d="M1598.115,1168.733h-19.727a2.591,2.591,0,0,1-2.589-2.588v-23.886a2.591,2.591,0,0,1,2.589-2.588h19.727a2.591,2.591,0,0,1,2.589,2.588v23.886A2.594,2.594,0,0,1,1598.115,1168.733Zm-19.727-27.937a1.464,1.464,0,0,0-1.462,1.462v23.886a1.464,1.464,0,0,0,1.462,1.462h19.727a1.464,1.464,0,0,0,1.462-1.462v-23.886a1.464,1.464,0,0,0-1.462-1.462Z" transform="translate(-1575.8 -1108.629)"/>
          </g>
          <g id="Group_814" data-name="Group 814" transform="translate(25.504 154.538)">
            <path id="Path_716" data-name="Path 716" d="M1425.564,1458.119h-20.189a2.358,2.358,0,0,1-2.354-2.357v-30.988a2.358,2.358,0,0,1,2.354-2.354h20.189a2.36,2.36,0,0,1,2.357,2.354v30.988A2.364,2.364,0,0,1,1425.564,1458.119Zm-20.189-34.575a1.232,1.232,0,0,0-1.231,1.231v30.988a1.231,1.231,0,0,0,1.231,1.23h20.189a1.231,1.231,0,0,0,1.231-1.23v-30.988a1.231,1.231,0,0,0-1.231-1.231Z" transform="translate(-1375.124 -1422.417)"/>
            <path id="Path_717" data-name="Path 717" d="M1315.673,1458.111h-19.826a2.541,2.541,0,0,1-2.538-2.537v-30.627a2.541,2.541,0,0,1,2.538-2.537h19.826a2.541,2.541,0,0,1,2.537,2.537v30.627A2.539,2.539,0,0,1,1315.673,1458.111Zm-19.826-34.574a1.412,1.412,0,0,0-1.411,1.411v30.627a1.413,1.413,0,0,0,1.411,1.411h19.826a1.413,1.413,0,0,0,1.411-1.411v-30.627a1.412,1.412,0,0,0-1.411-1.411Z" transform="translate(-1293.307 -1422.41)"/>
            <path id="Path_718" data-name="Path 718" d="M1426.068,1609.209h-21.214a1.844,1.844,0,0,1-1.843-1.843v-32.012a1.845,1.845,0,0,1,1.843-1.843h21.214a1.845,1.845,0,0,1,1.843,1.843v32.012A1.845,1.845,0,0,1,1426.068,1609.209Zm-21.214-34.575a.719.719,0,0,0-.717.72v32.012a.718.718,0,0,0,.717.717h21.214a.72.72,0,0,0,.719-.717v-32.012a.72.72,0,0,0-.719-.72Z" transform="translate(-1375.117 -1535.094)"/>
            <path id="Path_719" data-name="Path 719" d="M1315.615,1609.2h-19.727a2.591,2.591,0,0,1-2.588-2.588v-30.525a2.591,2.591,0,0,1,2.588-2.588h19.727a2.59,2.59,0,0,1,2.588,2.588v30.525A2.59,2.59,0,0,1,1315.615,1609.2Zm-19.724-34.575a1.464,1.464,0,0,0-1.462,1.462v30.525a1.464,1.464,0,0,0,1.462,1.462h19.727a1.464,1.464,0,0,0,1.462-1.462v-30.525a1.464,1.464,0,0,0-1.462-1.462Z" transform="translate(-1293.3 -1535.086)"/>
          </g>
          <g id="Group_815" data-name="Group 815">
            <path id="Path_720" data-name="Path 720" d="M1320.6,817.334l120.179,67.045c2.548,1.421,3.031,4.312,1.04,6.229l-4.592,6.018a6.686,6.686,0,0,1-8.515,1.917L1319.72,840.252a2.455,2.455,0,0,0-2.322-.008l-111.675,58.9a3.452,3.452,0,0,1-4.322-.928l-4.726-5.888c-2.687-3.348-1.584-7.823,2.489-10.076l117.357-64.929A4.186,4.186,0,0,1,1320.6,817.334Z" transform="translate(-1194.643 -816.236)" fill="#bf4804"/>
            <path id="Path_721" data-name="Path 721" d="M1202.458,898.459a4.036,4.036,0,0,1-3.153-1.541l-4.726-5.888a6.786,6.786,0,0,1-1.467-5.624,7.97,7.97,0,0,1,4.124-5.3l117.358-64.929a4.732,4.732,0,0,1,4.625.008l120.18,67.045a4.747,4.747,0,0,1,2.525,3.473,4.23,4.23,0,0,1-1.337,3.62l-4.566,5.985a7.268,7.268,0,0,1-9.227,2.072L1317.8,839.1a1.91,1.91,0,0,0-1.8-.008l-111.675,58.9A4,4,0,0,1,1202.458,898.459ZM1316.9,815.707a3.624,3.624,0,0,0-1.759.458L1197.78,881.094a6.757,6.757,0,0,0-3.564,4.531,5.677,5.677,0,0,0,1.24,4.7l4.726,5.888a2.882,2.882,0,0,0,3.62.783l111.675-58.9a3.026,3.026,0,0,1,2.85.01l108.993,58.288a6.147,6.147,0,0,0,7.8-1.762l4.592-6.018a.682.682,0,0,1,.056-.064,3.147,3.147,0,0,0,1.032-2.7,3.644,3.644,0,0,0-1.958-2.637l-120.18-67.045A3.619,3.619,0,0,0,1316.9,815.707Z" transform="translate(-1192.987 -814.581)" fill="#fff"/>
          </g>
          <g id="Group_819" data-name="Group 819" transform="translate(81.84 152.857)">
            <path id="Path_722" data-name="Path 722" d="M1613.267,1546.411h-56.59a3.376,3.376,0,0,1-3.376-3.376V1419.177a3.376,3.376,0,0,1,3.376-3.377h56.59a3.376,3.376,0,0,1,3.376,3.377v123.858A3.376,3.376,0,0,1,1613.267,1546.411Z" transform="translate(-1543.532 -1415.8)"/>
            <g id="Group_816" data-name="Group 816" transform="translate(12.682 3.079)">
              <path id="Path_723" data-name="Path 723" d="M1623.913,1552.493h-54.472a2.462,2.462,0,0,1-2.461-2.461V1432.6a2.462,2.462,0,0,1,2.461-2.461l53.252.063a1.734,1.734,0,0,1,1.731,1.772Z" transform="translate(-1566.416 -1429.573)" fill="#fff"/>
              <path id="Path_724" data-name="Path 724" d="M1622.258,1551.392h-54.472a3.03,3.03,0,0,1-3.026-3.025V1430.935a3.029,3.029,0,0,1,3.026-3.025l53.252.066a2.3,2.3,0,0,1,2.293,2.347l-.511,120.507A.561.561,0,0,1,1622.258,1551.392Zm-54.472-122.356a1.9,1.9,0,0,0-1.9,1.9v117.432a1.9,1.9,0,0,0,1.9,1.9h53.91l.511-119.958a1.172,1.172,0,0,0-1.17-1.208Z" transform="translate(-1564.76 -1427.91)"/>
            </g>
            <path id="Path_725" data-name="Path 725" d="M1622.258,1551.392h-54.472a3.03,3.03,0,0,1-3.026-3.025V1430.935a3.029,3.029,0,0,1,3.026-3.025l53.252.066a2.3,2.3,0,0,1,2.293,2.347l-.511,120.507A.561.561,0,0,1,1622.258,1551.392Zm-54.472-122.356a1.9,1.9,0,0,0-1.9,1.9v117.432a1.9,1.9,0,0,0,1.9,1.9h53.91l.511-119.958a1.172,1.172,0,0,0-1.17-1.208Z" transform="translate(-1552.078 -1424.832)"/>
            <g id="Group_817" data-name="Group 817" transform="translate(0 118.423)">
              <path id="Path_726" data-name="Path 726" d="M1597.518,1895.181h-78.834a1.6,1.6,0,0,1-1.594-1.594v-8.2a1.6,1.6,0,0,1,1.594-1.594h78.834a1.6,1.6,0,0,1,1.594,1.594v8.2A1.594,1.594,0,0,1,1597.518,1895.181Z" transform="translate(-1516.528 -1883.229)" fill="#fff"/>
              <path id="Path_727" data-name="Path 727" d="M1595.87,1894.094h-78.834a2.157,2.157,0,0,1-2.156-2.156v-8.2a2.157,2.157,0,0,1,2.156-2.156h78.834a2.157,2.157,0,0,1,2.156,2.156v8.2A2.157,2.157,0,0,1,1595.87,1894.094Zm-78.831-11.388a1.032,1.032,0,0,0-1.03,1.03v8.2a1.032,1.032,0,0,0,1.03,1.03h78.834a1.032,1.032,0,0,0,1.03-1.03v-8.2a1.032,1.032,0,0,0-1.03-1.03Z" transform="translate(-1514.88 -1881.58)"/>
            </g>
            <path id="Path_728" data-name="Path 728" d="M1595.87,1894.094h-78.834a2.157,2.157,0,0,1-2.156-2.156v-8.2a2.157,2.157,0,0,1,2.156-2.156h78.834a2.157,2.157,0,0,1,2.156,2.156v8.2A2.157,2.157,0,0,1,1595.87,1894.094Zm-78.831-11.388a1.032,1.032,0,0,0-1.03,1.03v8.2a1.032,1.032,0,0,0,1.03,1.03h78.834a1.032,1.032,0,0,0,1.03-1.03v-8.2a1.032,1.032,0,0,0-1.03-1.03Z" transform="translate(-1514.88 -1763.157)"/>
            <g id="Group_818" data-name="Group 818" transform="translate(20.645 13.287)">
              <path id="Path_729" data-name="Path 729" d="M1602.861,1494.2a.564.564,0,0,1-.305-1.037l38.912-25.015a.563.563,0,0,1,.61.946l-38.913,25.015A.546.546,0,0,1,1602.861,1494.2Z" transform="translate(-1600.718 -1468.059)"/>
              <path id="Path_730" data-name="Path 730" d="M1596.641,1564.974a.559.559,0,0,1-.473-.259.565.565,0,0,1,.168-.778l36.2-23.268a.563.563,0,0,1,.61.946l-36.2,23.268A.547.547,0,0,1,1596.641,1564.974Z" transform="translate(-1596.079 -1522.141)"/>
            </g>
          </g>
          <path id="Path_731" data-name="Path 731" d="M1480.362,1331.782h-.005l-197.48-1.688a.562.562,0,0,1,0-1.124h.005l197.481,1.688a.562.562,0,0,1,0,1.124Z" transform="translate(-1259.607 -1198.189)"/>
        </g>
      </g>
      <g id="Group_826" data-name="Group 826" transform="translate(50.811 45.015)">
        <g id="Group_822" data-name="Group 822" transform="translate(0 0)">
          <circle id="Ellipse_36" data-name="Ellipse 36" cx="42.327" cy="42.327" r="42.327" transform="translate(0 59.859) rotate(-45)"/>
        </g>
        <g id="Group_823" data-name="Group 823" transform="translate(3.588 0.525)">
          <circle id="Ellipse_37" data-name="Ellipse 37" cx="41.068" cy="41.068" r="41.068" transform="translate(0 58.079) rotate(-45)" fill="#fff"/>
          <path id="Path_732" data-name="Path 732" d="M648.053,662.046a41.633,41.633,0,1,1,41.633-41.633A41.681,41.681,0,0,1,648.053,662.046Zm0-82.139a40.507,40.507,0,1,0,40.509,40.506A40.552,40.552,0,0,0,648.053,579.906Z" transform="translate(-589.971 -562.335)"/>
        </g>
        <circle id="Ellipse_38" data-name="Ellipse 38" cx="34.466" cy="34.466" r="34.466" transform="translate(12.926 58.604) rotate(-45)" fill="#fff"/>
        <path id="Path_733" data-name="Path 733" d="M882.49,788.689a.561.561,0,0,1-.473-.867,33.694,33.694,0,0,0,4.025-8.779.563.563,0,1,1,1.081.318,34.816,34.816,0,0,1-4.16,9.072A.556.556,0,0,1,882.49,788.689Z" transform="translate(-791.844 -710.855)"/>
        <path id="Path_734" data-name="Path 734" d="M717.972,625.316a.562.562,0,0,1-.506-.318,33.691,33.691,0,0,0-30.517-19.114,34.048,34.048,0,0,0-27.359,13.877.562.562,0,0,1-.908-.663,35.178,35.178,0,0,1,28.267-14.337,34.8,34.8,0,0,1,31.529,19.75.564.564,0,0,1-.259.753A.615.615,0,0,1,717.972,625.316Z" transform="translate(-625.276 -581.184)"/>
        <path id="Path_735" data-name="Path 735" d="M667.427,726.492a35.038,35.038,0,0,1-30.565-52.149.562.562,0,0,1,.982.549,33.914,33.914,0,0,0,29.587,50.473.563.563,0,1,1,0,1.126Z" transform="translate(-605.758 -632.862)"/>
        <g id="Group_825" data-name="Group 825" transform="translate(48.37 34.264)">
          <g id="Group_824" data-name="Group 824">
            <path id="Path_736" data-name="Path 736" d="M728,695.473v-5.667a23.985,23.985,0,0,1-10.139-2.565l1.79-6.979a21.039,21.039,0,0,0,9.9,2.624c3.4,0,5.726-1.312,5.726-3.7,0-2.265-1.909-3.7-6.323-5.189-6.382-2.148-10.737-5.128-10.737-10.915,0-5.248,3.7-9.364,10.081-10.617V646.8h5.845v5.248a21.486,21.486,0,0,1,8.649,1.968l-1.729,6.74a19.778,19.778,0,0,0-8.589-2.029c-3.877,0-5.128,1.67-5.128,3.341,0,1.968,2.087,3.221,7.157,5.128,7.1,2.5,9.961,5.784,9.961,11.154,0,5.309-3.758,9.842-10.617,11.034v6.084H728Z" transform="translate(-717.86 -646.8)" fill="#bf4804"/>
          </g>
        </g>
      </g>
      <g id="Group_857" data-name="Group 857" transform="translate(2.062 183.745)">
        <g id="Group_842" data-name="Group 842">
          <g id="Group_835" data-name="Group 835" transform="translate(3.62 102.948)">
            <g id="Group_830" data-name="Group 830" transform="translate(55.972 143.325)">
              <g id="Group_827" data-name="Group 827" transform="translate(1.639)">
                <path id="Path_737" data-name="Path 737" d="M586.865,2028.56l.694,13.8-6.649-.071-1.981-13.325Z" transform="translate(-578.365 -2027.992)" fill="#fff"/>
                <path id="Path_738" data-name="Path 738" d="M585.9,2041.251H585.9l-6.651-.069a.562.562,0,0,1-.552-.48l-1.981-13.328a.561.561,0,0,1,.122-.44.568.568,0,0,1,.407-.206l7.935-.4a.549.549,0,0,1,.407.145.566.566,0,0,1,.186.389l.7,13.8a.565.565,0,0,1-.564.592Zm-6.163-1.19,5.573.058-.635-12.639-6.753.341Z" transform="translate(-576.706 -2026.326)"/>
              </g>
              <g id="Group_829" data-name="Group 829" transform="translate(0 9.029)">
                <g id="Group_828" data-name="Group 828">
                  <path id="Path_739" data-name="Path 739" d="M575.979,2086.409c2.715.153,10.172,0,12.244-1.03,1.825-.908,3.277-4.818,2.26-6.2-2.542-3.458-4.457-9.585-6.089-14.363a.336.336,0,0,0-.608-.061l-1.31,2.21-1.159-2.459a1.029,1.029,0,0,0-.809-.455l-2.329.074c-.534-.023-1.08.521-1.375,1.025l-1.569,2.178-1.017-1.662a.336.336,0,0,0-.623.152L572.46,2082C572.539,2084.588,574.4,2086.32,575.979,2086.409Z" transform="translate(-571.901 -2063.489)" fill="#fff"/>
                  <path id="Path_740" data-name="Path 740" d="M576.55,2085.373c-.915,0-1.7-.02-2.245-.051-1.887-.107-3.964-2.123-4.045-4.953l1.139-16.239a.9.9,0,0,1,1.663-.406l.575.94,1.075-1.492a2.25,2.25,0,0,1,1.856-1.258l2.286-.074a1.6,1.6,0,0,1,1.292.7.432.432,0,0,1,.041.073l.707,1.5.768-1.3a.9.9,0,0,1,1.625.166l.508,1.5c1.533,4.536,3.27,9.677,5.5,12.713a3.613,3.613,0,0,1,.27,2.954c-.361,1.492-1.37,3.407-2.733,4.083C585.067,2085.114,579.916,2085.373,576.55,2085.373Zm-4.076-20.457-1.088,15.476c.064,2.125,1.625,3.73,2.985,3.806,3.084.175,10.147-.069,11.962-.972a5.435,5.435,0,0,0,2.141-3.341,2.681,2.681,0,0,0-.084-2.021c-2.334-3.176-4.1-8.405-5.662-13.017l-.348-1.03-1.058,1.788a.563.563,0,0,1-.994-.049l-1.139-2.412a.463.463,0,0,0-.343-.178l-2.286.073a1.442,1.442,0,0,0-.905.745l-1.6,2.225a.548.548,0,0,1-.478.234.56.56,0,0,1-.458-.267Z" transform="translate(-570.26 -2061.84)"/>
                </g>
                <path id="Path_741" data-name="Path 741" d="M586.9,2135.719a20.31,20.31,0,0,1-5.016-.567.562.562,0,0,1,.3-1.083,22.273,22.273,0,0,0,11.464-.506.563.563,0,1,1,.341,1.073A23.506,23.506,0,0,1,586.9,2135.719Z" transform="translate(-578.621 -2115.308)"/>
                <path id="Path_742" data-name="Path 742" d="M593.02,2109.955a.562.562,0,0,1-.028-1.124l6.051-.3a.555.555,0,0,1,.59.534.563.563,0,0,1-.534.59l-6.051.3Z" transform="translate(-586.814 -2096.656)"/>
              </g>
            </g>
            <g id="Group_834" data-name="Group 834" transform="translate(0 138.486)">
              <g id="Group_831" data-name="Group 831" transform="translate(8.237)">
                <path id="Path_743" data-name="Path 743" d="M392.9,2009.52l-1.121,16.732-6.227.1-.826-16.417Z" transform="translate(-384.165 -2008.954)" fill="#fff"/>
                <path id="Path_744" data-name="Path 744" d="M383.9,2025.25a.562.562,0,0,1-.562-.534l-.829-16.417a.565.565,0,0,1,.534-.592l8.174-.412a.533.533,0,0,1,.43.168.568.568,0,0,1,.16.432l-1.121,16.732a.564.564,0,0,1-.552.526l-6.224.1Zm-.236-16.445.773,15.313,5.164-.081,1.045-15.585Z" transform="translate(-382.507 -2007.294)"/>
              </g>
              <g id="Group_833" data-name="Group 833" transform="translate(0 12.62)">
                <g id="Group_832" data-name="Group 832">
                  <path id="Path_745" data-name="Path 745" d="M369.462,2059.2s.618,7.363.521,10.348c-.069,2.136-2.659,8.706-4.126,12.267a5.375,5.375,0,0,1-3.331,3.031,13.663,13.663,0,0,1-6.305.493c-3.282-.366-4.444-3.3-3.628-6.2a37.339,37.339,0,0,1,4.337-9.336c1.635-2.673,2.86-10.4,2.86-10.4l5.065-.254,1.645,4.172Z" transform="translate(-351.774 -2058.579)" fill="#fff"/>
                  <path id="Path_746" data-name="Path 746" d="M356.858,2084.408a20.99,20.99,0,0,1-2.367-.16,4.713,4.713,0,0,1-3.529-2.014,5.9,5.9,0,0,1-.58-4.9,37.914,37.914,0,0,1,4.4-9.479c1.559-2.547,2.774-10.121,2.786-10.2a.559.559,0,0,1,.526-.472l5.065-.254a.552.552,0,0,1,.552.355l1.266,3.214,2.364-3.28a.562.562,0,0,1,1.017.282c.026.3.618,7.429.521,10.412-.069,2.1-2.306,7.938-4.17,12.466a5.923,5.923,0,0,1-3.7,3.359A14.539,14.539,0,0,1,356.858,2084.408Zm1.747-26.119c-.292,1.719-1.4,7.772-2.863,10.157a36.82,36.82,0,0,0-4.274,9.2,4.779,4.779,0,0,0,.43,3.964,3.618,3.618,0,0,0,2.72,1.523,13.159,13.159,0,0,0,6.092-.473,4.815,4.815,0,0,0,2.962-2.7c2.548-6.186,4.037-10.586,4.086-12.072.069-2.094-.226-6.44-.4-8.753l-2.067,2.87a.561.561,0,0,1-.526.229.567.567,0,0,1-.455-.351l-1.5-3.8Z" transform="translate(-350.111 -2056.933)"/>
                </g>
                <path id="Path_747" data-name="Path 747" d="M364.862,2120.236a7.678,7.678,0,0,1-2.352-.318.563.563,0,1,1,.356-1.067,9.049,9.049,0,0,0,3.681.126,5.237,5.237,0,0,0,3.1-1.807,9.353,9.353,0,0,0,1.414-2.161c.557-1.287,1.121-2.751,1.533-3.819.661-1.718.727-1.869.89-2.016a.562.562,0,0,1,.824.758c-.094.178-.384.931-.664,1.66-.414,1.078-.981,2.555-1.551,3.865a10.542,10.542,0,0,1-1.579,2.431,6.375,6.375,0,0,1-3.768,2.2A11.173,11.173,0,0,1,364.862,2120.236Z" transform="translate(-359.07 -2095.783)"/>
                <path id="Path_748" data-name="Path 748" d="M368.06,2122.183a.562.562,0,0,1-.028-1.124l5.543-.28a.563.563,0,0,1,.056,1.124l-5.542.28Z" transform="translate(-363.077 -2104.546)"/>
              </g>
            </g>
            <path id="Path_749" data-name="Path 749" d="M437.167,1468.026s1.9,50.8,1.436,83.955c-.4,28.514-2.621,51.35-3.234,57.187a2.011,2.011,0,0,1-1.627,1.77,25.118,25.118,0,0,1-7.612.31,2.029,2.029,0,0,1-1.691-1.467c-1.541-5.619-7.866-29.126-8.324-38.205-.5-9.839,1.142-12.4.938-20.426-.153-6.013-3.239-27.266-4.78-37.57a1.276,1.276,0,0,0-2.486-.17c-2.794,9.555-8.731,30.2-14.2,51.358-.28,1.086-1.475,10.272-1.749,11.339-3.381,13.216-6.654,23.841-7.739,30.026a2.5,2.5,0,0,1-1.937,2.011,18.384,18.384,0,0,1-8.072.091,2.485,2.485,0,0,1-1.836-2.308c-.282-6.735-1.3-31.765-.938-36,.768-9.074,7.35-18.3,8.131-27.937s.3-33.7,3.051-48.279,8.756-31.115,8.756-31.115Z" transform="translate(-367.361 -1462.6)" fill="#1b0e06"/>
          </g>
          <path id="Path_750" data-name="Path 750" d="M382.564,1099.6c3.488-2.3,9.31-1.063,11.553,4.724,1.831,4.729-2.265,8.378-3.3,11.863-3.356,11.278,7.5,35.35.125,47.641-5.883,9.806-22.249,17.037-36.365,10.922-13.422-5.814-22.547-19.808-17.1-31.265,4.894-10.3,14.141-5.428,19.757-15.58,5.535-10.007.455-14.718,4.5-19.729C367.271,1101.33,372.676,1106.133,382.564,1099.6Z" transform="translate(-335.872 -1088.13)"/>
          <g id="Group_838" data-name="Group 838" transform="translate(17.27)">
            <path id="Path_751" data-name="Path 751" d="M444,1525.258a.563.563,0,0,1-.242-1.073,20.962,20.962,0,0,0,10.818-12.906.562.562,0,1,1,1.093.259A21.761,21.761,0,0,1,444.24,1525.2.515.515,0,0,1,444,1525.258Z" transform="translate(-433.36 -1395.632)" fill="#fff"/>
            <g id="Group_836" data-name="Group 836" transform="translate(87.112)">
              <path id="Path_752" data-name="Path 752" d="M751.218,1061.017,749,1068.13a7.27,7.27,0,0,0,.986,6.514l2.489,3.572a3.583,3.583,0,0,1,.539,2.029c.031,1.614-.211,4.078-.211,4.078l5.932.1s-.651-3.127-.951-4.2a6.081,6.081,0,0,1,.206-4.172,16.542,16.542,0,0,0,1.347-8.255l-4.063,1.086a10.959,10.959,0,0,1-1.019-5.873,5.5,5.5,0,0,0-.221-2.141A1.476,1.476,0,0,0,751.218,1061.017Z" transform="translate(-748.07 -1059.337)" fill="#fff"/>
              <path id="Path_753" data-name="Path 753" d="M757.091,1083.332h-.01l-5.932-.1a.562.562,0,0,1-.549-.617c0-.026.239-2.451.208-4.012a3.057,3.057,0,0,0-.437-1.719l-2.489-3.572a7.858,7.858,0,0,1-1.06-7.015l2.214-7.091a2.017,2.017,0,0,1,1.9-1.523,1.969,1.969,0,0,1,1.983,1.34,6.051,6.051,0,0,1,.252,2.359,11.44,11.44,0,0,0,.763,5.174l3.613-.964a.552.552,0,0,1,.458.076.568.568,0,0,1,.247.394,16.96,16.96,0,0,1-1.4,8.566,5.532,5.532,0,0,0-.176,3.786c.3,1.081.933,4.109.961,4.238a.558.558,0,0,1-.117.473A.567.567,0,0,1,757.091,1083.332Zm-5.319-1.213,4.62.076c-.208-.979-.592-2.738-.8-3.476a6.636,6.636,0,0,1,.236-4.559,16.127,16.127,0,0,0,1.353-7.3l-3.412.91a.563.563,0,0,1-.631-.26,11.447,11.447,0,0,1-1.1-6.193,4.948,4.948,0,0,0-.193-1.92.861.861,0,0,0-.872-.585.9.9,0,0,0-.862.692l-.008.028-2.22,7.114a6.739,6.739,0,0,0,.908,6.02l2.494,3.577a4.188,4.188,0,0,1,.641,2.339C751.956,1079.734,751.844,1081.277,751.772,1082.119Zm-2.2-22.755h0Z" transform="translate(-746.428 -1057.685)"/>
            </g>
            <g id="Group_837" data-name="Group 837" transform="translate(0 21.653)">
              <path id="Path_754" data-name="Path 754" d="M504.45,1145.05l-8.906.768s-.45,12.42-9.552,21.768c-6.954,7.142-17.706,4.8-24.705,3.038-10.709-3.486-25.186-2.525-33.037,1.065-16.666,7.622-26.223,68.2-20.891,81.265,4.866,11.927,46.3,14.461,57.8,4.256,4.9-4.348,3.272-30.281,2.41-40.644q-.393-4.725-.4-9.468l-.015-7.218c4.655-1.022,31.148-7.485,37.064-23.279A46.118,46.118,0,0,0,504.45,1145.05Z" transform="translate(-405.35 -1144.491)" fill="#fff"/>
              <path id="Path_755" data-name="Path 755" d="M437.957,1262.5a77.656,77.656,0,0,1-17.2-1.856c-8.372-1.95-13.867-5.189-15.471-9.122-5.3-12.974,3.936-74.1,21.179-81.989,7.518-3.44,22.084-4.785,33.444-1.088,5.957,1.5,17.118,4.3,24.128-2.9,8.838-9.074,9.387-21.273,9.392-21.395a.56.56,0,0,1,.514-.539l8.906-.768a.551.551,0,0,1,.567.344,47.12,47.12,0,0,1-.224,31.966c-5.83,15.565-30.927,22.148-37.028,23.533l.013,6.765c.008,3.15.142,6.321.4,9.422,1.124,13.5,2.283,36.784-2.6,41.112C458.943,1260.463,448.575,1262.5,437.957,1262.5Zm6.76-95.147c-6.949,0-13.526,1.256-17.782,3.2-7.068,3.232-13.938,17.513-18.377,38.2-3.834,17.858-4.79,36.06-2.227,42.342,1.462,3.585,6.679,6.587,14.685,8.451,13.958,3.252,34.733,2.242,42.22-4.4,3.247-2.881,4.078-17.9,2.222-40.178-.262-3.132-.4-6.333-.4-9.514l-.015-7.218a.565.565,0,0,1,.442-.552c5.108-1.121,30.881-7.5,36.66-22.928a46.2,46.2,0,0,0,.386-30.756l-8,.691c-.206,2.438-1.561,13.31-9.677,21.641-7.462,7.663-19.03,4.754-25.247,3.193A48.9,48.9,0,0,0,444.718,1167.358Z" transform="translate(-403.799 -1142.848)"/>
            </g>
          </g>
          <g id="Group_839" data-name="Group 839" transform="translate(39.608 20.276)">
            <path id="Path_756" data-name="Path 756" d="M496.656,1150.206a.586.586,0,0,0,.613-.653c-.186-1.726-.74-4.968.915-6.422,2.118-1.863,5.647-4.7,7.015-2.964,1.2,1.52,2.41,4.6,5.3,5.753.277.109.305.511.181.783l-.605,1.538a2.238,2.238,0,0,0,.112,1.322c.4.958,1.33,2.959,1.149,3.379-.351.819-3.514,2.278-3.514,2.278l2.092,9.773c.079.371.328.986.692.895l3.862.287s-.242,5.3-8.451,6.76c-10.732,1.912-12.14-5.286-12.14-5.286s10.49-.165,5.921-11.6a.765.765,0,0,0-.6-.47c-1.02-.155-3.842-.709-4.378-2.527C494.259,1151.114,495.411,1150.153,496.656,1150.206Z" transform="translate(-493.315 -1139.068)" fill="#fff"/>
            <path id="Path_757" data-name="Path 757" d="M500.984,1172.179c-8.024,0-9.3-5.993-9.316-6.061a.562.562,0,0,1,.542-.672c.038,0,3.9-.1,5.649-2.73,1.241-1.869,1.162-4.594-.239-8.1a.2.2,0,0,0-.155-.122c-1.553-.237-4.246-.931-4.833-2.924a2.82,2.82,0,0,1,.328-2.665,2.442,2.442,0,0,1,2.062-.893c.005,0,.018,0,.023-.008l-.048-.5c-.229-1.953-.575-4.907,1.157-6.427,3.008-2.644,4.993-3.763,6.44-3.636a1.942,1.942,0,0,1,1.388.745,16.824,16.824,0,0,1,.966,1.434c.938,1.495,2.108,3.354,4.106,4.144a.928.928,0,0,1,.524.531,1.321,1.321,0,0,1-.038,1.007l-.595,1.51a1.852,1.852,0,0,0,.109.895c.061.148.135.318.216.5.872,2.021,1.141,2.825.933,3.316-.348.811-2.25,1.828-3.386,2.374l2,9.339a1.547,1.547,0,0,0,.17.45H509l3.862.287a.565.565,0,0,1,.521.587c-.01.234-.358,5.764-8.914,7.289A20.385,20.385,0,0,1,500.984,1172.179Zm-8.021-5.665c.615,1.612,3.015,5.7,11.3,4.228,6.135-1.093,7.564-4.386,7.892-5.69l-3.178-.237a.87.87,0,0,1-.562-.13,1.994,1.994,0,0,1-.7-1.213l-2.092-9.773a.562.562,0,0,1,.313-.628,11.9,11.9,0,0,0,3.208-1.95,14.719,14.719,0,0,0-.908-2.466c-.081-.191-.158-.363-.219-.513a2.727,2.727,0,0,1-.107-1.772l.595-1.51a.334.334,0,0,0,.028-.1c-2.273-.946-3.526-2.942-4.536-4.548a16.047,16.047,0,0,0-.895-1.335.814.814,0,0,0-.608-.32c-1.07-.1-2.949,1.035-5.593,3.359-1.289,1.134-.971,3.837-.783,5.454l.056.488a1.15,1.15,0,0,1-1.195,1.276,1.324,1.324,0,0,0-1.126.463,1.81,1.81,0,0,0-.135,1.653c.427,1.449,2.886,1.973,3.923,2.13a1.326,1.326,0,0,1,1.032.819c1.548,3.875,1.589,6.951.127,9.148C497.206,1165.729,494.317,1166.352,492.962,1166.515Z" transform="translate(-491.657 -1137.432)"/>
          </g>
          <g id="Group_841" data-name="Group 841" transform="translate(27.393 76.763)">
            <g id="Group_840" data-name="Group 840" transform="translate(55.269 32.673)">
              <path id="Path_758" data-name="Path 758" d="M664.928,1491.7s6.285-2.232,10.643-1a7.244,7.244,0,0,0,2.532,3.933c1.881,1.213,6.486,1.774,7.366,4.391s-8.332,5.136-11.622,3.809-6.257-4.635-9.376-4.477S664.928,1491.7,664.928,1491.7Z" transform="translate(-662.634 -1489.768)" fill="#fff"/>
              <path id="Path_759" data-name="Path 759" d="M674.612,1502.1a7.28,7.28,0,0,1-2.616-.4,22.439,22.439,0,0,1-3.74-2.125c-1.876-1.233-3.656-2.41-5.4-2.309a1.611,1.611,0,0,1-1.561-.709c-1.078-1.688,1.053-5.934,1.493-6.768a.568.568,0,0,1,.31-.27c.264-.094,6.5-2.276,10.984-1.014a.567.567,0,0,1,.394.409,6.716,6.716,0,0,0,2.291,3.592,13.1,13.1,0,0,0,2.359,1.012c2.136.773,4.554,1.647,5.235,3.674a1.973,1.973,0,0,1-.732,2.146C681.929,1500.945,677.747,1502.1,674.612,1502.1Zm-11.568-5.965c2.029,0,3.961,1.269,5.832,2.5a21.285,21.285,0,0,0,3.542,2.024c2.352.951,8.5-.31,10.439-2.138.384-.364.531-.689.437-.969-.506-1.51-2.654-2.288-4.551-2.975a13.714,13.714,0,0,1-2.586-1.124,7.449,7.449,0,0,1-2.682-3.943c-3.687-.88-8.715.648-9.793,1-.936,1.844-1.955,4.628-1.437,5.441.041.064.137.214.554.191C662.884,1496.142,662.965,1496.139,663.044,1496.139Z" transform="translate(-660.996 -1488.121)"/>
            </g>
            <path id="Path_760" data-name="Path 760" d="M459.745,1359.61l7.325,16.913a13.23,13.23,0,0,0,8.093,7.335l28.1,9.013-.658,9.76s-36.912-3.465-43.3-8.171c-5.975-4.406-13.485-24.736-13.485-24.736Z" transform="translate(-445.259 -1359.61)" fill="#fff"/>
            <path id="Path_761" data-name="Path 761" d="M500.955,1428.57a.39.39,0,0,1-.053,0c-1.513-.142-37.14-3.534-43.575-8.278-6.041-4.455-13.368-24.156-13.678-24.992a.562.562,0,1,1,1.055-.389c.074.2,7.518,20.223,13.289,24.479s37.735,7.544,42.439,8.009l.59-8.743-27.677-8.881a13.772,13.772,0,0,1-8.436-7.648l-3.336-7.7a.563.563,0,1,1,1.032-.447l3.336,7.7a12.653,12.653,0,0,0,7.747,7.022l28.1,9.016a.561.561,0,0,1,.389.574l-.659,9.761a.567.567,0,0,1-.2.391A.578.578,0,0,1,500.955,1428.57Z" transform="translate(-443.613 -1384.984)"/>
          </g>
        </g>
        <g id="Group_843" data-name="Group 843" transform="translate(87.504 68.584)">
          <path id="Path_762" data-name="Path 762" d="M750.609,1334.51c-1.083-4.528-13.821-6.023-15.234-3.895-3.282,4.94-8.916,17.332-11.927,24.148a15.2,15.2,0,0,1-6.58,7.175l-17,9.346c-.905-.231-9.227-2.357-10.055-2.181-.877.183-1.914,1.823-4.1,3.054s-3.824,1.968-3.308,2.921c.458.849,4.546.519,7.422-.747a1.485,1.485,0,0,1,1.688.366c1.027,1.129,5.537,3.135,9.59,3.117l27.253-4.472a9.944,9.944,0,0,0,6.849-4.582C740.414,1360.341,752.058,1340.574,750.609,1334.51Z" transform="translate(-681.737 -1329.097)" fill="#fff"/>
          <path id="Path_763" data-name="Path 763" d="M699.363,1376.72c-4.032,0-8.736-1.966-9.951-3.3a.932.932,0,0,0-1.045-.231c-2.685,1.182-7.4,1.876-8.143.5-.717-1.327.816-2.176,2.758-3.249.247-.137.5-.277.768-.427a13.423,13.423,0,0,0,2.532-1.937,4.208,4.208,0,0,1,1.724-1.18c.839-.186,6.588,1.233,10.1,2.131l16.8-9.24a14.715,14.715,0,0,0,6.336-6.91c3.056-6.921,8.677-19.272,11.973-24.232,1.065-1.6,5.52-1.289,7.983-.852,1.739.308,7.47,1.576,8.268,4.927,1.447,6.056-9.069,24.326-15.468,34.679a10.5,10.5,0,0,1-7.236,4.841l-27.253,4.472A.916.916,0,0,1,699.363,1376.72Zm-10.638-4.732a2.048,2.048,0,0,1,1.518.674c.943,1.035,5.326,2.932,9.117,2.932h.008l27.207-4.465a9.374,9.374,0,0,0,6.46-4.322c10.572-17.108,16.3-29.752,15.331-33.825-.42-1.757-3.313-3.359-7.371-4.081-3.8-.676-6.466-.214-6.849.366-3.249,4.892-8.838,17.177-11.881,24.065a15.836,15.836,0,0,1-6.824,7.439l-17,9.346a.579.579,0,0,1-.412.053,93.327,93.327,0,0,0-9.816-2.174,4.3,4.3,0,0,0-1.177.905,14.453,14.453,0,0,1-2.738,2.088c-.267.15-.529.295-.778.432-1.172.649-2.5,1.383-2.314,1.731.45.4,3.933.221,6.7-1A2.116,2.116,0,0,1,688.725,1371.988Z" transform="translate(-680.044 -1327.439)"/>
        </g>
        <g id="Group_856" data-name="Group 856" transform="translate(136.58 10.337)">
          <g id="Group_849" data-name="Group 849" transform="translate(8.161 130.209)">
            <g id="Group_844" data-name="Group 844" transform="translate(56.786 106.45)">
              <path id="Path_764" data-name="Path 764" d="M1139.12,2032.1l-.582,10.712-7.162,1.207-.636-12.633Z" transform="translate(-1130.175 -2030.826)" fill="#fff"/>
              <path id="Path_765" data-name="Path 765" d="M1129.718,2042.931a.566.566,0,0,1-.354-.125.575.575,0,0,1-.211-.409l-.635-12.633a.561.561,0,0,1,.608-.59l8.38.715a.561.561,0,0,1,.514.59l-.58,10.711a.56.56,0,0,1-.468.524l-7.162,1.208A.35.35,0,0,1,1129.718,2042.931Zm-.041-12.58.572,11.36,6.094-1.027.526-9.717Z" transform="translate(-1128.518 -2029.171)"/>
            </g>
            <g id="Group_845" data-name="Group 845" transform="translate(54.303 113.233)">
              <path id="Path_766" data-name="Path 766" d="M1123.884,2082.523a50.383,50.383,0,0,0,13.706-.7,3.226,3.226,0,0,0,2.494-4.093c-1.533-5.111-4.221-14.81-8.215-19.168l-.811,2.515-1.409-2.258a1.144,1.144,0,0,0-.885-.536l-2.848-.216a1.145,1.145,0,0,0-1.218.963l-.343,2.164-1.129-2.758-2.258,20.619A3.219,3.219,0,0,0,1123.884,2082.523Z" transform="translate(-1120.398 -2057.503)" fill="#fff"/>
              <path id="Path_767" data-name="Path 767" d="M1126.514,2081.62c-1.668,0-3.127-.081-4.327-.188h0a3.792,3.792,0,0,1-3.422-4.075l2.26-20.635a.563.563,0,0,1,1.08-.152l.366.894.028-.173a1.709,1.709,0,0,1,1.816-1.437l2.847.216a1.711,1.711,0,0,1,1.32.8l.768,1.23.44-1.36a.563.563,0,0,1,.951-.206c3.809,4.156,6.44,13,8.009,18.285l.328,1.1a3.787,3.787,0,0,1-2.927,4.805A51.188,51.188,0,0,1,1126.514,2081.62Zm-4.226-1.309a49.717,49.717,0,0,0,13.552-.689,2.687,2.687,0,0,0,1.787-1.238,2.618,2.618,0,0,0,.272-2.141l-.328-1.1c-1.452-4.881-3.821-12.857-7.121-17.088l-.5,1.549a.564.564,0,0,1-1.014.127l-1.409-2.258a.58.58,0,0,0-.45-.272l-2.848-.217a.587.587,0,0,0-.62.491l-.341,2.164a.559.559,0,0,1-.491.47.552.552,0,0,1-.584-.346l-.29-.707-2.019,18.415A2.656,2.656,0,0,0,1122.288,2080.311Z" transform="translate(-1118.752 -2055.849)"/>
            </g>
            <path id="Path_768" data-name="Path 768" d="M1135.539,2137.17a35.064,35.064,0,0,1-7.249-.731.563.563,0,0,1,.252-1.1c.074.018,7.538,1.7,14.474-.249a.563.563,0,0,1,.305,1.083A28.883,28.883,0,0,1,1135.539,2137.17Z" transform="translate(-1071.237 -2001.695)"/>
            <path id="Path_769" data-name="Path 769" d="M1141.632,2108.491a.562.562,0,0,1-.01-1.124l6.765-.117h.01a.562.562,0,0,1,.01,1.124l-6.766.117Z" transform="translate(-1081.093 -1980.949)"/>
            <g id="Group_846" data-name="Group 846" transform="translate(20.984 103.194)">
              <path id="Path_770" data-name="Path 770" d="M1000.072,2018.57l-.3,15.606-8.667.437-1.187-15.529Z" transform="translate(-989.356 -2018.008)" fill="#fff"/>
              <path id="Path_771" data-name="Path 771" d="M989.451,2033.528a.561.561,0,0,1-.559-.519l-1.187-15.529a.565.565,0,0,1,.534-.605l10.152-.511a.523.523,0,0,1,.419.157.567.567,0,0,1,.17.415l-.295,15.6a.563.563,0,0,1-.534.551l-8.67.438Zm-.58-15.56,1.1,14.406,7.6-.384.275-14.477Z" transform="translate(-987.702 -2016.361)"/>
            </g>
            <g id="Group_847" data-name="Group 847" transform="translate(0 112.368)">
              <path id="Path_772" data-name="Path 772" d="M940.925,2069.757a3.135,3.135,0,0,1-2.26,3.219c-4.925,1.411-16.023,4.562-19.2,5.2-4.126.829-9.3-.188-11.616-2.507s4.5-8.484,7.772-10.767c4.856-3.392,9.364-9.834,11.37-10.216s6.074,5.291,6.074,5.291l6.033-2.9A76.188,76.188,0,0,1,940.925,2069.757Z" transform="translate(-906.815 -2054.102)" fill="#fff"/>
              <path id="Path_773" data-name="Path 773" d="M914.832,2077.364c-3.585,0-7.188-1.116-9.028-2.959a2.236,2.236,0,0,1-.625-1.836c.277-3.122,5.827-7.942,8.474-9.791a47.214,47.214,0,0,0,6.651-6.147c2.176-2.286,3.75-3.936,4.935-4.16,2.034-.394,5.237,3.63,6.356,5.133l5.614-2.7a.561.561,0,0,1,.788.368,77.764,77.764,0,0,1,1.843,12.786,3.719,3.719,0,0,1-2.667,3.8c-4.714,1.35-16.023,4.561-19.244,5.209A15.6,15.6,0,0,1,914.832,2077.364Zm10.732-23.795a.593.593,0,0,0-.117.01c-.829.158-2.53,1.943-4.33,3.831a48.011,48.011,0,0,1-6.824,6.293c-3.219,2.245-7.787,6.61-8,8.964a1.1,1.1,0,0,0,.3.94c2.1,2.105,7.086,3.161,11.108,2.354,3.183-.638,14.456-3.842,19.157-5.187a2.586,2.586,0,0,0,1.853-2.642,80.418,80.418,0,0,0-1.653-11.908l-5.4,2.6a.566.566,0,0,1-.7-.178C929.454,2056.546,926.759,2053.57,925.564,2053.57Z" transform="translate(-905.167 -2052.444)"/>
            </g>
            <path id="Path_774" data-name="Path 774" d="M921.341,2117.583c-2.71,0-5.093-.521-6.74-1.866a.562.562,0,1,1,.709-.872c6.687,5.45,28.1-4.49,28.318-4.592a.562.562,0,1,1,.478,1.017C943.407,2111.6,930.512,2117.583,921.341,2117.583Z" transform="translate(-912.048 -1983.148)"/>
            <path id="Path_775" data-name="Path 775" d="M966.926,2085.876a.555.555,0,0,1-.356-.127l-4.609-3.755a.562.562,0,1,1,.709-.872l4.609,3.755a.561.561,0,0,1,.081.79A.554.554,0,0,1,966.926,2085.876Z" transform="translate(-947.367 -1961.37)"/>
            <g id="Group_848" data-name="Group 848" transform="translate(7.769)">
              <path id="Path_776" data-name="Path 776" d="M992.407,1612.69s5.138,48.475,7.388,65.184-1.081,43.919-1.081,43.919l-13.417-.028s-2.57-32.749-4.025-41.808c0,0-6.275-12.062-8.5-22.989s-8.815-28.033-8.815-28.033-.257,87.044-.359,93.888c0,0-10.47,1-14.352-1.18,0,0-8.263-31.318-8.174-48.589s-3.12-60.007-3.12-60.007Z" transform="translate(-937.384 -1612.128)" fill="#fff"/>
              <path id="Path_777" data-name="Path 777" d="M956.639,1721.97c-3.259,0-7.2-.285-9.333-1.482a.573.573,0,0,1-.27-.348c-.084-.313-8.281-31.587-8.192-48.734.086-17.05-3.087-59.534-3.12-59.961a.562.562,0,0,1,.557-.605l54.457-.358h0a.562.562,0,0,1,.559.5c.051.486,5.164,48.658,7.388,65.166,2.235,16.589-1.048,43.789-1.08,44.063a.561.561,0,0,1-.559.493h0l-13.417-.028a.562.562,0,0,1-.559-.519c-.025-.325-2.57-32.62-4-41.673-.557-1.088-6.392-12.646-8.515-23.052-1.65-8.085-5.748-19.709-7.711-25.053-.046,15.565-.259,84.773-.351,90.806a.563.563,0,0,1-.508.552C961.785,1721.756,959.466,1721.97,956.639,1721.97Zm-8.576-2.354c3.346,1.673,11.243,1.2,13.312,1.043.1-9.723.351-92.518.353-93.372a.563.563,0,0,1,1.088-.2c.066.171,6.626,17.276,8.84,28.123,2.189,10.721,8.39,22.722,8.454,22.841a.525.525,0,0,1,.056.171c1.34,8.352,3.653,37.11,3.989,41.335l12.4.025c.435-3.765,3.074-28.066,1.024-43.28-2.1-15.611-6.781-59.471-7.337-64.693l-53.346.351c.389,5.258,3.16,43.468,3.076,59.45C939.887,1687.621,947.306,1716.684,948.063,1719.615Z" transform="translate(-935.723 -1610.48)"/>
            </g>
            <path id="Path_778" data-name="Path 778" d="M1116.39,1875.077a.562.562,0,0,1-.028-1.124l4.091-.206a.563.563,0,0,1,.056,1.124l-4.091.206Z" transform="translate(-1062.268 -1806.812)"/>
            <path id="Path_779" data-name="Path 779" d="M976.224,1915.22a.565.565,0,0,1-.562-.524c-.534-7.752-10.223-21.921-10.322-22.063a.563.563,0,0,1,.928-.638c.407.589,9.961,14.568,10.518,22.625a.563.563,0,0,1-.524.6Z" transform="translate(-949.967 -1820.239)"/>
          </g>
          <g id="Group_852" data-name="Group 852" transform="translate(0 36.159)">
            <path id="Path_780" data-name="Path 780" d="M956.826,1279.1s-5.952-28.758-22.175-35.089-41.556-2.73-47.295,1.129-14.286,21.911-14.286,21.911l10.823,16.061s1.088,50.971,4.233,64.37c0,0,15.255,1,21.557-1.854s27.273-7.472,37.616-3.338l-5.108-64.766Z" transform="translate(-873.07 -1240.562)" fill="#bf4804"/>
            <path id="Path_781" data-name="Path 781" d="M1010.274,1531.751c-.023,0-.046,0-.071,0-24.881-3.115-32.966-19.933-33.044-20.1a.562.562,0,1,1,1.019-.475c.076.163,7.93,16.427,32.162,19.46a.563.563,0,0,1,.488.628A.556.556,0,0,1,1010.274,1531.751Z" transform="translate(-950.655 -1442.124)"/>
            <g id="Group_850" data-name="Group 850" transform="translate(6.852 21.015)">
              <path id="Path_782" data-name="Path 782" d="M917.658,1367.55l26.055-2.031-12.163-38.862a1.766,1.766,0,0,0-1.922-1.223l-26.635,3.595a.869.869,0,0,0-.687,1.192Z" transform="translate(-901.677 -1324.859)" fill="#fff"/>
              <path id="Path_783" data-name="Path 783" d="M916,1366.474a.567.567,0,0,1-.521-.348L900.13,1328.8a1.432,1.432,0,0,1,1.131-1.963l26.635-3.6a2.325,2.325,0,0,1,2.532,1.612l12.163,38.859a.563.563,0,0,1-.071.483.571.571,0,0,1-.422.247l-26.055,2.034A.2.2,0,0,0,916,1366.474Zm12.209-42.131a1.135,1.135,0,0,0-.163.01l-26.635,3.595a.3.3,0,0,0-.224.15.3.3,0,0,0-.018.27l15.194,36.949,24.944-1.945-11.952-38.185A1.2,1.2,0,0,0,928.212,1324.342Z" transform="translate(-900.021 -1323.218)"/>
            </g>
            <g id="Group_851" data-name="Group 851" transform="translate(15.812 32.022)">
              <path id="Path_784" data-name="Path 784" d="M1002.158,1374.946l-15.977-6.2s3.536,26.362-28.692,15.733a22.546,22.546,0,0,0,.628-7.427c-.366-3.966-2.548,0-2.718,3.247s-7.658,2.309-12.181,1.261-10.335.081.265,5.25,12.733,2.517,12.733,2.517,14.1,17.767,30.291,13.025C1006.424,1396.521,1002.158,1374.946,1002.158,1374.946Z" transform="translate(-936.932 -1368.181)" fill="#fff"/>
              <path id="Path_785" data-name="Path 785" d="M979.285,1402.042c-12.506,0-22.839-11.294-24.832-13.62-1.167.631-4.5,1.312-12.885-2.776-6.226-3.035-6.537-4.543-6.229-5.413.567-1.6,4.1-1.406,6.336-.89,3.969.921,9.221,1.526,10.968.211a1.211,1.211,0,0,0,.526-.956c.112-2.149,1.187-5.413,2.55-5.441h.02c1.068,0,1.221,1.632,1.269,2.171a23.309,23.309,0,0,1-.513,7.106c10.422,3.351,18.044,3.107,22.669-.732,6-4.978,4.8-14.459,4.79-14.553a.563.563,0,0,1,.76-.6l15.977,6.2a.556.556,0,0,1,.348.415c.043.221,4.131,22.15-16.043,28.058A19.984,19.984,0,0,1,979.285,1402.042Zm-24.746-14.934h.023a.567.567,0,0,1,.422.2c.14.175,14.057,17.416,29.694,12.834,18.151-5.316,15.763-23.762,15.311-26.459l-14.835-5.754c.165,2.631.119,10.167-5.273,14.642-5.016,4.162-13.17,4.421-24.237.77a.561.561,0,0,1-.364-.689,22.156,22.156,0,0,0,.61-7.22,3.707,3.707,0,0,0-.213-1.071,8.179,8.179,0,0,0-1.381,4.294,2.341,2.341,0,0,1-.974,1.8c-2.583,1.948-9.76.483-11.9-.013-2.8-.648-4.871-.254-5.021.168-.005.01-.219,1.159,5.662,4.027,9.837,4.795,12.044,2.675,12.064,2.652A.568.568,0,0,1,954.54,1387.108Z" transform="translate(-935.26 -1366.512)"/>
            </g>
          </g>
          <g id="Group_855" data-name="Group 855" transform="translate(21.822)">
            <g id="Group_853" data-name="Group 853">
              <path id="Path_786" data-name="Path 786" d="M975.574,1127.595c1.411,1.167,4.126,2.542,6.14,1.4,1.5-.851,2.255-2.9,2.087-5.2a3.084,3.084,0,0,0,2.283-.7c.979-.958.7-2.616.607-3.709-.44-5.049,2.459-5.972,1.566-9.369a8.162,8.162,0,0,0-3.313-4.449c-2.077-1.416-3.407-.859-6.814-1.569-5.733-1.2-6.036-3.628-9.766-3.45-.216.01-5.286.323-6.832,3.915-1.256,2.921.554,6.3,2.336,8.039,2.309,2.247,3.824,1,6.12,2.87C974.023,1118.655,971.379,1124.126,975.574,1127.595Z" transform="translate(-960.554 -1099.984)"/>
              <path id="Path_787" data-name="Path 787" d="M978.36,1128.346a8.265,8.265,0,0,1-4.8-1.958c-2.278-1.884-2.675-4.271-3.059-6.583-.353-2.13-.689-4.144-2.522-5.631a5.424,5.424,0,0,0-2.644-1.142,6.22,6.22,0,0,1-3.514-1.762c-2.1-2.044-3.768-5.629-2.461-8.665,1.693-3.936,7.093-4.243,7.322-4.254a7.27,7.27,0,0,1,4.528,1.335,15.875,15.875,0,0,0,5.382,2.126,25.327,25.327,0,0,0,2.942.417,7.532,7.532,0,0,1,4.073,1.241,8.625,8.625,0,0,1,3.539,4.773,5.933,5.933,0,0,1-.6,4.33,9.4,9.4,0,0,0-.953,5.133l.031.32c.117,1.175.275,2.784-.806,3.839a3.222,3.222,0,0,1-2.09.847c.023,2.331-.87,4.266-2.4,5.133A3.981,3.981,0,0,1,978.36,1128.346Zm-11.276-28.877c-.112,0-.229,0-.348.008-.048,0-4.922.275-6.341,3.575-1.172,2.72.681,5.924,2.212,7.414a5.065,5.065,0,0,0,2.959,1.467,6.512,6.512,0,0,1,3.122,1.37c2.164,1.757,2.55,4.078,2.921,6.321.366,2.2.712,4.284,2.665,5.9,1.108.916,3.684,2.375,5.5,1.345,1.253-.712,1.96-2.542,1.8-4.665a.553.553,0,0,1,.155-.43.536.536,0,0,1,.425-.173,2.507,2.507,0,0,0,1.871-.536c.694-.679.572-1.925.473-2.926l-.03-.333a10.473,10.473,0,0,1,1.042-5.68,4.892,4.892,0,0,0,.542-3.595,7.483,7.483,0,0,0-3.084-4.126,6.477,6.477,0,0,0-3.547-1.05,26.12,26.12,0,0,1-3.066-.435,17,17,0,0,1-5.718-2.255A6.284,6.284,0,0,0,967.085,1099.469Z" transform="translate(-958.9 -1098.343)" fill="#fff"/>
            </g>
            <g id="Group_854" data-name="Group 854" transform="translate(2.446 8.488)">
              <path id="Path_788" data-name="Path 788" d="M971,1144.047l.214-.2a6.921,6.921,0,0,0,2.405-3.664c.953-6.219,6.481-8.738,7.025-3.1.137,1.424,5.344,1.086,4.8,2.616-1.416,3.984-1.5,2.937.844,4.261a1.93,1.93,0,0,1,.763.142,2.612,2.612,0,0,1,1.1,3.491,3.023,3.023,0,0,1-1.767,1.752l.31,6.168a5.7,5.7,0,0,0,3.8,5.09l2.125.747s-9.392,6.826-19.6.366l1.286-.656a6.645,6.645,0,0,0,3.623-6.043l-.051-1.205a5.175,5.175,0,0,1-1.9-.064c-2.8-.663-3.872-3.793-3.6-7.765l-1.152-.547A.854.854,0,0,1,971,1144.047Z" transform="translate(-970.172 -1133.378)" fill="#fff"/>
              <path id="Path_789" data-name="Path 789" d="M980.627,1163.382a17.608,17.608,0,0,1-9.557-2.848.57.57,0,0,1-.262-.5.562.562,0,0,1,.308-.475l1.286-.656a6.12,6.12,0,0,0,3.315-5.533l-.025-.6a5.545,5.545,0,0,1-1.5-.13c-2.8-.664-4.266-3.559-4.058-7.968l-.811-.384a1.411,1.411,0,0,1-.369-2.3h0l.214-.2a6.492,6.492,0,0,0,2.237-3.341c.646-4.223,3.27-6.763,5.342-6.717,1.536.043,2.583,1.406,2.8,3.646.028.277,1.5.613,2.059.737,1.218.277,2.27.514,2.649,1.2a1.088,1.088,0,0,1,.061.918c-.206.582-.387,1.058-.532,1.449a7.993,7.993,0,0,0-.44,1.335,4.352,4.352,0,0,0,.5.257c.251.12.562.265.94.473a2.482,2.482,0,0,1,.824.178,3.174,3.174,0,0,1,1.411,4.223,3.623,3.623,0,0,1-1.708,1.9l.292,5.774a5.123,5.123,0,0,0,3.427,4.589l2.125.745a.563.563,0,0,1,.145.987A19.946,19.946,0,0,1,980.627,1163.382Zm-8.093-3.285c7.6,4.264,14.637,1.149,17.141-.262l-1.017-.356a6.241,6.241,0,0,1-4.18-5.594l-.31-6.168a.563.563,0,0,1,.381-.562,2.475,2.475,0,0,0,1.429-1.431,2.059,2.059,0,0,0-.791-2.756,1.388,1.388,0,0,0-.547-.1.866.866,0,0,1-.282-.074c-.4-.226-.727-.381-.991-.5-1.5-.7-1.312-1.193-.631-3.005.145-.387.32-.855.524-1.429-.127-.244-1.281-.506-1.9-.646-1.388-.315-2.825-.641-2.929-1.726-.16-1.645-.783-2.606-1.711-2.632h-.043c-1.556,0-3.631,2.344-4.154,5.761a7.38,7.38,0,0,1-2.573,3.987l-.214.2a.277.277,0,0,0-.084.252.273.273,0,0,0,.16.214l1.152.547a.563.563,0,0,1,.32.546c-.13,1.9-.079,6.41,3.17,7.18a4.583,4.583,0,0,0,1.7.053.546.546,0,0,1,.437.125.554.554,0,0,1,.2.409l.051,1.205a7.255,7.255,0,0,1-3.928,6.569Z" transform="translate(-968.519 -1131.728)"/>
            </g>
            <path id="Path_790" data-name="Path 790" d="M997.187,1199.676a.563.563,0,0,1-.114-1.114,7.561,7.561,0,0,0,4.976-3.557.564.564,0,0,1,1,.511,8.618,8.618,0,0,1-5.751,4.147A.63.63,0,0,1,997.187,1199.676Z" transform="translate(-987.032 -1170.199)"/>
          </g>
        </g>
      </g>
      <g id="Group_861" data-name="Group 861" transform="translate(395.59 344.219)">
        <g id="Group_858" data-name="Group 858" transform="translate(26.429 5.069)">
          <path id="Path_791" data-name="Path 791" d="M1990.891,1765.64s-5.133-23.569,6.369-42.454c.384-.63,2.957.8,3.38.183.539-.793-1.058-3.636-.453-4.406a42.4,42.4,0,0,1,8.222-7.953,48.055,48.055,0,0,1,2.138,17.383c-.038.765-3.493,2.08-3.572,2.876-.073.752,3.231.987,3.12,1.764C2008.643,1743.086,2003.764,1755.081,1990.891,1765.64Z" transform="translate(-1989.215 -1710.447)" fill="#fff"/>
          <path id="Path_792" data-name="Path 792" d="M1989.324,1764.551a.585.585,0,0,1-.186-.031.565.565,0,0,1-.366-.412c-.051-.239-5.047-24.006,6.44-42.868.415-.676,1.332-.427,2.306-.163a6.38,6.38,0,0,0,1.111.239,6.74,6.74,0,0,0-.333-1.607c-.31-1.1-.6-2.128-.117-2.746a43.086,43.086,0,0,1,8.329-8.057.562.562,0,0,1,.862.259,48.117,48.117,0,0,1,2.172,17.6c-.033.651-.758,1.114-2.039,1.876a12,12,0,0,0-1.416.933,9.308,9.308,0,0,0,1.032.363c1.027.321,2.09.649,1.963,1.518-1.856,12.832-8.385,23.922-19.4,32.963A.537.537,0,0,1,1989.324,1764.551Zm6.788-42.622c-9.9,16.361-7.19,36.5-6.412,41.015,10.31-8.708,16.447-19.3,18.25-31.494a6.891,6.891,0,0,0-1.162-.432c-1.04-.323-2.021-.628-1.94-1.457.064-.648.832-1.139,2.08-1.884a7.788,7.788,0,0,0,1.492-1.027,49.575,49.575,0,0,0-1.869-16.371,42.006,42.006,0,0,0-7.487,7.378,4.974,4.974,0,0,0,.315,1.744c.307,1.085.572,2.024.16,2.631-.437.641-1.35.394-2.316.13a6.043,6.043,0,0,0-1.1-.234Z" transform="translate(-1987.648 -1708.796)"/>
        </g>
        <g id="Group_859" data-name="Group 859">
          <path id="Path_793" data-name="Path 793" d="M1908.771,1717.814c-.336-.831-4.18.936-4.533.137s2.525-5.161,2.158-5.916a77.109,77.109,0,0,0-17.006-23.175,59.267,59.267,0,0,0-5.334,18.105c-.122.951,3.824,3.552,3.747,4.5-.084,1.037-4.037,1.391-4.068,2.418-.453,15.173,3.056,25.974,8.644,36.683,7.007-.557,15.016.562,21.161-1.276A66.557,66.557,0,0,0,1908.771,1717.814Z" transform="translate(-1883.696 -1688.86)" fill="#bf4804"/>
          <path id="Path_794" data-name="Path 794" d="M1947.181,1871.646a.564.564,0,0,1-.531-.374c-1.694-4.752-3.275-9.611-4.7-14.441a.563.563,0,1,1,1.08-.318c1.419,4.813,3,9.651,4.681,14.383a.563.563,0,0,1-.341.719A.621.621,0,0,1,1947.181,1871.646Z" transform="translate(-1927.122 -1813.586)" fill="#fff"/>
          <path id="Path_795" data-name="Path 795" d="M1917.113,1745.716a.564.564,0,0,1-.544-.417c-2.186-8.2-4.009-16.607-5.418-24.98l-.643-3.824a.563.563,0,1,1,1.111-.185l.643,3.824c1.4,8.337,3.219,16.706,5.4,24.875a.564.564,0,0,1-.4.689A.716.716,0,0,1,1917.113,1745.716Z" transform="translate(-1903.685 -1708.98)" fill="#fff"/>
        </g>
        <g id="Group_860" data-name="Group 860" transform="translate(27.071 33.932)">
          <path id="Path_796" data-name="Path 796" d="M1990.17,1849.733s2.3-25.181,29.744-27.413C2019.914,1822.32,2015.785,1843.781,1990.17,1849.733Z" transform="translate(-1990.17 -1822.32)"/>
          <path id="Path_797" data-name="Path 797" d="M2013.861,1858.2a.562.562,0,0,1-.453-.895c5.166-7.02,17.25-16.475,17.762-16.874a.563.563,0,1,1,.694.887c-.124.1-12.473,9.763-17.545,16.656A.572.572,0,0,1,2013.861,1858.2Z" transform="translate(-2007.418 -1835.738)" fill="#fff"/>
        </g>
      </g>
    </g>
  </g>
</svg>
