<svg xmlns="http://www.w3.org/2000/svg" width="594.594" height="464.532" viewBox="0 0 594.594 464.532">
  <g id="Illustration" transform="translate(-319.286 -710.74)">
    <g id="Group_710" data-name="Group 710" transform="translate(319.286 710.74)">
      <path id="Path_483" data-name="Path 483" d="M384.45,1187.41c79.254,73.494,200.17,101.08,287.943,93.357,34.249-3.016,125.066-11.011,180.96-82.154.968-1.23,3.526-4.6,6.928-9.765Z" transform="translate(-363.635 -1035.148)" fill="#fff"/>
      <path id="Path_484" data-name="Path 484" d="M779.338,1190.666a.718.718,0,0,1-.629-1.067l1.869-3.37a.719.719,0,1,1,1.259.7l-1.869,3.37A.72.72,0,0,1,779.338,1190.666Z" transform="translate(-631.895 -1034.092)"/>
      <path id="Path_485" data-name="Path 485" d="M350.347,1202.354a.721.721,0,0,1-.6-1.115l1.374-2.1a.72.72,0,0,1,1.2.789l-1.374,2.1A.722.722,0,0,1,350.347,1202.354Z" transform="translate(-339.936 -1042.908)"/>
      <g id="Group_681" data-name="Group 681" transform="translate(0 126.903)">
        <g id="Group_679" data-name="Group 679">
          <path id="Path_486" data-name="Path 486" d="M689.764,1393.241l-347.056,1.984c-3.619,0-6.884-3.408-7.126-7.433L319.3,1115.226c-.22-3.68,2.182-6.545,5.488-6.545l346.583-.661c3.619,0,7.478,4.066,7.717,8.094L695.37,1388.68C695.594,1392.36,693.073,1393.241,689.764,1393.241Z" transform="translate(-319.286 -1108.02)" fill="#bf4804"/>
          <path id="Path_487" data-name="Path 487" d="M730.222,1398.132H383.047c-3.619,0-6.884-3.364-7.127-7.341L359.47,1120.232c-.22-3.635,2.182-6.462,5.488-6.462H712.132c3.619,0,6.884,3.364,7.127,7.34l16.451,270.559C735.933,1395.305,733.531,1398.132,730.222,1398.132Z" transform="translate(-346.625 -1111.934)" fill="#fff"/>
          <path id="Path_488" data-name="Path 488" d="M1424.387,1171.969a.723.723,0,0,1-.719-.677l-3.14-51.661c-.22-3.613-3.156-6.663-6.408-6.663h-22.482a.719.719,0,1,1,0-1.437h22.482c3.99,0,7.58,3.67,7.845,8.018l3.14,51.661a.723.723,0,0,1-.674.763A.113.113,0,0,0,1424.387,1171.969Z" transform="translate(-1048.609 -1110.409)"/>
          <path id="Path_489" data-name="Path 489" d="M381.523,1397.316c-3.99,0-7.583-3.67-7.845-8.018l-16.451-270.559a7.061,7.061,0,0,1,1.8-5.341,5.985,5.985,0,0,1,4.4-1.888H558.915a.719.719,0,1,1,0,1.437H363.434a4.557,4.557,0,0,0-3.357,1.434,5.627,5.627,0,0,0-1.415,4.264l16.451,270.559c.22,3.613,3.156,6.663,6.408,6.663l256.453-.294a.72.72,0,1,1,0,1.441Z" transform="translate(-345.097 -1110.395)"/>
          <g id="Group_678" data-name="Group 678" transform="translate(20.523 11.614)">
            <path id="Path_490" data-name="Path 490" d="M740.624,1410.006H407.638c-3.351,0-6.376-3.115-6.6-6.8L385.8,1152.626c-.2-3.367,2.019-5.986,5.082-5.986H723.87c3.351,0,6.376,3.114,6.6,6.8l15.237,250.582C745.91,1407.387,743.687,1410.006,740.624,1410.006Z" transform="translate(-385.069 -1145.918)" fill="#fff"/>
            <path id="Path_491" data-name="Path 491" d="M739.089,1409.187H406.1c-3.721,0-7.072-3.424-7.318-7.474L383.549,1151.13a6.583,6.583,0,0,1,1.683-4.986,5.593,5.593,0,0,1,4.117-1.763H722.335c3.721,0,7.072,3.424,7.318,7.474l15.237,250.582a6.571,6.571,0,0,1-1.683,4.983A5.584,5.584,0,0,1,739.089,1409.187ZM389.353,1145.821a4.172,4.172,0,0,0-3.07,1.31,5.146,5.146,0,0,0-1.294,3.91l15.237,250.582c.2,3.319,2.9,6.124,5.881,6.124H739.092a4.172,4.172,0,0,0,3.07-1.31,5.154,5.154,0,0,0,1.294-3.91l-15.237-250.583c-.2-3.319-2.894-6.123-5.881-6.123Z" transform="translate(-383.534 -1144.38)"/>
          </g>
        </g>
        <g id="Group_680" data-name="Group 680" transform="translate(25.88 11.611)">
          <path id="Path_492" data-name="Path 492" d="M673.461,1197h71.073l-.712-11.761h-71.07l-2.329-38.6H651.8l2.329,38.6H513.974l-2.4-38.6h-11.72l1.974,31.815a18.982,18.982,0,0,1-3.111,11.9l-29.736,43.8-5.363-87.514H445l5.766,94.078H402.56l1.134,18.46h44.765a3.808,3.808,0,0,1,3.654,3.533l2.587,42.235a21.075,21.075,0,0,0,3.868,10.784l7.535,10.682h-26.72a5.9,5.9,0,0,0-5.932,6.513l2,32.288H410.137l.623,11.761h25.423l2.051,33.039h11.72l-2.051-33.039h53.821L525,1410.016h18.619l-23.28-33.039h123.1l-22.43,33.039h18.62l20.236-29.806a7.445,7.445,0,0,1,6.261-3.233h89.3l-.674-11.761H670.05l9.573-14.1a15.3,15.3,0,0,0,2.508-9.551Zm-18.623,0,3.868,64.106H518.679L514.7,1197ZM477.632,1316.353a23.7,23.7,0,0,1-4.354-12.142l-2.393-39.057a16.891,16.891,0,0,1,2.782-10.6l30.138-44.257,6.711,108.207a7.17,7.17,0,0,1-7.2,7.909H484.727Zm-30.454,48.854-1.46-23.545a3.168,3.168,0,0,1,3.181-3.494h25.494l19.051,27.036H447.178Zm60.468-6.27-14.633-20.769h19.08c6.414,0,11.094-5.165,10.656-11.761h-.016l-3.322-53.54H659.419l4.047,67.1a19.579,19.579,0,0,1-3.214,12.247l-8.816,12.988H519.174A14.385,14.385,0,0,1,507.646,1358.936Z" transform="translate(-401.84 -1145.915)" fill="#fff"/>
          <path id="Path_493" data-name="Path 493" d="M638.1,1409.18h-18.62a.719.719,0,0,1-.594-1.124l21.667-31.914H520.2l22.481,31.9a.718.718,0,0,1-.588,1.134H523.475a.72.72,0,0,1-.588-.307l-23.063-32.735H447.138l2,32.275a.711.711,0,0,1-.195.537.72.72,0,0,1-.524.227H436.7a.721.721,0,0,1-.719-.677l-2.006-32.365H409.229a.719.719,0,0,1-.719-.68l-.623-11.761a.721.721,0,0,1,.722-.757H433.16l-1.955-31.521a6.912,6.912,0,0,1,1.8-5.229,6.564,6.564,0,0,1,4.849-2.045h25.331l-6.734-9.547a21.687,21.687,0,0,1-4-11.155l-2.587-42.235a3.074,3.074,0,0,0-2.936-2.859H402.16a.72.72,0,0,1-.719-.677l-1.134-18.457a.711.711,0,0,1,.195-.537.725.725,0,0,1,.524-.227h47.442l-5.718-93.315a.71.71,0,0,1,.195-.536.725.725,0,0,1,.524-.227h18.619a.721.721,0,0,1,.719.677l5.235,85.409,28.551-42.053a18.169,18.169,0,0,0,2.987-11.455l-1.974-31.815a.71.71,0,0,1,.195-.536.72.72,0,0,1,.524-.227h11.72a.721.721,0,0,1,.719.677l2.351,37.922H651.828l-2.281-37.833a.711.711,0,0,1,.195-.537.725.725,0,0,1,.524-.227h18.62a.721.721,0,0,1,.719.677l2.287,37.922h70.393a.721.721,0,0,1,.719.677l.712,11.761a.71.71,0,0,1-.195.536.726.726,0,0,1-.524.227H672.687l8.628,143.791a15.914,15.914,0,0,1-2.629,10l-8.81,12.978h83.345a.719.719,0,0,1,.719.677l.674,11.761a.71.71,0,0,1-.195.537.72.72,0,0,1-.524.227H664.6a6.714,6.714,0,0,0-5.664,2.916L638.7,1408.867A.725.725,0,0,1,638.1,1409.18Zm-17.259-1.437h16.882l20.022-29.49a8.133,8.133,0,0,1,6.855-3.549h88.539l-.591-10.321H668.525a.719.719,0,0,1-.594-1.124l9.573-14.1a14.5,14.5,0,0,0,2.383-9.1L671.211,1195.5a.711.711,0,0,1,.195-.536.72.72,0,0,1,.524-.227h70.306l-.626-10.321H671.218a.721.721,0,0,1-.719-.677l-2.287-37.923H651.033l2.281,37.833a.711.711,0,0,1-.195.537.725.725,0,0,1-.524.227H512.439a.721.721,0,0,1-.719-.677l-2.351-37.923H499.09l1.926,31.052a19.583,19.583,0,0,1-3.233,12.349l-29.736,43.8a.719.719,0,0,1-1.313-.361l-5.322-86.84H444.235l5.718,93.315a.71.71,0,0,1-.195.536.726.726,0,0,1-.524.227H401.792l1.048,17.019h44.088a4.552,4.552,0,0,1,4.373,4.21l2.587,42.235a20.258,20.258,0,0,0,3.737,10.413l7.535,10.682a.721.721,0,0,1-.588,1.137h-26.72a5.133,5.133,0,0,0-3.8,1.594,5.5,5.5,0,0,0-1.415,4.156l2,32.288a.711.711,0,0,1-.195.536.72.72,0,0,1-.524.227H409.366l.546,10.321h24.743a.721.721,0,0,1,.719.677l2.006,32.365h10.279l-2-32.275a.71.71,0,0,1,.195-.537.72.72,0,0,1,.524-.227H500.2a.72.72,0,0,1,.588.307l23.063,32.735h16.859l-22.478-31.917a.718.718,0,0,1,.588-1.134h123.1a.719.719,0,0,1,.594,1.124ZM649.9,1364.38H517.639a15.213,15.213,0,0,1-12.119-6.574l-14.633-20.769a.718.718,0,0,1,.588-1.134h19.079a9.806,9.806,0,0,0,7.261-3.057,10.414,10.414,0,0,0,2.686-7.788.778.778,0,0,1-.026-.15l-3.322-53.539a.71.71,0,0,1,.195-.537.721.721,0,0,1,.524-.227H657.881a.721.721,0,0,1,.719.677l4.047,67.1a20.215,20.215,0,0,1-3.335,12.7L650.5,1364.07A.731.731,0,0,1,649.9,1364.38Zm-143.2-7.4a13.743,13.743,0,0,0,10.94,5.964H649.519l8.6-12.672a18.773,18.773,0,0,0,3.089-11.8l-4.009-66.428H518.639l3.265,52.626a.751.751,0,0,1,.026.147,11.849,11.849,0,0,1-3.063,9.014,11.224,11.224,0,0,1-8.312,3.514h-17.69Zm-14.793,7.4H445.643a.72.72,0,0,1-.719-.677l-1.46-23.545a4.028,4.028,0,0,1,1.057-3.054,3.849,3.849,0,0,1,2.843-1.2h25.494a.72.72,0,0,1,.588.307l19.051,27.036a.721.721,0,0,1-.591,1.137Zm-45.589-1.44h44.2l-18.035-25.6h-25.12a2.43,2.43,0,0,0-1.8.747,2.613,2.613,0,0,0-.668,1.981Zm55.462-37.357H483.189a.719.719,0,0,1-.588-.307l-7.091-10.056a24.331,24.331,0,0,1-4.485-12.512l-2.393-39.056a17.51,17.51,0,0,1,2.907-11.052l30.138-44.257a.72.72,0,0,1,1.313.361L509.7,1316.91a8.232,8.232,0,0,1-2.147,6.235A7.817,7.817,0,0,1,501.78,1325.582Zm-18.217-1.441H501.78a6.4,6.4,0,0,0,4.727-1.984,6.8,6.8,0,0,0,1.757-5.162l-6.583-106.108-28.956,42.519a16.109,16.109,0,0,0-2.658,10.155l2.392,39.057a22.876,22.876,0,0,0,4.226,11.771Zm173.609-63.86H517.144a.72.72,0,0,1-.719-.674l-3.977-64.106a.71.71,0,0,1,.195-.537.72.72,0,0,1,.524-.227H653.3a.721.721,0,0,1,.719.677l3.868,64.106a.711.711,0,0,1-.195.537A.735.735,0,0,1,657.172,1260.281Zm-139.351-1.441H656.409l-3.779-62.669h-138.7Z" transform="translate(-400.305 -1144.37)"/>
        </g>
      </g>
      <g id="Group_688" data-name="Group 688" transform="translate(210.566)">
        <g id="Group_684" data-name="Group 684" transform="translate(0)">
          <g id="Group_683" data-name="Group 683" transform="translate(0.719 0.716)">
            <ellipse id="Ellipse_32" data-name="Ellipse 32" cx="163.164" cy="164.008" rx="163.164" ry="164.008" fill="#fff"/>
            <g id="Group_682" data-name="Group 682" transform="translate(29.426 6.777)">
              <path id="Path_494" data-name="Path 494" d="M1375.943,780.313a4.032,4.032,0,0,1-.751-.07c-2.44-.46-4.938-3.127-6.682-7.133-1.313-3.019-1.211-8.6-1.112-13.988.08-4.335.156-8.427-.553-10.276-1.265-3.3-2.511-3.274-5.514-3.21-.441.01-.91.019-1.409.019a6.412,6.412,0,0,1-5.737-3.156,2.235,2.235,0,0,1-.144-2.287c5.485-8.088,23.2-6.053,32.716-4.958,15.074,1.731,16.594,9.346,16.157,13.732-.754,7.564-16.125,16.2-17.875,17.16-1.715.939-2.492,3.705-3.239,6.379-.684,2.437-1.386,4.954-2.871,6.446A4.16,4.16,0,0,1,1375.943,780.313Zm-13.563-36.134c2.507,0,4.382.415,5.81,4.149.808,2.111.728,6.341.648,10.816-.093,5-.2,10.656.993,13.387,1.508,3.463,3.715,5.932,5.628,6.293a2.617,2.617,0,0,0,2.45-.869c1.22-1.227,1.872-3.562,2.5-5.82.831-2.961,1.687-6.021,3.936-7.254,6.1-3.348,16.581-10.493,17.134-16.039.671-6.759-4.475-10.966-14.889-12.161-9.209-1.057-26.353-3.025-31.355,4.328a1.7,1.7,0,0,0,.393,1.1,5.127,5.127,0,0,0,4.29,2.1c.489,0,.946-.01,1.377-.019C1361.671,744.188,1362.032,744.179,1362.38,744.179Zm-7.139-3.166Z" transform="translate(-1264.051 -734.195)"/>
              <path id="Path_495" data-name="Path 495" d="M1224.858,1363.859a7.812,7.812,0,0,1-5.063-2.418c-3.143-3.159-8.762-16.217-11.4-24.184-2.041-6.155-3.108-25.267-3.814-37.91-.211-3.8-.4-7.079-.553-8.97-.534-6.417-2.891-7.417-9.2-10.088-1.048-.444-2.195-.929-3.45-1.492-9.257-4.137-10.148-8.267-9.966-16.7.016-.763-.048-1.766-.118-2.929-.316-5.057-.8-12.7,3.961-17.482,4.127-4.149,6.306-17.658,6.066-23.338a5.4,5.4,0,0,1,2.76-4.961c3.389-1.9,9.113-3.526,17.125-.482,3.37,1.281,4.9,3.354,6.373,5.357a14.451,14.451,0,0,0,4.734,4.606,25.944,25.944,0,0,0,5.609,2.038c4.255,1.195,8.657,2.431,7.625,7.369-1.217,5.81,5.494,11.88,16.326,14.761,6.478,1.725,11.343,6.507,11.832,11.631a7.778,7.778,0,0,1-4.766,7.973c-7.928,3.827-7.81,6.459-6.874,11.161a41.167,41.167,0,0,0,1.61,5.357c1.179,3.367,2.194,6.274.882,7.858-1.821,2.2-7.718,4.242-10.286,4.887-2.322.585-5.108,3.654-5.737,9.014-.69,5.881-8.976,20.5-14.02,26.918-4.331,5.514-2.5,10.276,1.153,19.763q.45,1.174.936,2.444c1.894,4.977,1.891,8.126-.013,9.353A3.17,3.17,0,0,1,1224.858,1363.859Zm-22.2-151.208a15.914,15.914,0,0,0-7.874,1.99,3.967,3.967,0,0,0-2.025,3.645c.217,5.136-1.728,19.635-6.484,24.414-4.3,4.322-3.846,11.576-3.546,16.377.073,1.195.141,2.223.121,3.051-.172,8.113.569,11.538,9.117,15.358,1.246.556,2.386,1.038,3.424,1.479,6.5,2.754,9.465,4.012,10.068,11.295.16,1.914.332,5.044.552,9.011.658,11.806,1.76,31.563,3.744,37.539,2.818,8.5,8.379,20.929,11.055,23.622,1.422,1.428,3.856,2.485,4.983,1.754.569-.364,1.648-1.843-.552-7.631-.323-.846-.636-1.658-.936-2.44-3.725-9.679-5.775-15.013-.939-21.168s13.071-20.638,13.723-26.2c.709-6.069,3.935-9.519,6.813-10.241,3.111-.783,8.152-2.747,9.529-4.408.8-.958-.185-3.756-1.131-6.465a42.781,42.781,0,0,1-1.664-5.552c-1.022-5.136-1.016-8.554,7.66-12.739,2.824-1.364,4.229-3.686,3.961-6.539-.351-3.712-3.875-8.542-10.768-10.375-11.79-3.137-18.766-9.746-17.364-16.447.722-3.443-2.038-4.4-6.6-5.686a26.876,26.876,0,0,1-5.929-2.172,15.81,15.81,0,0,1-5.185-5.005c-1.415-1.92-2.75-3.734-5.724-4.865A22.349,22.349,0,0,0,1202.658,1212.651Zm-8.225,1.361h0Z" transform="translate(-1146.529 -1058.839)"/>
              <path id="Path_496" data-name="Path 496" d="M1607.983,1010.214a3.883,3.883,0,0,1-2.932-1.524c-4.491-5.2-5.619-24.775,1.182-34.881,7.306-10.854,3.153-19.249.029-23.286-2-2.588-2.325-13.758-2.242-22.673l0-.5c0-.112.016-.291.038-.524.134-1.348.447-4.507-2.067-6.858-3.156-2.948-9.564-3.641-19.051-2.051-8.375,1.4-14.563.15-18.389-3.728-4.245-4.3-5.475-11.563-3.661-21.59.856-4.731.08-8.551-.607-11.924a29.5,29.5,0,0,1-.8-5.785c0-5.82,7.8-10.605,14.336-13.592a45.746,45.746,0,0,0,9.283-5.919,34.276,34.276,0,0,1,7.791-4.932c4.421-1.834,6.219,1.233,7.954,4.2a15.929,15.929,0,0,0,3.22,4.309c1.469,1.23,2.386.8,3.91.093,2.06-.958,4.881-2.271,9.925.9,5.763,3.619,12.266,2.079,14.847-.1.645-.546,1.655-1.645,1.153-2.862-.664-1.6-2.057-2.124-3.817-2.785-2.211-.827-4.961-1.859-6.612-5.59-1.843-4.169,1.546-6.861,4.533-9.238,2.006-1.594,4.079-3.245,4.466-5.181.389-1.958-.553-4.5-2.588-6.976-2.06-2.511-4.833-4.4-6.449-4.4-.837,0-1.115,1.99-1.411,4.1-.511,3.645-1.211,8.634-5.657,10.2-3.91,1.377-7.653-.674-11.273-2.661-3.169-1.738-6.443-3.533-9.707-2.907-3.67.7-7,5.082-10.525,9.72-3.105,4.085-6.318,8.312-10.129,10.48-2.84,1.613-5.373,1.274-6.951-.933-2.472-3.453-1.9-10.854,2.29-14.569,4.989-4.424,4.772-10.461,4.657-13.7-.016-.435-.029-.818-.029-1.144a7.12,7.12,0,0,1,2.354-5.239c2.36-2.14,6.162-2.974,11.308-2.472,4.015.393,7.066-.185,8.826-1.664a4.033,4.033,0,0,0,1.52-2.565c1.485-10.452-.128-13.32-1.22-14.106a2.871,2.871,0,0,0-2.958.112,23.52,23.52,0,0,0-2.2,3.437c-2.709,4.632-6.417,10.979-9.931,10.254-2.453-.5-4.012-4.143-4.906-11.452-1.265-10.308-.054-16.872,3.6-19.5,3.207-2.31,7.024-.687,7.472-.482,6.836,2.415,12.144,2.316,15.776-.284,5.245-3.753,5.721-11.739,5.683-14.994a.719.719,0,0,1,1.035-.655,164.892,164.892,0,0,1,87.779,108.6.708.708,0,0,1,.01.307c-.895,4.76-2.779,11.378-6.682,15.879-3.175,3.661-2.68,7.232-2.246,10.381.332,2.412.648,4.689-.894,6.411a16.25,16.25,0,0,0-1.307,1.8c-1.1,1.651-2.233,3.367-3.84,3.044-1.833-.367-4.025-3.2-7.577-21.268-4.478-22.778-14.537-24.142-18.661-23.679a.2.2,0,0,0-.179.15.18.18,0,0,0,.07.2c2.728,2.064,7.4,6.264,8.075,11.218a8.942,8.942,0,0,1-1.945,6.81c-5.929,7.746-7.526,14.531-4.494,19.1,3.079,4.645,3.526,8.1,1.834,14.227-.623,2.255-2.482,4.6-4.453,7.085-3.7,4.667-7.89,9.953-4.657,15.805,5.532,10.008-7.58,40.849-16.54,47.777-4.13,3.194-7.887,7.788-11.519,12.231-4.22,5.159-8.206,10.033-12.266,11.979A3.573,3.573,0,0,1,1607.983,1010.214Zm-16.3-94.551c5.191,0,8.976,1.089,11.3,3.258,3.031,2.837,2.658,6.625,2.517,8.053-.016.169-.032.3-.032.38l0,.511c-.16,17.185,1.3,20.954,1.939,21.779,2.706,3.5,8.129,12.934.029,24.973-6.366,9.458-5.418,28.352-1.287,33.134,1.166,1.351,2.166,1.092,2.814.782,3.773-1.8,7.66-6.558,11.774-11.592,3.683-4.5,7.494-9.164,11.755-12.458,9.27-7.165,20.983-37.22,16.163-45.943-3.7-6.689,1.006-12.624,4.788-17.393,1.875-2.367,3.648-4.6,4.194-6.577,1.754-6.344.866-9.26-1.645-13.049-1.968-2.964-3.99-9.608,4.552-20.769a7.542,7.542,0,0,0,1.661-5.743c-.6-4.437-4.967-8.334-7.516-10.263a1.635,1.635,0,0,1,.815-2.929c4.51-.524,15.524.875,20.236,24.829,3.188,16.214,5.264,19.9,6.446,20.134.645.134,1.6-1.291,2.357-2.431a17.544,17.544,0,0,1,1.434-1.958c1.1-1.227.853-3,.54-5.255-.454-3.284-1.019-7.369,2.581-11.522,3.651-4.21,5.452-10.474,6.328-15.048a162.684,162.684,0,0,0-85.949-106.993c-.105,3.954-1.048,11.279-6.273,15.023-4.044,2.9-9.807,3.05-17.128.46a.64.64,0,0,1-.07-.029c-.032-.016-3.418-1.572-6.06.342-2.191,1.588-4.494,6.024-3.006,18.153,1.035,8.427,2.8,10.017,3.769,10.215,2.5.518,6.334-6.047,8.395-9.57,1.485-2.546,2.172-3.683,2.8-4a4.173,4.173,0,0,1,4.443.006c2.444,1.757,3.035,6.8,1.811,15.425a5.452,5.452,0,0,1-1.98,3.479c-2.089,1.786-5.434,2.472-9.937,2.035-4.657-.454-8.184.275-10.2,2.1a5.671,5.671,0,0,0-1.885,4.172c0,.31.013.677.029,1.092.125,3.479.354,9.957-5.143,14.831-3.6,3.2-4.162,9.739-2.077,12.656,1.431,2,3.546,1.383,5.069.521,3.555-2.022,6.676-6.127,9.695-10.1,3.7-4.865,7.187-9.458,11.4-10.266,3.779-.722,7.28,1.2,10.669,3.057,3.494,1.917,6.8,3.728,10.1,2.565,3.619-1.275,4.223-5.58,4.708-9.04.4-2.865.748-5.338,2.837-5.338,2.07,0,5.178,2.028,7.561,4.932,1.357,1.651,3.533,4.909,2.885,8.171-.489,2.456-2.773,4.271-4.98,6.028-3.424,2.725-5.411,4.59-4.111,7.529,1.406,3.178,3.638,4.015,5.8,4.827,1.84.69,3.74,1.4,4.645,3.584.623,1.5.057,3.15-1.553,4.51-2.993,2.527-10.1,4.268-16.543.22-4.379-2.75-6.6-1.722-8.551-.811-1.607.747-3.271,1.524-5.443-.294a17.22,17.22,0,0,1-3.536-4.686c-1.9-3.249-3.041-4.884-6.162-3.594a33.329,33.329,0,0,0-7.465,4.743,47.594,47.594,0,0,1-9.561,6.085c-8.7,3.977-13.5,8.34-13.5,12.285a28.569,28.569,0,0,0,.767,5.5c.712,3.5,1.517,7.462.613,12.467-1.725,9.538-.626,16.377,3.268,20.322,3.479,3.523,9.241,4.638,17.128,3.319A54.565,54.565,0,0,1,1591.679,915.663Z" transform="translate(-1404.044 -752.916)"/>
              <path id="Path_497" data-name="Path 497" d="M1103.152,924.844a5.48,5.48,0,0,1-2.757-.888c-6.235-3.686-28.493-35.779-27.512-53.508.077-1.406.147-2.753.214-4.057.786-15.221,1.259-24.408,10.781-41.079a33.7,33.7,0,0,0,4.194-17.731.733.733,0,0,1,.2-.514,165.6,165.6,0,0,1,21.053-18.61.714.714,0,0,1,.588-.125,43.373,43.373,0,0,0,25.516-2.175c7.114-2.862,11.276-4.916,14.029-6.277,3.651-1.8,5.018-2.479,7.5-2.064,4.482.751,8.229,4.45,7.865,7.762-.559,5.05-5.577,7.612-14.917,7.612-7.158,0-11,5.1-12.314,7.289-2.086,3.466-2.734,7.4-1.581,9.58,1.038,1.958,1.885,2.856,2.923,3.1,1.763.418,4.632-.99,10.225-5.006,4.12-2.958,7.874-4.13,11.151-3.482a8.909,8.909,0,0,1,5.737,4.015c1.326,2.131-.169,5.654-1.894,9.73-.729,1.715-1.479,3.488-1.993,5.14a24.771,24.771,0,0,0-.872,7.781,10.163,10.163,0,0,1-.492,4.277c-.754,1.514-3.2,2.539-6.6,3.961-1.8.751-3.83,1.6-5.948,2.667-6.389,3.21-10.781,5.753-13.544,11.615-1.833,3.891-5.181,6.184-7.871,8.024-1.728,1.182-3.22,2.2-3.68,3.245a17.135,17.135,0,0,0-.658,4.708c-.243,3.852-.514,8.216-3.236,9.883-3.523,2.153-10.289-.888-12.959-3.91a4.063,4.063,0,0,0-3.862-1.492,3.323,3.323,0,0,0-2.511,2.236c-1.188,3.584-.422,8.436,2.284,14.416,3.827,8.458,5.766,15.684,5.766,21.475,0,6.823-1.051,10.739-3.207,11.969A3.177,3.177,0,0,1,1103.152,924.844Zm-13.636-117a34.995,34.995,0,0,1-4.389,18.182c-9.35,16.374-9.791,24.922-10.592,40.44-.067,1.306-.137,2.658-.214,4.063-1,18.073,21.67,49.15,26.81,52.191,1.211.716,2.188.869,2.913.454,1.131-.645,2.482-3.031,2.482-10.72,0-5.583-1.9-12.611-5.638-20.881-2.859-6.321-3.645-11.525-2.338-15.464a4.745,4.745,0,0,1,3.59-3.194,5.524,5.524,0,0,1,5.229,1.948c2.562,2.894,8.532,5.226,11.129,3.632,2.083-1.275,2.341-5.418,2.552-8.743a17.2,17.2,0,0,1,.779-5.2c.626-1.415,2.274-2.546,4.185-3.852,2.546-1.744,5.715-3.913,7.382-7.452,3.181-6.75,8.781-9.567,14.2-12.288,2.162-1.086,4.22-1.949,6.037-2.709,2.869-1.2,5.347-2.239,5.862-3.274a9.879,9.879,0,0,0,.342-3.625,25.989,25.989,0,0,1,.939-8.219c.534-1.719,1.3-3.526,2.041-5.274,1.44-3.4,2.929-6.912,2-8.407a7.434,7.434,0,0,0-4.791-3.364c-2.869-.569-6.245.517-10.03,3.239-6.13,4.4-9.11,5.772-11.391,5.235-1.843-.431-2.945-2.092-3.865-3.824-1.4-2.638-.751-7.059,1.62-11a15.665,15.665,0,0,1,13.55-7.989c8.484,0,13.023-2.131,13.486-6.331.278-2.511-3.025-5.571-6.67-6.184-2.022-.342-3.086.188-6.622,1.936-2.772,1.37-6.963,3.44-14.128,6.321a44.88,44.88,0,0,1-26.046,2.316A163.118,163.118,0,0,0,1089.516,807.844Z" transform="translate(-1072.852 -763.803)"/>
              <path id="Path_498" data-name="Path 498" d="M1843.792,1470.267a.73.73,0,0,1-.2-.029.718.718,0,0,1-.5-.527c-.875-3.728-.866-8.493-.856-12.327l0-1.137c0-6.794,6.734-10.854,10.755-13.282,4.239-2.555,10.628-9.561,10.883-16.479.243-6.587,12.416-15.537,16.917-15.806,1.84-.128,2.147,1.109,2.2,1.482a.712.712,0,0,1-.041.374c-12.454,31.972-16.917,36.325-38.373,57.242l-.291.284A.714.714,0,0,1,1843.792,1470.267Zm37.245-58.152a1.452,1.452,0,0,0-.16.006c-3.929.236-15.355,8.724-15.566,14.422-.278,7.532-6.938,14.863-11.579,17.661-4.006,2.415-10.059,6.066-10.059,12.049l0,1.141a66.1,66.1,0,0,0,.562,10.72c20.651-20.137,25.145-24.721,37.287-55.859C1881.465,1412.178,1881.337,1412.115,1881.037,1412.115Zm-16.444,14.4h0Z" transform="translate(-1596.471 -1194.585)"/>
            </g>
          </g>
          <path id="Path_499" data-name="Path 499" d="M1142.363,1040.189a162.976,162.976,0,0,1-127.436-61.145.72.72,0,0,1,1.121-.9,161.551,161.551,0,0,0,126.318,60.608c89.571,0,162.446-73.251,162.446-163.286s-72.871-163.286-162.446-163.286S979.921,785.429,979.921,875.463a165.39,165.39,0,0,0,3.268,32.757.72.72,0,0,1-1.412.287,166.8,166.8,0,0,1-3.3-33.042,164.073,164.073,0,0,1,48-116.476,163.291,163.291,0,0,1,231.771,0,165.319,165.319,0,0,1,0,232.953A162.39,162.39,0,0,1,1142.363,1040.189Z" transform="translate(-978.48 -710.74)"/>
        </g>
        <g id="Group_687" data-name="Group 687" transform="translate(54.661 2.827)">
          <g id="Group_685" data-name="Group 685" transform="translate(39.724 349.615)">
            <path id="Path_500" data-name="Path 500" d="M1356.406,1865.245V1816.35h-22.421v48.889c-32.761,1.1-57.775,6.983-57.775,14.074,0,7.877,30.854,14.259,68.91,14.259s68.914-6.385,68.914-14.259C1414.037,1872.231,1389.1,1866.357,1356.406,1865.245Z" transform="translate(-1275.491 -1815.628)" fill="#fff"/>
            <path id="Path_501" data-name="Path 501" d="M1343.592,1892.756c-34.227,0-69.632-5.6-69.632-14.981,0-8.74,29.812-13.764,57.775-14.77v-48.2a.718.718,0,0,1,.719-.719h22.421a.718.718,0,0,1,.719.719v48.2c27.892,1.016,57.628,6.043,57.628,14.764C1413.224,1887.153,1377.819,1892.756,1343.592,1892.756Zm-10.416-77.225v48.17a.72.72,0,0,1-.7.719c-35.728,1.2-57.079,7.733-57.079,13.355,0,6.539,27.4,13.541,68.192,13.541s68.192-7,68.192-13.541c0-5.609-21.3-12.135-56.935-13.349a.719.719,0,0,1-.7-.719v-48.176Z" transform="translate(-1273.96 -1814.09)"/>
          </g>
          <g id="Group_686" data-name="Group 686">
            <path id="Path_502" data-name="Path 502" d="M1153.841,1038.8a11.335,11.335,0,0,0,3.494,16.07,197.87,197.87,0,0,0,103.038,28.768c110.225,0,199.579-89.817,199.579-200.608a200.637,200.637,0,0,0-77.6-158.794,11.326,11.326,0,1,0-13.918,17.872,177.935,177.935,0,0,1,68.939,140.919c0,98.26-79.244,177.912-177,177.912a175.484,175.484,0,0,1-91.274-25.449A11.343,11.343,0,0,0,1153.841,1038.8Z" transform="translate(-1151.148 -721.127)" fill="#fff"/>
            <path id="Path_503" data-name="Path 503" d="M1258.823,1082.816a199.221,199.221,0,0,1-103.412-28.873,12.052,12.052,0,1,1,12.512-20.6,175.3,175.3,0,0,0,90.9,25.343c97.2,0,176.28-79.49,176.28-177.193a176.438,176.438,0,0,0-68.661-140.351,12.048,12.048,0,0,1,14.8-19.012,203.014,203.014,0,0,1,56.7,69.169,201.207,201.207,0,0,1-179.126,291.52Zm-105.935-45.151a10.616,10.616,0,0,0,3.274,15.048,197.785,197.785,0,0,0,102.664,28.662c109.65,0,198.857-89.67,198.857-199.889a199.051,199.051,0,0,0-77.324-158.226A10.608,10.608,0,1,0,1367.324,740a180.086,180.086,0,0,1,50.4,61.4,178.006,178.006,0,0,1-250.541,233.177A10.618,10.618,0,0,0,1152.888,1037.665Zm-.594-.406h0Z" transform="translate(-1149.601 -719.591)"/>
          </g>
        </g>
      </g>
      <g id="Group_705" data-name="Group 705" transform="translate(350.907 165.28)">
        <g id="Group_696" data-name="Group 696" transform="translate(1.547 157.766)">
          <g id="Group_692" data-name="Group 692" transform="translate(169.87 103.589)">
            <g id="Group_689" data-name="Group 689" transform="translate(0 9.449)">
              <path id="Path_504" data-name="Path 504" d="M1960.132,2078.19s14.224,4.814,22.526,2.677c0,0,10.327,8.73,10.193,13.349l-36.13-.68Z" transform="translate(-1956.001 -2077.471)" fill="#fff"/>
              <path id="Path_505" data-name="Path 505" d="M1991.319,2093.4h-.013l-36.131-.681a.721.721,0,0,1-.69-.875l3.411-15.343a.723.723,0,0,1,.936-.523c.141.048,14.119,4.721,22.114,2.661a.729.729,0,0,1,.645.147c1.083.917,10.589,9.094,10.449,13.918A.72.72,0,0,1,1991.319,2093.4Zm-35.236-2.1,34.451.649c-.716-3.533-6.82-9.436-9.593-11.825-7.407,1.706-18.75-1.575-21.807-2.533Z" transform="translate(-1954.469 -2075.941)"/>
            </g>
            <g id="Group_691" data-name="Group 691" transform="translate(18.902)">
              <g id="Group_690" data-name="Group 690">
                <path id="Path_506" data-name="Path 506" d="M2015.89,2059.144s8.915-10.356,12.86-10.535c3.328-.15,29.816,23.577,38.245,31.492a2.577,2.577,0,0,1-1.144,4.389c-4.954,1.227-16.307,1.2-41.781-7.36a3.693,3.693,0,0,1-2.495-2.958l-1.1-7.6,5.347-.655Z" transform="translate(-2015.172 -2047.89)" fill="#fff"/>
                <path id="Path_507" data-name="Path 507" d="M2058.675,2084.257c-6.756,0-17.929-1.782-36.36-7.973a4.39,4.39,0,0,1-2.98-3.535l-1.1-7.6a.71.71,0,0,1,.141-.54.728.728,0,0,1,.485-.278l3.45-.422-8.359-5.7a.72.72,0,0,1-.137-1.064c.933-1.083,9.235-10.6,13.374-10.784h.042c4.6,0,38.389,31.368,38.728,31.687a3.3,3.3,0,0,1-1.463,5.613A24.468,24.468,0,0,1,2058.675,2084.257Zm-38.9-18.581.99,6.867a2.957,2.957,0,0,0,2.012,2.377c24.912,8.366,36.252,8.612,41.379,7.344a1.861,1.861,0,0,0,.824-3.168c-11.784-11.062-35.061-31.323-37.721-31.3-2.785.128-9.034,6.542-11.816,9.679l9.27,6.325a.722.722,0,0,1,.294.763.714.714,0,0,1-.613.543Z" transform="translate(-2013.642 -2046.36)"/>
              </g>
              <path id="Path_508" data-name="Path 508" d="M2096.073,2138.643a.791.791,0,0,1-.224-.035.722.722,0,0,1-.463-.907l2.268-7a.72.72,0,1,1,1.37.444l-2.268,7A.713.713,0,0,1,2096.073,2138.643Z" transform="translate(-2069.252 -2103.42)"/>
              <path id="Path_509" data-name="Path 509" d="M2082.123,2132.764a.8.8,0,0,1-.223-.035.722.722,0,0,1-.463-.907l2.268-7a.72.72,0,0,1,1.371.444l-2.268,7A.714.714,0,0,1,2082.123,2132.764Z" transform="translate(-2059.758 -2099.418)"/>
              <path id="Path_510" data-name="Path 510" d="M2084.943,2088.22a.714.714,0,0,1-.46-.166l-33.847-28.126a.719.719,0,0,1,.92-1.105l33.847,28.126a.72.72,0,0,1,.1,1.012A.727.727,0,0,1,2084.943,2088.22Z" transform="translate(-2038.642 -2054.728)"/>
            </g>
          </g>
          <g id="Group_694" data-name="Group 694" transform="translate(0 113.156)">
            <g id="Group_693" data-name="Group 693">
              <path id="Path_511" data-name="Path 511" d="M1480.241,2099.809c-.032-3.291-.089-8.5-.188-15.192l-10.084,1.4-8.347-7.452s-23.951,8.516-35.549,19.284a3.474,3.474,0,0,0,1.872,6.008c8.845,1.313,29.333,2.553,48.262.45A4.5,4.5,0,0,0,1480.241,2099.809Z" transform="translate(-1424.215 -2077.841)" fill="#fff"/>
              <path id="Path_512" data-name="Path 512" d="M1452.61,2104.627a196.2,196.2,0,0,1-26.315-1.594,4.193,4.193,0,0,1-2.255-7.248c11.576-10.742,34.815-19.083,35.8-19.434a.724.724,0,0,1,.722.141l8.1,7.229,9.755-1.351a.721.721,0,0,1,.821.7c.1,6.689.156,11.9.188,15.2a5.21,5.21,0,0,1-4.677,5.216A202.765,202.765,0,0,1,1452.61,2104.627Zm7.312-26.774c-3.172,1.169-24.36,9.2-34.9,18.986a2.755,2.755,0,0,0,1.485,4.769c8.96,1.329,29.154,2.546,48.077.447a3.77,3.77,0,0,0,3.4-3.769c-.029-3.156-.083-8.075-.176-14.375l-9.279,1.284a.725.725,0,0,1-.578-.176Z" transform="translate(-1422.675 -2076.309)"/>
            </g>
            <path id="Path_513" data-name="Path 513" d="M1461.089,2144.043a187.85,187.85,0,0,1-21.961-1.172.721.721,0,1,1,.172-1.431c19.169,2.309,40.443.476,40.657.457a.71.71,0,0,1,.779.655.72.72,0,0,1-.655.78C1479.954,2143.344,1471.822,2144.043,1461.089,2144.043Z" transform="translate(-1433.44 -2120.632)"/>
            <path id="Path_514" data-name="Path 514" d="M1488.8,2108.623a.719.719,0,0,1-.7-.569l-1.907-8.855a.72.72,0,1,1,1.409-.3l1.907,8.854a.72.72,0,0,1-.552.856A.927.927,0,0,1,1488.8,2108.623Z" transform="translate(-1465.888 -2091.294)"/>
            <path id="Path_515" data-name="Path 515" d="M1502.745,2102.743a.719.719,0,0,1-.7-.568l-1.907-8.854a.721.721,0,0,1,1.409-.3l1.907,8.855a.72.72,0,0,1-.553.856A.873.873,0,0,1,1502.745,2102.743Z" transform="translate(-1475.381 -2087.292)"/>
          </g>
          <g id="Group_695" data-name="Group 695" transform="translate(35.418)">
            <path id="Path_516" data-name="Path 516" d="M1661.686,1751.2c-.485-.4-45.9-32.31-58.286-28.883-21.187,5.858-17.061,67.8-16.623,84.182.428,15.952,77.455-31.933,79.825-36.131C1668.95,1766.221,1670.39,1758.379,1661.686,1751.2Z" transform="translate(-1569.362 -1722.064)" fill="#bf4804"/>
            <path id="Path_517" data-name="Path 517" d="M1551.666,1847.194c-.07.061-.141.121-.208.182-13.282,11.662-18.75,23.264-17.8,38.191.927,14.595,22.037,25.021,90.373,17.422,14.371-2.019,43.184-3.632,55.651-4.018a4.687,4.687,0,0,0,4.583-4.721l-.176-11.557a4.652,4.652,0,0,0-2.335-3.948c-7.542-4.37-27-15.524-59.053-14.323-1.064.038-.888-1.051.153-1.278,17.591-3.8,44.752-5.574,52.348-11.838,14.707-12.129,11.979-33.652,8.794-46.783-9.292-38.328-67.313,1.687-67.716,1.782h0c-.115.067-7.851,4.482-18.064,10.548Z" transform="translate(-1533.552 -1766.881)" fill="#bf4804"/>
            <path id="Path_518" data-name="Path 518" d="M1688.3,2031.61a.72.72,0,0,1-.37-1.339c.524-.313,13.2-7.653,44.193-8.363a.711.711,0,0,1,.738.7.721.721,0,0,1-.7.738c-30.553.7-43.363,8.088-43.49,8.161A.764.764,0,0,1,1688.3,2031.61Z" transform="translate(-1638.381 -1926.129)" fill="#fff"/>
            <path id="Path_519" data-name="Path 519" d="M1600.626,1890.519a.719.719,0,0,1-.431-1.294c.37-.278,37.376-27.95,63.25-34.23a.72.72,0,0,1,.339,1.4c-25.589,6.21-62.356,33.7-62.726,33.981A.722.722,0,0,1,1600.626,1890.519Z" transform="translate(-1578.711 -1812.518)" fill="#fff"/>
          </g>
        </g>
        <g id="Group_701" data-name="Group 701" transform="translate(0 42.248)">
          <g id="Group_697" data-name="Group 697" transform="translate(180.788 69.858)">
            <path id="Path_520" data-name="Path 520" d="M2000.307,1581.373c5.469,4.7,25.082,29.352,21.875,70.875a2.917,2.917,0,0,0,.45,1.8c1.741,2.7,7.066,11.589,5.36,17.179-1.974,6.465-8.733,20.536-10.7.524a.482.482,0,0,0-.91-.16c-.821,1.668-2.134,3.967-3,3.654-2.035-.735-1.322-11.276-.773-17.5s1.4-8.679-4.913-23.724c-3.887-9.267-16.76-24.593-21.632-29.368C1986.057,1604.653,1999.709,1580.862,2000.307,1581.373Z" transform="translate(-1985.339 -1580.648)" fill="#fff"/>
            <path id="Path_521" data-name="Path 521" d="M2019.591,1681.281c-.07,0-.14,0-.214-.01-2.159-.214-3.52-3.45-4.255-10.164-1.4,2.68-2.472,3.67-3.527,3.29-1.37-.5-2.591-3.048-1.246-18.24.042-.46.083-.9.125-1.319.5-5.168.8-8.289-4.983-22.063-3.728-8.883-16.137-23.906-21.472-29.135a.721.721,0,0,1-.121-.872c13.441-23.42,14.3-23.567,14.719-23.638a.813.813,0,0,1,.623.169c6.724,5.779,25.225,31.307,22.124,71.475a2.158,2.158,0,0,0,.339,1.354c2.22,3.434,7.193,12.042,5.443,17.779C2027.107,1670.024,2023.625,1681.281,2019.591,1681.281Zm-4.322-12.2a1.346,1.346,0,0,1,.224.019,1.18,1.18,0,0,1,.978,1.057c.865,8.791,2.552,9.634,3.05,9.685a.759.759,0,0,0,.083,0c1.773,0,4.651-5.4,6.162-10.353,1.619-5.306-3.629-14.029-5.273-16.578a3.6,3.6,0,0,1-.565-2.246c2.983-38.648-14.211-63.439-21.146-69.843-1.811,2.376-8.845,14.329-13.362,22.184,4.74,4.788,17.444,19.8,21.4,29.212,5.919,14.109,5.606,17.364,5.088,22.759-.042.422-.083.856-.122,1.31-1.278,14.448-.067,16.447.246,16.722.188-.112.891-.664,2.169-3.258A1.183,1.183,0,0,1,2015.269,1669.078Z" transform="translate(-1983.803 -1579.121)"/>
          </g>
          <g id="Group_698" data-name="Group 698">
            <path id="Path_522" data-name="Path 522" d="M1491.6,1424.788s-19.118,6.165-26.979,5.389c-11.065-1.1-23.3-34.252-24.152-36.533s-3.788-14.483-6.657-18.591a60.485,60.485,0,0,1-5.715-10.48c-.651-1.524-1.881-2.115-2.945-1.773a2.93,2.93,0,0,0-1.626,4.022c1.086,2.638,2.105,5.3,3.009,7.561.285.713.706,1.358.093.92-1.434-1.019-3.245-1.955-4.424-1.3-2.22,1.226-3.415,9.471.169,15.259s7.523,4.427,8.717,7.235,11.11,39.254,15.182,45.56c5.859,9.065,46.8,10.043,52.942,9.867S1491.6,1424.788,1491.6,1424.788Z" transform="translate(-1419.375 -1361.977)" fill="#fff"/>
            <path id="Path_523" data-name="Path 523" d="M1497.387,1451.09c-4.073,0-46.892-.345-53.258-10.2-2.955-4.571-8.64-23.75-12.4-36.441-1.4-4.724-2.507-8.455-2.837-9.228-.4-.926-1.188-1.278-2.392-1.808a12.37,12.37,0,0,1-6.277-5.331,17.637,17.637,0,0,1-1.913-12.927c.31-1.188.91-2.735,2.006-3.342.933-.514,2.159-.38,3.664.4q-.335-.848-.69-1.75c-.623-1.578-1.281-3.258-1.968-4.926a3.722,3.722,0,0,1-.013-3.073,3.681,3.681,0,0,1,2.086-1.91c1.5-.482,3.073.412,3.827,2.176a59.474,59.474,0,0,0,5.641,10.349c2.2,3.159,4.415,10.838,5.737,15.425.447,1.549.8,2.77,1.006,3.325l.042.112c2.178,5.83,13.547,34.971,23.507,35.958,7.615.757,26.5-5.3,26.688-5.357a.723.723,0,0,1,.863.358c1.179,2.31,11.445,22.7,8.813,27.138a2.078,2.078,0,0,1-1.817,1.042A2.429,2.429,0,0,1,1497.387,1451.09Zm-75.82-78.142a1.131,1.131,0,0,0-.559.128,4.055,4.055,0,0,0-1.31,2.444,16.369,16.369,0,0,0,1.744,11.806,10.968,10.968,0,0,0,5.631,4.769c1.294.572,2.517,1.112,3.134,2.562.361.847,1.421,4.427,2.891,9.382,3.514,11.844,9.391,31.671,12.234,36.067,5.248,8.126,42.724,9.825,52.316,9.538a.658.658,0,0,0,.62-.335c1.642-2.77-4.283-16.69-8.58-25.206-3.335,1.048-19.45,5.957-26.685,5.232-10.538-1.041-21.58-28.5-24.714-36.887l-.042-.112c-.227-.607-.588-1.853-1.041-3.431-1.3-4.5-3.466-12.036-5.532-15a60.967,60.967,0,0,1-5.785-10.608c-.457-1.07-1.284-1.619-2.063-1.37a2.289,2.289,0,0,0-1.22,1.144,2.313,2.313,0,0,0,.038,1.917c.69,1.674,1.351,3.361,1.977,4.948.358.914.706,1.792,1.038,2.619.061.156.131.31.195.447.22.482.469,1.032-.013,1.431a.941.941,0,0,1-1.176-.1A6.243,6.243,0,0,0,1421.568,1372.948Z" transform="translate(-1417.831 -1360.424)"/>
          </g>
          <g id="Group_700" data-name="Group 700" transform="translate(63.304 39.748)">
            <g id="Group_699" data-name="Group 699">
              <path id="Path_524" data-name="Path 524" d="M1737.314,1546.539c-.91-.661-3.312-2.632-3.99-3.012a1.6,1.6,0,0,0-2.386,1.345c-.1,7.8.006,30.317,4.034,37.887,1.7,3.188,3.309,5.654,4.545,8.593,2.147,5.1,2.376,6.382,1.827,7.73-.556,1.367-5.044,2.616-6.877,3.312-16.786,6.35-50.048,13.106-54.437-5.12-2.492-10.349-4.265-17.664-11.985-31.151-2.032-3.546-6.184-2.45-12.113-7.96-3.437-3.194-3.475-6.245-4.846-11-.968-3.354-1.77-3.942-17.2-7.149-.348-.073-15.633-32.9-15.633-32.9s41.26-16.553,61.279-19.057c42.81-5.354,62.1,13.362,75.127,32.3C1755.173,1521.118,1738.033,1547.062,1737.314,1546.539Z" transform="translate(-1617.535 -1486.405)" fill="#fff"/>
              <path id="Path_525" data-name="Path 525" d="M1700.026,1608.254c-5.574,0-10.758-.833-14.8-2.971a14,14,0,0,1-7.423-9.388c-2.45-10.18-4.223-17.537-11.908-30.962-.866-1.514-2.214-2.079-4.079-2.869a24.192,24.192,0,0,1-7.9-4.922c-2.859-2.658-3.5-5.242-4.312-8.516-.22-.888-.447-1.8-.738-2.808-.84-2.9-1.412-3.475-16.658-6.644-.5-.105-.569-.118-8.452-16.875-3.865-8.216-7.686-16.425-7.686-16.425a.719.719,0,0,1,.387-.971c.412-.166,41.577-16.617,61.458-19.1,43.324-5.418,62.631,13.445,75.807,32.61.326.473.633.92-7.4,13.161-3.881,5.909-8.391,12.451-9.717,13.742-.562.55-.984.444-1.239.262h0c-.342-.249-.894-.68-1.485-1.146-.917-.716-2.054-1.61-2.434-1.824a.886.886,0,0,0-.882,0,.84.84,0,0,0-.431.722c-.09,6.9-.07,29.982,3.948,37.539.566,1.067,1.124,2.051,1.661,3a53.975,53.975,0,0,1,2.913,5.654c2.175,5.165,2.5,6.635,1.83,8.28-.53,1.3-2.926,2.21-6,3.261-.495.169-.942.323-1.29.454C1725.121,1604.574,1711.721,1608.254,1700.026,1608.254Zm-67.224-70.427c14.866,3.092,16.345,3.753,17.454,7.593.3,1.029.527,1.958.75,2.859.783,3.162,1.348,5.446,3.894,7.81a22.911,22.911,0,0,0,7.478,4.651c1.965.827,3.661,1.543,4.769,3.479,7.788,13.6,9.58,21.044,12.059,31.339a12.62,12.62,0,0,0,6.7,8.452c10.5,5.552,31.611,1.9,46.787-3.836.361-.134.821-.294,1.335-.469,1.437-.492,4.807-1.642,5.13-2.441.441-1.086.24-2.274-1.824-7.177a52.472,52.472,0,0,0-2.837-5.5c-.543-.958-1.105-1.955-1.68-3.031-4.181-7.861-4.207-31.253-4.117-38.236a2.263,2.263,0,0,1,1.153-1.952,2.313,2.313,0,0,1,2.306-.01,30.947,30.947,0,0,1,2.613,1.945c.374.294.731.572,1.025.8,2.511-2.719,15.486-22.347,16.575-25.114-12.927-18.725-31.9-37.05-74.27-31.751-18.268,2.284-54.849,16.54-60.391,18.728C1623.357,1518.092,1631.589,1535.622,1632.8,1537.826Zm103.409,6.583Z" transform="translate(-1616.01 -1484.858)"/>
            </g>
            <path id="Path_526" data-name="Path 526" d="M1893.015,1617.6a.723.723,0,0,1-.613-.342c-4.344-7.021-9.529-16.837-11.11-30.553-2.536-22.015-14.7-38.37-14.821-38.533a.721.721,0,1,1,1.15-.869c.125.166,12.525,16.837,15.1,39.235,1.546,13.432,6.638,23.066,10.9,29.959a.72.72,0,0,1-.233.99A.691.691,0,0,1,1893.015,1617.6Z" transform="translate(-1786.368 -1527.161)"/>
          </g>
        </g>
        <g id="Group_704" data-name="Group 704" transform="translate(113.401)">
          <path id="Path_527" data-name="Path 527" d="M1787.954,1246.772a9.093,9.093,0,0,0-5.191,3.657,8.68,8.68,0,0,0,.166,10.027,8.732,8.732,0,0,0,1.4,14.467,8.62,8.62,0,0,0-.453,6.216,9.083,9.083,0,0,0,8.011,6.322,8.7,8.7,0,0,0,2.29,5.82,9.143,9.143,0,0,0,4.654,2.731,9.205,9.205,0,0,0,11.107,1.431,9.1,9.1,0,0,0,5.309,3.488,16.58,16.58,0,0,1,15.968-2.6,9,9,0,0,0,7.178-7.206,9.282,9.282,0,0,0,6.162-1.712,8.75,8.75,0,0,0,3.37-9.481,9.036,9.036,0,0,0,4.843-4.082,15.383,15.383,0,0,1,1.546-15.665,8.857,8.857,0,0,0-5.3-8.6,8.617,8.617,0,0,0-.105-6.229,9.142,9.142,0,0,0-8.548-5.619,8.729,8.729,0,0,0-2.8-5.6,9.34,9.34,0,0,0-10.19-1.581,9.05,9.05,0,0,0-4.977-3.926,16.587,16.587,0,0,1-16.137,1.24,9.055,9.055,0,0,0-7.794,6.571,9.305,9.305,0,0,0-6.293,1.182A8.791,8.791,0,0,0,1787.954,1246.772Z" transform="translate(-1777.519 -1228.163)"/>
          <g id="Group_703" data-name="Group 703" transform="translate(0 44.307)">
            <g id="Group_702" data-name="Group 702">
              <path id="Path_528" data-name="Path 528" d="M1782.438,1369.383a1.685,1.685,0,0,0-2.453.853c-.188.54-.38,1.077-.517,1.444a17.777,17.777,0,0,1-4.168,7.452.819.819,0,0,0-.022,1.105c.629.728,1.68,1.949,2.143,2.485a.768.768,0,0,1,.182.613c-.185,1.374-.862,6.411-.827,7.373a3.747,3.747,0,0,0,1.2,2.495c1.076.779,6.222.843,6.222.843s1.338.31,2.977,7.714c1.153,5.21-6.846,10.624-6.846,10.624s17.971,7.05,33.093.92a1.317,1.317,0,0,0,.176-2.277c-3.21-2.348-10.122-8.066-12.892-15.505a1.714,1.714,0,0,0-.955-.99c-1.83-.757-6.833-2.14-5.935-10.34a1.182,1.182,0,0,1,.224-.572c1.054-1.421,5.912-8.484-2.412-7.494-5.491.652-7.161-3.255-7.637-5.047a2.369,2.369,0,0,0-1.083-1.409Z" transform="translate(-1774.361 -1368.415)" fill="#fff"/>
              <path id="Path_529" data-name="Path 529" d="M1797.891,1415a58.248,58.248,0,0,1-19.338-3.495.721.721,0,0,1-.141-1.268c.077-.051,7.58-5.2,6.545-9.874-1.223-5.52-2.284-6.986-2.421-7.152-1.406-.022-5.366-.16-6.5-.977a4.466,4.466,0,0,1-1.495-3.054c-.032-.936.508-5.1.834-7.494l-2.156-2.533a1.539,1.539,0,0,1,.045-2.073,16.435,16.435,0,0,0,3.843-6.689c.067-.208.121-.383.172-.514.134-.367.323-.9.511-1.437a2.351,2.351,0,0,1,1.434-1.431,2.409,2.409,0,0,1,2.07.2l.479.287a3.083,3.083,0,0,1,1.409,1.84c.511,1.929,2.089,5.082,6.855,4.517,2.757-.329,4.459.144,5.21,1.441,1.268,2.188-1.073,5.763-2.137,7.2a.433.433,0,0,0-.086.22c-.779,7.13,3.044,8.631,5.095,9.436.144.058.278.109.4.16a2.454,2.454,0,0,1,1.354,1.406c2.737,7.353,9.752,13.065,12.643,15.176a2.127,2.127,0,0,1,.85,1.968,1.9,1.9,0,0,1-1.182,1.556A38.066,38.066,0,0,1,1797.891,1415Zm-17.556-4.4c4.306,1.421,18.894,5.513,31.3.483a.478.478,0,0,0,.294-.4.687.687,0,0,0-.271-.629c-2.993-2.191-10.27-8.117-13.141-15.838a1.011,1.011,0,0,0-.556-.578c-.112-.048-.237-.1-.374-.15-2.063-.812-6.9-2.709-6-10.931a1.891,1.891,0,0,1,.361-.92c1.482-2,2.69-4.51,2.047-5.619-.412-.715-1.763-.974-3.795-.731-6.063.719-7.909-3.661-8.417-5.577a1.636,1.636,0,0,0-.757-.977l-.479-.287a.984.984,0,0,0-.84-.083.924.924,0,0,0-.562.556c-.192.543-.383,1.083-.521,1.453-.042.118-.093.275-.153.46a17.743,17.743,0,0,1-4.168,7.241.1.1,0,0,0,0,.141l2.14,2.485a1.5,1.5,0,0,1,.351,1.182c-.527,3.884-.843,6.66-.824,7.251a3.089,3.089,0,0,0,.9,1.939c.549.4,3.443.677,5.807.706a.621.621,0,0,1,.153.019c.664.153,2.006,1.434,3.517,8.26C1787.341,1404.479,1782.584,1408.833,1780.336,1410.609Z" transform="translate(-1772.843 -1366.87)"/>
            </g>
            <path id="Path_530" data-name="Path 530" d="M1822.09,1412.349a3.421,3.421,0,0,1-.546-.045,3.093,3.093,0,0,1-2.386-1.569.721.721,0,0,1,1.364-.46,2.358,2.358,0,0,0,1.581.632h.035a2.4,2.4,0,0,0,1.939-1.287.72.72,0,1,1,1.207.786A3.738,3.738,0,0,1,1822.09,1412.349Zm-1.543-1.984Z" transform="translate(-1804.347 -1395.742)"/>
            <path id="Path_531" data-name="Path 531" d="M1819.519,1422.771a1.376,1.376,0,0,1,1.639-1.029,1.352,1.352,0,0,1,1.045,1.613,1.378,1.378,0,0,1-1.639,1.029A1.349,1.349,0,0,1,1819.519,1422.771Z" transform="translate(-1804.586 -1404.193)"/>
          </g>
        </g>
      </g>
      <g id="Group_709" data-name="Group 709" transform="translate(41.604 155.137)">
        <g id="Group_706" data-name="Group 706">
          <path id="Path_532" data-name="Path 532" d="M508.556,1226.983c0,13.774-21.986,46.876-27.254,54.61a1.358,1.358,0,0,1-2.249,0c-3.772-5.539-16.112-24.078-22.82-39.216-2.661-6.005-4.434-11.477-4.434-15.39a28.378,28.378,0,0,1,56.756,0Z" transform="translate(-451.075 -1197.935)"/>
          <ellipse id="Ellipse_33" data-name="Ellipse 33" cx="12.975" cy="12.956" rx="12.975" ry="12.956" transform="translate(16.128 16.093)" fill="#fff"/>
          <path id="Path_533" data-name="Path 533" d="M478.633,1281.382a2.087,2.087,0,0,1-1.722-.911c-3.664-5.376-16.138-24.1-22.884-39.328-2.984-6.737-4.5-12.01-4.5-15.681a29.1,29.1,0,0,1,58.2,0c0,13.755-20.958,45.586-27.381,55.015A2.069,2.069,0,0,1,478.633,1281.382Zm0-83.534a27.667,27.667,0,0,0-27.659,27.615c0,3.469,1.469,8.548,4.373,15.1,6.7,15.119,19.111,33.751,22.756,39.1a.66.66,0,0,0,1.061,0c4.529-6.65,27.129-40.519,27.129-54.2A27.669,27.669,0,0,0,478.633,1197.848Z" transform="translate(-449.53 -1196.41)"/>
        </g>
        <g id="Group_707" data-name="Group 707" transform="translate(54.137 143.289)">
          <path id="Path_534" data-name="Path 534" d="M677.672,1675.408c0,13.688-21.849,46.582-27.084,54.265a1.352,1.352,0,0,1-2.236,0c-3.75-5.5-16.013-23.925-22.676-38.97-2.645-5.97-4.4-11.407-4.4-15.294a28.2,28.2,0,0,1,56.4,0Z" transform="translate(-620.548 -1646.528)"/>
          <ellipse id="Ellipse_34" data-name="Ellipse 34" cx="12.895" cy="12.873" rx="12.895" ry="12.873" transform="translate(16.029 16.007)" fill="#fff"/>
          <path id="Path_535" data-name="Path 535" d="M647.934,1729.444a2.077,2.077,0,0,1-1.715-.907c-3.642-5.344-16.039-23.954-22.74-39.085-2.964-6.7-4.469-11.937-4.469-15.585a28.921,28.921,0,0,1,57.842,0c0,13.665-20.827,45.3-27.209,54.67A2.061,2.061,0,0,1,647.934,1729.444Zm0-83.01a27.488,27.488,0,0,0-27.48,27.436c0,3.447,1.463,8.494,4.344,15,6.654,15.02,18.99,33.537,22.612,38.855a.651.651,0,0,0,1.048,0c4.5-6.609,26.96-40.264,26.96-53.859A27.5,27.5,0,0,0,647.934,1646.434Z" transform="translate(-619.01 -1644.99)"/>
        </g>
        <g id="Group_708" data-name="Group 708" transform="translate(138.888 49.141)">
          <path id="Path_536" data-name="Path 536" d="M955.478,1386.893c0,16.719-26.691,56.9-33.083,66.288a1.65,1.65,0,0,1-2.731,0c-4.581-6.724-19.559-29.228-27.7-47.6-3.229-7.289-5.382-13.933-5.382-18.68a34.449,34.449,0,0,1,68.9,0Z" transform="translate(-885.862 -1351.781)" fill="#bf4804"/>
          <ellipse id="Ellipse_35" data-name="Ellipse 35" cx="15.751" cy="15.725" rx="15.751" ry="15.725" transform="translate(19.415 19.386)" fill="#fff"/>
          <path id="Path_537" data-name="Path 537" d="M919.5,1453.09a2.372,2.372,0,0,1-1.961-1.038c-4.443-6.523-19.578-29.241-27.761-47.717-3.613-8.155-5.443-14.537-5.443-18.974a35.169,35.169,0,0,1,70.338,0c0,16.645-25.42,55.258-33.208,66.693A2.384,2.384,0,0,1,919.5,1453.09Zm0-101.4a33.74,33.74,0,0,0-33.729,33.674c0,4.233,1.789,10.42,5.322,18.39,8.136,18.364,23.21,40.992,27.637,47.489a.934.934,0,0,0,1.543,0c5.5-8.078,32.959-49.23,32.959-65.882A33.743,33.743,0,0,0,919.5,1351.687Z" transform="translate(-884.33 -1350.25)"/>
        </g>
      </g>
    </g>
  </g>
</svg>
