<svg xmlns="http://www.w3.org/2000/svg" width="23.547" height="29.972" viewBox="0 0 23.547 29.972">
  <g id="Group_472" data-name="Group 472" transform="translate(-47.037 0)">
    <path id="Path_108" data-name="Path 108" d="M67.587,3.927H64.876V2.714c0-.392-.428-.571-.821-.571h-2.1A3.191,3.191,0,0,0,58.775,0,3.247,3.247,0,0,0,55.6,2.143H53.53c-.392,0-.785.178-.785.571V3.927H50.034a3.033,3.033,0,0,0-3,2.89V27.26a2.871,2.871,0,0,0,3,2.712H67.587a2.871,2.871,0,0,0,3-2.712V6.817A3.033,3.033,0,0,0,67.587,3.927ZM54.173,3.57h1.962a.785.785,0,0,0,.678-.642,2.069,2.069,0,0,1,1.962-1.605A2.034,2.034,0,0,1,60.7,2.928a.785.785,0,0,0,.714.642h2.034V6.425H54.173ZM69.157,27.26a1.447,1.447,0,0,1-1.57,1.284H50.034a1.447,1.447,0,0,1-1.57-1.284V6.817a1.605,1.605,0,0,1,1.57-1.463h2.712v1.82a.749.749,0,0,0,.785.678H64.055a.785.785,0,0,0,.821-.678V5.354h2.712a1.606,1.606,0,0,1,1.57,1.463V27.26Z" transform="translate(0 0)"/>
    <path id="Path_109" data-name="Path 109" d="M104.833,152.65a.714.714,0,0,0-1-.036l-2.283,2.176-.963-1a.714.714,0,0,0-1-.036.749.749,0,0,0,0,1.035l1.463,1.5a.642.642,0,0,0,.5.214.713.713,0,0,0,.5-.214l2.783-2.64a.678.678,0,0,0,.041-.958Q104.854,152.67,104.833,152.65Zm10.24,1.534h-8.206a.714.714,0,0,0,0,1.427h8.206a.714.714,0,0,0,0-1.427Zm-10.24-7.243a.714.714,0,0,0-1-.036l-2.283,2.176-.963-1a.714.714,0,0,0-1-.036.749.749,0,0,0,0,1.035l1.463,1.5a.642.642,0,0,0,.5.214.713.713,0,0,0,.5-.214l2.783-2.64a.678.678,0,0,0,.041-.958C104.861,146.969,104.847,146.955,104.833,146.942Zm10.24,1.534h-8.206a.714.714,0,0,0,0,1.427h8.206a.714.714,0,0,0,0-1.427Zm-10.24,9.883a.714.714,0,0,0-1-.036L101.55,160.5l-.963-1a.714.714,0,0,0-1-.036.749.749,0,0,0,0,1.035l1.463,1.5a.642.642,0,0,0,.5.214.713.713,0,0,0,.5-.214l2.783-2.64a.678.678,0,0,0,.041-.958q-.02-.022-.041-.041Zm10.24,1.534h-8.206a.714.714,0,0,0,0,1.427h8.206a.714.714,0,0,0,0-1.427Z" transform="translate(-48.769 -136.7)"/>
  </g>
</svg>
