<svg xmlns="http://www.w3.org/2000/svg" width="26.088" height="26.088" viewBox="0 0 26.088 26.088">
  <g id="Group_473" data-name="Group 473" transform="translate(-2 -2)">
    <path id="Path_107" data-name="Path 107" d="M25.175,28.088H19.261a2.913,2.913,0,0,1-2.913-2.913V17.218a.872.872,0,0,1,.87-.87h7.957a2.913,2.913,0,0,1,2.913,2.913v5.913A2.913,2.913,0,0,1,25.175,28.088Zm-7.087-10v7.087a1.169,1.169,0,0,0,1.174,1.174h5.913a1.169,1.169,0,0,0,1.174-1.174V19.261a1.169,1.169,0,0,0-1.174-1.174Zm-7.261,10H4.913A2.913,2.913,0,0,1,2,25.175V19.261a2.913,2.913,0,0,1,2.913-2.913H12.87a.872.872,0,0,1,.87.87v7.957A2.913,2.913,0,0,1,10.826,28.088Zm-5.913-10a1.169,1.169,0,0,0-1.174,1.174v5.913a1.169,1.169,0,0,0,1.174,1.174h5.913A1.169,1.169,0,0,0,12,25.175V18.088ZM25.175,13.74H17.218a.872.872,0,0,1-.87-.87V4.913A2.913,2.913,0,0,1,19.261,2h5.913a2.913,2.913,0,0,1,2.913,2.913v5.913A2.913,2.913,0,0,1,25.175,13.74ZM18.088,12h7.087a1.169,1.169,0,0,0,1.174-1.174V4.913a1.169,1.169,0,0,0-1.174-1.174H19.261a1.169,1.169,0,0,0-1.174,1.174ZM12.87,13.74H4.913A2.913,2.913,0,0,1,2,10.826V4.913A2.913,2.913,0,0,1,4.913,2h5.913A2.913,2.913,0,0,1,13.74,4.913V12.87A.872.872,0,0,1,12.87,13.74Zm-7.957-10A1.169,1.169,0,0,0,3.739,4.913v5.913A1.169,1.169,0,0,0,4.913,12H12V4.913a1.169,1.169,0,0,0-1.174-1.174Z" fill="#bf4804"/>
  </g>
</svg>
