<svg xmlns="http://www.w3.org/2000/svg" width="499.477" height="511.061" viewBox="0 0 499.477 511.061">
  <g id="Illustration" transform="translate(0 0.003)">
    <g id="Post_service_tracking" transform="translate(0 -0.003)">
      <path id="Path_246" data-name="Path 246" d="M114.487,1437.806a.624.624,0,0,1-.2-1.218c3.237-1.058,319.957-104.563,392.955-133.557H16.766a.626.626,0,0,1,0-1.251H510.483a.625.625,0,0,1,.237,1.2C443.853,1330.2,117.967,1436.7,114.682,1437.775A.6.6,0,0,1,114.487,1437.806Z" transform="translate(-11.633 -938.234)"/>
      <g id="Group_548" data-name="Group 548" transform="translate(144.629 15.52)">
        <path id="Path_247" data-name="Path 247" d="M582.713,165.689a3.676,3.676,0,0,1-3.309-2.061l-3.2-6.5a2.388,2.388,0,0,0-2.195-1.36c-1.232.017-2.5-.025-3.762-.117a2.457,2.457,0,0,0-2.279,1.229l-3.58,6.306A3.691,3.691,0,0,1,560.1,164.9l-5.6-1.664a3.657,3.657,0,0,1-2.631-3.77l.5-7.222a2.417,2.417,0,0,0-1.237-2.27c-1.089-.6-2.159-1.254-3.178-1.935a2.469,2.469,0,0,0-2.606-.07l-6.278,3.681a3.7,3.7,0,0,1-4.569-.64l-4.013-4.217a3.631,3.631,0,0,1-.38-4.574l4.083-6.007a2.384,2.384,0,0,0,.089-2.555c-.634-1.058-1.234-2.162-1.784-3.279a2.386,2.386,0,0,0-2.215-1.335l-7.311.075h-.039a3.676,3.676,0,0,1-3.6-2.823l-1.349-5.638a3.643,3.643,0,0,1,1.977-4.147l6.552-3.172a2.4,2.4,0,0,0,1.368-2.167c-.014-1.232.025-2.485.117-3.731a2.4,2.4,0,0,0-1.24-2.251l-6.365-3.552a3.639,3.639,0,0,1-1.731-4.253l1.676-5.549a3.684,3.684,0,0,1,3.8-2.606l7.286.5a2.445,2.445,0,0,0,2.3-1.223c.606-1.075,1.262-2.134,1.949-3.147a2.4,2.4,0,0,0,.07-2.569l-3.717-6.225a3.633,3.633,0,0,1,.645-4.544l4.25-3.974a3.706,3.706,0,0,1,4.6-.374l6.066,4.049a2.452,2.452,0,0,0,2.594.089c1.072-.631,2.187-1.226,3.307-1.765a2.407,2.407,0,0,0,1.346-2.187l-.081-7.244a3.652,3.652,0,0,1,2.846-3.611l5.689-1.335a3.688,3.688,0,0,1,4.172,1.96l3.206,6.5a2.437,2.437,0,0,0,2.173,1.36h.022c1.246-.014,2.511.025,3.762.117a2.444,2.444,0,0,0,2.279-1.229l3.58-6.306a3.693,3.693,0,0,1,4.281-1.712l5.6,1.664a3.654,3.654,0,0,1,2.631,3.77l-.5,7.222a2.417,2.417,0,0,0,1.237,2.27c1.089.6,2.159,1.254,3.175,1.935a2.469,2.469,0,0,0,2.606.07l6.278-3.681a3.7,3.7,0,0,1,4.569.64l4.013,4.217a3.627,3.627,0,0,1,.38,4.572l-4.083,6.01a2.4,2.4,0,0,0-.078,2.569c.631,1.053,1.223,2.145,1.765,3.245a2.451,2.451,0,0,0,2.2,1.352h.025l7.311-.075a3.682,3.682,0,0,1,3.639,2.823l1.349,5.638a3.646,3.646,0,0,1-1.974,4.147l-6.554,3.172a2.4,2.4,0,0,0-1.368,2.167c.014,1.232-.025,2.485-.117,3.731a2.4,2.4,0,0,0,1.24,2.251l6.365,3.552a3.64,3.64,0,0,1,1.731,4.253l-1.676,5.549a3.692,3.692,0,0,1-3.8,2.608l-7.286-.5a2.45,2.45,0,0,0-2.3,1.223c-.609,1.078-1.265,2.136-1.949,3.147a2.4,2.4,0,0,0-.07,2.569l3.717,6.225a3.626,3.626,0,0,1-.645,4.544l-4.25,3.974a3.7,3.7,0,0,1-4.6.371l-6.066-4.049a2.469,2.469,0,0,0-2.608-.081c-1.058.623-2.159,1.209-3.273,1.748a2.413,2.413,0,0,0-1.36,2.192l.081,7.244a3.652,3.652,0,0,1-2.846,3.611l-5.689,1.335a3.81,3.81,0,0,1-.863.1Zm-8.685-11.168a3.694,3.694,0,0,1,3.292,2.058l3.2,6.5a2.446,2.446,0,0,0,2.765,1.3l5.689-1.335a2.407,2.407,0,0,0,1.879-2.379l-.081-7.244a3.666,3.666,0,0,1,2.069-3.332c1.084-.522,2.153-1.095,3.184-1.7a3.736,3.736,0,0,1,3.938.117l6.066,4.049a2.451,2.451,0,0,0,3.05-.246l4.25-3.974a2.384,2.384,0,0,0,.424-2.988l-3.717-6.225a3.656,3.656,0,0,1,.109-3.913c.665-.98,1.3-2.011,1.9-3.058a3.73,3.73,0,0,1,3.474-1.857l7.286.5a2.424,2.424,0,0,0,2.513-1.72l1.676-5.549a2.4,2.4,0,0,0-1.142-2.8l-6.364-3.552a3.657,3.657,0,0,1-1.879-3.435c.089-1.209.126-2.43.115-3.625A3.654,3.654,0,0,1,619.8,106.8l6.552-3.172a2.4,2.4,0,0,0,1.3-2.728L626.3,95.261a2.428,2.428,0,0,0-2.382-1.863H623.9l-7.311.075h-.039a3.709,3.709,0,0,1-3.318-2.05c-.528-1.07-1.1-2.131-1.717-3.156a3.65,3.65,0,0,1,.117-3.915l4.083-6.01a2.389,2.389,0,0,0-.251-3.008l-4.013-4.217a2.458,2.458,0,0,0-3.03-.424l-6.278,3.681a3.731,3.731,0,0,1-3.932-.109c-.989-.659-2.028-1.293-3.089-1.879a3.664,3.664,0,0,1-1.877-3.452l.5-7.222A2.413,2.413,0,0,0,592,59.227l-5.6-1.664a2.444,2.444,0,0,0-2.837,1.131L579.984,65a3.673,3.673,0,0,1-3.457,1.857c-1.218-.089-2.446-.128-3.658-.115a3.728,3.728,0,0,1-3.332-2.058l-3.206-6.5a2.443,2.443,0,0,0-2.765-1.3l-5.689,1.335A2.407,2.407,0,0,0,556,60.606l.081,7.244a3.656,3.656,0,0,1-2.053,3.326c-1.089.525-2.17,1.1-3.214,1.717a3.708,3.708,0,0,1-3.921-.128l-6.066-4.049a2.455,2.455,0,0,0-3.05.246l-4.25,3.974a2.388,2.388,0,0,0-.424,2.988l3.717,6.225a3.656,3.656,0,0,1-.109,3.913c-.667.986-1.307,2.014-1.9,3.058a3.717,3.717,0,0,1-3.474,1.857l-7.286-.5a2.428,2.428,0,0,0-2.513,1.72l-1.676,5.549a2.4,2.4,0,0,0,1.142,2.8l6.365,3.552a3.658,3.658,0,0,1,1.879,3.435c-.089,1.209-.126,2.43-.115,3.625a3.654,3.654,0,0,1-2.075,3.307l-6.552,3.172a2.4,2.4,0,0,0-1.3,2.728L520.553,126a2.454,2.454,0,0,0,2.407,1.863l7.311-.075a3.7,3.7,0,0,1,3.348,2.033c.533,1.084,1.117,2.156,1.734,3.186a3.639,3.639,0,0,1-.128,3.9l-4.083,6.007a2.386,2.386,0,0,0,.251,3.008l4.013,4.217a2.454,2.454,0,0,0,3.03.424l6.278-3.681a3.725,3.725,0,0,1,3.932.109c.991.662,2.03,1.293,3.089,1.879a3.664,3.664,0,0,1,1.877,3.452l-.5,7.222a2.413,2.413,0,0,0,1.74,2.485l5.6,1.664a2.444,2.444,0,0,0,2.837-1.131l3.58-6.306a3.665,3.665,0,0,1,3.457-1.857c1.226.089,2.455.131,3.658.114h.036Zm-.561-18.384c-.3,0-.6-.006-.9-.014A25.506,25.506,0,1,1,599.145,111.5,25.237,25.237,0,0,1,591,129.273a25.66,25.66,0,0,1-17.538,6.864ZM573.4,86.38a24.256,24.256,0,1,0,16.748,41.974,23.97,23.97,0,0,0,7.741-16.9,24.4,24.4,0,0,0-23.648-25.064c-.282-.008-.564-.014-.843-.014Z" transform="translate(-517.885 -55.571)"/>
        <path id="Path_248" data-name="Path 248" d="M779.271,502.828a2.84,2.84,0,0,1-.681-.081l-4.144-.991a2.834,2.834,0,0,1-2.2-2.809l.081-5.281a1.6,1.6,0,0,0-.894-1.452c-.821-.4-1.628-.832-2.4-1.29a1.638,1.638,0,0,0-1.723.047l-4.429,2.927a2.873,2.873,0,0,1-3.563-.3l-3.089-2.913a2.812,2.812,0,0,1-.483-3.527l2.737-4.538a1.564,1.564,0,0,0-.031-1.681c-.508-.751-.991-1.536-1.435-2.329a1.607,1.607,0,0,0-1.508-.8l-5.323.344a2.842,2.842,0,0,1-2.935-2.033l-1.2-4.055a2.82,2.82,0,0,1,1.357-3.293l4.65-2.569a1.584,1.584,0,0,0,.824-1.475c-.059-.9-.081-1.818-.061-2.734a1.579,1.579,0,0,0-.9-1.435l-4.776-2.337a2.825,2.825,0,0,1-1.519-3.223l1-4.108a2.847,2.847,0,0,1,2.784-2.176h.045l5.328.078h.025a1.622,1.622,0,0,0,1.449-.888c.4-.815.841-1.617,1.3-2.382a1.584,1.584,0,0,0-.045-1.692l-2.952-4.387a2.817,2.817,0,0,1,.31-3.547l2.941-3.064a2.864,2.864,0,0,1,3.544-.48l4.577,2.712a1.623,1.623,0,0,0,1.712-.031c.765-.505,1.556-.986,2.351-1.422a1.582,1.582,0,0,0,.807-1.486l-.344-5.273a2.833,2.833,0,0,1,2.053-2.916l4.091-1.2a2.859,2.859,0,0,1,3.312,1.343l2.589,4.605a1.6,1.6,0,0,0,1.494.818c.913-.059,1.84-.081,2.759-.064a1.611,1.611,0,0,0,1.458-.891l2.36-4.734a2.858,2.858,0,0,1,3.242-1.505l4.144.991a2.834,2.834,0,0,1,2.2,2.809l-.081,5.281a1.592,1.592,0,0,0,.894,1.449c.821.4,1.631.832,2.4,1.29a1.633,1.633,0,0,0,1.72-.047l4.429-2.927a2.873,2.873,0,0,1,3.563.3l3.089,2.913a2.819,2.819,0,0,1,.486,3.527l-2.737,4.538a1.578,1.578,0,0,0,.039,1.692c.5.748.983,1.522,1.422,2.307a1.6,1.6,0,0,0,1.514.81l5.323-.344a2.845,2.845,0,0,1,2.935,2.033l1.2,4.055a2.82,2.82,0,0,1-1.357,3.293l-4.65,2.569a1.584,1.584,0,0,0-.824,1.475c.059.9.078,1.821.061,2.737a1.58,1.58,0,0,0,.9,1.435l4.776,2.337a2.825,2.825,0,0,1,1.519,3.223l-1,4.108A2.85,2.85,0,0,1,823,476.35h-.045l-5.328-.078a1.628,1.628,0,0,0-1.472.888c-.4.815-.843,1.617-1.3,2.382a1.579,1.579,0,0,0,.045,1.69l2.952,4.387a2.813,2.813,0,0,1-.31,3.547l-2.941,3.061a2.864,2.864,0,0,1-3.544.48L806.472,490a1.637,1.637,0,0,0-1.723.039c-.754.5-1.536.972-2.326,1.408a1.6,1.6,0,0,0-.818,1.491l.344,5.275a2.835,2.835,0,0,1-2.053,2.916l-4.091,1.2a2.859,2.859,0,0,1-3.312-1.343l-2.589-4.605a1.59,1.59,0,0,0-1.494-.818c-.913.059-1.84.078-2.759.064a1.63,1.63,0,0,0-1.458.891l-2.36,4.734A2.855,2.855,0,0,1,779.271,502.828Zm-11.056-13.377a2.855,2.855,0,0,1,1.458.4c.746.441,1.522.857,2.312,1.24a2.85,2.85,0,0,1,1.6,2.594l-.081,5.281a1.593,1.593,0,0,0,1.234,1.575l4.144.991a1.613,1.613,0,0,0,1.832-.846l2.36-4.734a2.868,2.868,0,0,1,2.6-1.583c.885.017,1.779,0,2.656-.061a2.872,2.872,0,0,1,2.664,1.455l2.589,4.605a1.612,1.612,0,0,0,1.871.754l4.091-1.2a1.587,1.587,0,0,0,1.153-1.634l-.343-5.275a2.848,2.848,0,0,1,1.463-2.67c.762-.419,1.516-.877,2.24-1.357a2.892,2.892,0,0,1,3.052-.073l4.577,2.712a1.617,1.617,0,0,0,2-.271l2.941-3.064a1.571,1.571,0,0,0,.173-1.98l-2.952-4.387a2.834,2.834,0,0,1-.078-3.036c.444-.734.866-1.505,1.254-2.29a2.872,2.872,0,0,1,2.569-1.583h.042l5.328.078h.025a1.6,1.6,0,0,0,1.572-1.223l1-4.108a1.578,1.578,0,0,0-.852-1.8l-4.776-2.337a2.834,2.834,0,0,1-1.6-2.583c.017-.88,0-1.765-.059-2.631a2.84,2.84,0,0,1,1.469-2.65l4.65-2.569a1.583,1.583,0,0,0,.762-1.843l-1.2-4.055a1.6,1.6,0,0,0-1.653-1.142l-5.323.343a2.878,2.878,0,0,1-2.684-1.447c-.422-.754-.882-1.5-1.368-2.217a2.833,2.833,0,0,1-.073-3.038l2.737-4.538a1.572,1.572,0,0,0-.271-1.969l-3.089-2.913a1.622,1.622,0,0,0-2.016-.17l-4.429,2.927a2.9,2.9,0,0,1-3.05.081c-.743-.438-1.522-.857-2.312-1.243a2.85,2.85,0,0,1-1.6-2.594l.081-5.281a1.593,1.593,0,0,0-1.234-1.575l-4.144-.991a1.613,1.613,0,0,0-1.832.846l-2.36,4.734a2.908,2.908,0,0,1-2.6,1.583c-.885-.017-1.779.006-2.656.061a2.867,2.867,0,0,1-2.664-1.452l-2.589-4.605a1.612,1.612,0,0,0-1.871-.754l-4.091,1.2a1.587,1.587,0,0,0-1.153,1.634l.344,5.273a2.838,2.838,0,0,1-1.452,2.664c-.765.422-1.528.883-2.262,1.368a2.878,2.878,0,0,1-3.041.064l-4.577-2.712a1.618,1.618,0,0,0-2,.271l-2.941,3.064a1.571,1.571,0,0,0-.173,1.98l2.952,4.387a2.834,2.834,0,0,1,.078,3.036c-.444.734-.866,1.505-1.254,2.29a2.9,2.9,0,0,1-2.611,1.583l-5.328-.078a1.589,1.589,0,0,0-1.595,1.223l-1,4.108a1.578,1.578,0,0,0,.852,1.8l4.776,2.337a2.834,2.834,0,0,1,1.6,2.583c-.017.882,0,1.765.059,2.631a2.837,2.837,0,0,1-1.469,2.65l-4.65,2.569a1.583,1.583,0,0,0-.762,1.843l1.2,4.055a1.608,1.608,0,0,0,1.653,1.142l5.323-.344a2.873,2.873,0,0,1,2.678,1.435c.427.762.894,1.516,1.382,2.242a2.823,2.823,0,0,1,.064,3.03l-2.737,4.538a1.572,1.572,0,0,0,.271,1.969l3.089,2.913a1.625,1.625,0,0,0,2.016.17l4.426-2.927a2.893,2.893,0,0,1,1.592-.475Zm17.976-8.149a18.875,18.875,0,0,1-18.923-18.39,18.581,18.581,0,0,1,5.278-13.388,18.9,18.9,0,0,1,13.276-5.767l.391,0a18.875,18.875,0,0,1,18.923,18.39,18.58,18.58,0,0,1-5.278,13.388,18.9,18.9,0,0,1-13.276,5.767Zm.025-36.3c-.123,0-.243,0-.366,0a17.646,17.646,0,0,0-12.4,5.387,17.319,17.319,0,0,0-4.926,12.492,17.622,17.622,0,0,0,17.672,17.167c.123,0,.243,0,.366,0a17.646,17.646,0,0,0,12.4-5.387,17.319,17.319,0,0,0,4.926-12.492A17.622,17.622,0,0,0,786.216,445Z" transform="translate(-681.967 -319.835)"/>
      </g>
      <g id="Group_566" data-name="Group 566" transform="translate(0 35.187)">
        <g id="Group_551" data-name="Group 551">
          <path id="Path_249" data-name="Path 249" d="M19.275,545.858c6.412,1.528,13.045-.059,19.593-.815L200.121,528.37a15.923,15.923,0,0,0,14.315-16.181L205.3,129.871l-8.6-2.128a64.246,64.246,0,0,0-21.627-1.4l-161.308,17.2A15.326,15.326,0,0,0,0,158.751V531.568a12.315,12.315,0,0,0,9.484,11.958l9.791,2.335Z" transform="translate(0 -125.993)"/>
          <g id="Group_549" data-name="Group 549" transform="translate(12.785 3.298)">
            <path id="Path_250" data-name="Path 250" d="M235.962,540.628,63.441,558.736A13.963,13.963,0,0,1,48.02,544.848V172.115a13.965,13.965,0,0,1,12.506-13.888l172.521-18.108a13.963,13.963,0,0,1,15.421,13.888V526.74a13.965,13.965,0,0,1-12.506,13.888Z" transform="translate(-47.394 -139.416)" fill="#fff"/>
            <path id="Path_251" data-name="Path 251" d="M60.375,557.824A14.588,14.588,0,0,1,45.78,543.235V170.5a14.558,14.558,0,0,1,13.067-14.511l172.521-18.108a14.586,14.586,0,0,1,16.111,14.508V525.125a14.558,14.558,0,0,1-13.067,14.511l-.064-.623.064.623L61.891,557.743a14.559,14.559,0,0,1-1.516.078ZM232.887,139.056a13.629,13.629,0,0,0-1.388.073L58.975,157.237A13.309,13.309,0,0,0,47.028,170.5V543.235A13.339,13.339,0,0,0,61.76,556.5L234.28,538.393a13.309,13.309,0,0,0,11.947-13.265V152.394a13.338,13.338,0,0,0-13.343-13.338Z" transform="translate(-45.78 -137.803)"/>
          </g>
          <path id="Path_252" data-name="Path 252" d="M60.377,557.824a14.588,14.588,0,0,1-14.6-14.589V170.5a14.558,14.558,0,0,1,13.067-14.511l172.521-18.108a14.586,14.586,0,0,1,16.111,14.508v153.6a.626.626,0,0,1-1.251,0V152.394A13.339,13.339,0,0,0,231.5,139.129L58.975,157.237A13.309,13.309,0,0,0,47.028,170.5V543.235A13.339,13.339,0,0,0,61.76,556.5l74.612-8.56a.625.625,0,1,1,.142,1.243L61.9,557.743a14.671,14.671,0,0,1-1.522.081Z" transform="translate(-32.995 -134.505)"/>
          <path id="Path_253" data-name="Path 253" d="M719.391,972.085a.626.626,0,0,1-.064-1.248,13.309,13.309,0,0,0,11.947-13.265V738.436a.626.626,0,0,1,1.251,0V957.572a14.557,14.557,0,0,1-13.067,14.511Z" transform="translate(-518.039 -566.949)"/>
          <g id="Group_550" data-name="Group 550" transform="translate(22.054 14.029)">
            <path id="Path_254" data-name="Path 254" d="M263.117,191.142V546.678a12.675,12.675,0,0,1-11.347,12.6L95.2,575.713a12.678,12.678,0,0,1-13.994-12.6V207.577a12.666,12.666,0,0,1,11.355-12.6l51.424-5.4v4.3a8.2,8.2,0,0,0,9.057,8.157L193,197.85a8.2,8.2,0,0,0,7.345-8.157v-6.029l48.78-5.116a12.668,12.668,0,0,1,13.994,12.6Z" transform="translate(-80.584 -177.849)" fill="#fff"/>
            <path id="Path_255" data-name="Path 255" d="M92.277,574.792a13.305,13.305,0,0,1-13.307-13.3V205.958a13.267,13.267,0,0,1,11.914-13.221l51.424-5.4a.614.614,0,0,1,.483.156.624.624,0,0,1,.207.464v4.3a7.578,7.578,0,0,0,8.367,7.535l39.952-4.192a7.561,7.561,0,0,0,6.783-7.535v-6.029a.627.627,0,0,1,.561-.623l48.78-5.116a13.291,13.291,0,0,1,14.684,13.218V545.056a13.276,13.276,0,0,1-11.908,13.226L93.651,574.714a13.371,13.371,0,0,1-1.377.073Zm49.472-386.138L91.015,193.98a12.018,12.018,0,0,0-10.794,11.975V561.494a12.052,12.052,0,0,0,13.3,11.981l156.566-16.432a12.028,12.028,0,0,0,10.788-11.983V189.523a12.039,12.039,0,0,0-13.3-11.975l-48.218,5.058v5.468a8.81,8.81,0,0,1-7.9,8.78L151.5,201.045a8.825,8.825,0,0,1-9.746-8.777v-3.611Z" transform="translate(-78.97 -176.23)"/>
          </g>
        </g>
        <g id="Group_555" data-name="Group 555" transform="translate(31.817 167.821)">
          <g id="Group_552" data-name="Group 552" transform="translate(0.293 0.409)">
            <path id="Path_256" data-name="Path 256" d="M271.654,946.669,126.317,962.3a8.308,8.308,0,0,1-9.087-8.386V754.709a8.358,8.358,0,0,1,7.37-8.386l145.337-15.633a8.308,8.308,0,0,1,9.087,8.386V938.283A8.358,8.358,0,0,1,271.654,946.669Z" transform="translate(-116.602 -730.013)" fill="#fff"/>
            <path id="Path_257" data-name="Path 257" d="M123.841,961.351a8.763,8.763,0,0,1-5.848-2.251,9.148,9.148,0,0,1-3.013-6.809V753.084a8.964,8.964,0,0,1,7.928-9.009l145.337-15.633a8.747,8.747,0,0,1,6.767,2.2,9.153,9.153,0,0,1,3.013,6.809V936.658a8.967,8.967,0,0,1-7.928,9.009L124.76,961.3a8.465,8.465,0,0,1-.919.05ZM269.2,729.645a7.28,7.28,0,0,0-.815.045L123.045,745.323a7.719,7.719,0,0,0-6.811,7.764V952.294a7.906,7.906,0,0,0,2.6,5.879,7.408,7.408,0,0,0,5.8,1.888l145.337-15.633a7.717,7.717,0,0,0,6.811-7.764V737.456a7.9,7.9,0,0,0-2.6-5.876,7.407,7.407,0,0,0-4.982-1.933Z" transform="translate(-114.98 -728.392)"/>
          </g>
          <g id="Group_553" data-name="Group 553" transform="translate(11.093 144.644)">
            <path id="Path_258" data-name="Path 258" d="M218.555,1327.366l-62.665-57.35,19.962-22.906,62.665,57.35Z" transform="translate(-155.265 -1246.484)" fill="#fff"/>
            <path id="Path_259" data-name="Path 259" d="M216.942,1326.375a.62.62,0,0,1-.422-.165l-62.665-57.353a.626.626,0,0,1-.05-.871l19.962-22.906a.628.628,0,0,1,.894-.05l62.665,57.353a.626.626,0,0,1,.05.871l-19.962,22.906a.627.627,0,0,1-.436.212h-.036Zm-61.791-58.026,61.741,56.507,19.141-21.962-61.741-56.507Z" transform="translate(-153.653 -1244.867)"/>
          </g>
          <g id="Group_554" data-name="Group 554">
            <path id="Path_260" data-name="Path 260" d="M260.067,749.153l18.5,16.926V750.638l-11.009-10.076,8.16-9.364a8.079,8.079,0,0,0-6.27-2.03L261.69,730l-2.516,2.888-2.558-2.34-15.1,1.625,10.168,9.308-20.116,23.081-22.459-20.557,8.794-10.093L201.281,735.7l-.768.88-14.662,1.578,7.392,6.764-20.116,23.084-22.523-20.616,6-6.884L139.976,742.3l-.768.88-9.023.972,4.549,4.164-17.661,20.266v5.063l-.894-.818v15.441l21.858,20-20.965,24.056v17.29l29.348-33.677,22.459,20.557-52.7,60.473v17.289l61.081-70.093,22.523,20.616-81.728,93.781a8.141,8.141,0,0,0,7.241,3.058l5.694-.612,77.173-88.556,22.523,20.616L175.667,956.2l16.628-1.787,46.777-53.675,22.523,20.615-24.623,28.254,16.628-1.787,16.379-18.795,8.582,7.853V921.439l-1.095-1,1.095-1.257V901.89l-9.478,10.875-22.523-20.616,20.116-23.082,11.886,10.878V864.5l-4.4-4.027,4.4-5.049V838.139l-12.782,14.667L243.255,832.19l20.116-23.081,15.189,13.9V807.57l-7.705-7.052,7.705-8.842V774.387l-16.086,18.46-22.523-20.616,20.116-23.081ZM201.622,752.6l22.459,20.557L203.965,796.24l-22.459-20.557ZM123,779.068l20.116-23.081L165.638,776.6l-20.116,23.081Zm30.9,28.287,20.116-23.081,22.459,20.557-20.116,23.081Zm30.842,28.226L204.861,812.5l22.523,20.616L207.269,856.2l-22.523-20.616ZM258.294,861.4,238.178,884.48l-22.523-20.616,20.116-23.081Zm-3.307-59.959-20.116,23.082-22.523-20.616,20.116-23.081Z" transform="translate(-115.552 -728.508)" fill="#fff"/>
            <path id="Path_261" data-name="Path 261" d="M122.814,960.717a8.8,8.8,0,0,1-6.864-3.337.624.624,0,0,1,.017-.8l81.326-93.323-21.6-19.769L115.028,913.1a.623.623,0,0,1-1.095-.411V895.4a.634.634,0,0,1,.154-.411l52.3-60.012-21.537-19.711-28.927,33.191a.623.623,0,0,1-1.095-.41v-17.29a.634.634,0,0,1,.154-.411l20.562-23.6-21.409-19.594a.626.626,0,0,1-.2-.461V771.25a.623.623,0,0,1,.374-.572.614.614,0,0,1,.519.008v-3.681a.634.634,0,0,1,.154-.411l17.259-19.806-4.1-3.753a.625.625,0,0,1,.355-1.084l8.78-.944.606-.7a.618.618,0,0,1,.4-.209l16.628-1.787a.625.625,0,0,1,.539,1.033l-5.6,6.423,21.6,19.769L190.745,743.4l-6.94-6.353a.625.625,0,0,1,.355-1.084l14.416-1.55.606-.7a.619.619,0,0,1,.4-.209l16.625-1.787a.625.625,0,0,1,.539,1.033l-8.392,9.629L229.9,762.1l19.295-22.14-9.719-8.895a.625.625,0,0,1,.355-1.084l15.1-1.622a.617.617,0,0,1,.489.162l2.086,1.907,2.095-2.4a.618.618,0,0,1,.4-.209l7.755-.835a8.659,8.659,0,0,1,6.753,2.184.626.626,0,0,1,.056.88l-7.758,8.9,10.559,9.665a.626.626,0,0,1,.2.461v15.441a.625.625,0,0,1-1.047.461L258.5,748.479,239.2,770.619l21.6,19.769,15.667-17.976a.63.63,0,0,1,.69-.176.622.622,0,0,1,.4.586v17.289a.634.634,0,0,1-.154.411l-7.3,8.381,7.255,6.641a.626.626,0,0,1,.2.461v15.441a.625.625,0,0,1-1.047.461l-14.717-13.469L242.51,830.575l21.6,19.769,12.36-14.184a.63.63,0,0,1,.69-.176.622.622,0,0,1,.4.586v17.289a.634.634,0,0,1-.154.411l-4,4.588,3.949,3.617a.626.626,0,0,1,.2.461v15.441a.625.625,0,0,1-1.047.461l-11.414-10.445-19.295,22.138,21.6,19.769,9.057-10.392a.63.63,0,0,1,.69-.176.622.622,0,0,1,.4.586v17.289a.634.634,0,0,1-.154.411l-.7.8.645.592a.626.626,0,0,1,.2.461v15.441a.625.625,0,0,1-1.047.461l-8.11-7.42L252.45,946.662a.618.618,0,0,1-.4.209l-16.628,1.787a.629.629,0,0,1-.623-.332.623.623,0,0,1,.084-.7l24.221-27.8L237.5,900.06l-46.356,53.192a.618.618,0,0,1-.4.209l-16.628,1.787a.625.625,0,0,1-.539-1.033L228.19,891.54l-21.6-19.769-76.751,88.073a.618.618,0,0,1-.4.209l-5.694.612a8.7,8.7,0,0,1-.93.05Zm-5.552-3.725a7.5,7.5,0,0,0,6.348,2.432l5.451-.586,77.011-88.372a.616.616,0,0,1,.436-.212.647.647,0,0,1,.458.162l22.523,20.615a.626.626,0,0,1,.05.871l-53.971,61.933,14.8-1.592,46.615-53.491a.628.628,0,0,1,.894-.05l22.523,20.616a.626.626,0,0,1,.05.871l-23.573,27.05,14.8-1.592,16.217-18.61a.628.628,0,0,1,.894-.05l7.535,6.9V920.137l-.894-.818a.626.626,0,0,1-.05-.871l.941-1.081V901.981l-8.381,9.618a.628.628,0,0,1-.894.05l-22.523-20.616a.626.626,0,0,1-.05-.871l20.116-23.081a.627.627,0,0,1,.436-.212.619.619,0,0,1,.458.162l10.838,9.92V863.2l-4.2-3.843a.626.626,0,0,1-.05-.871l4.245-4.873V838.233l-11.685,13.408a.616.616,0,0,1-.436.212.643.643,0,0,1-.458-.162l-22.523-20.616a.626.626,0,0,1-.05-.871l20.116-23.081a.628.628,0,0,1,.894-.05l14.142,12.944V806.271l-7.5-6.867a.626.626,0,0,1-.05-.871l7.551-8.663V774.484l-14.988,17.2a.627.627,0,0,1-.436.212.655.655,0,0,1-.458-.162L237.9,771.119a.626.626,0,0,1-.05-.871l20.116-23.084a.628.628,0,0,1,.894-.05l17.446,15.969V749.336l-10.8-9.892a.626.626,0,0,1-.05-.871l7.736-8.878a7.4,7.4,0,0,0-5.309-1.48l-7.51.807-2.354,2.7a.627.627,0,0,1-.436.212.638.638,0,0,1-.458-.162l-2.349-2.15-13.438,1.447,9.149,8.372a.626.626,0,0,1,.05.871L230.418,763.4a.627.627,0,0,1-.436.212.635.635,0,0,1-.458-.162l-22.459-20.557a.626.626,0,0,1-.05-.871l7.744-8.886-14.8,1.592-.606.7a.618.618,0,0,1-.4.21l-13.282,1.43,6.37,5.828a.626.626,0,0,1,.05.871l-20.116,23.081a.627.627,0,0,1-.436.212.642.642,0,0,1-.458-.162l-22.523-20.616a.626.626,0,0,1-.05-.871l4.951-5.68-14.8,1.592-.606.7a.618.618,0,0,1-.4.209l-7.646.824,3.527,3.228a.626.626,0,0,1,.05.871l-17.507,20.088v4.828a.627.627,0,0,1-.374.573.614.614,0,0,1-.519-.008v13.785l21.654,19.82a.626.626,0,0,1,.05.871l-20.811,23.88v15.385l28.251-32.417a.627.627,0,0,1,.436-.212.638.638,0,0,1,.458.162l22.459,20.557a.626.626,0,0,1,.05.871l-52.547,60.3V911.01l59.987-68.834a.627.627,0,0,1,.436-.212.635.635,0,0,1,.458.162l22.523,20.616a.626.626,0,0,1,.05.871l-81.373,93.376Zm119.295-73.464a.62.62,0,0,1-.422-.165l-22.523-20.616a.626.626,0,0,1-.05-.871l20.116-23.084a.616.616,0,0,1,.436-.212.635.635,0,0,1,.458.162l22.523,20.616a.626.626,0,0,1,.05.871l-20.116,23.084a.627.627,0,0,1-.436.212h-.036ZM214.9,862.239l21.6,19.769,19.295-22.14L234.2,840.1Zm-9.255-7a.62.62,0,0,1-.422-.165L182.705,834.46a.626.626,0,0,1-.05-.871l20.116-23.082a.616.616,0,0,1,.436-.212.635.635,0,0,1,.458.162l22.523,20.616a.626.626,0,0,1,.05.871l-20.116,23.081a.627.627,0,0,1-.436.212h-.036ZM184,833.952l21.6,19.769,19.295-22.138-21.6-19.769Zm-9.255-7a.62.62,0,0,1-.422-.165l-22.459-20.557a.626.626,0,0,1-.05-.871l20.116-23.082a.628.628,0,0,1,.894-.05l22.459,20.557a.626.626,0,0,1,.05.871l-20.116,23.081a.627.627,0,0,1-.436.212h-.036Zm-21.587-21.23,21.537,19.711L193.988,803.3l-21.537-19.711Zm80.094,17.845a.62.62,0,0,1-.422-.165l-22.523-20.616a.626.626,0,0,1-.05-.871l20.116-23.081a.627.627,0,0,1,.436-.212.634.634,0,0,1,.458.162L253.787,799.4a.626.626,0,0,1,.05.871l-20.116,23.081a.627.627,0,0,1-.436.212h-.036ZM211.6,802.277l21.6,19.769,19.295-22.138-21.6-19.769Zm-67.7-3.552a.62.62,0,0,1-.422-.165l-22.523-20.616a.626.626,0,0,1-.05-.871l20.116-23.081a.627.627,0,0,1,.436-.212.647.647,0,0,1,.458.162l22.523,20.616a.626.626,0,0,1,.05.871L144.373,798.51a.627.627,0,0,1-.436.212H143.9Zm-21.652-21.289,21.6,19.769,19.295-22.138-21.6-19.769Zm80.094,17.845a.62.62,0,0,1-.422-.165L179.463,774.56a.626.626,0,0,1-.05-.871L199.528,750.6a.628.628,0,0,1,.894-.05l22.459,20.557a.626.626,0,0,1,.05.871l-20.116,23.084a.627.627,0,0,1-.436.212h-.036Zm-21.587-21.23,21.537,19.711,19.295-22.14-21.537-19.711Z" transform="translate(-113.93 -726.927)"/>
          </g>
        </g>
        <g id="Group_557" data-name="Group 557" transform="translate(35.78 57.059)">
          <circle id="Ellipse_23" data-name="Ellipse 23" cx="5.521" cy="5.521" r="5.521" transform="translate(17.443 75.363)"/>
          <g id="Group_556" data-name="Group 556">
            <path id="Path_262" data-name="Path 262" d="M151.084,330.31a22.932,22.932,0,0,0-22.964,22.9c0,3.161,1.435,7.582,3.589,12.436,5.426,12.235,15.41,27.215,18.465,31.691a1.1,1.1,0,0,0,1.821,0c4.262-6.25,22.054-33,22.054-44.127a22.929,22.929,0,0,0-22.961-22.9Z" transform="translate(-128.12 -330.31)"/>
            <ellipse id="Ellipse_24" data-name="Ellipse 24" cx="12.433" cy="12.397" rx="12.433" ry="12.397" transform="translate(10.531 10.953)" fill="#fff"/>
          </g>
        </g>
        <g id="Group_565" data-name="Group 565" transform="translate(104.315 44.599)">
          <g id="Group_558" data-name="Group 558" transform="translate(0 0)">
            <path id="Path_263" data-name="Path 263" d="M419.418,288.334c24.053-3.379,43.443,14.941,43.4,40.9-.047,25.88-19.518,49.662-43.569,53.041s-43.516-14.93-43.465-40.809c.047-25.958,19.588-49.752,43.641-53.134Z" transform="translate(-375.151 -287.307)" fill="#fff"/>
            <path id="Path_264" data-name="Path 264" d="M411.949,381.691a36.85,36.85,0,0,1-24.481-9.057c-8.884-7.736-13.963-19.686-13.938-32.783.047-26.22,19.867-50.332,44.18-53.751a37.269,37.269,0,0,1,30.153,8.618c8.892,7.744,13.977,19.739,13.955,32.9-.047,26.179-19.836,50.249-44.108,53.661a41.186,41.186,0,0,1-5.758.408Zm5.934-94.351c-23.718,3.334-43.055,26.891-43.1,52.514-.025,12.735,4.9,24.338,13.511,31.837a36.15,36.15,0,0,0,29.245,8.356c23.679-3.329,42.982-26.846,43.03-52.424.025-12.8-4.907-24.453-13.525-31.957a36.039,36.039,0,0,0-29.158-8.322Z" transform="translate(-373.53 -285.694)"/>
          </g>
          <g id="Group_564" data-name="Group 564" transform="translate(23.805 16.024)">
            <path id="Path_265" data-name="Path 265" d="M479.43,536.46l-.014,7.362a1.478,1.478,0,0,1-1.19,1.455l-3.477.489a1.053,1.053,0,0,1-1.19-1.12l.014-7.362Z" transform="translate(-469.43 -482.453)"/>
            <path id="Path_266" data-name="Path 266" d="M574.12,523.16l-.014,7.362a1.483,1.483,0,0,1-1.2,1.455l-3.477.489a1.049,1.049,0,0,1-1.184-1.12l.014-7.361Z" transform="translate(-537.676 -472.867)"/>
            <g id="Group_559" data-name="Group 559">
              <path id="Path_267" data-name="Path 267" d="M497.586,345.343a2.524,2.524,0,0,1,2.851,2.687l-.084,44.688a2.038,2.038,0,0,1-1.648,2l-1.879.265-5.856.824L470.385,398.7l-5.856.824-1.879.265a1.447,1.447,0,0,1-1.639-1.539l.081-43.446a4.985,4.985,0,0,1,4.021-4.9l32.476-4.563Z" transform="translate(-460.384 -344.69)" fill="#fff"/>
              <path id="Path_268" data-name="Path 268" d="M460.817,398.808a1.993,1.993,0,0,1-1.315-.489,2.216,2.216,0,0,1-.732-1.69l.081-43.446a5.634,5.634,0,0,1,4.56-5.516l32.476-4.563a3.03,3.03,0,0,1,2.446.7,3.413,3.413,0,0,1,1.117,2.6l-.084,44.688a2.645,2.645,0,0,1-2.187,2.617l-36.056,5.069a2.273,2.273,0,0,1-.3.022Zm35.244-54.463-32.476,4.563a4.344,4.344,0,0,0-3.482,4.278l-.081,43.446a.951.951,0,0,0,.3.743.768.768,0,0,0,.626.173l36.059-5.069a1.416,1.416,0,0,0,1.109-1.382l.084-44.688a2.134,2.134,0,0,0-.69-1.656,1.793,1.793,0,0,0-1.449-.411Z" transform="translate(-458.77 -343.072)"/>
            </g>
            <g id="Group_560" data-name="Group 560" transform="translate(28.86 39.683)">
              <path id="Path_269" data-name="Path 269" d="M567.343,487.449a2.622,2.622,0,0,1,2.966,2.8,3.691,3.691,0,0,1-2.977,3.625,2.624,2.624,0,0,1-2.971-2.79A3.694,3.694,0,0,1,567.343,487.449Z" transform="translate(-563.732 -486.793)" fill="#fff"/>
              <path id="Path_270" data-name="Path 270" d="M565.316,492.9a3.089,3.089,0,0,1-2.053-.762,3.517,3.517,0,0,1-1.153-2.681,4.346,4.346,0,0,1,3.522-4.25h0a3.124,3.124,0,0,1,2.525.726,3.526,3.526,0,0,1,1.153,2.689,4.335,4.335,0,0,1-3.516,4.242,3.494,3.494,0,0,1-.478.034Zm.492-6.451a3.056,3.056,0,0,0-2.444,3.013,2.245,2.245,0,0,0,.723,1.734,1.893,1.893,0,0,0,1.533.433,3.047,3.047,0,0,0,2.438-3,2.259,2.259,0,0,0-.723-1.743,1.889,1.889,0,0,0-1.528-.43Z" transform="translate(-562.11 -485.17)"/>
            </g>
            <g id="Group_561" data-name="Group 561" transform="translate(4.552 43.103)">
              <path id="Path_271" data-name="Path 271" d="M480.3,499.679a2.625,2.625,0,0,1,2.971,2.8,3.693,3.693,0,0,1-2.983,3.625,2.621,2.621,0,0,1-2.966-2.79A3.692,3.692,0,0,1,480.3,499.679Z" transform="translate(-476.692 -499.027)" fill="#fff"/>
              <path id="Path_272" data-name="Path 272" d="M478.273,505.142a3.094,3.094,0,0,1-2.05-.76,3.528,3.528,0,0,1-1.153-2.684,4.338,4.338,0,0,1,3.516-4.248,3.116,3.116,0,0,1,2.53.729,3.524,3.524,0,0,1,1.153,2.687,4.342,4.342,0,0,1-3.522,4.245,3.432,3.432,0,0,1-.478.034Zm.788-6.473a2.174,2.174,0,0,0-.3.02,3.051,3.051,0,0,0-2.438,3.01,2.255,2.255,0,0,0,.723,1.737,1.9,1.9,0,0,0,1.53.43,3.052,3.052,0,0,0,2.444-3.008,2.257,2.257,0,0,0-.723-1.74,1.855,1.855,0,0,0-1.237-.455Z" transform="translate(-475.07 -497.417)"/>
            </g>
            <g id="Group_562" data-name="Group 562" transform="translate(4.583 14.58)">
              <path id="Path_273" data-name="Path 273" d="M504.77,397.551a2.582,2.582,0,0,1,2.921,2.748l-.025,14.251a3.63,3.63,0,0,1-2.932,3.569l-24.377,3.427a2.583,2.583,0,0,1-2.927-2.745l.025-14.251a3.629,3.629,0,0,1,2.938-3.569l24.377-3.427Z" transform="translate(-476.802 -396.897)" fill="#fff"/>
              <path id="Path_274" data-name="Path 274" d="M478.347,420.582a3.052,3.052,0,0,1-2.03-.754,3.478,3.478,0,0,1-1.137-2.647l.025-14.251a4.285,4.285,0,0,1,3.477-4.189l24.377-3.427a3.1,3.1,0,0,1,2.5.718,3.469,3.469,0,0,1,1.137,2.647l-.028,14.251a4.278,4.278,0,0,1-3.471,4.186l-24.377,3.427a3.383,3.383,0,0,1-.472.034Zm24.888-24.028-24.377,3.427a3,3,0,0,0-2.4,2.952l-.025,14.251a2.2,2.2,0,0,0,.707,1.7,1.866,1.866,0,0,0,1.505.424l24.377-3.427a2.991,2.991,0,0,0,2.393-2.952l.028-14.251a2.209,2.209,0,0,0-.709-1.7,1.856,1.856,0,0,0-1.5-.424Z" transform="translate(-475.18 -395.28)"/>
            </g>
            <g id="Group_563" data-name="Group 563" transform="translate(8.459 5.522)">
              <path id="Path_275" data-name="Path 275" d="M511.438,365.112a2.158,2.158,0,0,1,2.441,2.3,3.034,3.034,0,0,1-2.449,2.988l-17.689,2.485a2.159,2.159,0,0,1-2.441-2.3,3.033,3.033,0,0,1,2.449-2.983Z" transform="translate(-490.674 -364.462)" fill="#fff"/>
              <path id="Path_276" data-name="Path 276" d="M491.805,371.911a2.643,2.643,0,0,1-1.757-.654,3.024,3.024,0,0,1-.989-2.3,3.633,3.633,0,0,1,2.988-3.6l17.689-2.486a2.671,2.671,0,0,1,2.167.626,3,3,0,0,1,.986,2.293A3.636,3.636,0,0,1,509.9,369.4l-17.689,2.485A2.889,2.889,0,0,1,491.805,371.911Zm18.1-7.8L492.221,366.6a2.431,2.431,0,0,0-1.913,2.365,1.756,1.756,0,0,0,.559,1.352,1.445,1.445,0,0,0,1.17.33l17.689-2.485a2.4,2.4,0,0,0,1.91-2.371,1.742,1.742,0,0,0-.556-1.346,1.441,1.441,0,0,0-1.17-.329Z" transform="translate(-489.06 -362.845)"/>
            </g>
          </g>
        </g>
        <path id="Path_277" data-name="Path 277" d="M122.426,683.406a.616.616,0,0,1-.419-.162.624.624,0,0,1-.207-.464V670.269a.624.624,0,0,1,.559-.623l58.8-6.256a.624.624,0,0,1,.69.62v12.511a.624.624,0,0,1-.559.623l-58.8,6.256-.067,0Zm.626-12.573v11.252l57.549-6.122V664.711Zm58.174,5.691h0Z" transform="translate(-87.785 -513.31)"/>
      </g>
      <g id="Group_581" data-name="Group 581" transform="translate(233.971 159.103)">
        <g id="Group_570" data-name="Group 570" transform="translate(117.787 81.127)">
          <g id="Group_567" data-name="Group 567" transform="translate(0.302)">
            <path id="Path_278" data-name="Path 278" d="M1262.89,875.383l73,12.763,72.3-12.668a.114.114,0,0,0,0-.223l-73.126-12.8-72.171,12.933Z" transform="translate(-1262.264 -861.825)" fill="#fff"/>
            <path id="Path_279" data-name="Path 279" d="M1334.273,887.158a.713.713,0,0,1-.109-.008l-73-12.763a.625.625,0,0,1,0-1.232l72.171-12.933a.569.569,0,0,1,.218,0l73.126,12.8a.739.739,0,0,1,0,1.455l-72.3,12.668a.712.712,0,0,1-.109.008Zm-69.409-13.4,69.409,12.134,69.309-12.143-70.135-12.282Z" transform="translate(-1260.65 -860.212)"/>
          </g>
          <g id="Group_568" data-name="Group 568" transform="translate(0 12.891)">
            <path id="Path_280" data-name="Path 280" d="M1335.1,1029.562V921.3l-73.285-12.7v107.965Z" transform="translate(-1261.184 -907.978)" fill="#fff"/>
            <path id="Path_281" data-name="Path 281" d="M1333.481,1028.583a.712.712,0,0,1-.109-.008l-73.285-13a.626.626,0,0,1-.517-.615V907a.626.626,0,0,1,.734-.615l73.285,12.7a.629.629,0,0,1,.52.617v108.261a.623.623,0,0,1-.625.626Zm-72.66-14.148,72.034,12.776V920.224l-72.034-12.483v106.7Z" transform="translate(-1259.57 -906.374)"/>
          </g>
          <g id="Group_569" data-name="Group 569" transform="translate(73.285 12.87)">
            <path id="Path_282" data-name="Path 282" d="M1524.23,1029.519V921.258l72.649-12.718v108.043Z" transform="translate(-1523.604 -907.914)" fill="#fff"/>
            <path id="Path_283" data-name="Path 283" d="M1522.615,1028.529a.623.623,0,0,1-.625-.625V919.642a.626.626,0,0,1,.517-.617l72.649-12.718a.639.639,0,0,1,.511.137.624.624,0,0,1,.223.48v108.043a.626.626,0,0,1-.517.614l-72.649,12.936a.713.713,0,0,1-.109.008Zm.626-108.362v106.99l71.4-12.712V907.67Z" transform="translate(-1521.99 -906.298)"/>
          </g>
        </g>
        <g id="Group_574" data-name="Group 574" transform="translate(113.293)">
          <g id="Group_571" data-name="Group 571" transform="translate(0.226)">
            <path id="Path_284" data-name="Path 284" d="M1246.53,581.7l55.019,9.618,54.4-9.531a.1.1,0,0,0,0-.2l-55.027-9.635Z" transform="translate(-1245.904 -571.325)" fill="#fff"/>
            <path id="Path_285" data-name="Path 285" d="M1299.934,590.327a.714.714,0,0,1-.109-.008l-55.019-9.618a.625.625,0,0,1,0-1.232l54.4-9.746a.574.574,0,0,1,.218,0l55.027,9.635a.726.726,0,0,1,0,1.43l-54.4,9.531A.712.712,0,0,1,1299.934,590.327Zm-51.43-10.252,51.43,8.99,51.346-9-51.969-9.1Zm105.725-.522h0Z" transform="translate(-1244.29 -569.712)"/>
          </g>
          <g id="Group_572" data-name="Group 572" transform="translate(0 9.716)">
            <path id="Path_286" data-name="Path 286" d="M1300.954,697.9V616.3l-55.234-9.573V688.1Z" transform="translate(-1245.094 -606.108)" fill="#fff"/>
            <path id="Path_287" data-name="Path 287" d="M1330.491,632.714V622.188l-13.961-2.418v10.467Z" transform="translate(-1296.13 -615.507)" fill="#bf4804"/>
            <path id="Path_288" data-name="Path 288" d="M1299.339,696.921a.711.711,0,0,1-.109-.008l-55.234-9.8a.626.626,0,0,1-.517-.614V605.128a.626.626,0,0,1,.734-.614l55.234,9.573a.629.629,0,0,1,.52.617v81.6a.623.623,0,0,1-.626.626Zm-54.608-10.947,53.982,9.573V615.224l-53.982-9.355Z" transform="translate(-1243.48 -604.503)"/>
          </g>
          <g id="Group_573" data-name="Group 573" transform="translate(55.234 9.7)">
            <path id="Path_289" data-name="Path 289" d="M1443.5,697.871v-81.6l54.756-9.584v81.432Z" transform="translate(-1442.874 -606.063)" fill="#fff"/>
            <path id="Path_290" data-name="Path 290" d="M1441.885,696.878a.623.623,0,0,1-.625-.626v-81.6a.626.626,0,0,1,.517-.617l54.756-9.584a.626.626,0,0,1,.734.614V686.5a.626.626,0,0,1-.517.614l-54.756,9.749a.71.71,0,0,1-.109.008Zm.626-81.7v80.326l53.5-9.526V605.817l-53.5,9.367Z" transform="translate(-1441.26 -604.445)"/>
          </g>
        </g>
        <g id="Group_578" data-name="Group 578" transform="translate(0 70.135)">
          <g id="Group_575" data-name="Group 575" transform="translate(0.371)">
            <path id="Path_291" data-name="Path 291" d="M841.363,839.018l89.952,15.726,89.232-15.633a.115.115,0,0,0,0-.226l-90.254-15.8L841.36,839.015Z" transform="translate(-840.737 -822.458)" fill="#fff"/>
            <path id="Path_292" data-name="Path 292" d="M929.711,853.764a.72.72,0,0,1-.109-.008L839.647,838.03a.625.625,0,0,1,0-1.232l88.933-15.935a.574.574,0,0,1,.218,0l90.251,15.8a.74.74,0,0,1,0,1.458l-89.232,15.633a.711.711,0,0,1-.109.008ZM843.344,837.4l86.364,15.1,86.249-15.111-87.268-15.282L843.341,837.4Z" transform="translate(-839.13 -820.852)"/>
          </g>
          <g id="Group_576" data-name="Group 576" transform="translate(0 15.882)">
            <path id="Path_293" data-name="Path 293" d="M930.354,1029.009V895.6l-90.3-15.65v133.043Z" transform="translate(-839.422 -879.328)" fill="#fff"/>
            <path id="Path_294" data-name="Path 294" d="M986.186,919.713V904.887L966.52,901.48v14.745Z" transform="translate(-930.573 -894.846)" fill="#bf4804"/>
            <path id="Path_295" data-name="Path 295" d="M928.732,1028.03a.712.712,0,0,1-.109-.008l-90.307-16.016a.625.625,0,0,1-.517-.614V878.348a.626.626,0,0,1,.734-.615l90.307,15.65a.629.629,0,0,1,.519.617V1027.41a.623.623,0,0,1-.626.625Zm-89.678-17.167,89.056,15.8V894.523l-89.056-15.435Z" transform="translate(-837.8 -877.724)"/>
          </g>
          <g id="Group_577" data-name="Group 577" transform="translate(90.307 15.857)">
            <path id="Path_296" data-name="Path 296" d="M1163.41,1028.959V895.55l89.525-15.67v133.141Z" transform="translate(-1162.784 -879.253)" fill="#fff"/>
            <path id="Path_297" data-name="Path 297" d="M1161.8,1027.966a.624.624,0,0,1-.626-.626V893.931a.626.626,0,0,1,.517-.617l89.522-15.67a.626.626,0,0,1,.734.617V1011.4a.623.623,0,0,1-.517.614l-89.522,15.938a.711.711,0,0,1-.109.008Zm.625-133.51v132.136l88.271-15.717V879Z" transform="translate(-1161.17 -877.635)"/>
          </g>
        </g>
        <g id="Group_580" data-name="Group 580" transform="translate(21.699 127.03)">
          <path id="Path_298" data-name="Path 298" d="M962.2,1082.393a.488.488,0,0,1-.089-.005l-46.079-6.7a.626.626,0,0,1-.536-.62V1025.2a.621.621,0,0,1,.215-.472.632.632,0,0,1,.5-.148l46.079,6.512a.628.628,0,0,1,.539.62v50.05a.621.621,0,0,1-.215.472A.634.634,0,0,1,962.2,1082.393Zm-45.454-7.867,44.828,6.518v-48.785l-44.828-6.337v48.6Z" transform="translate(-915.5 -1024.579)"/>
          <g id="Group_579" data-name="Group 579" transform="translate(6.197 7.097)">
            <path id="Path_299" data-name="Path 299" d="M938.316,1088.043a.624.624,0,0,1-.625-.625v-36.8a.626.626,0,0,1,1.251,0v36.8A.624.624,0,0,1,938.316,1088.043Z" transform="translate(-937.69 -1049.99)"/>
            <path id="Path_300" data-name="Path 300" d="M958.526,1091.686a.625.625,0,0,1-.626-.625v-36.8a.626.626,0,1,1,1.251,0v36.8A.625.625,0,0,1,958.526,1091.686Z" transform="translate(-952.256 -1052.614)"/>
            <path id="Path_301" data-name="Path 301" d="M978.736,1095.336a.625.625,0,0,1-.626-.626v-36.8a.626.626,0,1,1,1.251,0v36.8A.625.625,0,0,1,978.736,1095.336Z" transform="translate(-966.822 -1055.244)"/>
            <path id="Path_302" data-name="Path 302" d="M998.956,1098.993a.624.624,0,0,1-.626-.625v-36.8a.626.626,0,0,1,1.251,0v36.8A.624.624,0,0,1,998.956,1098.993Z" transform="translate(-981.395 -1057.882)"/>
            <path id="Path_303" data-name="Path 303" d="M1027.286,1102.85a.625.625,0,0,1-.626-.625v-34.7a.626.626,0,1,1,1.251,0v34.7A.625.625,0,0,1,1027.286,1102.85Z" transform="translate(-1001.814 -1062.178)"/>
            <path id="Path_304" data-name="Path 304" d="M1059.6,1109.936a.624.624,0,0,1-.626-.625v-36.8a.626.626,0,1,1,1.251,0v36.8A.624.624,0,0,1,1059.6,1109.936Z" transform="translate(-1025.1 -1065.767)"/>
          </g>
        </g>
      </g>
      <g id="Group_582" data-name="Group 582" transform="translate(286.4 72.194)">
        <path id="Path_305" data-name="Path 305" d="M1025.54,295.259c0,17.865,28.471,60.8,35.294,70.828a1.76,1.76,0,0,0,2.913,0c4.887-7.183,20.867-31.228,29.549-50.866,3.446-7.792,5.742-14.888,5.742-19.962a36.749,36.749,0,1,0-73.5,0Z" transform="translate(-1025.54 -258.51)"/>
        <circle id="Ellipse_25" data-name="Ellipse 25" cx="16.804" cy="16.804" r="16.804" transform="translate(19.945 19.945)" fill="#fff"/>
      </g>
      <g id="Group_602" data-name="Group 602" transform="translate(51.953 171.656)">
        <g id="Group_592" data-name="Group 592" transform="translate(43.654 145.895)">
          <g id="Group_586" data-name="Group 586" transform="translate(0 156.321)">
            <g id="Group_583" data-name="Group 583" transform="translate(26.114)">
              <path id="Path_306" data-name="Path 306" d="M449.391,1699.07l1.84,19.535a.942.942,0,0,1-.793,1.084l-9.7.6a.832.832,0,0,1-.838-.782l-1.8-17.753,11.294-2.684Z" transform="translate(-437.474 -1698.446)" fill="#fff"/>
              <path id="Path_307" data-name="Path 307" d="M439.077,1719.306a1.456,1.456,0,0,1-1.41-1.332l-1.8-17.767a.623.623,0,0,1,.478-.67l11.294-2.684a.612.612,0,0,1,.508.1.631.631,0,0,1,.26.45l1.84,19.535a1.672,1.672,0,0,1-.374,1.248,1.426,1.426,0,0,1-1.005.52l-9.7.6-.087,0Zm-1.916-18.68,1.748,17.208a.235.235,0,0,0,.176.221l9.7-.6a.183.183,0,0,0,.123-.075.423.423,0,0,0,.087-.315l-1.773-18.831-10.059,2.39Z" transform="translate(-435.859 -1696.835)"/>
            </g>
            <g id="Group_584" data-name="Group 584" transform="translate(0 13.489)">
              <path id="Path_308" data-name="Path 308" d="M385.4,1748.361c.645,2.307,2,8.811,2.569,12.721a4.893,4.893,0,0,1-3.569,5.418c-6.711,1.815-22.755,1.737-36.112,2.326a3.441,3.441,0,0,1-3.351-2.622c-2.541-7.518,11.5-9.844,25.374-17.488a.8.8,0,0,1,.857.045c.159.115.363.254.6.405a9.291,9.291,0,0,0,8.878.064l2.768-1.664a1.339,1.339,0,0,1,1.98.793Z" transform="translate(-343.997 -1746.749)" fill="#fff"/>
              <path id="Path_309" data-name="Path 309" d="M346.524,1767.845a4.1,4.1,0,0,1-3.826-3.05c-1.955-5.783,4.533-8.593,13.514-12.483,3.734-1.617,7.968-3.452,12.151-5.756a1.423,1.423,0,0,1,1.522.084c.154.109.346.243.575.388a8.685,8.685,0,0,0,8.219.056l2.768-1.664a1.962,1.962,0,0,1,2.9,1.162c.667,2.394,2.019,8.9,2.586,12.8a5.52,5.52,0,0,1-4.024,6.113c-5.063,1.368-15.069,1.667-25.662,1.983-3.524.106-7.169.215-10.587.366l-.142,0Zm22.537-20.214a.2.2,0,0,0-.095.025c-4.234,2.332-8.5,4.178-12.257,5.806-8.367,3.625-14.413,6.241-12.827,10.933a2.815,2.815,0,0,0,2.731,2.2c3.427-.151,7.077-.26,10.6-.366,10.517-.313,20.451-.612,25.371-1.941a4.271,4.271,0,0,0,3.114-4.725c-.545-3.753-1.9-10.3-2.552-12.643a.719.719,0,0,0-.424-.477.709.709,0,0,0-.631.053l-2.768,1.664a9.936,9.936,0,0,1-9.537-.073c-.251-.159-.464-.3-.631-.425A.17.17,0,0,0,369.061,1747.631Z" transform="translate(-342.349 -1745.137)"/>
            </g>
            <g id="Group_585" data-name="Group 585" transform="translate(0.192 26.688)">
              <path id="Path_310" data-name="Path 310" d="M388.825,1796.925c.014.067.022.115.025.137.357,2.455-1.974,3.963-4.2,5.01-6.613,3.1-33.317,1.324-34.347,1.254h-.056c-.332.006-3.723.006-4.7-2.1a3.612,3.612,0,0,1-.243-.975,4.794,4.794,0,0,1,.089-1.692.812.812,0,0,1,.991-.62c4.957,1.268,16.53,1.69,28.094.413,7.688-.846,11.028-2.525,12.81-3.589a.815.815,0,0,1,1.218.55c.092.467.2,1.036.318,1.614Z" transform="translate(-344.641 -1794.017)" fill="#fff"/>
              <path id="Path_311" data-name="Path 311" d="M365.437,1802.9c-8.269,0-16.178-.528-16.784-.567-.433-.006-4.144-.008-5.281-2.466a3.994,3.994,0,0,1-.293-1.156,5.486,5.486,0,0,1,.1-1.91,1.45,1.45,0,0,1,.656-.925,1.423,1.423,0,0,1,1.1-.167c4.594,1.176,15.924,1.715,27.874.4,7.362-.81,10.693-2.388,12.559-3.5a1.431,1.431,0,0,1,1.318-.081,1.449,1.449,0,0,1,.832,1.047l.318,1.617c.017.084.028.142.031.168.43,2.957-2.393,4.65-4.555,5.663C380.16,1802.5,372.662,1802.9,365.437,1802.9Zm-16.8-1.818h.1c9.517.648,28.871,1.234,34.046-1.2,2.9-1.363,4.088-2.706,3.848-4.354l-.02-.1h0l-.318-1.614a.185.185,0,0,0-.115-.145.171.171,0,0,0-.17.011c-1.966,1.176-5.46,2.837-13.064,3.675-12.1,1.329-23.618.771-28.321-.43a.189.189,0,0,0-.137.02.2.2,0,0,0-.089.131,4.207,4.207,0,0,0-.078,1.472,2.783,2.783,0,0,0,.19.793c.818,1.768,3.98,1.734,4.122,1.74h0Z" transform="translate(-343.036 -1792.398)"/>
            </g>
            <path id="Path_312" data-name="Path 312" d="M421.1,1765a.629.629,0,0,1-.38-.128l-4.052-3.086a.627.627,0,0,1,.76-1l4.052,3.086a.626.626,0,0,1-.38,1.123Z" transform="translate(-395.735 -1742.835)"/>
            <path id="Path_313" data-name="Path 313" d="M403.132,1773.995a.623.623,0,0,1-.374-.126l-3.544-2.659a.626.626,0,0,1,.751-1l3.544,2.659a.627.627,0,0,1,.126.877.618.618,0,0,1-.5.249Z" transform="translate(-383.153 -1749.628)"/>
          </g>
          <g id="Group_587" data-name="Group 587" transform="translate(9.601)">
            <path id="Path_314" data-name="Path 314" d="M491.128,1139.31s6.621,13.251,8.85,27.209c2.075,13,9.7,66.508,28.281,109.431,2.106,4.865-.327,9.931-5.507,11.059-2.072.452-2.941-.288-4.736-1.159a16.215,16.215,0,0,1-2.458-1.779s-32.9-27.494-46.308-99.629c-8.627-46.4-7.191-42.717-7.191-42.717l29.072-2.416Z" transform="translate(-438.164 -1138.688)" fill="#fff"/>
            <path id="Path_315" data-name="Path 315" d="M422.176,1161.013s3.862,25.182-3.443,43.809c-7.024,17.912-11.509,88.14-8.889,108.429a2.339,2.339,0,0,1-1.994,2.622c-3.195.45-8.956,1.058-12.9.321a1.881,1.881,0,0,1-1.489-1.382c-2.6-10.294-24.176-103.343-8.964-151.028l37.676-2.773Z" transform="translate(-378.448 -1154.328)" fill="#fff"/>
            <path id="Path_316" data-name="Path 316" d="M505.252,1325.406h-.039a.623.623,0,0,1-.586-.662,65.16,65.16,0,0,1,4.923-19.348,36.334,36.334,0,0,0,2.055-6.633.625.625,0,1,1,1.223.263,37.906,37.906,0,0,1-2.128,6.862,63.73,63.73,0,0,0-4.826,18.929.626.626,0,0,1-.623.589Z" transform="translate(-468.907 -1253.255)"/>
            <path id="Path_317" data-name="Path 317" d="M433.939,1243.259a6.852,6.852,0,0,1-2.807-.6l-6.909-3.094a6.229,6.229,0,0,1-3.692-5.9l.433-13.6a2.257,2.257,0,0,1,2.5-2.17,82.9,82.9,0,0,0,19.75-.5h0a2.257,2.257,0,0,1,2.58,2.354l-.765,14.24a6.228,6.228,0,0,1-2.578,4.728l-4.474,3.237a6.889,6.889,0,0,1-4.035,1.3Zm-10.718-24.123a1.006,1.006,0,0,0-.662.249.988.988,0,0,0-.343.723l-.433,13.6a4.983,4.983,0,0,0,2.955,4.722l6.909,3.094a5.639,5.639,0,0,0,5.6-.575l4.474-3.237a4.974,4.974,0,0,0,2.061-3.781l.765-14.24a1,1,0,0,0-.327-.8,1.025,1.025,0,0,0-.827-.254,84.03,84.03,0,0,1-20.06.505c-.036,0-.073-.006-.109-.006Z" transform="translate(-408.296 -1194.952)"/>
            <path id="Path_318" data-name="Path 318" d="M560.109,1237.145a2.322,2.322,0,0,1-1.047-.251l-7.607-3.865a2.3,2.3,0,0,1-1.246-1.8l-1.715-15.84a2.3,2.3,0,0,1,1.935-2.522l7.188-1.134a.625.625,0,0,1,.2,1.234l-7.191,1.134a1.05,1.05,0,0,0-.885,1.151l1.715,15.84a1.053,1.053,0,0,0,.567.824l7.61,3.865a1.051,1.051,0,0,0,1.084-.078l1.81-1.223a.625.625,0,1,1,.7,1.036l-1.8,1.218a2.267,2.267,0,0,1-1.315.419Z" transform="translate(-500.515 -1190.876)"/>
            <path id="Path_319" data-name="Path 319" d="M397.67,1299.917a25.53,25.53,0,0,1-4.552-.352,2.519,2.519,0,0,1-1.98-1.843c-.254-1-25.117-100.7-8.953-151.372a.624.624,0,0,1,.55-.433l17.692-1.3c-.751-4.971-.623-5.007-.025-5.167a.666.666,0,0,1,.413.028l28.823-2.393a.627.627,0,0,1,.612.344c.067.134,6.691,13.5,8.906,27.391.12.751.26,1.639.416,2.653,2.558,16.387,10.344,66.259,27.821,106.627a8.852,8.852,0,0,1-.092,7.574,8.4,8.4,0,0,1-5.856,4.345,5.613,5.613,0,0,1-4.357-.81c-.246-.126-.5-.26-.785-.4a16.49,16.49,0,0,1-2.594-1.868c-.249-.207-25.447-21.747-40.62-74.807-4.089,27.432-6.356,72.213-4.345,87.8a2.978,2.978,0,0,1-2.527,3.321,64.637,64.637,0,0,1-8.546.67Zm-14.419-152.785c-15.8,50.458,8.85,149.285,9.1,150.282a1.249,1.249,0,0,0,1,.922c3.873.726,9.615.106,12.693-.327a1.721,1.721,0,0,0,1.461-1.921c-2.134-16.538.33-63.318,4.792-91.005a.628.628,0,0,1,.584-.525.617.617,0,0,1,.637.461c14.958,54.678,40.745,76.754,41,76.969a15.1,15.1,0,0,0,2.329,1.7c.293.142.561.279.813.411a4.378,4.378,0,0,0,3.516.7,7.178,7.178,0,0,0,5.007-3.692,7.606,7.606,0,0,0,.059-6.5c-17.538-40.513-25.344-90.505-27.91-106.932-.159-1.011-.3-1.9-.416-2.65-1.98-12.405-7.523-24.391-8.607-26.651l-28.139,2.338c.047.584.193,1.812.589,4.393a.612.612,0,0,1-.128.483.627.627,0,0,1-.444.234l-17.943,1.321Z" transform="translate(-376.727 -1137.081)"/>
          </g>
          <g id="Group_591" data-name="Group 591" transform="translate(90.063 138.835)">
            <g id="Group_588" data-name="Group 588">
              <path id="Path_320" data-name="Path 320" d="M671.973,1655.809c-1.2-5.465-1.692-6.585-4.4-10.766-2.014-3.108,2.656-7.934,5.071-8.339,4.024-.9,3.4.385,8.13,6.225l3.7,4.384s-11.45,13.274-12.494,8.5Z" transform="translate(-666.456 -1635.822)" fill="#fff"/>
              <path id="Path_321" data-name="Path 321" d="M671.439,1655.864a1.691,1.691,0,0,1-.419-.05,1.744,1.744,0,0,1-1.268-1.472c-1.2-5.488-1.706-6.532-4.315-10.559a4.3,4.3,0,0,1-.092-4.217c1.031-2.34,3.692-4.761,5.583-5.08,3.39-.762,4.007.092,6.046,2.918.67.93,1.505,2.086,2.673,3.527l3.689,4.373a.626.626,0,0,1-.006.813c-1.449,1.681-8.579,9.744-11.891,9.744Zm-.466-1.79c.1.464.285.511.355.528,1.664.425,7.133-4.823,10.707-8.9l-3.351-3.974c-1.2-1.48-2.044-2.65-2.723-3.594-2.008-2.784-2.173-3.013-4.789-2.424-1.371.232-3.739,2.223-4.681,4.356a3.08,3.08,0,0,0,0,3.033c2.8,4.318,3.3,5.549,4.488,10.972Z" transform="translate(-664.844 -1634.22)"/>
            </g>
            <path id="Path_322" data-name="Path 322" d="M672.715,1660.241a1.692,1.692,0,0,1-.419-.05,1.743,1.743,0,0,1-1.268-1.472,29.386,29.386,0,0,0-4.32-10.568.627.627,0,0,1,1.064-.662,30.46,30.46,0,0,1,4.482,10.964c.1.464.285.511.355.528,1.662.419,7.13-4.82,10.7-8.895l-3.161-3.717a57.833,57.833,0,0,1-3.605-5.119.625.625,0,1,1,1.061-.662,57.9,57.9,0,0,0,3.508,4.982l3.5,4.116a.626.626,0,0,1,0,.813c-1.449,1.681-8.579,9.744-11.891,9.744Z" transform="translate(-666.12 -1638.598)"/>
            <g id="Group_589" data-name="Group 589" transform="translate(3.369 7.267)">
              <path id="Path_323" data-name="Path 323" d="M680,1672.526l4.549-7.141a6.29,6.29,0,0,1,9.626-1.192l5.435,4.4a13.76,13.76,0,0,1,.79,5.069,42.083,42.083,0,0,1-2.692,10.012c-2.382,5.686-9.057,17.141-11.43,21.166-.5.843-1.768,1.692-2.667,1.31a12.5,12.5,0,0,1-3.265-2.268c-1.673-1.513-1.251-8.733-.751-13.765.318-3.226-.109-11.433-.31-14.818a4.635,4.635,0,0,1,.721-2.768Z" transform="translate(-678.524 -1661.85)" fill="#fff"/>
              <path id="Path_324" data-name="Path 324" d="M682.477,1705.253a1.859,1.859,0,0,1-.732-.145,12.924,12.924,0,0,1-3.441-2.379c-.539-.486-2.176-1.969-.955-14.29.316-3.181-.112-11.352-.313-14.718a5.238,5.238,0,0,1,.815-3.139l4.549-7.141a6.914,6.914,0,0,1,10.582-1.31l5.4,4.362a.615.615,0,0,1,.2.279,14.156,14.156,0,0,1,.818,5.365,42.894,42.894,0,0,1-2.734,10.165c-2.363,5.636-8.808,16.734-11.47,21.244a3.56,3.56,0,0,1-2.72,1.712Zm-4.094-34.336.528.335a3.987,3.987,0,0,0-.623,2.393c.2,3.4.631,11.646.307,14.916-1.047,10.554.036,12.774.55,13.24a11.671,11.671,0,0,0,3.091,2.156c.519.223,1.5-.405,1.885-1.05,2.647-4.488,9.059-15.527,11.394-21.09a41.53,41.53,0,0,0,2.65-9.861,12.489,12.489,0,0,0-.707-4.608l-5.292-4.281a5.671,5.671,0,0,0-8.708,1.042l-4.549,7.141-.528-.335Z" transform="translate(-676.907 -1660.241)"/>
            </g>
            <path id="Path_325" data-name="Path 325" d="M679.094,1722.512a.626.626,0,0,1-.176-1.226l5.01-1.474a.626.626,0,0,1,.352,1.2l-5.01,1.474A.64.64,0,0,1,679.094,1722.512Z" transform="translate(-674.663 -1695.889)"/>
            <path id="Path_326" data-name="Path 326" d="M680.714,1738.584a.626.626,0,0,1-.176-1.226l5.01-1.475a.626.626,0,0,1,.352,1.2l-5.01,1.475A.634.634,0,0,1,680.714,1738.584Z" transform="translate(-675.831 -1707.474)"/>
            <g id="Group_590" data-name="Group 590" transform="translate(3.346 11.387)">
              <path id="Path_327" data-name="Path 327" d="M685.5,1717.11a4.452,4.452,0,0,1-1.449-.21c-1.511-.491-5.292-1.542-4.971-6.94.332-5.594,4.532-8.518,7.568-12.24,2.318-2.84,1.868-14.536,2.572-16.843,1.259-4.13,7.247-4.859,10.325-1.659,1.944,2.019,2.248,6.479,2.122,9.763-.237,6.15-3.628,18.446-8.088,24.436C691.4,1716.339,687.981,1717.065,685.5,1717.11Z" transform="translate(-678.437 -1676.603)" fill="#fff"/>
              <path id="Path_328" data-name="Path 328" d="M683.8,1716.126a5.016,5.016,0,0,1-1.55-.24l-.134-.042c-1.533-.494-5.61-1.8-5.267-7.529.271-4.527,2.932-7.378,5.507-10.137.743-.8,1.511-1.62,2.2-2.463,1.4-1.718,1.723-7.423,1.958-11.587a29.9,29.9,0,0,1,.5-5.041,5.746,5.746,0,0,1,4.348-3.89,7.48,7.48,0,0,1,7.026,1.98c2.251,2.34,2.4,7.406,2.3,10.221-.226,5.915-3.538,18.513-8.21,24.785-2.488,3.343-6.437,3.9-8.571,3.943h-.1Zm9.3-39.885a6.2,6.2,0,0,0-1.447.17,4.534,4.534,0,0,0-3.443,3.041,31.828,31.828,0,0,0-.447,4.748c-.26,4.577-.581,10.274-2.24,12.307-.715.877-1.5,1.715-2.254,2.525-2.536,2.714-4.932,5.278-5.175,9.355-.285,4.759,2.765,5.739,4.4,6.264l.137.045a3.968,3.968,0,0,0,1.243.179h0c1.9-.033,5.421-.528,7.59-3.441,4.53-6.085,7.741-18.328,7.962-24.087.17-4.449-.539-7.842-1.947-9.305a6.116,6.116,0,0,0-4.384-1.8Z" transform="translate(-676.827 -1674.994)"/>
            </g>
            <path id="Path_329" data-name="Path 329" d="M690.6,1722.742a4.52,4.52,0,0,1-3.385-1.4,3.78,3.78,0,0,1-.927-3.033c.7-5.837,3.809-8.928,7.1-12.2,2.522-2.508,3.044-11.268,3.3-15.48a20.979,20.979,0,0,1,.237-2.709c.444-1.745,2.65-3.4,4.921-3.695a4.751,4.751,0,0,1,4.963,2.538.625.625,0,1,1-1.095.6,3.474,3.474,0,0,0-3.709-1.9c-1.927.249-3.586,1.656-3.868,2.762-.07.271-.128,1.293-.2,2.477-.282,4.7-.8,13.447-3.661,16.29-3.27,3.253-6.094,6.06-6.744,11.467a2.511,2.511,0,0,0,.614,2.047,3.289,3.289,0,0,0,2.533.989,12.648,12.648,0,0,0,1.648-.134.632.632,0,0,1,.709.528.624.624,0,0,1-.528.709,14.154,14.154,0,0,1-1.81.148h-.1Z" transform="translate(-680.28 -1670.224)"/>
          </g>
        </g>
        <g id="Group_596" data-name="Group 596" transform="translate(67.372 20.751)">
          <g id="Group_593" data-name="Group 593" transform="translate(8.848 21.426)">
            <path id="Path_330" data-name="Path 330" d="M477.479,784.269,474.5,767.94l-13.3,3.424,1.838,11.369Z" transform="translate(-460.575 -767.312)" fill="#fff"/>
            <path id="Path_331" data-name="Path 331" d="M475.866,783.274a.547.547,0,0,1-.067,0l-14.444-1.539a.625.625,0,0,1-.55-.522l-1.835-11.369a.628.628,0,0,1,.461-.707l13.3-3.424a.641.641,0,0,1,.494.078.634.634,0,0,1,.279.413l2.974,16.329a.627.627,0,0,1-.614.74Zm-13.9-2.734,13.137,1.4-2.7-14.846-12.1,3.114Z" transform="translate(-458.962 -765.692)"/>
          </g>
          <g id="Group_595" data-name="Group 595">
            <path id="Path_332" data-name="Path 332" d="M439.093,689.036c4.756.645,5.4,6.013,11.084,6.644,2.6.29,3.913-.679,6.219.43,1.528.734,3.751,2.5,3.977,4.84.29,2.977-2.977,3.622-6.311,9.353-2.343,4.027-2.486,6.722-4.348,7.012-1.885.293-2.726-2.307-4.809-2.139-2.695.215-3.047,4.714-5.89,6.055-1.793.846-5.546.67-10.844-3.3a2.227,2.227,0,0,1-.659-2.77c.612-1.232,1.394-2.781,2.265-4.2,4.156-6.761,7.088-7.9,6.507-9.978-.885-3.178-6.716-2.589-7.166-5.144-.466-2.653,5.088-7.468,9.973-6.806Z" transform="translate(-427.279 -688.969)"/>
            <g id="Group_594" data-name="Group 594" transform="translate(1.843 7.928)">
              <path id="Path_333" data-name="Path 333" d="M452.7,724.911l-1.265-.659s-4.1,8.562-5.705,10.755-8.775-2.262-8.775-2.262l-.176-1.581-.857-.559a1.048,1.048,0,0,1-.165-1.625c1.729-1.715,5.4-5.6,7.186-9.392a11.576,11.576,0,0,1,9.758,5.323Z" transform="translate(-435.005 -718.962)" fill="#fff"/>
              <path id="Path_334" data-name="Path 334" d="M452.034,723.724c-.274-.034-.609-.047-.983-.126a4.186,4.186,0,0,1-1.042-.383l.874-.293c-.785,1.642-1.57,3.279-2.4,4.9s-1.664,3.234-2.6,4.826c-.249.4-.475.779-.793,1.212a2.04,2.04,0,0,1-.8.6,2.823,2.823,0,0,1-.866.2,7.6,7.6,0,0,1-2.927-.528,28.006,28.006,0,0,1-5-2.46.624.624,0,0,1-.293-.466c-.05-.528-.123-1.053-.159-1.583l.274.447c-.249-.182-.48-.391-.718-.586-.047-.042-.14-.109-.223-.193a1.876,1.876,0,0,1-.212-.26,1.732,1.732,0,0,1-.251-.6,1.507,1.507,0,0,1,.288-1.234c.162-.19.235-.246.352-.371l.318-.327c.852-.874,1.662-1.79,2.432-2.734s1.5-1.921,2.164-2.927a22.791,22.791,0,0,0,1.782-3.117l.006-.011a.6.6,0,0,1,.522-.346,11.147,11.147,0,0,1,3.061.366,12.257,12.257,0,0,1,2.84,1.106,12.091,12.091,0,0,1,2.48,1.782,13.136,13.136,0,0,1,1.039,1.12c.168.193.313.4.466.6l.056.075c.025.036.067.1.1.151a1.717,1.717,0,0,1,.173.4,2.218,2.218,0,0,1,.045.765Zm-.927-.841a.381.381,0,0,0-.369.168.212.212,0,0,0-.034.1c0,.006.006.017-.006,0l-.053-.067c-.142-.179-.276-.366-.43-.536a10.943,10.943,0,0,0-.947-.991,10.816,10.816,0,0,0-2.206-1.6,11,11,0,0,0-2.544-1.005,10.255,10.255,0,0,0-2.673-.346l.528-.358a28.855,28.855,0,0,1-4.317,6.152q-1.24,1.395-2.547,2.72l-.62.623a.6.6,0,0,0-.123.506.479.479,0,0,0,.128.229.485.485,0,0,0,.106.075l.154.073c.276.14.561.265.829.422a.544.544,0,0,1,.265.385l.011.061c.081.525.128,1.053.193,1.581l-.293-.466a26.569,26.569,0,0,0,4.764,2.29,6.5,6.5,0,0,0,2.388.436,1.012,1.012,0,0,0,.729-.3c.218-.3.469-.693.693-1.064.9-1.53,1.743-3.139,2.564-4.745s1.639-3.226,2.43-4.848v-.008a.645.645,0,0,1,.857-.293l.02.008a.4.4,0,0,1,.223.274,1.629,1.629,0,0,0,.282.533Z" transform="translate(-433.878 -717.356)"/>
            </g>
            <path id="Path_335" data-name="Path 335" d="M487.57,754.24s3.3-4.035,4.817-2.148S490.164,758.334,487.57,754.24Z" transform="translate(-470.733 -734.101)" fill="#fff"/>
          </g>
        </g>
        <g id="Group_601" data-name="Group 601">
          <g id="Group_597" data-name="Group 597" transform="translate(138.969 163.286)">
            <path id="Path_336" data-name="Path 336" d="M686.2,1201.892s-1.03,10.157.74,13.829,13.282,10.69,13.282,10.69,3.491-2.229,0-5.077a22.616,22.616,0,0,1-4.9-5.22s.715-10.808-.852-13.05-8.272-1.173-8.272-1.173Z" transform="translate(-685.274 -1201)" fill="#fff"/>
            <path id="Path_337" data-name="Path 337" d="M698.6,1225.394a.629.629,0,0,1-.327-.092c-.478-.29-11.69-7.158-13.519-10.953s-.843-13.743-.8-14.164a.626.626,0,0,1,.525-.556c.726-.117,7.144-1.061,8.884,1.433,1.569,2.248,1.086,11.433.975,13.243a23.544,23.544,0,0,0,4.658,4.9,3.95,3.95,0,0,1,1.776,3.231,4.1,4.1,0,0,1-1.835,2.857.642.642,0,0,1-.338.1Zm-13.444-24.6c-.173,2.044-.734,9.981.726,13.008,1.335,2.77,9.277,8.1,12.679,10.2a2.538,2.538,0,0,0,.961-1.651,2.823,2.823,0,0,0-1.318-2.184,23.049,23.049,0,0,1-5.041-5.384.628.628,0,0,1-.087-.36c.271-4.094.31-11.148-.74-12.648-.916-1.31-4.7-1.307-7.183-.983Z" transform="translate(-683.652 -1199.356)"/>
          </g>
          <g id="Group_598" data-name="Group 598">
            <path id="Path_338" data-name="Path 338" d="M199.464,640.848l.807-5.379a6.883,6.883,0,0,0-.813-4.407l-7.7-13.648a.991.991,0,0,0-1.569-.221c-.771.8-1.53,2.273-.433,4.58l1.812,3.446a1.767,1.767,0,0,1-.5,2.217,6.85,6.85,0,0,0-2.72,4.438c-.793,5.879,5.669,10.118,5.669,10.118l5.449-1.145Z" transform="translate(-187.652 -616.276)" fill="#fff"/>
            <path id="Path_339" data-name="Path 339" d="M192.4,641.005a.612.612,0,0,1-.343-.1c-.276-.182-6.783-4.524-5.946-10.724a7.454,7.454,0,0,1,2.957-4.848,1.14,1.14,0,0,0,.33-1.433l-1.812-3.446c-1.315-2.762-.229-4.507.533-5.3a1.573,1.573,0,0,1,1.346-.472,1.643,1.643,0,0,1,1.22.818l7.7,13.648a7.544,7.544,0,0,1,.885,4.806l-.807,5.379a.624.624,0,0,1-.489.519l-5.449,1.145A.666.666,0,0,1,192.4,641.005Zm-3.136-25.092a.319.319,0,0,0-.24.1c-.961,1-1.067,2.3-.318,3.876l1.8,3.424a2.4,2.4,0,0,1-.67,3,6.235,6.235,0,0,0-2.485,4.027c-.653,4.84,4.122,8.6,5.186,9.367l4.759-1,.743-4.949a6.3,6.3,0,0,0-.737-4.008l-7.7-13.648a.391.391,0,0,0-.288-.193h-.047Zm8.585,23.322h0Z" transform="translate(-186.034 -614.663)"/>
          </g>
          <path id="Path_340" data-name="Path 340" d="M617.515,948.977H604.189s-2.882-47.322-28.279-62.634l1.938-38.053s53.242,29.619,39.667,100.69Z" transform="translate(-467.03 -783.045)" fill="#bf4804"/>
          <g id="Group_599" data-name="Group 599" transform="translate(47.429 106.429)">
            <path id="Path_341" data-name="Path 341" d="M418.6,1004.581l9.956,47.308s-40.544,6.954-54.675,4.415-15.781-6.264-15.781-6.264l5.974-52.03Z" transform="translate(-357.477 -997.383)" fill="#fff"/>
            <path id="Path_342" data-name="Path 342" d="M380.528,1055.873a49.453,49.453,0,0,1-8.364-.573c-14.05-2.525-16.061-6.214-16.242-6.627a.65.65,0,0,1-.05-.324l5.974-52.03a.629.629,0,0,1,.7-.55l54.527,6.571a.623.623,0,0,1,.536.491l9.956,47.308a.623.623,0,0,1-.095.48.613.613,0,0,1-.411.265c-1.4.24-29.312,4.988-46.526,4.988Zm-23.389-7.593c.452.612,3.228,3.633,15.245,5.789,12.9,2.315,48.584-3.441,53.818-4.309l-9.73-46.233-53.457-6.443-5.876,51.193Z" transform="translate(-355.868 -995.764)"/>
          </g>
          <path id="Path_343" data-name="Path 343" d="M287.973,734.693l20.451,6.429,8.847,67.734a6.984,6.984,0,0,1-4.5,7.462c-9.8,3.611-32.942,9.987-64.9,5.049a6.988,6.988,0,0,1-5.909-6.736c-.285-11.355-.492-36.838,2.72-51.477,0,0-45.091-.042-42.482-60.978l9.431-2.575s15.851,35.813,43.208,34.428c0,0,18.32-3.991,33.132.667Z" transform="translate(-197.606 -675.88)" fill="#bf4804"/>
          <g id="Group_600" data-name="Group 600" transform="translate(72.276 56.24)">
            <path id="Path_344" data-name="Path 344" d="M447.08,818.765s17.717-1.687,31.811,1.1c8.353,1.651,24.2,7.814,12.1,20.244s-20.417,11.249-24.405,4.292S455.489,821.356,447.08,818.765Z" transform="translate(-446.454 -817.641)" fill="#fff"/>
            <path id="Path_345" data-name="Path 345" d="M473.14,848.6a9.608,9.608,0,0,1-8.71-5.485c-.681-1.187-1.466-2.664-2.3-4.231-4.027-7.582-10.115-19.043-16.854-21.121a.625.625,0,0,1,.126-1.22c.179-.017,17.971-1.664,31.993,1.109,2.4.475,14.472,3.2,16.664,10.241,1.05,3.368-.374,7.088-4.234,11.053-6.169,6.342-11.905,9.654-16.689,9.654Zm-25.184-30.993c6.247,3.681,11.6,13.765,15.284,20.691.827,1.556,1.606,3.024,2.279,4.195a8.84,8.84,0,0,0,6.546,4.789c4.616.575,10.445-2.6,16.871-9.207,3.513-3.614,4.84-6.915,3.935-9.811-1.539-4.937-9.425-8.141-15.714-9.386-10.788-2.134-23.872-1.614-29.2-1.273Z" transform="translate(-444.838 -816.046)"/>
          </g>
          <path id="Path_346" data-name="Path 346" d="M518.484,846.2c-4.572,0-9.867-2.231-15.994-6.711-5.085-3.72-6.535-3.857-6.714-3.857a.626.626,0,0,1-.441-1.165c.919-.464,3.723.964,7.895,4.01,9.744,7.127,16.9,8.364,22.531,3.887a.626.626,0,0,1,.779.98,12.6,12.6,0,0,1-8.054,2.854Zm-22.59-10.615Zm0,0Zm0,0Z" transform="translate(-408.708 -773.022)"/>
        </g>
      </g>
      <g id="Group_606" data-name="Group 606" transform="translate(250.427)">
        <path id="Path_347" data-name="Path 347" d="M1197.157,1601.438a7.146,7.146,0,0,1-2.592-.489,7.273,7.273,0,0,1-4.058-3.932,7.455,7.455,0,0,1,3.717-9.738,7.094,7.094,0,0,1,5.516-.143,7.273,7.273,0,0,1,4.058,3.932,7.455,7.455,0,0,1-3.717,9.738,7.114,7.114,0,0,1-2.927.631Zm-2.418-13.019a6.2,6.2,0,0,0-3.08,8.1,6.022,6.022,0,0,0,3.362,3.262,5.858,5.858,0,0,0,4.549-.117,6.2,6.2,0,0,0,3.08-8.1,6.013,6.013,0,0,0-3.362-3.262A5.847,5.847,0,0,0,1194.739,1588.419Z" transform="translate(-1108.023 -1143.547)"/>
        <path id="Path_348" data-name="Path 348" d="M1679.306,471.925a5.238,5.238,0,1,1,5.236-5.239A5.243,5.243,0,0,1,1679.306,471.925Zm0-9.224a3.987,3.987,0,1,0,3.985,3.985A3.989,3.989,0,0,0,1679.306,462.7Z" transform="translate(-1456.983 -332.581)"/>
        <g id="Group_603" data-name="Group 603">
          <path id="Path_349" data-name="Path 349" d="M924.464,4.1a.624.624,0,0,1-.589-.838L924.9.411a.626.626,0,1,1,1.178.424l-1.028,2.851a.627.627,0,0,1-.589.413Z" transform="translate(-916.266 0.003)"/>
          <path id="Path_350" data-name="Path 350" d="M911.594,39.85a.624.624,0,0,1-.589-.838l1.028-2.851a.626.626,0,1,1,1.178.424l-1.028,2.851A.627.627,0,0,1,911.594,39.85Z" transform="translate(-906.991 -25.763)"/>
          <path id="Path_351" data-name="Path 351" d="M900.15,16.8a.68.68,0,0,1-.221-.039l-2.8-1.053a.627.627,0,0,1,.441-1.173l2.8,1.053a.626.626,0,0,1-.221,1.212Z" transform="translate(-896.728 -10.446)"/>
          <path id="Path_352" data-name="Path 352" d="M935.17,30a.68.68,0,0,1-.221-.039l-2.8-1.053a.627.627,0,1,1,.441-1.173l2.8,1.053A.626.626,0,0,1,935.17,30Z" transform="translate(-921.968 -19.962)"/>
        </g>
        <g id="Group_604" data-name="Group 604" transform="translate(51.398 17.041)">
          <path id="Path_353" data-name="Path 353" d="M1326,195.378a.622.622,0,0,1-.52-.279c-36.168-54.122-114.634-92.329-115.421-92.709a.626.626,0,0,1,.542-1.128,399.633,399.633,0,0,1,44.155,25.922c22.246,14.966,52.756,38.779,71.764,67.22a.626.626,0,0,1-.173.869.608.608,0,0,1-.346.106Z" transform="translate(-1173.695 -89.979)"/>
          <path id="Path_354" data-name="Path 354" d="M1434.263,215.184a.628.628,0,0,1-.547-.318c-24.713-44.088-90.611-84.347-91.276-84.749a.625.625,0,1,1,.648-1.07c.665.4,66.843,40.832,91.717,85.207a.624.624,0,0,1-.24.852.637.637,0,0,1-.3.081Z" transform="translate(-1269.147 -109.983)"/>
          <path id="Path_355" data-name="Path 355" d="M1089.768,75.791h-.031a.621.621,0,0,1-.5-.3l-8.367-13.522a.626.626,0,0,1,.6-.952l17.144,1.93a.626.626,0,0,1,.43,1l-8.777,11.6a.627.627,0,0,1-.5.249Zm-7.155-13.385,7.208,11.654,7.563-9.992-14.773-1.662Z" transform="translate(-1080.774 -61.017)"/>
        </g>
        <g id="Group_605" data-name="Group 605" transform="translate(48.815 455.808)">
          <path id="Path_356" data-name="Path 356" d="M1105.353,1637.212a.5.5,0,0,1-.092-.006.625.625,0,0,1-.528-.709l.556-3.812a.625.625,0,0,1,1.237.182l-.556,3.812a.627.627,0,0,1-.617.536Z" transform="translate(-1095.454 -1632.149)"/>
          <path id="Path_357" data-name="Path 357" d="M1098.393,1684.992a.509.509,0,0,1-.092-.006.625.625,0,0,1-.528-.709l.556-3.812a.625.625,0,1,1,1.237.181l-.556,3.812a.627.627,0,0,1-.617.536Z" transform="translate(-1090.438 -1666.585)"/>
          <path id="Path_358" data-name="Path 358" d="M1075.965,1660.172a.509.509,0,0,1-.092-.006l-3.812-.559a.625.625,0,1,1,.182-1.237l3.812.559a.626.626,0,0,1-.089,1.245Z" transform="translate(-1071.526 -1651.042)"/>
          <path id="Path_359" data-name="Path 359" d="M1123.745,1667.17a.507.507,0,0,1-.092-.006l-3.812-.559a.626.626,0,0,1-.528-.709.619.619,0,0,1,.709-.528l3.812.558a.626.626,0,0,1-.089,1.246Z" transform="translate(-1105.963 -1656.086)"/>
        </g>
      </g>
    </g>
  </g>
</svg>
