<svg xmlns="http://www.w3.org/2000/svg" width="28.519" height="28.513" viewBox="0 0 28.519 28.513">
  <g id="Group_475" data-name="Group 475" transform="translate(0.257 0.249)">
    <path id="Path_110" data-name="Path 110" d="M27.975,27.445l-4.1-10.8a.41.41,0,0,0-.182-.212l-4.369-2.461L20.6,11.945a7.793,7.793,0,1,0-13.192,0l1.275,2.022L4.312,16.429a.41.41,0,0,0-.182.212l-4.1,10.8a.41.41,0,0,0,.585.5l6.594-3.715L13.8,27.948a.41.41,0,0,0,.4,0L20.8,24.233l6.594,3.715a.41.41,0,0,0,.585-.5ZM14.412,21.259a1.227,1.227,0,0,0,.63-.5l3.513-5.569,1.778,8.368-5.921,3.336ZM8.1,11.508a6.972,6.972,0,1,1,11.8,0c-.055.087-5.459,8.657-5.553,8.8l0,0a.41.41,0,0,1-.694,0L8.1,11.511l0,0ZM4.844,17.071l3.824-2.154L8,18.05a.41.41,0,1,0,.8.171l.645-3.035,3.512,5.57a1.232,1.232,0,0,0,.63.5v5.63L7.671,23.553l.792-3.727a.41.41,0,1,0-.8-.171L6.844,23.5,1.2,26.677ZM21.159,23.5l-1.823-8.58,3.823,2.154,3.647,9.607Z" transform="translate(0 0)" stroke="#000" stroke-width="0.5"/>
    <path id="Path_111" data-name="Path 111" d="M181.58,64.04a4.04,4.04,0,1,0-4.04,4.04A4.044,4.044,0,0,0,181.58,64.04Zm-7.345,0a3.305,3.305,0,1,1,3.305,3.305A3.309,3.309,0,0,1,174.236,64.04Z" transform="translate(-163.539 -56.246)" stroke="#000" stroke-width="0.5"/>
  </g>
</svg>
